<svg xmlns="http://www.w3.org/2000/svg" viewBox="0 0 64 128" width="64" height="128" shape-rendering="crispEdges">
  <rect width="64" height="128" fill="#020406"/>
  <g fill="#fff"><rect x="0" y="0" width="63" height="1"/><rect x="0" y="1" width="1" height="1"/><rect x="62" y="1" width="1" height="1"/><rect x="0" y="2" width="1" height="1"/><rect x="62" y="2" width="1" height="1"/><rect x="0" y="3" width="1" height="1"/><rect x="62" y="3" width="1" height="1"/><rect x="0" y="4" width="1" height="1"/><rect x="62" y="4" width="1" height="1"/><rect x="0" y="5" width="1" height="1"/><rect x="62" y="5" width="1" height="1"/><rect x="0" y="6" width="1" height="1"/><rect x="62" y="6" width="1" height="1"/><rect x="0" y="7" width="1" height="1"/><rect x="62" y="7" width="1" height="1"/><rect x="0" y="8" width="1" height="1"/><rect x="62" y="8" width="1" height="1"/><rect x="0" y="9" width="1" height="1"/><rect x="4" y="9" width="1" height="1"/><rect x="62" y="9" width="1" height="1"/><rect x="0" y="10" width="1" height="1"/><rect x="4" y="10" width="1" height="1"/><rect x="62" y="10" width="1" height="1"/><rect x="0" y="11" width="1" height="1"/><rect x="2" y="11" width="5" height="1"/><rect x="62" y="11" width="1" height="1"/><rect x="0" y="12" width="1" height="1"/><rect x="4" y="12" width="1" height="1"/><rect x="62" y="12" width="1" height="1"/><rect x="0" y="13" width="1" height="1"/><rect x="4" y="13" width="1" height="1"/><rect x="62" y="13" width="1" height="1"/><rect x="0" y="14" width="1" height="1"/><rect x="62" y="14" width="1" height="1"/><rect x="0" y="15" width="1" height="1"/><rect x="62" y="15" width="1" height="1"/><rect x="0" y="16" width="1" height="1"/><rect x="62" y="16" width="1" height="1"/><rect x="0" y="17" width="1" height="1"/><rect x="4" y="17" width="1" height="1"/><rect x="9" y="17" width="3" height="1"/><rect x="62" y="17" width="1" height="1"/><rect x="0" y="18" width="1" height="1"/><rect x="3" y="18" width="2" height="1"/><rect x="8" y="18" width="1" height="1"/><rect x="12" y="18" width="1" height="1"/><rect x="62" y="18" width="1" height="1"/><rect x="0" y="19" width="1" height="1"/><rect x="4" y="19" width="1" height="1"/><rect x="12" y="19" width="1" height="1"/><rect x="62" y="19" width="1" height="1"/><rect x="0" y="20" width="1" height="1"/><rect x="4" y="20" width="1" height="1"/><rect x="11" y="20" width="1" height="1"/><rect x="62" y="20" width="1" height="1"/><rect x="0" y="21" width="1" height="1"/><rect x="4" y="21" width="1" height="1"/><rect x="10" y="21" width="1" height="1"/><rect x="62" y="21" width="1" height="1"/><rect x="0" y="22" width="1" height="1"/><rect x="4" y="22" width="1" height="1"/><rect x="9" y="22" width="1" height="1"/><rect x="62" y="22" width="1" height="1"/><rect x="0" y="23" width="1" height="1"/><rect x="3" y="23" width="3" height="1"/><rect x="8" y="23" width="5" height="1"/><rect x="62" y="23" width="1" height="1"/><rect x="0" y="24" width="1" height="1"/><rect x="62" y="24" width="1" height="1"/><rect x="0" y="25" width="1" height="1"/><rect x="62" y="25" width="1" height="1"/><rect x="0" y="26" width="1" height="1"/><rect x="2" y="26" width="4" height="1"/><rect x="11" y="26" width="1" height="1"/><rect x="62" y="26" width="1" height="1"/><rect x="0" y="27" width="1" height="1"/><rect x="6" y="27" width="1" height="1"/><rect x="10" y="27" width="2" height="1"/><rect x="62" y="27" width="1" height="1"/><rect x="0" y="28" width="1" height="1"/><rect x="6" y="28" width="1" height="1"/><rect x="9" y="28" width="1" height="1"/><rect x="11" y="28" width="1" height="1"/><rect x="62" y="28" width="1" height="1"/><rect x="0" y="29" width="1" height="1"/><rect x="3" y="29" width="3" height="1"/><rect x="8" y="29" width="1" height="1"/><rect x="11" y="29" width="1" height="1"/><rect x="62" y="29" width="1" height="1"/><rect x="0" y="30" width="1" height="1"/><rect x="6" y="30" width="1" height="1"/><rect x="8" y="30" width="5" height="1"/><rect x="62" y="30" width="1" height="1"/><rect x="0" y="31" width="1" height="1"/><rect x="6" y="31" width="1" height="1"/><rect x="11" y="31" width="1" height="1"/><rect x="62" y="31" width="1" height="1"/><rect x="0" y="32" width="1" height="1"/><rect x="2" y="32" width="4" height="1"/><rect x="11" y="32" width="1" height="1"/><rect x="62" y="32" width="1" height="1"/><rect x="0" y="33" width="1" height="1"/><rect x="62" y="33" width="1" height="1"/><rect x="0" y="34" width="1" height="1"/><rect x="62" y="34" width="1" height="1"/><rect x="0" y="35" width="1" height="1"/><rect x="62" y="35" width="1" height="1"/><rect x="0" y="36" width="1" height="1"/><rect x="5" y="36" width="1" height="1"/><rect x="9" y="36" width="3" height="1"/><rect x="62" y="36" width="1" height="1"/><rect x="0" y="37" width="1" height="1"/><rect x="4" y="37" width="2" height="1"/><rect x="8" y="37" width="1" height="1"/><rect x="62" y="37" width="1" height="1"/><rect x="0" y="38" width="1" height="1"/><rect x="3" y="38" width="1" height="1"/><rect x="5" y="38" width="1" height="1"/><rect x="8" y="38" width="1" height="1"/><rect x="62" y="38" width="1" height="1"/><rect x="0" y="39" width="1" height="1"/><rect x="2" y="39" width="1" height="1"/><rect x="5" y="39" width="1" height="1"/><rect x="8" y="39" width="4" height="1"/><rect x="62" y="39" width="1" height="1"/><rect x="0" y="40" width="1" height="1"/><rect x="2" y="40" width="5" height="1"/><rect x="8" y="40" width="1" height="1"/><rect x="12" y="40" width="1" height="1"/><rect x="62" y="40" width="1" height="1"/><rect x="0" y="41" width="1" height="1"/><rect x="5" y="41" width="1" height="1"/><rect x="8" y="41" width="1" height="1"/><rect x="12" y="41" width="1" height="1"/><rect x="62" y="41" width="1" height="1"/><rect x="0" y="42" width="1" height="1"/><rect x="5" y="42" width="1" height="1"/><rect x="9" y="42" width="3" height="1"/><rect x="62" y="42" width="1" height="1"/><rect x="0" y="43" width="1" height="1"/><rect x="62" y="43" width="1" height="1"/><rect x="0" y="44" width="1" height="1"/><rect x="62" y="44" width="1" height="1"/><rect x="0" y="45" width="1" height="1"/><rect x="62" y="45" width="1" height="1"/><rect x="0" y="46" width="1" height="1"/><rect x="62" y="46" width="1" height="1"/><rect x="0" y="47" width="63" height="1"/><rect x="7" y="62" width="4" height="1"/><rect x="13" y="62" width="5" height="1"/><rect x="20" y="62" width="3" height="1"/><rect x="25" y="62" width="4" height="1"/><rect x="31" y="62" width="1" height="1"/><rect x="35" y="62" width="1" height="1"/><rect x="7" y="63" width="1" height="1"/><rect x="11" y="63" width="1" height="1"/><rect x="13" y="63" width="1" height="1"/><rect x="19" y="63" width="1" height="1"/><rect x="23" y="63" width="1" height="1"/><rect x="25" y="63" width="1" height="1"/><rect x="29" y="63" width="1" height="1"/><rect x="31" y="63" width="1" height="1"/><rect x="35" y="63" width="1" height="1"/><rect x="7" y="64" width="1" height="1"/><rect x="11" y="64" width="1" height="1"/><rect x="13" y="64" width="1" height="1"/><rect x="19" y="64" width="1" height="1"/><rect x="23" y="64" width="1" height="1"/><rect x="25" y="64" width="1" height="1"/><rect x="29" y="64" width="1" height="1"/><rect x="32" y="64" width="1" height="1"/><rect x="34" y="64" width="1" height="1"/><rect x="7" y="65" width="4" height="1"/><rect x="13" y="65" width="4" height="1"/><rect x="19" y="65" width="5" height="1"/><rect x="25" y="65" width="1" height="1"/><rect x="29" y="65" width="1" height="1"/><rect x="33" y="65" width="1" height="1"/><rect x="7" y="66" width="1" height="1"/><rect x="9" y="66" width="1" height="1"/><rect x="13" y="66" width="1" height="1"/><rect x="19" y="66" width="1" height="1"/><rect x="23" y="66" width="1" height="1"/><rect x="25" y="66" width="1" height="1"/><rect x="29" y="66" width="1" height="1"/><rect x="33" y="66" width="1" height="1"/><rect x="7" y="67" width="1" height="1"/><rect x="10" y="67" width="1" height="1"/><rect x="13" y="67" width="1" height="1"/><rect x="19" y="67" width="1" height="1"/><rect x="23" y="67" width="1" height="1"/><rect x="25" y="67" width="1" height="1"/><rect x="29" y="67" width="1" height="1"/><rect x="33" y="67" width="1" height="1"/><rect x="7" y="68" width="1" height="1"/><rect x="11" y="68" width="1" height="1"/><rect x="13" y="68" width="5" height="1"/><rect x="19" y="68" width="1" height="1"/><rect x="23" y="68" width="1" height="1"/><rect x="25" y="68" width="4" height="1"/><rect x="33" y="68" width="1" height="1"/></g>
</svg>
