<svg xmlns="http://www.w3.org/2000/svg" viewBox="0 0 64 128" width="64" height="128" shape-rendering="crispEdges">
  <rect width="64" height="128" fill="#020406"/>
  <g fill="#fff"><rect x="3" y="10" width="3" height="1"/><rect x="2" y="11" width="1" height="1"/><rect x="6" y="11" width="1" height="1"/><rect x="2" y="12" width="1" height="1"/><rect x="5" y="12" width="2" height="1"/><rect x="2" y="13" width="1" height="1"/><rect x="4" y="13" width="1" height="1"/><rect x="6" y="13" width="1" height="1"/><rect x="2" y="14" width="2" height="1"/><rect x="6" y="14" width="1" height="1"/><rect x="2" y="15" width="1" height="1"/><rect x="6" y="15" width="1" height="1"/><rect x="3" y="16" width="3" height="1"/><rect x="4" y="32" width="10" height="1"/><rect x="19" y="32" width="10" height="1"/><rect x="34" y="32" width="10" height="1"/><rect x="49" y="32" width="10" height="1"/><rect x="3" y="33" width="12" height="1"/><rect x="18" y="33" width="1" height="1"/><rect x="29" y="33" width="1" height="1"/><rect x="33" y="33" width="1" height="1"/><rect x="44" y="33" width="1" height="1"/><rect x="48" y="33" width="1" height="1"/><rect x="59" y="33" width="1" height="1"/><rect x="2" y="34" width="14" height="1"/><rect x="17" y="34" width="2" height="1"/><rect x="30" y="34" width="1" height="1"/><rect x="32" y="34" width="2" height="1"/><rect x="45" y="34" width="1" height="1"/><rect x="47" y="34" width="2" height="1"/><rect x="60" y="34" width="1" height="1"/><rect x="2" y="35" width="14" height="1"/><rect x="17" y="35" width="2" height="1"/><rect x="30" y="35" width="1" height="1"/><rect x="32" y="35" width="2" height="1"/><rect x="45" y="35" width="1" height="1"/><rect x="47" y="35" width="2" height="1"/><rect x="60" y="35" width="1" height="1"/><rect x="2" y="36" width="14" height="1"/><rect x="17" y="36" width="2" height="1"/><rect x="30" y="36" width="1" height="1"/><rect x="32" y="36" width="2" height="1"/><rect x="45" y="36" width="1" height="1"/><rect x="47" y="36" width="2" height="1"/><rect x="60" y="36" width="1" height="1"/><rect x="2" y="37" width="14" height="1"/><rect x="17" y="37" width="2" height="1"/><rect x="30" y="37" width="1" height="1"/><rect x="32" y="37" width="2" height="1"/><rect x="45" y="37" width="1" height="1"/><rect x="47" y="37" width="2" height="1"/><rect x="60" y="37" width="1" height="1"/><rect x="2" y="38" width="14" height="1"/><rect x="17" y="38" width="2" height="1"/><rect x="30" y="38" width="1" height="1"/><rect x="32" y="38" width="2" height="1"/><rect x="45" y="38" width="1" height="1"/><rect x="47" y="38" width="2" height="1"/><rect x="60" y="38" width="1" height="1"/><rect x="2" y="39" width="14" height="1"/><rect x="17" y="39" width="2" height="1"/><rect x="30" y="39" width="1" height="1"/><rect x="32" y="39" width="2" height="1"/><rect x="45" y="39" width="1" height="1"/><rect x="47" y="39" width="2" height="1"/><rect x="60" y="39" width="1" height="1"/><rect x="2" y="40" width="14" height="1"/><rect x="17" y="40" width="2" height="1"/><rect x="23" y="40" width="3" height="1"/><rect x="30" y="40" width="1" height="1"/><rect x="32" y="40" width="2" height="1"/><rect x="38" y="40" width="3" height="1"/><rect x="45" y="40" width="1" height="1"/><rect x="47" y="40" width="2" height="1"/><rect x="56" y="40" width="1" height="1"/><rect x="60" y="40" width="1" height="1"/><rect x="2" y="41" width="14" height="1"/><rect x="17" y="41" width="2" height="1"/><rect x="22" y="41" width="1" height="1"/><rect x="26" y="41" width="1" height="1"/><rect x="30" y="41" width="1" height="1"/><rect x="32" y="41" width="2" height="1"/><rect x="37" y="41" width="1" height="1"/><rect x="41" y="41" width="1" height="1"/><rect x="45" y="41" width="1" height="1"/><rect x="47" y="41" width="2" height="1"/><rect x="55" y="41" width="1" height="1"/><rect x="60" y="41" width="1" height="1"/><rect x="2" y="42" width="14" height="1"/><rect x="17" y="42" width="2" height="1"/><rect x="22" y="42" width="1" height="1"/><rect x="26" y="42" width="1" height="1"/><rect x="30" y="42" width="1" height="1"/><rect x="32" y="42" width="2" height="1"/><rect x="37" y="42" width="1" height="1"/><rect x="41" y="42" width="1" height="1"/><rect x="45" y="42" width="1" height="1"/><rect x="47" y="42" width="2" height="1"/><rect x="55" y="42" width="1" height="1"/><rect x="60" y="42" width="1" height="1"/><rect x="2" y="43" width="14" height="1"/><rect x="17" y="43" width="2" height="1"/><rect x="23" y="43" width="3" height="1"/><rect x="30" y="43" width="1" height="1"/><rect x="32" y="43" width="2" height="1"/><rect x="38" y="43" width="4" height="1"/><rect x="45" y="43" width="1" height="1"/><rect x="47" y="43" width="2" height="1"/><rect x="54" y="43" width="1" height="1"/><rect x="60" y="43" width="1" height="1"/><rect x="2" y="44" width="14" height="1"/><rect x="17" y="44" width="2" height="1"/><rect x="22" y="44" width="1" height="1"/><rect x="26" y="44" width="1" height="1"/><rect x="30" y="44" width="1" height="1"/><rect x="32" y="44" width="2" height="1"/><rect x="41" y="44" width="1" height="1"/><rect x="45" y="44" width="1" height="1"/><rect x="47" y="44" width="2" height="1"/><rect x="53" y="44" width="1" height="1"/><rect x="60" y="44" width="1" height="1"/><rect x="2" y="45" width="14" height="1"/><rect x="17" y="45" width="2" height="1"/><rect x="22" y="45" width="1" height="1"/><rect x="26" y="45" width="1" height="1"/><rect x="30" y="45" width="1" height="1"/><rect x="32" y="45" width="2" height="1"/><rect x="41" y="45" width="1" height="1"/><rect x="45" y="45" width="1" height="1"/><rect x="47" y="45" width="2" height="1"/><rect x="53" y="45" width="1" height="1"/><rect x="60" y="45" width="1" height="1"/><rect x="2" y="46" width="14" height="1"/><rect x="17" y="46" width="2" height="1"/><rect x="23" y="46" width="3" height="1"/><rect x="30" y="46" width="1" height="1"/><rect x="32" y="46" width="2" height="1"/><rect x="38" y="46" width="3" height="1"/><rect x="45" y="46" width="1" height="1"/><rect x="47" y="46" width="2" height="1"/><rect x="52" y="46" width="1" height="1"/><rect x="60" y="46" width="1" height="1"/><rect x="2" y="47" width="14" height="1"/><rect x="17" y="47" width="2" height="1"/><rect x="30" y="47" width="1" height="1"/><rect x="32" y="47" width="2" height="1"/><rect x="45" y="47" width="1" height="1"/><rect x="47" y="47" width="2" height="1"/><rect x="60" y="47" width="1" height="1"/><rect x="2" y="48" width="14" height="1"/><rect x="17" y="48" width="2" height="1"/><rect x="30" y="48" width="1" height="1"/><rect x="32" y="48" width="2" height="1"/><rect x="45" y="48" width="1" height="1"/><rect x="47" y="48" width="2" height="1"/><rect x="60" y="48" width="1" height="1"/><rect x="2" y="49" width="14" height="1"/><rect x="17" y="49" width="2" height="1"/><rect x="30" y="49" width="1" height="1"/><rect x="32" y="49" width="2" height="1"/><rect x="45" y="49" width="1" height="1"/><rect x="47" y="49" width="2" height="1"/><rect x="60" y="49" width="1" height="1"/><rect x="2" y="50" width="14" height="1"/><rect x="17" y="50" width="2" height="1"/><rect x="30" y="50" width="1" height="1"/><rect x="32" y="50" width="2" height="1"/><rect x="45" y="50" width="1" height="1"/><rect x="47" y="50" width="2" height="1"/><rect x="60" y="50" width="1" height="1"/><rect x="2" y="51" width="14" height="1"/><rect x="17" y="51" width="2" height="1"/><rect x="30" y="51" width="1" height="1"/><rect x="32" y="51" width="2" height="1"/><rect x="45" y="51" width="1" height="1"/><rect x="47" y="51" width="2" height="1"/><rect x="60" y="51" width="1" height="1"/><rect x="2" y="52" width="14" height="1"/><rect x="17" y="52" width="2" height="1"/><rect x="30" y="52" width="1" height="1"/><rect x="32" y="52" width="2" height="1"/><rect x="45" y="52" width="1" height="1"/><rect x="47" y="52" width="2" height="1"/><rect x="60" y="52" width="1" height="1"/><rect x="2" y="53" width="14" height="1"/><rect x="17" y="53" width="3" height="1"/><rect x="30" y="53" width="1" height="1"/><rect x="32" y="53" width="3" height="1"/><rect x="45" y="53" width="1" height="1"/><rect x="47" y="53" width="3" height="1"/><rect x="60" y="53" width="1" height="1"/><rect x="3" y="54" width="12" height="1"/><rect x="18" y="54" width="12" height="1"/><rect x="33" y="54" width="12" height="1"/><rect x="48" y="54" width="12" height="1"/><rect x="4" y="55" width="10" height="1"/><rect x="19" y="55" width="10" height="1"/><rect x="34" y="55" width="10" height="1"/><rect x="49" y="55" width="10" height="1"/><rect x="4" y="56" width="10" height="1"/><rect x="19" y="56" width="10" height="1"/><rect x="34" y="56" width="10" height="1"/><rect x="49" y="56" width="10" height="1"/><rect x="3" y="57" width="1" height="1"/><rect x="14" y="57" width="1" height="1"/><rect x="18" y="57" width="1" height="1"/><rect x="29" y="57" width="1" height="1"/><rect x="33" y="57" width="1" height="1"/><rect x="44" y="57" width="1" height="1"/><rect x="48" y="57" width="1" height="1"/><rect x="59" y="57" width="1" height="1"/><rect x="2" y="58" width="2" height="1"/><rect x="15" y="58" width="1" height="1"/><rect x="17" y="58" width="2" height="1"/><rect x="30" y="58" width="1" height="1"/><rect x="32" y="58" width="2" height="1"/><rect x="45" y="58" width="1" height="1"/><rect x="47" y="58" width="2" height="1"/><rect x="60" y="58" width="1" height="1"/><rect x="2" y="59" width="2" height="1"/><rect x="15" y="59" width="1" height="1"/><rect x="17" y="59" width="2" height="1"/><rect x="30" y="59" width="1" height="1"/><rect x="32" y="59" width="2" height="1"/><rect x="45" y="59" width="1" height="1"/><rect x="47" y="59" width="2" height="1"/><rect x="60" y="59" width="1" height="1"/><rect x="2" y="60" width="2" height="1"/><rect x="15" y="60" width="1" height="1"/><rect x="17" y="60" width="2" height="1"/><rect x="30" y="60" width="1" height="1"/><rect x="32" y="60" width="2" height="1"/><rect x="45" y="60" width="1" height="1"/><rect x="47" y="60" width="2" height="1"/><rect x="60" y="60" width="1" height="1"/><rect x="2" y="61" width="2" height="1"/><rect x="15" y="61" width="1" height="1"/><rect x="17" y="61" width="2" height="1"/><rect x="30" y="61" width="1" height="1"/><rect x="32" y="61" width="2" height="1"/><rect x="45" y="61" width="1" height="1"/><rect x="47" y="61" width="2" height="1"/><rect x="60" y="61" width="1" height="1"/><rect x="2" y="62" width="2" height="1"/><rect x="15" y="62" width="1" height="1"/><rect x="17" y="62" width="2" height="1"/><rect x="30" y="62" width="1" height="1"/><rect x="32" y="62" width="2" height="1"/><rect x="45" y="62" width="1" height="1"/><rect x="47" y="62" width="2" height="1"/><rect x="60" y="62" width="1" height="1"/><rect x="2" y="63" width="2" height="1"/><rect x="15" y="63" width="1" height="1"/><rect x="17" y="63" width="2" height="1"/><rect x="30" y="63" width="1" height="1"/><rect x="32" y="63" width="2" height="1"/><rect x="45" y="63" width="1" height="1"/><rect x="47" y="63" width="2" height="1"/><rect x="60" y="63" width="1" height="1"/><rect x="2" y="64" width="2" height="1"/><rect x="10" y="64" width="1" height="1"/><rect x="15" y="64" width="1" height="1"/><rect x="17" y="64" width="2" height="1"/><rect x="22" y="64" width="5" height="1"/><rect x="30" y="64" width="1" height="1"/><rect x="32" y="64" width="2" height="1"/><rect x="38" y="64" width="3" height="1"/><rect x="45" y="64" width="1" height="1"/><rect x="47" y="64" width="2" height="1"/><rect x="52" y="64" width="1" height="1"/><rect x="56" y="64" width="1" height="1"/><rect x="60" y="64" width="1" height="1"/><rect x="2" y="65" width="2" height="1"/><rect x="9" y="65" width="2" height="1"/><rect x="15" y="65" width="1" height="1"/><rect x="17" y="65" width="2" height="1"/><rect x="22" y="65" width="1" height="1"/><rect x="30" y="65" width="1" height="1"/><rect x="32" y="65" width="2" height="1"/><rect x="37" y="65" width="1" height="1"/><rect x="45" y="65" width="1" height="1"/><rect x="47" y="65" width="2" height="1"/><rect x="52" y="65" width="1" height="1"/><rect x="56" y="65" width="1" height="1"/><rect x="60" y="65" width="1" height="1"/><rect x="2" y="66" width="2" height="1"/><rect x="8" y="66" width="1" height="1"/><rect x="10" y="66" width="1" height="1"/><rect x="15" y="66" width="1" height="1"/><rect x="17" y="66" width="2" height="1"/><rect x="22" y="66" width="1" height="1"/><rect x="30" y="66" width="1" height="1"/><rect x="32" y="66" width="2" height="1"/><rect x="37" y="66" width="1" height="1"/><rect x="45" y="66" width="1" height="1"/><rect x="47" y="66" width="2" height="1"/><rect x="53" y="66" width="1" height="1"/><rect x="55" y="66" width="1" height="1"/><rect x="60" y="66" width="1" height="1"/><rect x="2" y="67" width="2" height="1"/><rect x="7" y="67" width="1" height="1"/><rect x="10" y="67" width="1" height="1"/><rect x="15" y="67" width="1" height="1"/><rect x="17" y="67" width="2" height="1"/><rect x="22" y="67" width="4" height="1"/><rect x="30" y="67" width="1" height="1"/><rect x="32" y="67" width="2" height="1"/><rect x="37" y="67" width="4" height="1"/><rect x="45" y="67" width="1" height="1"/><rect x="47" y="67" width="2" height="1"/><rect x="54" y="67" width="1" height="1"/><rect x="60" y="67" width="1" height="1"/><rect x="2" y="68" width="2" height="1"/><rect x="7" y="68" width="5" height="1"/><rect x="15" y="68" width="1" height="1"/><rect x="17" y="68" width="2" height="1"/><rect x="26" y="68" width="1" height="1"/><rect x="30" y="68" width="1" height="1"/><rect x="32" y="68" width="2" height="1"/><rect x="37" y="68" width="1" height="1"/><rect x="41" y="68" width="1" height="1"/><rect x="45" y="68" width="1" height="1"/><rect x="47" y="68" width="2" height="1"/><rect x="53" y="68" width="1" height="1"/><rect x="55" y="68" width="1" height="1"/><rect x="60" y="68" width="1" height="1"/><rect x="2" y="69" width="2" height="1"/><rect x="10" y="69" width="1" height="1"/><rect x="15" y="69" width="1" height="1"/><rect x="17" y="69" width="2" height="1"/><rect x="26" y="69" width="1" height="1"/><rect x="30" y="69" width="1" height="1"/><rect x="32" y="69" width="2" height="1"/><rect x="37" y="69" width="1" height="1"/><rect x="41" y="69" width="1" height="1"/><rect x="45" y="69" width="1" height="1"/><rect x="47" y="69" width="2" height="1"/><rect x="52" y="69" width="1" height="1"/><rect x="56" y="69" width="1" height="1"/><rect x="60" y="69" width="1" height="1"/><rect x="2" y="70" width="2" height="1"/><rect x="10" y="70" width="1" height="1"/><rect x="15" y="70" width="1" height="1"/><rect x="17" y="70" width="2" height="1"/><rect x="22" y="70" width="4" height="1"/><rect x="30" y="70" width="1" height="1"/><rect x="32" y="70" width="2" height="1"/><rect x="38" y="70" width="3" height="1"/><rect x="45" y="70" width="1" height="1"/><rect x="47" y="70" width="2" height="1"/><rect x="52" y="70" width="1" height="1"/><rect x="56" y="70" width="1" height="1"/><rect x="60" y="70" width="1" height="1"/><rect x="2" y="71" width="2" height="1"/><rect x="15" y="71" width="1" height="1"/><rect x="17" y="71" width="2" height="1"/><rect x="30" y="71" width="1" height="1"/><rect x="32" y="71" width="2" height="1"/><rect x="45" y="71" width="1" height="1"/><rect x="47" y="71" width="2" height="1"/><rect x="60" y="71" width="1" height="1"/><rect x="2" y="72" width="2" height="1"/><rect x="15" y="72" width="1" height="1"/><rect x="17" y="72" width="2" height="1"/><rect x="30" y="72" width="1" height="1"/><rect x="32" y="72" width="2" height="1"/><rect x="45" y="72" width="1" height="1"/><rect x="47" y="72" width="2" height="1"/><rect x="60" y="72" width="1" height="1"/><rect x="2" y="73" width="2" height="1"/><rect x="15" y="73" width="1" height="1"/><rect x="17" y="73" width="2" height="1"/><rect x="30" y="73" width="1" height="1"/><rect x="32" y="73" width="2" height="1"/><rect x="45" y="73" width="1" height="1"/><rect x="47" y="73" width="2" height="1"/><rect x="60" y="73" width="1" height="1"/><rect x="2" y="74" width="2" height="1"/><rect x="15" y="74" width="1" height="1"/><rect x="17" y="74" width="2" height="1"/><rect x="30" y="74" width="1" height="1"/><rect x="32" y="74" width="2" height="1"/><rect x="45" y="74" width="1" height="1"/><rect x="47" y="74" width="2" height="1"/><rect x="60" y="74" width="1" height="1"/><rect x="2" y="75" width="2" height="1"/><rect x="15" y="75" width="1" height="1"/><rect x="17" y="75" width="2" height="1"/><rect x="30" y="75" width="1" height="1"/><rect x="32" y="75" width="2" height="1"/><rect x="45" y="75" width="1" height="1"/><rect x="47" y="75" width="2" height="1"/><rect x="60" y="75" width="1" height="1"/><rect x="2" y="76" width="2" height="1"/><rect x="15" y="76" width="1" height="1"/><rect x="17" y="76" width="2" height="1"/><rect x="30" y="76" width="1" height="1"/><rect x="32" y="76" width="2" height="1"/><rect x="45" y="76" width="1" height="1"/><rect x="47" y="76" width="2" height="1"/><rect x="60" y="76" width="1" height="1"/><rect x="2" y="77" width="3" height="1"/><rect x="15" y="77" width="1" height="1"/><rect x="17" y="77" width="3" height="1"/><rect x="30" y="77" width="1" height="1"/><rect x="32" y="77" width="3" height="1"/><rect x="45" y="77" width="1" height="1"/><rect x="47" y="77" width="3" height="1"/><rect x="60" y="77" width="1" height="1"/><rect x="3" y="78" width="12" height="1"/><rect x="18" y="78" width="12" height="1"/><rect x="33" y="78" width="12" height="1"/><rect x="48" y="78" width="12" height="1"/><rect x="4" y="79" width="10" height="1"/><rect x="19" y="79" width="10" height="1"/><rect x="34" y="79" width="10" height="1"/><rect x="49" y="79" width="10" height="1"/><rect x="4" y="80" width="10" height="1"/><rect x="19" y="80" width="10" height="1"/><rect x="34" y="80" width="10" height="1"/><rect x="49" y="80" width="10" height="1"/><rect x="3" y="81" width="1" height="1"/><rect x="14" y="81" width="1" height="1"/><rect x="18" y="81" width="1" height="1"/><rect x="29" y="81" width="1" height="1"/><rect x="33" y="81" width="1" height="1"/><rect x="44" y="81" width="1" height="1"/><rect x="48" y="81" width="1" height="1"/><rect x="59" y="81" width="1" height="1"/><rect x="2" y="82" width="2" height="1"/><rect x="15" y="82" width="1" height="1"/><rect x="17" y="82" width="2" height="1"/><rect x="30" y="82" width="1" height="1"/><rect x="32" y="82" width="2" height="1"/><rect x="45" y="82" width="1" height="1"/><rect x="47" y="82" width="2" height="1"/><rect x="60" y="82" width="1" height="1"/><rect x="2" y="83" width="2" height="1"/><rect x="15" y="83" width="1" height="1"/><rect x="17" y="83" width="2" height="1"/><rect x="30" y="83" width="1" height="1"/><rect x="32" y="83" width="2" height="1"/><rect x="45" y="83" width="1" height="1"/><rect x="47" y="83" width="2" height="1"/><rect x="60" y="83" width="1" height="1"/><rect x="2" y="84" width="2" height="1"/><rect x="15" y="84" width="1" height="1"/><rect x="17" y="84" width="2" height="1"/><rect x="30" y="84" width="1" height="1"/><rect x="32" y="84" width="2" height="1"/><rect x="45" y="84" width="1" height="1"/><rect x="47" y="84" width="2" height="1"/><rect x="60" y="84" width="1" height="1"/><rect x="2" y="85" width="2" height="1"/><rect x="15" y="85" width="1" height="1"/><rect x="17" y="85" width="2" height="1"/><rect x="30" y="85" width="1" height="1"/><rect x="32" y="85" width="2" height="1"/><rect x="45" y="85" width="1" height="1"/><rect x="47" y="85" width="2" height="1"/><rect x="60" y="85" width="1" height="1"/><rect x="2" y="86" width="2" height="1"/><rect x="15" y="86" width="1" height="1"/><rect x="17" y="86" width="2" height="1"/><rect x="30" y="86" width="1" height="1"/><rect x="32" y="86" width="2" height="1"/><rect x="45" y="86" width="1" height="1"/><rect x="47" y="86" width="2" height="1"/><rect x="60" y="86" width="1" height="1"/><rect x="2" y="87" width="2" height="1"/><rect x="15" y="87" width="1" height="1"/><rect x="17" y="87" width="2" height="1"/><rect x="30" y="87" width="1" height="1"/><rect x="32" y="87" width="2" height="1"/><rect x="45" y="87" width="1" height="1"/><rect x="47" y="87" width="2" height="1"/><rect x="60" y="87" width="1" height="1"/><rect x="2" y="88" width="2" height="1"/><rect x="9" y="88" width="1" height="1"/><rect x="15" y="88" width="1" height="1"/><rect x="17" y="88" width="2" height="1"/><rect x="23" y="88" width="3" height="1"/><rect x="30" y="88" width="1" height="1"/><rect x="32" y="88" width="2" height="1"/><rect x="37" y="88" width="4" height="1"/><rect x="45" y="88" width="1" height="1"/><rect x="47" y="88" width="2" height="1"/><rect x="60" y="88" width="1" height="1"/><rect x="2" y="89" width="2" height="1"/><rect x="8" y="89" width="2" height="1"/><rect x="15" y="89" width="1" height="1"/><rect x="17" y="89" width="2" height="1"/><rect x="22" y="89" width="1" height="1"/><rect x="26" y="89" width="1" height="1"/><rect x="30" y="89" width="1" height="1"/><rect x="32" y="89" width="2" height="1"/><rect x="41" y="89" width="1" height="1"/><rect x="45" y="89" width="1" height="1"/><rect x="47" y="89" width="2" height="1"/><rect x="60" y="89" width="1" height="1"/><rect x="2" y="90" width="2" height="1"/><rect x="9" y="90" width="1" height="1"/><rect x="15" y="90" width="1" height="1"/><rect x="17" y="90" width="2" height="1"/><rect x="26" y="90" width="1" height="1"/><rect x="30" y="90" width="1" height="1"/><rect x="32" y="90" width="2" height="1"/><rect x="41" y="90" width="1" height="1"/><rect x="45" y="90" width="1" height="1"/><rect x="47" y="90" width="2" height="1"/><rect x="60" y="90" width="1" height="1"/><rect x="2" y="91" width="2" height="1"/><rect x="9" y="91" width="1" height="1"/><rect x="15" y="91" width="1" height="1"/><rect x="17" y="91" width="2" height="1"/><rect x="25" y="91" width="1" height="1"/><rect x="30" y="91" width="1" height="1"/><rect x="32" y="91" width="2" height="1"/><rect x="38" y="91" width="3" height="1"/><rect x="45" y="91" width="1" height="1"/><rect x="47" y="91" width="2" height="1"/><rect x="52" y="91" width="5" height="1"/><rect x="60" y="91" width="1" height="1"/><rect x="2" y="92" width="2" height="1"/><rect x="9" y="92" width="1" height="1"/><rect x="15" y="92" width="1" height="1"/><rect x="17" y="92" width="2" height="1"/><rect x="24" y="92" width="1" height="1"/><rect x="30" y="92" width="1" height="1"/><rect x="32" y="92" width="2" height="1"/><rect x="41" y="92" width="1" height="1"/><rect x="45" y="92" width="1" height="1"/><rect x="47" y="92" width="2" height="1"/><rect x="60" y="92" width="1" height="1"/><rect x="2" y="93" width="2" height="1"/><rect x="9" y="93" width="1" height="1"/><rect x="15" y="93" width="1" height="1"/><rect x="17" y="93" width="2" height="1"/><rect x="23" y="93" width="1" height="1"/><rect x="30" y="93" width="1" height="1"/><rect x="32" y="93" width="2" height="1"/><rect x="41" y="93" width="1" height="1"/><rect x="45" y="93" width="1" height="1"/><rect x="47" y="93" width="2" height="1"/><rect x="60" y="93" width="1" height="1"/><rect x="2" y="94" width="2" height="1"/><rect x="8" y="94" width="3" height="1"/><rect x="15" y="94" width="1" height="1"/><rect x="17" y="94" width="2" height="1"/><rect x="22" y="94" width="5" height="1"/><rect x="30" y="94" width="1" height="1"/><rect x="32" y="94" width="2" height="1"/><rect x="37" y="94" width="4" height="1"/><rect x="45" y="94" width="1" height="1"/><rect x="47" y="94" width="2" height="1"/><rect x="60" y="94" width="1" height="1"/><rect x="2" y="95" width="2" height="1"/><rect x="15" y="95" width="1" height="1"/><rect x="17" y="95" width="2" height="1"/><rect x="30" y="95" width="1" height="1"/><rect x="32" y="95" width="2" height="1"/><rect x="45" y="95" width="1" height="1"/><rect x="47" y="95" width="2" height="1"/><rect x="60" y="95" width="1" height="1"/><rect x="2" y="96" width="2" height="1"/><rect x="15" y="96" width="1" height="1"/><rect x="17" y="96" width="2" height="1"/><rect x="30" y="96" width="1" height="1"/><rect x="32" y="96" width="2" height="1"/><rect x="45" y="96" width="1" height="1"/><rect x="47" y="96" width="2" height="1"/><rect x="60" y="96" width="1" height="1"/><rect x="2" y="97" width="2" height="1"/><rect x="15" y="97" width="1" height="1"/><rect x="17" y="97" width="2" height="1"/><rect x="30" y="97" width="1" height="1"/><rect x="32" y="97" width="2" height="1"/><rect x="45" y="97" width="1" height="1"/><rect x="47" y="97" width="2" height="1"/><rect x="60" y="97" width="1" height="1"/><rect x="2" y="98" width="2" height="1"/><rect x="15" y="98" width="1" height="1"/><rect x="17" y="98" width="2" height="1"/><rect x="30" y="98" width="1" height="1"/><rect x="32" y="98" width="2" height="1"/><rect x="45" y="98" width="1" height="1"/><rect x="47" y="98" width="2" height="1"/><rect x="60" y="98" width="1" height="1"/><rect x="2" y="99" width="2" height="1"/><rect x="15" y="99" width="1" height="1"/><rect x="17" y="99" width="2" height="1"/><rect x="30" y="99" width="1" height="1"/><rect x="32" y="99" width="2" height="1"/><rect x="45" y="99" width="1" height="1"/><rect x="47" y="99" width="2" height="1"/><rect x="60" y="99" width="1" height="1"/><rect x="2" y="100" width="2" height="1"/><rect x="15" y="100" width="1" height="1"/><rect x="17" y="100" width="2" height="1"/><rect x="30" y="100" width="1" height="1"/><rect x="32" y="100" width="2" height="1"/><rect x="45" y="100" width="1" height="1"/><rect x="47" y="100" width="2" height="1"/><rect x="60" y="100" width="1" height="1"/><rect x="2" y="101" width="3" height="1"/><rect x="15" y="101" width="1" height="1"/><rect x="17" y="101" width="3" height="1"/><rect x="30" y="101" width="1" height="1"/><rect x="32" y="101" width="3" height="1"/><rect x="45" y="101" width="1" height="1"/><rect x="47" y="101" width="3" height="1"/><rect x="60" y="101" width="1" height="1"/><rect x="3" y="102" width="12" height="1"/><rect x="18" y="102" width="12" height="1"/><rect x="33" y="102" width="12" height="1"/><rect x="48" y="102" width="12" height="1"/><rect x="4" y="103" width="10" height="1"/><rect x="19" y="103" width="10" height="1"/><rect x="34" y="103" width="10" height="1"/><rect x="49" y="103" width="10" height="1"/><rect x="4" y="104" width="10" height="1"/><rect x="19" y="104" width="10" height="1"/><rect x="34" y="104" width="10" height="1"/><rect x="49" y="104" width="10" height="1"/><rect x="3" y="105" width="1" height="1"/><rect x="14" y="105" width="1" height="1"/><rect x="18" y="105" width="1" height="1"/><rect x="29" y="105" width="1" height="1"/><rect x="33" y="105" width="1" height="1"/><rect x="44" y="105" width="1" height="1"/><rect x="48" y="105" width="1" height="1"/><rect x="59" y="105" width="1" height="1"/><rect x="2" y="106" width="2" height="1"/><rect x="15" y="106" width="1" height="1"/><rect x="17" y="106" width="2" height="1"/><rect x="30" y="106" width="1" height="1"/><rect x="32" y="106" width="2" height="1"/><rect x="45" y="106" width="1" height="1"/><rect x="47" y="106" width="2" height="1"/><rect x="60" y="106" width="1" height="1"/><rect x="2" y="107" width="2" height="1"/><rect x="15" y="107" width="1" height="1"/><rect x="17" y="107" width="2" height="1"/><rect x="30" y="107" width="1" height="1"/><rect x="32" y="107" width="2" height="1"/><rect x="45" y="107" width="1" height="1"/><rect x="47" y="107" width="2" height="1"/><rect x="60" y="107" width="1" height="1"/><rect x="2" y="108" width="2" height="1"/><rect x="15" y="108" width="1" height="1"/><rect x="17" y="108" width="2" height="1"/><rect x="30" y="108" width="1" height="1"/><rect x="32" y="108" width="2" height="1"/><rect x="45" y="108" width="1" height="1"/><rect x="47" y="108" width="2" height="1"/><rect x="60" y="108" width="1" height="1"/><rect x="2" y="109" width="2" height="1"/><rect x="15" y="109" width="1" height="1"/><rect x="17" y="109" width="2" height="1"/><rect x="30" y="109" width="1" height="1"/><rect x="32" y="109" width="2" height="1"/><rect x="45" y="109" width="1" height="1"/><rect x="47" y="109" width="2" height="1"/><rect x="60" y="109" width="1" height="1"/><rect x="2" y="110" width="2" height="1"/><rect x="15" y="110" width="1" height="1"/><rect x="17" y="110" width="2" height="1"/><rect x="30" y="110" width="1" height="1"/><rect x="32" y="110" width="2" height="1"/><rect x="45" y="110" width="1" height="1"/><rect x="47" y="110" width="2" height="1"/><rect x="60" y="110" width="1" height="1"/><rect x="2" y="111" width="2" height="1"/><rect x="15" y="111" width="1" height="1"/><rect x="17" y="111" width="2" height="1"/><rect x="30" y="111" width="1" height="1"/><rect x="32" y="111" width="2" height="1"/><rect x="45" y="111" width="1" height="1"/><rect x="47" y="111" width="2" height="1"/><rect x="60" y="111" width="1" height="1"/><rect x="2" y="112" width="2" height="1"/><rect x="8" y="112" width="3" height="1"/><rect x="15" y="112" width="1" height="1"/><rect x="17" y="112" width="2" height="1"/><rect x="23" y="112" width="3" height="1"/><rect x="30" y="112" width="1" height="1"/><rect x="32" y="112" width="2" height="1"/><rect x="45" y="112" width="1" height="1"/><rect x="47" y="112" width="2" height="1"/><rect x="60" y="112" width="1" height="1"/><rect x="2" y="113" width="2" height="1"/><rect x="7" y="113" width="1" height="1"/><rect x="11" y="113" width="1" height="1"/><rect x="15" y="113" width="1" height="1"/><rect x="17" y="113" width="2" height="1"/><rect x="22" y="113" width="1" height="1"/><rect x="26" y="113" width="1" height="1"/><rect x="30" y="113" width="1" height="1"/><rect x="32" y="113" width="2" height="1"/><rect x="45" y="113" width="1" height="1"/><rect x="47" y="113" width="2" height="1"/><rect x="54" y="113" width="1" height="1"/><rect x="60" y="113" width="1" height="1"/><rect x="2" y="114" width="2" height="1"/><rect x="7" y="114" width="1" height="1"/><rect x="15" y="114" width="1" height="1"/><rect x="17" y="114" width="2" height="1"/><rect x="22" y="114" width="1" height="1"/><rect x="25" y="114" width="2" height="1"/><rect x="30" y="114" width="1" height="1"/><rect x="32" y="114" width="2" height="1"/><rect x="45" y="114" width="1" height="1"/><rect x="47" y="114" width="2" height="1"/><rect x="54" y="114" width="1" height="1"/><rect x="60" y="114" width="1" height="1"/><rect x="2" y="115" width="2" height="1"/><rect x="7" y="115" width="1" height="1"/><rect x="15" y="115" width="1" height="1"/><rect x="17" y="115" width="2" height="1"/><rect x="22" y="115" width="1" height="1"/><rect x="24" y="115" width="1" height="1"/><rect x="26" y="115" width="1" height="1"/><rect x="30" y="115" width="1" height="1"/><rect x="32" y="115" width="2" height="1"/><rect x="45" y="115" width="1" height="1"/><rect x="47" y="115" width="2" height="1"/><rect x="52" y="115" width="5" height="1"/><rect x="60" y="115" width="1" height="1"/><rect x="2" y="116" width="2" height="1"/><rect x="7" y="116" width="1" height="1"/><rect x="15" y="116" width="1" height="1"/><rect x="17" y="116" width="2" height="1"/><rect x="22" y="116" width="2" height="1"/><rect x="26" y="116" width="1" height="1"/><rect x="30" y="116" width="1" height="1"/><rect x="32" y="116" width="2" height="1"/><rect x="45" y="116" width="1" height="1"/><rect x="47" y="116" width="2" height="1"/><rect x="54" y="116" width="1" height="1"/><rect x="60" y="116" width="1" height="1"/><rect x="2" y="117" width="2" height="1"/><rect x="7" y="117" width="1" height="1"/><rect x="11" y="117" width="1" height="1"/><rect x="15" y="117" width="1" height="1"/><rect x="17" y="117" width="2" height="1"/><rect x="22" y="117" width="1" height="1"/><rect x="26" y="117" width="1" height="1"/><rect x="30" y="117" width="1" height="1"/><rect x="32" y="117" width="2" height="1"/><rect x="45" y="117" width="1" height="1"/><rect x="47" y="117" width="2" height="1"/><rect x="54" y="117" width="1" height="1"/><rect x="60" y="117" width="1" height="1"/><rect x="2" y="118" width="2" height="1"/><rect x="8" y="118" width="3" height="1"/><rect x="15" y="118" width="1" height="1"/><rect x="17" y="118" width="2" height="1"/><rect x="23" y="118" width="3" height="1"/><rect x="30" y="118" width="1" height="1"/><rect x="32" y="118" width="2" height="1"/><rect x="45" y="118" width="1" height="1"/><rect x="47" y="118" width="2" height="1"/><rect x="60" y="118" width="1" height="1"/><rect x="2" y="119" width="2" height="1"/><rect x="15" y="119" width="1" height="1"/><rect x="17" y="119" width="2" height="1"/><rect x="30" y="119" width="1" height="1"/><rect x="32" y="119" width="2" height="1"/><rect x="45" y="119" width="1" height="1"/><rect x="47" y="119" width="2" height="1"/><rect x="60" y="119" width="1" height="1"/><rect x="2" y="120" width="2" height="1"/><rect x="15" y="120" width="1" height="1"/><rect x="17" y="120" width="2" height="1"/><rect x="30" y="120" width="1" height="1"/><rect x="32" y="120" width="2" height="1"/><rect x="45" y="120" width="1" height="1"/><rect x="47" y="120" width="2" height="1"/><rect x="60" y="120" width="1" height="1"/><rect x="2" y="121" width="2" height="1"/><rect x="15" y="121" width="1" height="1"/><rect x="17" y="121" width="2" height="1"/><rect x="30" y="121" width="1" height="1"/><rect x="32" y="121" width="2" height="1"/><rect x="45" y="121" width="1" height="1"/><rect x="47" y="121" width="2" height="1"/><rect x="60" y="121" width="1" height="1"/><rect x="2" y="122" width="2" height="1"/><rect x="15" y="122" width="1" height="1"/><rect x="17" y="122" width="2" height="1"/><rect x="30" y="122" width="1" height="1"/><rect x="32" y="122" width="2" height="1"/><rect x="45" y="122" width="1" height="1"/><rect x="47" y="122" width="2" height="1"/><rect x="60" y="122" width="1" height="1"/><rect x="2" y="123" width="2" height="1"/><rect x="15" y="123" width="1" height="1"/><rect x="17" y="123" width="2" height="1"/><rect x="30" y="123" width="1" height="1"/><rect x="32" y="123" width="2" height="1"/><rect x="45" y="123" width="1" height="1"/><rect x="47" y="123" width="2" height="1"/><rect x="60" y="123" width="1" height="1"/><rect x="2" y="124" width="2" height="1"/><rect x="15" y="124" width="1" height="1"/><rect x="17" y="124" width="2" height="1"/><rect x="30" y="124" width="1" height="1"/><rect x="32" y="124" width="2" height="1"/><rect x="45" y="124" width="1" height="1"/><rect x="47" y="124" width="2" height="1"/><rect x="60" y="124" width="1" height="1"/><rect x="2" y="125" width="3" height="1"/><rect x="15" y="125" width="1" height="1"/><rect x="17" y="125" width="3" height="1"/><rect x="30" y="125" width="1" height="1"/><rect x="32" y="125" width="3" height="1"/><rect x="45" y="125" width="1" height="1"/><rect x="47" y="125" width="3" height="1"/><rect x="60" y="125" width="1" height="1"/><rect x="3" y="126" width="12" height="1"/><rect x="18" y="126" width="12" height="1"/><rect x="33" y="126" width="12" height="1"/><rect x="48" y="126" width="12" height="1"/><rect x="4" y="127" width="10" height="1"/><rect x="19" y="127" width="10" height="1"/><rect x="34" y="127" width="10" height="1"/><rect x="49" y="127" width="10" height="1"/></g>
</svg>
