<svg xmlns="http://www.w3.org/2000/svg" viewBox="0 0 128 64" width="128" height="64" shape-rendering="crispEdges">
  <rect width="128" height="64" fill="#020406"/>
  <g fill="#fff"><rect x="17" y="18" width="4" height="1"/><rect x="26" y="18" width="6" height="1"/><rect x="38" y="18" width="5" height="1"/><rect x="15" y="19" width="2" height="1"/><rect x="21" y="19" width="2" height="1"/><rect x="24" y="19" width="2" height="1"/><rect x="32" y="19" width="2" height="1"/><rect x="36" y="19" width="2" height="1"/><rect x="43" y="19" width="13" height="1"/><rect x="65" y="19" width="3" height="1"/><rect x="77" y="19" width="3" height="1"/><rect x="86" y="19" width="7" height="1"/><rect x="98" y="19" width="4" height="1"/><rect x="108" y="19" width="6" height="1"/><rect x="14" y="20" width="1" height="1"/><rect x="18" y="20" width="2" height="1"/><rect x="23" y="20" width="1" height="1"/><rect x="27" y="20" width="4" height="1"/><rect x="34" y="20" width="2" height="1"/><rect x="39" y="20" width="3" height="1"/><rect x="56" y="20" width="1" height="1"/><rect x="64" y="20" width="1" height="1"/><rect x="68" y="20" width="1" height="1"/><rect x="75" y="20" width="2" height="1"/><rect x="80" y="20" width="2" height="1"/><rect x="83" y="20" width="3" height="1"/><rect x="93" y="20" width="5" height="1"/><rect x="102" y="20" width="2" height="1"/><rect x="106" y="20" width="2" height="1"/><rect x="114" y="20" width="2" height="1"/><rect x="13" y="21" width="1" height="1"/><rect x="16" y="21" width="6" height="1"/><rect x="25" y="21" width="8" height="1"/><rect x="37" y="21" width="7" height="1"/><rect x="46" y="21" width="4" height="1"/><rect x="52" y="21" width="3" height="1"/><rect x="56" y="21" width="1" height="1"/><rect x="63" y="21" width="1" height="1"/><rect x="66" y="21" width="1" height="1"/><rect x="69" y="21" width="1" height="1"/><rect x="74" y="21" width="1" height="1"/><rect x="78" y="21" width="1" height="1"/><rect x="82" y="21" width="1" height="1"/><rect x="86" y="21" width="6" height="1"/><rect x="99" y="21" width="2" height="1"/><rect x="104" y="21" width="2" height="1"/><rect x="109" y="21" width="4" height="1"/><rect x="116" y="21" width="1" height="1"/><rect x="12" y="22" width="1" height="1"/><rect x="15" y="22" width="8" height="1"/><rect x="25" y="22" width="9" height="1"/><rect x="36" y="22" width="9" height="1"/><rect x="46" y="22" width="4" height="1"/><rect x="51" y="22" width="4" height="1"/><rect x="56" y="22" width="1" height="1"/><rect x="63" y="22" width="1" height="1"/><rect x="65" y="22" width="3" height="1"/><rect x="69" y="22" width="1" height="1"/><rect x="74" y="22" width="1" height="1"/><rect x="76" y="22" width="5" height="1"/><rect x="84" y="22" width="10" height="1"/><rect x="96" y="22" width="7" height="1"/><rect x="107" y="22" width="8" height="1"/><rect x="117" y="22" width="1" height="1"/><rect x="12" y="23" width="1" height="1"/><rect x="14" y="23" width="10" height="1"/><rect x="25" y="23" width="9" height="1"/><rect x="36" y="23" width="14" height="1"/><rect x="51" y="23" width="4" height="1"/><rect x="56" y="23" width="1" height="1"/><rect x="63" y="23" width="1" height="1"/><rect x="65" y="23" width="3" height="1"/><rect x="69" y="23" width="1" height="1"/><rect x="74" y="23" width="1" height="1"/><rect x="76" y="23" width="6" height="1"/><rect x="84" y="23" width="10" height="1"/><rect x="95" y="23" width="9" height="1"/><rect x="107" y="23" width="9" height="1"/><rect x="118" y="23" width="1" height="1"/><rect x="11" y="24" width="1" height="1"/><rect x="14" y="24" width="9" height="1"/><rect x="25" y="24" width="9" height="1"/><rect x="36" y="24" width="13" height="1"/><rect x="51" y="24" width="4" height="1"/><rect x="56" y="24" width="1" height="1"/><rect x="63" y="24" width="1" height="1"/><rect x="65" y="24" width="3" height="1"/><rect x="69" y="24" width="1" height="1"/><rect x="73" y="24" width="1" height="1"/><rect x="76" y="24" width="6" height="1"/><rect x="85" y="24" width="8" height="1"/><rect x="95" y="24" width="4" height="1"/><rect x="100" y="24" width="5" height="1"/><rect x="107" y="24" width="4" height="1"/><rect x="113" y="24" width="4" height="1"/><rect x="118" y="24" width="1" height="1"/><rect x="11" y="25" width="1" height="1"/><rect x="13" y="25" width="5" height="1"/><rect x="19" y="25" width="4" height="1"/><rect x="24" y="25" width="4" height="1"/><rect x="30" y="25" width="4" height="1"/><rect x="36" y="25" width="4" height="1"/><rect x="41" y="25" width="8" height="1"/><rect x="51" y="25" width="4" height="1"/><rect x="56" y="25" width="1" height="1"/><rect x="63" y="25" width="1" height="1"/><rect x="65" y="25" width="3" height="1"/><rect x="69" y="25" width="1" height="1"/><rect x="73" y="25" width="1" height="1"/><rect x="75" y="25" width="3" height="1"/><rect x="79" y="25" width="3" height="1"/><rect x="87" y="25" width="4" height="1"/><rect x="95" y="25" width="4" height="1"/><rect x="101" y="25" width="4" height="1"/><rect x="107" y="25" width="4" height="1"/><rect x="114" y="25" width="3" height="1"/><rect x="118" y="25" width="1" height="1"/><rect x="11" y="26" width="1" height="1"/><rect x="13" y="26" width="4" height="1"/><rect x="19" y="26" width="4" height="1"/><rect x="24" y="26" width="4" height="1"/><rect x="29" y="26" width="5" height="1"/><rect x="35" y="26" width="4" height="1"/><rect x="41" y="26" width="8" height="1"/><rect x="50" y="26" width="5" height="1"/><rect x="56" y="26" width="1" height="1"/><rect x="63" y="26" width="1" height="1"/><rect x="65" y="26" width="3" height="1"/><rect x="69" y="26" width="1" height="1"/><rect x="73" y="26" width="1" height="1"/><rect x="75" y="26" width="3" height="1"/><rect x="79" y="26" width="3" height="1"/><rect x="87" y="26" width="4" height="1"/><rect x="95" y="26" width="4" height="1"/><rect x="101" y="26" width="4" height="1"/><rect x="107" y="26" width="4" height="1"/><rect x="114" y="26" width="3" height="1"/><rect x="118" y="26" width="1" height="1"/><rect x="11" y="27" width="1" height="1"/><rect x="13" y="27" width="4" height="1"/><rect x="19" y="27" width="4" height="1"/><rect x="24" y="27" width="9" height="1"/><rect x="35" y="27" width="4" height="1"/><rect x="41" y="27" width="8" height="1"/><rect x="50" y="27" width="4" height="1"/><rect x="57" y="27" width="6" height="1"/><rect x="65" y="27" width="3" height="1"/><rect x="69" y="27" width="1" height="1"/><rect x="72" y="27" width="1" height="1"/><rect x="75" y="27" width="3" height="1"/><rect x="79" y="27" width="4" height="1"/><rect x="87" y="27" width="4" height="1"/><rect x="95" y="27" width="4" height="1"/><rect x="101" y="27" width="4" height="1"/><rect x="107" y="27" width="4" height="1"/><rect x="113" y="27" width="4" height="1"/><rect x="118" y="27" width="1" height="1"/><rect x="11" y="28" width="1" height="1"/><rect x="13" y="28" width="4" height="1"/><rect x="18" y="28" width="4" height="1"/><rect x="24" y="28" width="8" height="1"/><rect x="35" y="28" width="4" height="1"/><rect x="40" y="28" width="8" height="1"/><rect x="50" y="28" width="4" height="1"/><rect x="65" y="28" width="3" height="1"/><rect x="69" y="28" width="1" height="1"/><rect x="72" y="28" width="1" height="1"/><rect x="74" y="28" width="4" height="1"/><rect x="80" y="28" width="3" height="1"/><rect x="87" y="28" width="4" height="1"/><rect x="95" y="28" width="4" height="1"/><rect x="101" y="28" width="4" height="1"/><rect x="107" y="28" width="9" height="1"/><rect x="118" y="28" width="1" height="1"/><rect x="10" y="29" width="1" height="1"/><rect x="13" y="29" width="9" height="1"/><rect x="23" y="29" width="9" height="1"/><rect x="35" y="29" width="4" height="1"/><rect x="40" y="29" width="8" height="1"/><rect x="50" y="29" width="4" height="1"/><rect x="56" y="29" width="6" height="1"/><rect x="65" y="29" width="3" height="1"/><rect x="69" y="29" width="1" height="1"/><rect x="72" y="29" width="1" height="1"/><rect x="74" y="29" width="3" height="1"/><rect x="80" y="29" width="3" height="1"/><rect x="87" y="29" width="4" height="1"/><rect x="95" y="29" width="4" height="1"/><rect x="101" y="29" width="4" height="1"/><rect x="107" y="29" width="8" height="1"/><rect x="117" y="29" width="1" height="1"/><rect x="10" y="30" width="1" height="1"/><rect x="12" y="30" width="10" height="1"/><rect x="23" y="30" width="10" height="1"/><rect x="34" y="30" width="4" height="1"/><rect x="40" y="30" width="8" height="1"/><rect x="50" y="30" width="4" height="1"/><rect x="56" y="30" width="6" height="1"/><rect x="65" y="30" width="3" height="1"/><rect x="69" y="30" width="1" height="1"/><rect x="72" y="30" width="1" height="1"/><rect x="74" y="30" width="10" height="1"/><rect x="87" y="30" width="4" height="1"/><rect x="95" y="30" width="4" height="1"/><rect x="101" y="30" width="4" height="1"/><rect x="107" y="30" width="4" height="1"/><rect x="112" y="30" width="4" height="1"/><rect x="117" y="30" width="1" height="1"/><rect x="10" y="31" width="1" height="1"/><rect x="12" y="31" width="10" height="1"/><rect x="23" y="31" width="4" height="1"/><rect x="29" y="31" width="4" height="1"/><rect x="34" y="31" width="4" height="1"/><rect x="40" y="31" width="8" height="1"/><rect x="49" y="31" width="4" height="1"/><rect x="65" y="31" width="3" height="1"/><rect x="70" y="31" width="2" height="1"/><rect x="74" y="31" width="10" height="1"/><rect x="87" y="31" width="4" height="1"/><rect x="95" y="31" width="4" height="1"/><rect x="101" y="31" width="4" height="1"/><rect x="107" y="31" width="4" height="1"/><rect x="113" y="31" width="3" height="1"/><rect x="118" y="31" width="1" height="1"/><rect x="10" y="32" width="1" height="1"/><rect x="12" y="32" width="4" height="1"/><rect x="17" y="32" width="5" height="1"/><rect x="23" y="32" width="4" height="1"/><rect x="28" y="32" width="4" height="1"/><rect x="34" y="32" width="19" height="1"/><rect x="55" y="32" width="8" height="1"/><rect x="65" y="32" width="3" height="1"/><rect x="74" y="32" width="10" height="1"/><rect x="87" y="32" width="4" height="1"/><rect x="95" y="32" width="4" height="1"/><rect x="101" y="32" width="4" height="1"/><rect x="107" y="32" width="4" height="1"/><rect x="113" y="32" width="4" height="1"/><rect x="118" y="32" width="1" height="1"/><rect x="9" y="33" width="1" height="1"/><rect x="12" y="33" width="4" height="1"/><rect x="17" y="33" width="4" height="1"/><rect x="22" y="33" width="5" height="1"/><rect x="28" y="33" width="4" height="1"/><rect x="34" y="33" width="19" height="1"/><rect x="54" y="33" width="1" height="1"/><rect x="63" y="33" width="1" height="1"/><rect x="65" y="33" width="7" height="1"/><rect x="74" y="33" width="3" height="1"/><rect x="81" y="33" width="3" height="1"/><rect x="87" y="33" width="4" height="1"/><rect x="95" y="33" width="9" height="1"/><rect x="107" y="33" width="4" height="1"/><rect x="113" y="33" width="4" height="1"/><rect x="118" y="33" width="1" height="1"/><rect x="9" y="34" width="1" height="1"/><rect x="11" y="34" width="5" height="1"/><rect x="17" y="34" width="4" height="1"/><rect x="22" y="34" width="4" height="1"/><rect x="28" y="34" width="4" height="1"/><rect x="33" y="34" width="19" height="1"/><rect x="54" y="34" width="1" height="1"/><rect x="63" y="34" width="1" height="1"/><rect x="65" y="34" width="7" height="1"/><rect x="74" y="34" width="3" height="1"/><rect x="81" y="34" width="3" height="1"/><rect x="87" y="34" width="4" height="1"/><rect x="93" y="34" width="1" height="1"/><rect x="96" y="34" width="8" height="1"/><rect x="107" y="34" width="4" height="1"/><rect x="113" y="34" width="4" height="1"/><rect x="118" y="34" width="1" height="1"/><rect x="9" y="35" width="1" height="1"/><rect x="11" y="35" width="4" height="1"/><rect x="17" y="35" width="4" height="1"/><rect x="22" y="35" width="4" height="1"/><rect x="28" y="35" width="2" height="1"/><rect x="33" y="35" width="9" height="1"/><rect x="44" y="35" width="7" height="1"/><rect x="53" y="35" width="1" height="1"/><rect x="63" y="35" width="1" height="1"/><rect x="65" y="35" width="7" height="1"/><rect x="74" y="35" width="2" height="1"/><rect x="78" y="35" width="1" height="1"/><rect x="81" y="35" width="2" height="1"/><rect x="85" y="35" width="1" height="1"/><rect x="88" y="35" width="2" height="1"/><rect x="92" y="35" width="1" height="1"/><rect x="94" y="35" width="1" height="1"/><rect x="97" y="35" width="6" height="1"/><rect x="105" y="35" width="1" height="1"/><rect x="108" y="35" width="2" height="1"/><rect x="114" y="35" width="3" height="1"/><rect x="118" y="35" width="1" height="1"/><rect x="9" y="36" width="1" height="1"/><rect x="12" y="36" width="2" height="1"/><rect x="18" y="36" width="2" height="1"/><rect x="23" y="36" width="2" height="1"/><rect x="28" y="36" width="1" height="1"/><rect x="33" y="36" width="7" height="1"/><rect x="46" y="36" width="4" height="1"/><rect x="52" y="36" width="1" height="1"/><rect x="63" y="36" width="1" height="1"/><rect x="77" y="36" width="1" height="1"/><rect x="79" y="36" width="1" height="1"/><rect x="84" y="36" width="1" height="1"/><rect x="86" y="36" width="1" height="1"/><rect x="91" y="36" width="1" height="1"/><rect x="95" y="36" width="1" height="1"/><rect x="104" y="36" width="1" height="1"/><rect x="106" y="36" width="1" height="1"/><rect x="111" y="36" width="2" height="1"/><rect x="118" y="36" width="1" height="1"/><rect x="10" y="37" width="1" height="1"/><rect x="15" y="37" width="2" height="1"/><rect x="21" y="37" width="1" height="1"/><rect x="26" y="37" width="1" height="1"/><rect x="30" y="37" width="2" height="1"/><rect x="41" y="37" width="4" height="1"/><rect x="51" y="37" width="1" height="1"/><rect x="64" y="37" width="13" height="1"/><rect x="80" y="37" width="4" height="1"/><rect x="87" y="37" width="4" height="1"/><rect x="96" y="37" width="8" height="1"/><rect x="107" y="37" width="4" height="1"/><rect x="113" y="37" width="5" height="1"/><rect x="11" y="38" width="4" height="1"/><rect x="17" y="38" width="4" height="1"/><rect x="22" y="38" width="4" height="1"/><rect x="27" y="38" width="3" height="1"/><rect x="32" y="38" width="9" height="1"/><rect x="45" y="38" width="6" height="1"/><rect x="42" y="41" width="2" height="1"/><rect x="53" y="41" width="1" height="1"/><rect x="56" y="41" width="1" height="1"/><rect x="42" y="42" width="1" height="1"/><rect x="44" y="42" width="1" height="1"/><rect x="46" y="42" width="1" height="1"/><rect x="49" y="42" width="1" height="1"/><rect x="53" y="42" width="1" height="1"/><rect x="56" y="42" width="1" height="1"/><rect x="59" y="42" width="1" height="1"/><rect x="63" y="42" width="1" height="1"/><rect x="66" y="42" width="1" height="1"/><rect x="75" y="42" width="1" height="1"/><rect x="77" y="42" width="1" height="1"/><rect x="79" y="42" width="2" height="1"/><rect x="85" y="42" width="1" height="1"/><rect x="87" y="42" width="3" height="1"/><rect x="42" y="43" width="1" height="1"/><rect x="44" y="43" width="1" height="1"/><rect x="46" y="43" width="1" height="1"/><rect x="49" y="43" width="1" height="1"/><rect x="53" y="43" width="1" height="1"/><rect x="56" y="43" width="1" height="1"/><rect x="58" y="43" width="1" height="1"/><rect x="60" y="43" width="1" height="1"/><rect x="62" y="43" width="1" height="1"/><rect x="64" y="43" width="1" height="1"/><rect x="66" y="43" width="1" height="1"/><rect x="68" y="43" width="1" height="1"/><rect x="75" y="43" width="1" height="1"/><rect x="77" y="43" width="1" height="1"/><rect x="79" y="43" width="1" height="1"/><rect x="81" y="43" width="1" height="1"/><rect x="85" y="43" width="1" height="1"/><rect x="88" y="43" width="1" height="1"/><rect x="42" y="44" width="2" height="1"/><rect x="47" y="44" width="2" height="1"/><rect x="53" y="44" width="4" height="1"/><rect x="60" y="44" width="1" height="1"/><rect x="62" y="44" width="1" height="1"/><rect x="66" y="44" width="1" height="1"/><rect x="68" y="44" width="1" height="1"/><rect x="75" y="44" width="1" height="1"/><rect x="77" y="44" width="1" height="1"/><rect x="79" y="44" width="1" height="1"/><rect x="81" y="44" width="1" height="1"/><rect x="84" y="44" width="2" height="1"/><rect x="88" y="44" width="1" height="1"/><rect x="42" y="45" width="1" height="1"/><rect x="44" y="45" width="1" height="1"/><rect x="48" y="45" width="1" height="1"/><rect x="53" y="45" width="1" height="1"/><rect x="56" y="45" width="1" height="1"/><rect x="58" y="45" width="3" height="1"/><rect x="62" y="45" width="1" height="1"/><rect x="66" y="45" width="2" height="1"/><rect x="75" y="45" width="1" height="1"/><rect x="77" y="45" width="1" height="1"/><rect x="79" y="45" width="2" height="1"/><rect x="83" y="45" width="1" height="1"/><rect x="85" y="45" width="1" height="1"/><rect x="88" y="45" width="1" height="1"/><rect x="42" y="46" width="1" height="1"/><rect x="44" y="46" width="1" height="1"/><rect x="46" y="46" width="1" height="1"/><rect x="48" y="46" width="1" height="1"/><rect x="53" y="46" width="1" height="1"/><rect x="56" y="46" width="1" height="1"/><rect x="58" y="46" width="1" height="1"/><rect x="60" y="46" width="1" height="1"/><rect x="62" y="46" width="1" height="1"/><rect x="64" y="46" width="1" height="1"/><rect x="66" y="46" width="1" height="1"/><rect x="68" y="46" width="1" height="1"/><rect x="75" y="46" width="1" height="1"/><rect x="77" y="46" width="1" height="1"/><rect x="79" y="46" width="1" height="1"/><rect x="83" y="46" width="1" height="1"/><rect x="85" y="46" width="1" height="1"/><rect x="88" y="46" width="1" height="1"/><rect x="42" y="47" width="2" height="1"/><rect x="47" y="47" width="1" height="1"/><rect x="53" y="47" width="1" height="1"/><rect x="56" y="47" width="1" height="1"/><rect x="58" y="47" width="3" height="1"/><rect x="63" y="47" width="1" height="1"/><rect x="66" y="47" width="1" height="1"/><rect x="68" y="47" width="1" height="1"/><rect x="76" y="47" width="1" height="1"/><rect x="79" y="47" width="1" height="1"/><rect x="84" y="47" width="2" height="1"/><rect x="88" y="47" width="1" height="1"/><rect x="70" y="48" width="4" height="1"/></g>
</svg>
