<svg xmlns="http://www.w3.org/2000/svg" viewBox="0 0 128 64" width="128" height="64" shape-rendering="crispEdges">
  <rect width="128" height="64" fill="#020406"/>
  <g fill="#fff"><rect x="26" y="18" width="6" height="1"/><rect x="38" y="18" width="6" height="1"/><rect x="48" y="18" width="2" height="1"/><rect x="56" y="18" width="2" height="1"/><rect x="60" y="18" width="10" height="1"/><rect x="26" y="19" width="6" height="1"/><rect x="38" y="19" width="6" height="1"/><rect x="48" y="19" width="2" height="1"/><rect x="56" y="19" width="2" height="1"/><rect x="60" y="19" width="10" height="1"/><rect x="24" y="20" width="2" height="1"/><rect x="32" y="20" width="2" height="1"/><rect x="36" y="20" width="2" height="1"/><rect x="44" y="20" width="2" height="1"/><rect x="48" y="20" width="4" height="1"/><rect x="54" y="20" width="4" height="1"/><rect x="60" y="20" width="2" height="1"/><rect x="24" y="21" width="2" height="1"/><rect x="32" y="21" width="2" height="1"/><rect x="36" y="21" width="2" height="1"/><rect x="44" y="21" width="2" height="1"/><rect x="48" y="21" width="4" height="1"/><rect x="54" y="21" width="4" height="1"/><rect x="60" y="21" width="2" height="1"/><rect x="24" y="22" width="2" height="1"/><rect x="36" y="22" width="2" height="1"/><rect x="44" y="22" width="2" height="1"/><rect x="48" y="22" width="2" height="1"/><rect x="52" y="22" width="2" height="1"/><rect x="56" y="22" width="2" height="1"/><rect x="60" y="22" width="2" height="1"/><rect x="24" y="23" width="2" height="1"/><rect x="36" y="23" width="2" height="1"/><rect x="44" y="23" width="2" height="1"/><rect x="48" y="23" width="2" height="1"/><rect x="52" y="23" width="2" height="1"/><rect x="56" y="23" width="2" height="1"/><rect x="60" y="23" width="2" height="1"/><rect x="24" y="24" width="2" height="1"/><rect x="28" y="24" width="6" height="1"/><rect x="36" y="24" width="10" height="1"/><rect x="48" y="24" width="2" height="1"/><rect x="52" y="24" width="2" height="1"/><rect x="56" y="24" width="2" height="1"/><rect x="60" y="24" width="8" height="1"/><rect x="24" y="25" width="2" height="1"/><rect x="28" y="25" width="6" height="1"/><rect x="36" y="25" width="10" height="1"/><rect x="48" y="25" width="2" height="1"/><rect x="52" y="25" width="2" height="1"/><rect x="56" y="25" width="2" height="1"/><rect x="60" y="25" width="8" height="1"/><rect x="24" y="26" width="2" height="1"/><rect x="32" y="26" width="2" height="1"/><rect x="36" y="26" width="2" height="1"/><rect x="44" y="26" width="2" height="1"/><rect x="48" y="26" width="2" height="1"/><rect x="56" y="26" width="2" height="1"/><rect x="60" y="26" width="2" height="1"/><rect x="24" y="27" width="2" height="1"/><rect x="32" y="27" width="2" height="1"/><rect x="36" y="27" width="2" height="1"/><rect x="44" y="27" width="2" height="1"/><rect x="48" y="27" width="2" height="1"/><rect x="56" y="27" width="2" height="1"/><rect x="60" y="27" width="2" height="1"/><rect x="24" y="28" width="2" height="1"/><rect x="32" y="28" width="2" height="1"/><rect x="36" y="28" width="2" height="1"/><rect x="44" y="28" width="2" height="1"/><rect x="48" y="28" width="2" height="1"/><rect x="56" y="28" width="2" height="1"/><rect x="60" y="28" width="2" height="1"/><rect x="24" y="29" width="2" height="1"/><rect x="32" y="29" width="2" height="1"/><rect x="36" y="29" width="2" height="1"/><rect x="44" y="29" width="2" height="1"/><rect x="48" y="29" width="2" height="1"/><rect x="56" y="29" width="2" height="1"/><rect x="60" y="29" width="2" height="1"/><rect x="26" y="30" width="6" height="1"/><rect x="36" y="30" width="2" height="1"/><rect x="44" y="30" width="2" height="1"/><rect x="48" y="30" width="2" height="1"/><rect x="56" y="30" width="2" height="1"/><rect x="60" y="30" width="10" height="1"/><rect x="26" y="31" width="6" height="1"/><rect x="36" y="31" width="2" height="1"/><rect x="44" y="31" width="2" height="1"/><rect x="48" y="31" width="2" height="1"/><rect x="56" y="31" width="2" height="1"/><rect x="60" y="31" width="10" height="1"/><rect x="26" y="36" width="6" height="1"/><rect x="36" y="36" width="2" height="1"/><rect x="44" y="36" width="2" height="1"/><rect x="48" y="36" width="10" height="1"/><rect x="60" y="36" width="8" height="1"/><rect x="26" y="37" width="6" height="1"/><rect x="36" y="37" width="2" height="1"/><rect x="44" y="37" width="2" height="1"/><rect x="48" y="37" width="10" height="1"/><rect x="60" y="37" width="8" height="1"/><rect x="24" y="38" width="2" height="1"/><rect x="32" y="38" width="2" height="1"/><rect x="36" y="38" width="2" height="1"/><rect x="44" y="38" width="2" height="1"/><rect x="48" y="38" width="2" height="1"/><rect x="60" y="38" width="2" height="1"/><rect x="68" y="38" width="2" height="1"/><rect x="24" y="39" width="2" height="1"/><rect x="32" y="39" width="2" height="1"/><rect x="36" y="39" width="2" height="1"/><rect x="44" y="39" width="2" height="1"/><rect x="48" y="39" width="2" height="1"/><rect x="60" y="39" width="2" height="1"/><rect x="68" y="39" width="2" height="1"/><rect x="24" y="40" width="2" height="1"/><rect x="32" y="40" width="2" height="1"/><rect x="36" y="40" width="2" height="1"/><rect x="44" y="40" width="2" height="1"/><rect x="48" y="40" width="2" height="1"/><rect x="60" y="40" width="2" height="1"/><rect x="68" y="40" width="2" height="1"/><rect x="24" y="41" width="2" height="1"/><rect x="32" y="41" width="2" height="1"/><rect x="36" y="41" width="2" height="1"/><rect x="44" y="41" width="2" height="1"/><rect x="48" y="41" width="2" height="1"/><rect x="60" y="41" width="2" height="1"/><rect x="68" y="41" width="2" height="1"/><rect x="24" y="42" width="2" height="1"/><rect x="32" y="42" width="2" height="1"/><rect x="36" y="42" width="2" height="1"/><rect x="44" y="42" width="2" height="1"/><rect x="48" y="42" width="8" height="1"/><rect x="60" y="42" width="8" height="1"/><rect x="24" y="43" width="2" height="1"/><rect x="32" y="43" width="2" height="1"/><rect x="36" y="43" width="2" height="1"/><rect x="44" y="43" width="2" height="1"/><rect x="48" y="43" width="8" height="1"/><rect x="60" y="43" width="8" height="1"/><rect x="24" y="44" width="2" height="1"/><rect x="32" y="44" width="2" height="1"/><rect x="36" y="44" width="2" height="1"/><rect x="44" y="44" width="2" height="1"/><rect x="48" y="44" width="2" height="1"/><rect x="60" y="44" width="2" height="1"/><rect x="64" y="44" width="2" height="1"/><rect x="24" y="45" width="2" height="1"/><rect x="32" y="45" width="2" height="1"/><rect x="36" y="45" width="2" height="1"/><rect x="44" y="45" width="2" height="1"/><rect x="48" y="45" width="2" height="1"/><rect x="60" y="45" width="2" height="1"/><rect x="64" y="45" width="2" height="1"/><rect x="24" y="46" width="2" height="1"/><rect x="32" y="46" width="2" height="1"/><rect x="38" y="46" width="2" height="1"/><rect x="42" y="46" width="2" height="1"/><rect x="48" y="46" width="2" height="1"/><rect x="60" y="46" width="2" height="1"/><rect x="66" y="46" width="2" height="1"/><rect x="24" y="47" width="2" height="1"/><rect x="32" y="47" width="2" height="1"/><rect x="38" y="47" width="2" height="1"/><rect x="42" y="47" width="2" height="1"/><rect x="48" y="47" width="2" height="1"/><rect x="60" y="47" width="2" height="1"/><rect x="66" y="47" width="2" height="1"/><rect x="26" y="48" width="6" height="1"/><rect x="40" y="48" width="2" height="1"/><rect x="48" y="48" width="10" height="1"/><rect x="60" y="48" width="2" height="1"/><rect x="68" y="48" width="2" height="1"/><rect x="26" y="49" width="6" height="1"/><rect x="40" y="49" width="2" height="1"/><rect x="48" y="49" width="10" height="1"/><rect x="60" y="49" width="2" height="1"/><rect x="68" y="49" width="2" height="1"/><rect x="29" y="56" width="4" height="1"/><rect x="35" y="56" width="3" height="1"/><rect x="41" y="56" width="3" height="1"/><rect x="46" y="56" width="4" height="1"/><rect x="52" y="56" width="5" height="1"/><rect x="65" y="56" width="3" height="1"/><rect x="28" y="57" width="1" height="1"/><rect x="34" y="57" width="1" height="1"/><rect x="38" y="57" width="1" height="1"/><rect x="40" y="57" width="1" height="1"/><rect x="44" y="57" width="1" height="1"/><rect x="46" y="57" width="1" height="1"/><rect x="50" y="57" width="1" height="1"/><rect x="52" y="57" width="1" height="1"/><rect x="59" y="57" width="2" height="1"/><rect x="64" y="57" width="1" height="1"/><rect x="68" y="57" width="1" height="1"/><rect x="28" y="58" width="1" height="1"/><rect x="34" y="58" width="1" height="1"/><rect x="40" y="58" width="1" height="1"/><rect x="44" y="58" width="1" height="1"/><rect x="46" y="58" width="1" height="1"/><rect x="50" y="58" width="1" height="1"/><rect x="52" y="58" width="1" height="1"/><rect x="59" y="58" width="2" height="1"/><rect x="64" y="58" width="1" height="1"/><rect x="67" y="58" width="2" height="1"/><rect x="29" y="59" width="3" height="1"/><rect x="34" y="59" width="1" height="1"/><rect x="40" y="59" width="1" height="1"/><rect x="44" y="59" width="1" height="1"/><rect x="46" y="59" width="4" height="1"/><rect x="52" y="59" width="4" height="1"/><rect x="64" y="59" width="1" height="1"/><rect x="66" y="59" width="1" height="1"/><rect x="68" y="59" width="1" height="1"/><rect x="32" y="60" width="1" height="1"/><rect x="34" y="60" width="1" height="1"/><rect x="40" y="60" width="1" height="1"/><rect x="44" y="60" width="1" height="1"/><rect x="46" y="60" width="1" height="1"/><rect x="48" y="60" width="1" height="1"/><rect x="52" y="60" width="1" height="1"/><rect x="59" y="60" width="2" height="1"/><rect x="64" y="60" width="2" height="1"/><rect x="68" y="60" width="1" height="1"/><rect x="32" y="61" width="1" height="1"/><rect x="34" y="61" width="1" height="1"/><rect x="38" y="61" width="1" height="1"/><rect x="40" y="61" width="1" height="1"/><rect x="44" y="61" width="1" height="1"/><rect x="46" y="61" width="1" height="1"/><rect x="49" y="61" width="1" height="1"/><rect x="52" y="61" width="1" height="1"/><rect x="59" y="61" width="2" height="1"/><rect x="64" y="61" width="1" height="1"/><rect x="68" y="61" width="1" height="1"/><rect x="28" y="62" width="4" height="1"/><rect x="35" y="62" width="3" height="1"/><rect x="41" y="62" width="3" height="1"/><rect x="46" y="62" width="1" height="1"/><rect x="50" y="62" width="1" height="1"/><rect x="52" y="62" width="5" height="1"/><rect x="65" y="62" width="3" height="1"/></g>
</svg>
