<svg xmlns="http://www.w3.org/2000/svg" viewBox="0 0 128 64" width="128" height="64" shape-rendering="crispEdges">
  <rect width="128" height="64" fill="#020406"/>
  <g fill="#fff"><rect x="0" y="0" width="1" height="1"/><rect x="6" y="0" width="1" height="1"/><rect x="10" y="0" width="1" height="1"/><rect x="12" y="0" width="1" height="1"/><rect x="26" y="0" width="1" height="1"/><rect x="86" y="0" width="4" height="1"/><rect x="92" y="0" width="5" height="1"/><rect x="99" y="0" width="4" height="1"/><rect x="111" y="0" width="3" height="1"/><rect x="0" y="1" width="1" height="1"/><rect x="6" y="1" width="1" height="1"/><rect x="10" y="1" width="1" height="1"/><rect x="12" y="1" width="1" height="1"/><rect x="19" y="1" width="2" height="1"/><rect x="25" y="1" width="2" height="1"/><rect x="86" y="1" width="1" height="1"/><rect x="90" y="1" width="1" height="1"/><rect x="94" y="1" width="1" height="1"/><rect x="98" y="1" width="1" height="1"/><rect x="105" y="1" width="2" height="1"/><rect x="110" y="1" width="1" height="1"/><rect x="114" y="1" width="1" height="1"/><rect x="0" y="2" width="1" height="1"/><rect x="6" y="2" width="1" height="1"/><rect x="10" y="2" width="1" height="1"/><rect x="12" y="2" width="1" height="1"/><rect x="19" y="2" width="2" height="1"/><rect x="26" y="2" width="1" height="1"/><rect x="86" y="2" width="1" height="1"/><rect x="90" y="2" width="1" height="1"/><rect x="94" y="2" width="1" height="1"/><rect x="98" y="2" width="1" height="1"/><rect x="105" y="2" width="2" height="1"/><rect x="110" y="2" width="1" height="1"/><rect x="113" y="2" width="2" height="1"/><rect x="0" y="3" width="1" height="1"/><rect x="6" y="3" width="1" height="1"/><rect x="10" y="3" width="1" height="1"/><rect x="12" y="3" width="1" height="1"/><rect x="26" y="3" width="1" height="1"/><rect x="86" y="3" width="4" height="1"/><rect x="94" y="3" width="1" height="1"/><rect x="99" y="3" width="3" height="1"/><rect x="110" y="3" width="1" height="1"/><rect x="112" y="3" width="1" height="1"/><rect x="114" y="3" width="1" height="1"/><rect x="0" y="4" width="1" height="1"/><rect x="6" y="4" width="1" height="1"/><rect x="10" y="4" width="1" height="1"/><rect x="12" y="4" width="1" height="1"/><rect x="19" y="4" width="2" height="1"/><rect x="26" y="4" width="1" height="1"/><rect x="86" y="4" width="1" height="1"/><rect x="94" y="4" width="1" height="1"/><rect x="102" y="4" width="1" height="1"/><rect x="105" y="4" width="2" height="1"/><rect x="110" y="4" width="2" height="1"/><rect x="114" y="4" width="1" height="1"/><rect x="0" y="5" width="1" height="1"/><rect x="7" y="5" width="1" height="1"/><rect x="9" y="5" width="1" height="1"/><rect x="12" y="5" width="1" height="1"/><rect x="19" y="5" width="2" height="1"/><rect x="26" y="5" width="1" height="1"/><rect x="75" y="5" width="1" height="1"/><rect x="79" y="5" width="3" height="1"/><rect x="86" y="5" width="1" height="1"/><rect x="89" y="5" width="2" height="1"/><rect x="94" y="5" width="1" height="1"/><rect x="102" y="5" width="1" height="1"/><rect x="105" y="5" width="2" height="1"/><rect x="110" y="5" width="1" height="1"/><rect x="114" y="5" width="1" height="1"/><rect x="0" y="6" width="5" height="1"/><rect x="8" y="6" width="1" height="1"/><rect x="12" y="6" width="5" height="1"/><rect x="25" y="6" width="3" height="1"/><rect x="71" y="6" width="2" height="1"/><rect x="74" y="6" width="3" height="1"/><rect x="78" y="6" width="5" height="1"/><rect x="84" y="6" width="8" height="1"/><rect x="94" y="6" width="3" height="1"/><rect x="98" y="6" width="4" height="1"/><rect x="111" y="6" width="3" height="1"/><rect x="9" y="7" width="1" height="1"/><rect x="70" y="7" width="22" height="1"/><rect x="93" y="7" width="9" height="1"/><rect x="125" y="7" width="1" height="1"/><rect x="8" y="8" width="3" height="1"/><rect x="71" y="8" width="2" height="1"/><rect x="74" y="8" width="9" height="1"/><rect x="84" y="8" width="2" height="1"/><rect x="88" y="8" width="3" height="1"/><rect x="94" y="8" width="3" height="1"/><rect x="98" y="8" width="3" height="1"/><rect x="124" y="8" width="3" height="1"/><rect x="7" y="9" width="5" height="1"/><rect x="75" y="9" width="3" height="1"/><rect x="79" y="9" width="3" height="1"/><rect x="87" y="9" width="1" height="1"/><rect x="89" y="9" width="1" height="1"/><rect x="92" y="9" width="1" height="1"/><rect x="123" y="9" width="5" height="1"/><rect x="6" y="10" width="7" height="1"/><rect x="22" y="10" width="2" height="1"/><rect x="79" y="10" width="1" height="1"/><rect x="122" y="10" width="6" height="1"/><rect x="5" y="11" width="3" height="1"/><rect x="9" y="11" width="3" height="1"/><rect x="13" y="11" width="1" height="1"/><rect x="21" y="11" width="4" height="1"/><rect x="35" y="11" width="1" height="1"/><rect x="56" y="11" width="1" height="1"/><rect x="77" y="11" width="2" height="1"/><rect x="80" y="11" width="1" height="1"/><rect x="120" y="11" width="2" height="1"/><rect x="123" y="11" width="1" height="1"/><rect x="125" y="11" width="1" height="1"/><rect x="127" y="11" width="1" height="1"/><rect x="4" y="12" width="3" height="1"/><rect x="8" y="12" width="2" height="1"/><rect x="14" y="12" width="1" height="1"/><rect x="20" y="12" width="2" height="1"/><rect x="23" y="12" width="3" height="1"/><rect x="34" y="12" width="1" height="1"/><rect x="36" y="12" width="1" height="1"/><rect x="47" y="12" width="1" height="1"/><rect x="55" y="12" width="3" height="1"/><rect x="63" y="12" width="1" height="1"/><rect x="75" y="12" width="5" height="1"/><rect x="81" y="12" width="1" height="1"/><rect x="119" y="12" width="1" height="1"/><rect x="122" y="12" width="1" height="1"/><rect x="124" y="12" width="1" height="1"/><rect x="3" y="13" width="3" height="1"/><rect x="7" y="13" width="1" height="1"/><rect x="11" y="13" width="1" height="1"/><rect x="14" y="13" width="2" height="1"/><rect x="19" y="13" width="2" height="1"/><rect x="22" y="13" width="2" height="1"/><rect x="25" y="13" width="2" height="1"/><rect x="33" y="13" width="1" height="1"/><rect x="35" y="13" width="1" height="1"/><rect x="37" y="13" width="1" height="1"/><rect x="46" y="13" width="3" height="1"/><rect x="54" y="13" width="3" height="1"/><rect x="58" y="13" width="1" height="1"/><rect x="62" y="13" width="3" height="1"/><rect x="74" y="13" width="2" height="1"/><rect x="77" y="13" width="2" height="1"/><rect x="82" y="13" width="1" height="1"/><rect x="117" y="13" width="2" height="1"/><rect x="120" y="13" width="2" height="1"/><rect x="123" y="13" width="1" height="1"/><rect x="2" y="14" width="3" height="1"/><rect x="6" y="14" width="1" height="1"/><rect x="9" y="14" width="1" height="1"/><rect x="15" y="14" width="2" height="1"/><rect x="18" y="14" width="2" height="1"/><rect x="21" y="14" width="1" height="1"/><rect x="26" y="14" width="2" height="1"/><rect x="32" y="14" width="3" height="1"/><rect x="38" y="14" width="1" height="1"/><rect x="40" y="14" width="2" height="1"/><rect x="44" y="14" width="2" height="1"/><rect x="48" y="14" width="4" height="1"/><rect x="53" y="14" width="3" height="1"/><rect x="57" y="14" width="1" height="1"/><rect x="59" y="14" width="1" height="1"/><rect x="61" y="14" width="5" height="1"/><rect x="72" y="14" width="2" height="1"/><rect x="75" y="14" width="2" height="1"/><rect x="83" y="14" width="1" height="1"/><rect x="115" y="14" width="2" height="1"/><rect x="119" y="14" width="1" height="1"/><rect x="122" y="14" width="1" height="1"/><rect x="1" y="15" width="2" height="1"/><rect x="4" y="15" width="1" height="1"/><rect x="8" y="15" width="1" height="1"/><rect x="13" y="15" width="1" height="1"/><rect x="17" y="15" width="1" height="1"/><rect x="20" y="15" width="1" height="1"/><rect x="23" y="15" width="1" height="1"/><rect x="27" y="15" width="2" height="1"/><rect x="31" y="15" width="2" height="1"/><rect x="34" y="15" width="1" height="1"/><rect x="39" y="15" width="1" height="1"/><rect x="42" y="15" width="2" height="1"/><rect x="45" y="15" width="2" height="1"/><rect x="49" y="15" width="1" height="1"/><rect x="51" y="15" width="3" height="1"/><rect x="55" y="15" width="1" height="1"/><rect x="58" y="15" width="1" height="1"/><rect x="60" y="15" width="1" height="1"/><rect x="62" y="15" width="1" height="1"/><rect x="64" y="15" width="1" height="1"/><rect x="66" y="15" width="1" height="1"/><rect x="71" y="15" width="2" height="1"/><rect x="74" y="15" width="1" height="1"/><rect x="83" y="15" width="1" height="1"/><rect x="112" y="15" width="3" height="1"/><rect x="117" y="15" width="2" height="1"/><rect x="121" y="15" width="1" height="1"/><rect x="0" y="16" width="2" height="1"/><rect x="3" y="16" width="1" height="1"/><rect x="6" y="16" width="1" height="1"/><rect x="11" y="16" width="1" height="1"/><rect x="16" y="16" width="1" height="1"/><rect x="18" y="16" width="1" height="1"/><rect x="21" y="16" width="1" height="1"/><rect x="28" y="16" width="2" height="1"/><rect x="32" y="16" width="1" height="1"/><rect x="40" y="16" width="1" height="1"/><rect x="44" y="16" width="2" height="1"/><rect x="51" y="16" width="2" height="1"/><rect x="54" y="16" width="1" height="1"/><rect x="59" y="16" width="1" height="1"/><rect x="61" y="16" width="1" height="1"/><rect x="63" y="16" width="1" height="1"/><rect x="65" y="16" width="1" height="1"/><rect x="67" y="16" width="1" height="1"/><rect x="69" y="16" width="3" height="1"/><rect x="73" y="16" width="1" height="1"/><rect x="80" y="16" width="1" height="1"/><rect x="84" y="16" width="1" height="1"/><rect x="107" y="16" width="5" height="1"/><rect x="114" y="16" width="3" height="1"/><rect x="120" y="16" width="1" height="1"/><rect x="1" y="17" width="1" height="1"/><rect x="4" y="17" width="1" height="1"/><rect x="7" y="17" width="1" height="1"/><rect x="12" y="17" width="1" height="1"/><rect x="29" y="17" width="2" height="1"/><rect x="38" y="17" width="1" height="1"/><rect x="40" y="17" width="2" height="1"/><rect x="50" y="17" width="1" height="1"/><rect x="53" y="17" width="1" height="1"/><rect x="59" y="17" width="2" height="1"/><rect x="68" y="17" width="1" height="1"/><rect x="70" y="17" width="3" height="1"/><rect x="85" y="17" width="1" height="1"/><rect x="87" y="17" width="1" height="1"/><rect x="92" y="17" width="1" height="1"/><rect x="94" y="17" width="3" height="1"/><rect x="100" y="17" width="2" height="1"/><rect x="104" y="17" width="3" height="1"/><rect x="114" y="17" width="1" height="1"/><rect x="118" y="17" width="2" height="1"/><rect x="0" y="18" width="1" height="1"/><rect x="2" y="18" width="1" height="1"/><rect x="10" y="18" width="1" height="1"/><rect x="27" y="18" width="1" height="1"/><rect x="31" y="18" width="1" height="1"/><rect x="49" y="18" width="1" height="1"/><rect x="52" y="18" width="1" height="1"/><rect x="56" y="18" width="1" height="1"/><rect x="61" y="18" width="1" height="1"/><rect x="64" y="18" width="1" height="1"/><rect x="69" y="18" width="1" height="1"/><rect x="78" y="18" width="1" height="1"/><rect x="82" y="18" width="1" height="1"/><rect x="89" y="18" width="1" height="1"/><rect x="91" y="18" width="3" height="1"/><rect x="95" y="18" width="5" height="1"/><rect x="102" y="18" width="2" height="1"/><rect x="112" y="18" width="2" height="1"/><rect x="116" y="18" width="2" height="1"/><rect x="119" y="18" width="3" height="1"/><rect x="1" y="19" width="1" height="1"/><rect x="3" y="19" width="1" height="1"/><rect x="21" y="19" width="1" height="1"/><rect x="29" y="19" width="1" height="1"/><rect x="39" y="19" width="1" height="1"/><rect x="41" y="19" width="1" height="1"/><rect x="45" y="19" width="1" height="1"/><rect x="68" y="19" width="1" height="1"/><rect x="90" y="19" width="2" height="1"/><rect x="101" y="19" width="1" height="1"/><rect x="109" y="19" width="3" height="1"/><rect x="115" y="19" width="1" height="1"/><rect x="122" y="19" width="1" height="1"/><rect x="37" y="20" width="1" height="1"/><rect x="76" y="20" width="1" height="1"/><rect x="97" y="20" width="1" height="1"/><rect x="105" y="20" width="1" height="1"/><rect x="123" y="20" width="1" height="1"/><rect x="1" y="21" width="1" height="1"/><rect x="14" y="21" width="1" height="1"/><rect x="56" y="21" width="1" height="1"/><rect x="63" y="21" width="1" height="1"/><rect x="95" y="21" width="1" height="1"/><rect x="99" y="21" width="1" height="1"/><rect x="103" y="21" width="1" height="1"/><rect x="111" y="21" width="1" height="1"/><rect x="33" y="22" width="1" height="1"/><rect x="80" y="22" width="1" height="1"/><rect x="88" y="22" width="1" height="1"/><rect x="114" y="22" width="1" height="1"/><rect x="126" y="22" width="1" height="1"/><rect x="58" y="23" width="1" height="1"/><rect x="81" y="23" width="1" height="1"/><rect x="47" y="25" width="1" height="1"/><rect x="57" y="25" width="1" height="1"/><rect x="59" y="25" width="1" height="1"/><rect x="79" y="25" width="1" height="1"/><rect x="81" y="25" width="1" height="1"/><rect x="83" y="25" width="1" height="1"/><rect x="61" y="26" width="1" height="1"/><rect x="46" y="27" width="1" height="1"/><rect x="48" y="27" width="1" height="1"/><rect x="55" y="27" width="1" height="1"/><rect x="57" y="27" width="1" height="1"/><rect x="59" y="27" width="1" height="1"/><rect x="77" y="27" width="1" height="1"/><rect x="79" y="27" width="1" height="1"/><rect x="81" y="27" width="1" height="1"/><rect x="83" y="27" width="1" height="1"/><rect x="45" y="29" width="1" height="1"/><rect x="47" y="29" width="1" height="1"/><rect x="49" y="29" width="1" height="1"/><rect x="53" y="29" width="1" height="1"/><rect x="55" y="29" width="1" height="1"/><rect x="57" y="29" width="1" height="1"/><rect x="59" y="29" width="1" height="1"/><rect x="61" y="29" width="1" height="1"/><rect x="77" y="29" width="1" height="1"/><rect x="79" y="29" width="1" height="1"/><rect x="81" y="29" width="1" height="1"/><rect x="83" y="29" width="1" height="1"/><rect x="85" y="29" width="1" height="1"/><rect x="36" y="30" width="1" height="1"/><rect x="67" y="30" width="1" height="1"/><rect x="90" y="30" width="1" height="1"/><rect x="45" y="31" width="1" height="1"/><rect x="47" y="31" width="1" height="1"/><rect x="49" y="31" width="1" height="1"/><rect x="55" y="31" width="1" height="1"/><rect x="57" y="31" width="1" height="1"/><rect x="59" y="31" width="1" height="1"/><rect x="65" y="31" width="1" height="1"/><rect x="69" y="31" width="1" height="1"/><rect x="79" y="31" width="1" height="1"/><rect x="81" y="31" width="1" height="1"/><rect x="83" y="31" width="1" height="1"/><rect x="34" y="32" width="1" height="1"/><rect x="36" y="32" width="1" height="1"/><rect x="38" y="32" width="1" height="1"/><rect x="67" y="32" width="1" height="1"/><rect x="71" y="32" width="1" height="1"/><rect x="88" y="32" width="1" height="1"/><rect x="19" y="33" width="1" height="1"/><rect x="46" y="33" width="1" height="1"/><rect x="48" y="33" width="1" height="1"/><rect x="52" y="33" width="1" height="1"/><rect x="57" y="33" width="1" height="1"/><rect x="62" y="33" width="1" height="1"/><rect x="65" y="33" width="1" height="1"/><rect x="69" y="33" width="1" height="1"/><rect x="81" y="33" width="1" height="1"/><rect x="17" y="34" width="1" height="1"/><rect x="21" y="34" width="1" height="1"/><rect x="36" y="34" width="1" height="1"/><rect x="42" y="34" width="1" height="1"/><rect x="67" y="34" width="1" height="1"/><rect x="71" y="34" width="1" height="1"/><rect x="89" y="34" width="1" height="1"/><rect x="93" y="34" width="1" height="1"/><rect x="19" y="35" width="1" height="1"/><rect x="34" y="35" width="1" height="1"/><rect x="38" y="35" width="1" height="1"/><rect x="69" y="35" width="1" height="1"/><rect x="75" y="35" width="1" height="1"/><rect x="87" y="35" width="1" height="1"/><rect x="17" y="36" width="1" height="1"/><rect x="21" y="36" width="1" height="1"/><rect x="36" y="36" width="1" height="1"/><rect x="40" y="36" width="1" height="1"/><rect x="44" y="36" width="1" height="1"/><rect x="50" y="36" width="1" height="1"/><rect x="53" y="36" width="1" height="1"/><rect x="60" y="36" width="1" height="1"/><rect x="63" y="36" width="1" height="1"/><rect x="67" y="36" width="1" height="1"/><rect x="73" y="36" width="1" height="1"/><rect x="78" y="36" width="1" height="1"/><rect x="81" y="36" width="1" height="1"/><rect x="85" y="36" width="1" height="1"/><rect x="91" y="36" width="1" height="1"/><rect x="95" y="36" width="1" height="1"/><rect x="19" y="37" width="1" height="1"/><rect x="31" y="38" width="1" height="1"/><rect x="37" y="38" width="1" height="1"/><rect x="41" y="38" width="1" height="1"/><rect x="45" y="38" width="1" height="1"/><rect x="49" y="38" width="1" height="1"/><rect x="55" y="38" width="1" height="1"/><rect x="59" y="38" width="1" height="1"/><rect x="65" y="38" width="1" height="1"/><rect x="71" y="38" width="1" height="1"/><rect x="79" y="38" width="1" height="1"/><rect x="83" y="38" width="1" height="1"/><rect x="89" y="38" width="1" height="1"/><rect x="99" y="38" width="1" height="1"/><rect x="19" y="39" width="1" height="1"/><rect x="103" y="39" width="1" height="1"/><rect x="26" y="40" width="1" height="1"/><rect x="57" y="40" width="1" height="1"/><rect x="82" y="40" width="1" height="1"/><rect x="87" y="40" width="1" height="1"/><rect x="100" y="40" width="1" height="1"/><rect x="16" y="41" width="1" height="1"/><rect x="31" y="41" width="5" height="1"/><rect x="43" y="41" width="2" height="1"/><rect x="77" y="41" width="1" height="1"/><rect x="105" y="41" width="1" height="1"/><rect x="8" y="42" width="1" height="1"/><rect x="22" y="42" width="1" height="1"/><rect x="29" y="42" width="9" height="1"/><rect x="41" y="42" width="5" height="1"/><rect x="67" y="42" width="1" height="1"/><rect x="112" y="42" width="1" height="1"/><rect x="28" y="43" width="15" height="1"/><rect x="44" y="43" width="3" height="1"/><rect x="27" y="44" width="4" height="1"/><rect x="32" y="44" width="16" height="1"/><rect x="26" y="45" width="18" height="1"/><rect x="45" y="45" width="2" height="1"/><rect x="24" y="46" width="10" height="1"/><rect x="35" y="46" width="10" height="1"/><rect x="22" y="47" width="8" height="1"/><rect x="31" y="47" width="5" height="1"/><rect x="37" y="47" width="4" height="1"/><rect x="19" y="48" width="12" height="1"/><rect x="36" y="48" width="4" height="1"/><rect x="26" y="49" width="1" height="1"/><rect x="28" y="49" width="4" height="1"/><rect x="35" y="49" width="4" height="1"/><rect x="40" y="49" width="1" height="1"/><rect x="7" y="51" width="1" height="1"/><rect x="15" y="51" width="1" height="1"/><rect x="23" y="51" width="1" height="1"/><rect x="31" y="51" width="1" height="1"/><rect x="39" y="51" width="1" height="1"/><rect x="47" y="51" width="1" height="1"/><rect x="55" y="51" width="1" height="1"/><rect x="63" y="51" width="1" height="1"/><rect x="71" y="51" width="1" height="1"/><rect x="79" y="51" width="1" height="1"/><rect x="87" y="51" width="1" height="1"/><rect x="95" y="51" width="1" height="1"/><rect x="103" y="51" width="1" height="1"/><rect x="111" y="51" width="1" height="1"/><rect x="119" y="51" width="1" height="1"/><rect x="127" y="51" width="1" height="1"/><rect x="15" y="56" width="1" height="1"/><rect x="47" y="56" width="1" height="1"/><rect x="79" y="56" width="1" height="1"/><rect x="111" y="56" width="1" height="1"/><rect x="16" y="57" width="1" height="1"/><rect x="24" y="57" width="1" height="1"/><rect x="48" y="57" width="1" height="1"/><rect x="56" y="57" width="1" height="1"/><rect x="80" y="57" width="1" height="1"/><rect x="88" y="57" width="1" height="1"/><rect x="112" y="57" width="1" height="1"/><rect x="120" y="57" width="1" height="1"/><rect x="12" y="58" width="1" height="1"/><rect x="16" y="58" width="1" height="1"/><rect x="20" y="58" width="1" height="1"/><rect x="23" y="58" width="3" height="1"/><rect x="44" y="58" width="1" height="1"/><rect x="48" y="58" width="1" height="1"/><rect x="52" y="58" width="1" height="1"/><rect x="55" y="58" width="3" height="1"/><rect x="76" y="58" width="1" height="1"/><rect x="80" y="58" width="1" height="1"/><rect x="84" y="58" width="1" height="1"/><rect x="87" y="58" width="3" height="1"/><rect x="108" y="58" width="1" height="1"/><rect x="112" y="58" width="1" height="1"/><rect x="116" y="58" width="1" height="1"/><rect x="119" y="58" width="3" height="1"/><rect x="1" y="59" width="1" height="1"/><rect x="4" y="59" width="1" height="1"/><rect x="9" y="59" width="1" height="1"/><rect x="11" y="59" width="3" height="1"/><rect x="17" y="59" width="1" height="1"/><rect x="19" y="59" width="1" height="1"/><rect x="24" y="59" width="1" height="1"/><rect x="29" y="59" width="1" height="1"/><rect x="33" y="59" width="1" height="1"/><rect x="36" y="59" width="1" height="1"/><rect x="41" y="59" width="1" height="1"/><rect x="43" y="59" width="3" height="1"/><rect x="49" y="59" width="1" height="1"/><rect x="51" y="59" width="1" height="1"/><rect x="56" y="59" width="1" height="1"/><rect x="61" y="59" width="1" height="1"/><rect x="65" y="59" width="1" height="1"/><rect x="68" y="59" width="1" height="1"/><rect x="73" y="59" width="1" height="1"/><rect x="75" y="59" width="3" height="1"/><rect x="81" y="59" width="1" height="1"/><rect x="83" y="59" width="1" height="1"/><rect x="88" y="59" width="1" height="1"/><rect x="93" y="59" width="1" height="1"/><rect x="97" y="59" width="1" height="1"/><rect x="100" y="59" width="1" height="1"/><rect x="105" y="59" width="1" height="1"/><rect x="107" y="59" width="3" height="1"/><rect x="113" y="59" width="1" height="1"/><rect x="115" y="59" width="1" height="1"/><rect x="120" y="59" width="1" height="1"/><rect x="125" y="59" width="1" height="1"/><rect x="0" y="60" width="1" height="1"/><rect x="3" y="60" width="3" height="1"/><rect x="9" y="60" width="1" height="1"/><rect x="12" y="60" width="1" height="1"/><rect x="17" y="60" width="1" height="1"/><rect x="19" y="60" width="1" height="1"/><rect x="26" y="60" width="1" height="1"/><rect x="30" y="60" width="1" height="1"/><rect x="32" y="60" width="1" height="1"/><rect x="35" y="60" width="3" height="1"/><rect x="41" y="60" width="1" height="1"/><rect x="44" y="60" width="1" height="1"/><rect x="49" y="60" width="1" height="1"/><rect x="51" y="60" width="1" height="1"/><rect x="58" y="60" width="1" height="1"/><rect x="62" y="60" width="1" height="1"/><rect x="64" y="60" width="1" height="1"/><rect x="67" y="60" width="3" height="1"/><rect x="73" y="60" width="1" height="1"/><rect x="76" y="60" width="1" height="1"/><rect x="81" y="60" width="1" height="1"/><rect x="83" y="60" width="1" height="1"/><rect x="90" y="60" width="1" height="1"/><rect x="94" y="60" width="1" height="1"/><rect x="96" y="60" width="1" height="1"/><rect x="99" y="60" width="3" height="1"/><rect x="105" y="60" width="1" height="1"/><rect x="108" y="60" width="1" height="1"/><rect x="113" y="60" width="1" height="1"/><rect x="115" y="60" width="1" height="1"/><rect x="122" y="60" width="1" height="1"/><rect x="126" y="60" width="1" height="1"/><rect x="0" y="61" width="1" height="1"/><rect x="4" y="61" width="1" height="1"/><rect x="8" y="61" width="1" height="1"/><rect x="17" y="61" width="1" height="1"/><rect x="21" y="61" width="1" height="1"/><rect x="26" y="61" width="1" height="1"/><rect x="30" y="61" width="1" height="1"/><rect x="32" y="61" width="1" height="1"/><rect x="36" y="61" width="1" height="1"/><rect x="40" y="61" width="1" height="1"/><rect x="49" y="61" width="1" height="1"/><rect x="53" y="61" width="1" height="1"/><rect x="58" y="61" width="1" height="1"/><rect x="62" y="61" width="1" height="1"/><rect x="64" y="61" width="1" height="1"/><rect x="68" y="61" width="1" height="1"/><rect x="72" y="61" width="1" height="1"/><rect x="81" y="61" width="1" height="1"/><rect x="85" y="61" width="1" height="1"/><rect x="90" y="61" width="1" height="1"/><rect x="94" y="61" width="1" height="1"/><rect x="96" y="61" width="1" height="1"/><rect x="100" y="61" width="1" height="1"/><rect x="104" y="61" width="1" height="1"/><rect x="113" y="61" width="1" height="1"/><rect x="117" y="61" width="1" height="1"/><rect x="122" y="61" width="1" height="1"/><rect x="126" y="61" width="1" height="1"/><rect x="1" y="62" width="1" height="1"/><rect x="8" y="62" width="1" height="1"/><rect x="13" y="62" width="1" height="1"/><rect x="18" y="62" width="1" height="1"/><rect x="20" y="62" width="3" height="1"/><rect x="26" y="62" width="1" height="1"/><rect x="31" y="62" width="1" height="1"/><rect x="33" y="62" width="1" height="1"/><rect x="40" y="62" width="1" height="1"/><rect x="45" y="62" width="1" height="1"/><rect x="50" y="62" width="1" height="1"/><rect x="52" y="62" width="3" height="1"/><rect x="58" y="62" width="1" height="1"/><rect x="63" y="62" width="1" height="1"/><rect x="65" y="62" width="1" height="1"/><rect x="72" y="62" width="1" height="1"/><rect x="77" y="62" width="1" height="1"/><rect x="82" y="62" width="1" height="1"/><rect x="84" y="62" width="3" height="1"/><rect x="90" y="62" width="1" height="1"/><rect x="95" y="62" width="1" height="1"/><rect x="97" y="62" width="1" height="1"/><rect x="104" y="62" width="1" height="1"/><rect x="109" y="62" width="1" height="1"/><rect x="114" y="62" width="1" height="1"/><rect x="116" y="62" width="3" height="1"/><rect x="122" y="62" width="1" height="1"/><rect x="127" y="62" width="1" height="1"/><rect x="1" y="63" width="1" height="1"/><rect x="4" y="63" width="1" height="1"/><rect x="7" y="63" width="1" height="1"/><rect x="10" y="63" width="1" height="1"/><rect x="13" y="63" width="1" height="1"/><rect x="16" y="63" width="1" height="1"/><rect x="18" y="63" width="1" height="1"/><rect x="21" y="63" width="1" height="1"/><rect x="24" y="63" width="1" height="1"/><rect x="26" y="63" width="2" height="1"/><rect x="31" y="63" width="1" height="1"/><rect x="33" y="63" width="1" height="1"/><rect x="36" y="63" width="1" height="1"/><rect x="39" y="63" width="1" height="1"/><rect x="42" y="63" width="1" height="1"/><rect x="45" y="63" width="1" height="1"/><rect x="48" y="63" width="1" height="1"/><rect x="50" y="63" width="1" height="1"/><rect x="53" y="63" width="1" height="1"/><rect x="56" y="63" width="1" height="1"/><rect x="58" y="63" width="2" height="1"/><rect x="63" y="63" width="1" height="1"/><rect x="65" y="63" width="1" height="1"/><rect x="68" y="63" width="1" height="1"/><rect x="71" y="63" width="1" height="1"/><rect x="74" y="63" width="1" height="1"/><rect x="77" y="63" width="1" height="1"/><rect x="80" y="63" width="1" height="1"/><rect x="82" y="63" width="1" height="1"/><rect x="85" y="63" width="1" height="1"/><rect x="88" y="63" width="1" height="1"/><rect x="90" y="63" width="2" height="1"/><rect x="95" y="63" width="1" height="1"/><rect x="97" y="63" width="1" height="1"/><rect x="100" y="63" width="1" height="1"/><rect x="103" y="63" width="1" height="1"/><rect x="106" y="63" width="1" height="1"/><rect x="109" y="63" width="1" height="1"/><rect x="112" y="63" width="1" height="1"/><rect x="114" y="63" width="1" height="1"/><rect x="117" y="63" width="1" height="1"/><rect x="120" y="63" width="1" height="1"/><rect x="122" y="63" width="2" height="1"/><rect x="127" y="63" width="1" height="1"/></g>
</svg>
