<svg xmlns="http://www.w3.org/2000/svg" viewBox="0 0 128 64" width="128" height="64" shape-rendering="crispEdges">
  <rect width="128" height="64" fill="#020406"/>
  <g fill="#fff"><rect x="8" y="0" width="3" height="1"/><rect x="13" y="0" width="3" height="1"/><rect x="18" y="0" width="1" height="1"/><rect x="22" y="0" width="1" height="1"/><rect x="25" y="0" width="3" height="1"/><rect x="30" y="0" width="4" height="1"/><rect x="36" y="0" width="4" height="1"/><rect x="42" y="0" width="5" height="1"/><rect x="49" y="0" width="4" height="1"/><rect x="54" y="0" width="5" height="1"/><rect x="61" y="0" width="3" height="1"/><rect x="66" y="0" width="1" height="1"/><rect x="70" y="0" width="1" height="1"/><rect x="78" y="0" width="4" height="1"/><rect x="84" y="0" width="4" height="1"/><rect x="90" y="0" width="5" height="1"/><rect x="97" y="0" width="4" height="1"/><rect x="102" y="0" width="5" height="1"/><rect x="108" y="0" width="1" height="1"/><rect x="112" y="0" width="1" height="1"/><rect x="114" y="0" width="5" height="1"/><rect x="121" y="0" width="4" height="1"/><rect x="9" y="1" width="1" height="1"/><rect x="12" y="1" width="1" height="1"/><rect x="16" y="1" width="1" height="1"/><rect x="18" y="1" width="1" height="1"/><rect x="21" y="1" width="1" height="1"/><rect x="24" y="1" width="1" height="1"/><rect x="28" y="1" width="1" height="1"/><rect x="30" y="1" width="1" height="1"/><rect x="34" y="1" width="1" height="1"/><rect x="36" y="1" width="1" height="1"/><rect x="40" y="1" width="1" height="1"/><rect x="42" y="1" width="1" height="1"/><rect x="48" y="1" width="1" height="1"/><rect x="56" y="1" width="1" height="1"/><rect x="60" y="1" width="1" height="1"/><rect x="64" y="1" width="1" height="1"/><rect x="66" y="1" width="2" height="1"/><rect x="70" y="1" width="1" height="1"/><rect x="78" y="1" width="1" height="1"/><rect x="82" y="1" width="1" height="1"/><rect x="84" y="1" width="1" height="1"/><rect x="88" y="1" width="1" height="1"/><rect x="90" y="1" width="1" height="1"/><rect x="96" y="1" width="1" height="1"/><rect x="102" y="1" width="1" height="1"/><rect x="108" y="1" width="2" height="1"/><rect x="112" y="1" width="1" height="1"/><rect x="116" y="1" width="1" height="1"/><rect x="120" y="1" width="1" height="1"/><rect x="9" y="2" width="1" height="1"/><rect x="12" y="2" width="1" height="1"/><rect x="16" y="2" width="1" height="1"/><rect x="18" y="2" width="1" height="1"/><rect x="20" y="2" width="1" height="1"/><rect x="24" y="2" width="1" height="1"/><rect x="28" y="2" width="1" height="1"/><rect x="30" y="2" width="1" height="1"/><rect x="34" y="2" width="1" height="1"/><rect x="36" y="2" width="1" height="1"/><rect x="40" y="2" width="1" height="1"/><rect x="42" y="2" width="1" height="1"/><rect x="48" y="2" width="1" height="1"/><rect x="56" y="2" width="1" height="1"/><rect x="60" y="2" width="1" height="1"/><rect x="66" y="2" width="1" height="1"/><rect x="68" y="2" width="1" height="1"/><rect x="70" y="2" width="1" height="1"/><rect x="78" y="2" width="1" height="1"/><rect x="82" y="2" width="1" height="1"/><rect x="84" y="2" width="1" height="1"/><rect x="88" y="2" width="1" height="1"/><rect x="90" y="2" width="1" height="1"/><rect x="96" y="2" width="1" height="1"/><rect x="102" y="2" width="1" height="1"/><rect x="108" y="2" width="1" height="1"/><rect x="110" y="2" width="1" height="1"/><rect x="112" y="2" width="1" height="1"/><rect x="116" y="2" width="1" height="1"/><rect x="120" y="2" width="1" height="1"/><rect x="9" y="3" width="1" height="1"/><rect x="12" y="3" width="5" height="1"/><rect x="18" y="3" width="2" height="1"/><rect x="24" y="3" width="1" height="1"/><rect x="28" y="3" width="1" height="1"/><rect x="30" y="3" width="4" height="1"/><rect x="36" y="3" width="1" height="1"/><rect x="40" y="3" width="1" height="1"/><rect x="42" y="3" width="4" height="1"/><rect x="49" y="3" width="3" height="1"/><rect x="56" y="3" width="1" height="1"/><rect x="60" y="3" width="1" height="1"/><rect x="62" y="3" width="3" height="1"/><rect x="66" y="3" width="1" height="1"/><rect x="69" y="3" width="2" height="1"/><rect x="78" y="3" width="4" height="1"/><rect x="84" y="3" width="4" height="1"/><rect x="90" y="3" width="4" height="1"/><rect x="97" y="3" width="3" height="1"/><rect x="102" y="3" width="4" height="1"/><rect x="108" y="3" width="1" height="1"/><rect x="111" y="3" width="2" height="1"/><rect x="116" y="3" width="1" height="1"/><rect x="121" y="3" width="3" height="1"/><rect x="6" y="4" width="1" height="1"/><rect x="9" y="4" width="1" height="1"/><rect x="12" y="4" width="1" height="1"/><rect x="16" y="4" width="1" height="1"/><rect x="18" y="4" width="1" height="1"/><rect x="20" y="4" width="1" height="1"/><rect x="24" y="4" width="1" height="1"/><rect x="28" y="4" width="1" height="1"/><rect x="30" y="4" width="1" height="1"/><rect x="34" y="4" width="1" height="1"/><rect x="36" y="4" width="1" height="1"/><rect x="40" y="4" width="1" height="1"/><rect x="42" y="4" width="1" height="1"/><rect x="52" y="4" width="1" height="1"/><rect x="56" y="4" width="1" height="1"/><rect x="60" y="4" width="1" height="1"/><rect x="64" y="4" width="1" height="1"/><rect x="66" y="4" width="1" height="1"/><rect x="70" y="4" width="1" height="1"/><rect x="78" y="4" width="1" height="1"/><rect x="84" y="4" width="1" height="1"/><rect x="86" y="4" width="1" height="1"/><rect x="90" y="4" width="1" height="1"/><rect x="100" y="4" width="1" height="1"/><rect x="102" y="4" width="1" height="1"/><rect x="108" y="4" width="1" height="1"/><rect x="112" y="4" width="1" height="1"/><rect x="116" y="4" width="1" height="1"/><rect x="124" y="4" width="1" height="1"/><rect x="6" y="5" width="1" height="1"/><rect x="9" y="5" width="1" height="1"/><rect x="12" y="5" width="1" height="1"/><rect x="16" y="5" width="1" height="1"/><rect x="18" y="5" width="1" height="1"/><rect x="21" y="5" width="1" height="1"/><rect x="24" y="5" width="1" height="1"/><rect x="28" y="5" width="1" height="1"/><rect x="30" y="5" width="1" height="1"/><rect x="34" y="5" width="1" height="1"/><rect x="36" y="5" width="1" height="1"/><rect x="40" y="5" width="1" height="1"/><rect x="42" y="5" width="1" height="1"/><rect x="52" y="5" width="1" height="1"/><rect x="56" y="5" width="1" height="1"/><rect x="60" y="5" width="1" height="1"/><rect x="64" y="5" width="1" height="1"/><rect x="66" y="5" width="1" height="1"/><rect x="70" y="5" width="1" height="1"/><rect x="78" y="5" width="1" height="1"/><rect x="84" y="5" width="1" height="1"/><rect x="87" y="5" width="1" height="1"/><rect x="90" y="5" width="1" height="1"/><rect x="100" y="5" width="1" height="1"/><rect x="102" y="5" width="1" height="1"/><rect x="108" y="5" width="1" height="1"/><rect x="112" y="5" width="1" height="1"/><rect x="116" y="5" width="1" height="1"/><rect x="124" y="5" width="1" height="1"/><rect x="7" y="6" width="2" height="1"/><rect x="12" y="6" width="1" height="1"/><rect x="16" y="6" width="1" height="1"/><rect x="18" y="6" width="1" height="1"/><rect x="22" y="6" width="1" height="1"/><rect x="25" y="6" width="3" height="1"/><rect x="30" y="6" width="4" height="1"/><rect x="36" y="6" width="4" height="1"/><rect x="42" y="6" width="5" height="1"/><rect x="48" y="6" width="4" height="1"/><rect x="54" y="6" width="5" height="1"/><rect x="61" y="6" width="3" height="1"/><rect x="66" y="6" width="1" height="1"/><rect x="70" y="6" width="1" height="1"/><rect x="78" y="6" width="1" height="1"/><rect x="84" y="6" width="1" height="1"/><rect x="88" y="6" width="1" height="1"/><rect x="90" y="6" width="5" height="1"/><rect x="96" y="6" width="4" height="1"/><rect x="102" y="6" width="5" height="1"/><rect x="108" y="6" width="1" height="1"/><rect x="112" y="6" width="1" height="1"/><rect x="116" y="6" width="1" height="1"/><rect x="120" y="6" width="4" height="1"/><rect x="108" y="24" width="5" height="1"/><rect x="25" y="25" width="3" height="1"/><rect x="30" y="25" width="3" height="1"/><rect x="107" y="25" width="13" height="1"/><rect x="25" y="26" width="3" height="1"/><rect x="30" y="26" width="3" height="1"/><rect x="106" y="26" width="3" height="1"/><rect x="111" y="26" width="12" height="1"/><rect x="25" y="27" width="3" height="1"/><rect x="30" y="27" width="3" height="1"/><rect x="106" y="27" width="3" height="1"/><rect x="110" y="27" width="15" height="1"/><rect x="25" y="28" width="3" height="1"/><rect x="106" y="28" width="9" height="1"/><rect x="119" y="28" width="7" height="1"/><rect x="25" y="29" width="3" height="1"/><rect x="105" y="29" width="14" height="1"/><rect x="122" y="29" width="5" height="1"/><rect x="20" y="30" width="4" height="1"/><rect x="25" y="30" width="3" height="1"/><rect x="30" y="30" width="3" height="1"/><rect x="35" y="30" width="3" height="1"/><rect x="40" y="30" width="4" height="1"/><rect x="51" y="30" width="6" height="1"/><rect x="105" y="30" width="1" height="1"/><rect x="107" y="30" width="4" height="1"/><rect x="112" y="30" width="2" height="1"/><rect x="119" y="30" width="3" height="1"/><rect x="123" y="30" width="4" height="1"/><rect x="19" y="31" width="9" height="1"/><rect x="30" y="31" width="3" height="1"/><rect x="35" y="31" width="10" height="1"/><rect x="50" y="31" width="8" height="1"/><rect x="105" y="31" width="5" height="1"/><rect x="111" y="31" width="2" height="1"/><rect x="122" y="31" width="1" height="1"/><rect x="124" y="31" width="4" height="1"/><rect x="18" y="32" width="10" height="1"/><rect x="30" y="32" width="3" height="1"/><rect x="35" y="32" width="11" height="1"/><rect x="49" y="32" width="10" height="1"/><rect x="106" y="32" width="3" height="1"/><rect x="110" y="32" width="1" height="1"/><rect x="123" y="32" width="5" height="1"/><rect x="17" y="33" width="4" height="1"/><rect x="24" y="33" width="4" height="1"/><rect x="30" y="33" width="3" height="1"/><rect x="35" y="33" width="4" height="1"/><rect x="42" y="33" width="4" height="1"/><rect x="49" y="33" width="3" height="1"/><rect x="56" y="33" width="4" height="1"/><rect x="123" y="33" width="5" height="1"/><rect x="17" y="34" width="3" height="1"/><rect x="25" y="34" width="3" height="1"/><rect x="30" y="34" width="3" height="1"/><rect x="35" y="34" width="3" height="1"/><rect x="43" y="34" width="3" height="1"/><rect x="48" y="34" width="3" height="1"/><rect x="57" y="34" width="3" height="1"/><rect x="123" y="34" width="5" height="1"/><rect x="17" y="35" width="3" height="1"/><rect x="25" y="35" width="3" height="1"/><rect x="30" y="35" width="3" height="1"/><rect x="35" y="35" width="3" height="1"/><rect x="43" y="35" width="3" height="1"/><rect x="48" y="35" width="3" height="1"/><rect x="57" y="35" width="3" height="1"/><rect x="123" y="35" width="5" height="1"/><rect x="17" y="36" width="3" height="1"/><rect x="25" y="36" width="3" height="1"/><rect x="30" y="36" width="3" height="1"/><rect x="35" y="36" width="3" height="1"/><rect x="43" y="36" width="3" height="1"/><rect x="48" y="36" width="3" height="1"/><rect x="57" y="36" width="3" height="1"/><rect x="122" y="36" width="6" height="1"/><rect x="17" y="37" width="3" height="1"/><rect x="25" y="37" width="3" height="1"/><rect x="30" y="37" width="3" height="1"/><rect x="35" y="37" width="3" height="1"/><rect x="43" y="37" width="3" height="1"/><rect x="48" y="37" width="3" height="1"/><rect x="57" y="37" width="3" height="1"/><rect x="120" y="37" width="7" height="1"/><rect x="17" y="38" width="3" height="1"/><rect x="25" y="38" width="3" height="1"/><rect x="30" y="38" width="3" height="1"/><rect x="35" y="38" width="3" height="1"/><rect x="43" y="38" width="3" height="1"/><rect x="48" y="38" width="3" height="1"/><rect x="57" y="38" width="3" height="1"/><rect x="119" y="38" width="6" height="1"/><rect x="126" y="38" width="1" height="1"/><rect x="17" y="39" width="4" height="1"/><rect x="24" y="39" width="4" height="1"/><rect x="30" y="39" width="3" height="1"/><rect x="35" y="39" width="3" height="1"/><rect x="43" y="39" width="3" height="1"/><rect x="48" y="39" width="4" height="1"/><rect x="56" y="39" width="3" height="1"/><rect x="99" y="39" width="6" height="1"/><rect x="117" y="39" width="7" height="1"/><rect x="125" y="39" width="1" height="1"/><rect x="18" y="40" width="10" height="1"/><rect x="30" y="40" width="3" height="1"/><rect x="35" y="40" width="3" height="1"/><rect x="43" y="40" width="3" height="1"/><rect x="49" y="40" width="10" height="1"/><rect x="96" y="40" width="4" height="1"/><rect x="101" y="40" width="1" height="1"/><rect x="103" y="40" width="4" height="1"/><rect x="115" y="40" width="8" height="1"/><rect x="124" y="40" width="1" height="1"/><rect x="19" y="41" width="9" height="1"/><rect x="30" y="41" width="3" height="1"/><rect x="35" y="41" width="3" height="1"/><rect x="43" y="41" width="3" height="1"/><rect x="50" y="41" width="8" height="1"/><rect x="93" y="41" width="4" height="1"/><rect x="98" y="41" width="1" height="1"/><rect x="100" y="41" width="1" height="1"/><rect x="102" y="41" width="1" height="1"/><rect x="104" y="41" width="1" height="1"/><rect x="106" y="41" width="4" height="1"/><rect x="113" y="41" width="9" height="1"/><rect x="123" y="41" width="1" height="1"/><rect x="90" y="42" width="4" height="1"/><rect x="95" y="42" width="1" height="1"/><rect x="97" y="42" width="1" height="1"/><rect x="99" y="42" width="1" height="1"/><rect x="101" y="42" width="1" height="1"/><rect x="103" y="42" width="1" height="1"/><rect x="105" y="42" width="1" height="1"/><rect x="107" y="42" width="14" height="1"/><rect x="122" y="42" width="1" height="1"/><rect x="29" y="43" width="1" height="1"/><rect x="42" y="43" width="1" height="1"/><rect x="58" y="43" width="1" height="1"/><rect x="88" y="43" width="3" height="1"/><rect x="92" y="43" width="1" height="1"/><rect x="94" y="43" width="1" height="1"/><rect x="96" y="43" width="1" height="1"/><rect x="98" y="43" width="1" height="1"/><rect x="100" y="43" width="1" height="1"/><rect x="102" y="43" width="1" height="1"/><rect x="104" y="43" width="1" height="1"/><rect x="106" y="43" width="1" height="1"/><rect x="108" y="43" width="12" height="1"/><rect x="121" y="43" width="1" height="1"/><rect x="17" y="44" width="1" height="1"/><rect x="20" y="44" width="1" height="1"/><rect x="22" y="44" width="1" height="1"/><rect x="25" y="44" width="2" height="1"/><rect x="28" y="44" width="3" height="1"/><rect x="32" y="44" width="1" height="1"/><rect x="34" y="44" width="1" height="1"/><rect x="37" y="44" width="3" height="1"/><rect x="42" y="44" width="1" height="1"/><rect x="47" y="44" width="3" height="1"/><rect x="54" y="44" width="2" height="1"/><rect x="57" y="44" width="3" height="1"/><rect x="86" y="44" width="4" height="1"/><rect x="91" y="44" width="1" height="1"/><rect x="93" y="44" width="1" height="1"/><rect x="95" y="44" width="1" height="1"/><rect x="97" y="44" width="1" height="1"/><rect x="99" y="44" width="1" height="1"/><rect x="101" y="44" width="1" height="1"/><rect x="103" y="44" width="16" height="1"/><rect x="120" y="44" width="1" height="1"/><rect x="17" y="45" width="1" height="1"/><rect x="19" y="45" width="1" height="1"/><rect x="22" y="45" width="1" height="1"/><rect x="25" y="45" width="1" height="1"/><rect x="29" y="45" width="1" height="1"/><rect x="32" y="45" width="1" height="1"/><rect x="34" y="45" width="1" height="1"/><rect x="38" y="45" width="3" height="1"/><rect x="42" y="45" width="1" height="1"/><rect x="47" y="45" width="1" height="1"/><rect x="50" y="45" width="1" height="1"/><rect x="53" y="45" width="3" height="1"/><rect x="58" y="45" width="1" height="1"/><rect x="85" y="45" width="4" height="1"/><rect x="90" y="45" width="1" height="1"/><rect x="92" y="45" width="1" height="1"/><rect x="94" y="45" width="3" height="1"/><rect x="98" y="45" width="1" height="1"/><rect x="100" y="45" width="3" height="1"/><rect x="104" y="45" width="1" height="1"/><rect x="106" y="45" width="12" height="1"/><rect x="119" y="45" width="1" height="1"/><rect x="18" y="46" width="2" height="1"/><rect x="22" y="46" width="1" height="1"/><rect x="25" y="46" width="1" height="1"/><rect x="29" y="46" width="1" height="1"/><rect x="32" y="46" width="1" height="1"/><rect x="34" y="46" width="1" height="1"/><rect x="37" y="46" width="1" height="1"/><rect x="40" y="46" width="1" height="1"/><rect x="42" y="46" width="1" height="1"/><rect x="47" y="46" width="1" height="1"/><rect x="50" y="46" width="1" height="1"/><rect x="53" y="46" width="1" height="1"/><rect x="58" y="46" width="1" height="1"/><rect x="83" y="46" width="5" height="1"/><rect x="89" y="46" width="1" height="1"/><rect x="91" y="46" width="7" height="1"/><rect x="99" y="46" width="18" height="1"/><rect x="118" y="46" width="1" height="1"/><rect x="18" y="47" width="1" height="1"/><rect x="22" y="47" width="1" height="1"/><rect x="25" y="47" width="1" height="1"/><rect x="29" y="47" width="2" height="1"/><rect x="32" y="47" width="3" height="1"/><rect x="37" y="47" width="4" height="1"/><rect x="42" y="47" width="1" height="1"/><rect x="47" y="47" width="4" height="1"/><rect x="54" y="47" width="2" height="1"/><rect x="58" y="47" width="2" height="1"/><rect x="82" y="47" width="9" height="1"/><rect x="92" y="47" width="3" height="1"/><rect x="96" y="47" width="5" height="1"/><rect x="102" y="47" width="2" height="1"/><rect x="105" y="47" width="2" height="1"/><rect x="108" y="47" width="8" height="1"/><rect x="117" y="47" width="1" height="1"/><rect x="47" y="48" width="1" height="1"/><rect x="80" y="48" width="35" height="1"/><rect x="116" y="48" width="1" height="1"/><rect x="79" y="49" width="13" height="1"/><rect x="93" y="49" width="21" height="1"/><rect x="115" y="49" width="1" height="1"/><rect x="77" y="50" width="36" height="1"/><rect x="114" y="50" width="1" height="1"/><rect x="75" y="51" width="35" height="1"/><rect x="111" y="51" width="3" height="1"/><rect x="72" y="52" width="10" height="1"/><rect x="83" y="52" width="20" height="1"/><rect x="104" y="52" width="7" height="1"/><rect x="112" y="52" width="1" height="1"/><rect x="67" y="53" width="16" height="1"/><rect x="84" y="53" width="7" height="1"/><rect x="92" y="53" width="12" height="1"/><rect x="105" y="53" width="7" height="1"/><rect x="62" y="54" width="19" height="1"/><rect x="83" y="54" width="7" height="1"/><rect x="91" y="54" width="14" height="1"/><rect x="106" y="54" width="6" height="1"/><rect x="56" y="55" width="22" height="1"/><rect x="83" y="55" width="6" height="1"/><rect x="90" y="55" width="1" height="1"/><rect x="95" y="55" width="7" height="1"/><rect x="105" y="55" width="8" height="1"/><rect x="52" y="56" width="23" height="1"/><rect x="83" y="56" width="6" height="1"/><rect x="90" y="56" width="2" height="1"/><rect x="102" y="56" width="3" height="1"/><rect x="106" y="56" width="7" height="1"/><rect x="51" y="57" width="14" height="1"/><rect x="84" y="57" width="6" height="1"/><rect x="49" y="58" width="6" height="1"/><rect x="49" y="59" width="3" height="1"/><rect x="48" y="60" width="3" height="1"/><rect x="48" y="61" width="2" height="1"/><rect x="48" y="62" width="2" height="1"/><rect x="52" y="62" width="1" height="1"/><rect x="49" y="63" width="3" height="1"/></g>
</svg>
