<svg xmlns="http://www.w3.org/2000/svg" viewBox="0 0 128 64" width="128" height="64" shape-rendering="crispEdges">
  <rect width="128" height="64" fill="#020406"/>
  <g fill="#fff"><rect x="29" y="6" width="1" height="1"/><rect x="40" y="6" width="1" height="1"/><rect x="59" y="6" width="1" height="1"/><rect x="65" y="6" width="1" height="1"/><rect x="70" y="6" width="1" height="1"/><rect x="80" y="6" width="1" height="1"/><rect x="91" y="6" width="1" height="1"/><rect x="95" y="6" width="1" height="1"/><rect x="98" y="6" width="1" height="1"/><rect x="47" y="7" width="1" height="1"/><rect x="77" y="7" width="1" height="1"/><rect x="29" y="8" width="1" height="1"/><rect x="44" y="8" width="1" height="1"/><rect x="61" y="8" width="1" height="1"/><rect x="63" y="8" width="1" height="1"/><rect x="78" y="8" width="1" height="1"/><rect x="80" y="8" width="1" height="1"/><rect x="87" y="8" width="1" height="1"/><rect x="91" y="8" width="1" height="1"/><rect x="98" y="8" width="1" height="1"/><rect x="29" y="9" width="1" height="1"/><rect x="44" y="9" width="1" height="1"/><rect x="46" y="9" width="1" height="1"/><rect x="61" y="9" width="1" height="1"/><rect x="63" y="9" width="1" height="1"/><rect x="78" y="9" width="1" height="1"/><rect x="80" y="9" width="1" height="1"/><rect x="88" y="9" width="1" height="1"/><rect x="90" y="9" width="1" height="1"/><rect x="98" y="9" width="1" height="1"/><rect x="29" y="10" width="2" height="1"/><rect x="43" y="10" width="2" height="1"/><rect x="46" y="10" width="1" height="1"/><rect x="61" y="10" width="1" height="1"/><rect x="63" y="10" width="1" height="1"/><rect x="78" y="10" width="1" height="1"/><rect x="80" y="10" width="2" height="1"/><rect x="88" y="10" width="1" height="1"/><rect x="90" y="10" width="1" height="1"/><rect x="98" y="10" width="1" height="1"/><rect x="29" y="11" width="1" height="1"/><rect x="35" y="11" width="4" height="1"/><rect x="43" y="11" width="2" height="1"/><rect x="46" y="11" width="2" height="1"/><rect x="52" y="11" width="4" height="1"/><rect x="61" y="11" width="1" height="1"/><rect x="63" y="11" width="1" height="1"/><rect x="69" y="11" width="4" height="1"/><rect x="78" y="11" width="1" height="1"/><rect x="80" y="11" width="1" height="1"/><rect x="88" y="11" width="1" height="1"/><rect x="90" y="11" width="1" height="1"/><rect x="97" y="11" width="2" height="1"/><rect x="29" y="12" width="2" height="1"/><rect x="34" y="12" width="1" height="1"/><rect x="38" y="12" width="1" height="1"/><rect x="44" y="12" width="1" height="1"/><rect x="46" y="12" width="1" height="1"/><rect x="51" y="12" width="2" height="1"/><rect x="54" y="12" width="3" height="1"/><rect x="61" y="12" width="1" height="1"/><rect x="63" y="12" width="1" height="1"/><rect x="68" y="12" width="2" height="1"/><rect x="72" y="12" width="1" height="1"/><rect x="78" y="12" width="1" height="1"/><rect x="80" y="12" width="2" height="1"/><rect x="89" y="12" width="1" height="1"/><rect x="98" y="12" width="1" height="1"/><rect x="29" y="13" width="1" height="1"/><rect x="32" y="13" width="1" height="1"/><rect x="34" y="13" width="1" height="1"/><rect x="38" y="13" width="2" height="1"/><rect x="43" y="13" width="2" height="1"/><rect x="46" y="13" width="2" height="1"/><rect x="52" y="13" width="1" height="1"/><rect x="56" y="13" width="1" height="1"/><rect x="60" y="13" width="2" height="1"/><rect x="63" y="13" width="1" height="1"/><rect x="68" y="13" width="1" height="1"/><rect x="72" y="13" width="1" height="1"/><rect x="78" y="13" width="1" height="1"/><rect x="80" y="13" width="1" height="1"/><rect x="89" y="13" width="1" height="1"/><rect x="97" y="13" width="2" height="1"/><rect x="29" y="14" width="2" height="1"/><rect x="34" y="14" width="1" height="1"/><rect x="38" y="14" width="1" height="1"/><rect x="43" y="14" width="2" height="1"/><rect x="46" y="14" width="1" height="1"/><rect x="51" y="14" width="2" height="1"/><rect x="56" y="14" width="1" height="1"/><rect x="61" y="14" width="1" height="1"/><rect x="63" y="14" width="1" height="1"/><rect x="68" y="14" width="1" height="1"/><rect x="72" y="14" width="1" height="1"/><rect x="77" y="14" width="2" height="1"/><rect x="80" y="14" width="2" height="1"/><rect x="87" y="14" width="1" height="1"/><rect x="89" y="14" width="1" height="1"/><rect x="98" y="14" width="1" height="1"/><rect x="29" y="15" width="1" height="1"/><rect x="34" y="15" width="2" height="1"/><rect x="38" y="15" width="2" height="1"/><rect x="43" y="15" width="2" height="1"/><rect x="46" y="15" width="2" height="1"/><rect x="52" y="15" width="1" height="1"/><rect x="56" y="15" width="1" height="1"/><rect x="58" y="15" width="1" height="1"/><rect x="61" y="15" width="1" height="1"/><rect x="63" y="15" width="1" height="1"/><rect x="66" y="15" width="1" height="1"/><rect x="68" y="15" width="1" height="1"/><rect x="72" y="15" width="1" height="1"/><rect x="74" y="15" width="1" height="1"/><rect x="78" y="15" width="1" height="1"/><rect x="80" y="15" width="1" height="1"/><rect x="84" y="15" width="1" height="1"/><rect x="97" y="15" width="2" height="1"/><rect x="29" y="16" width="1" height="1"/><rect x="34" y="16" width="1" height="1"/><rect x="38" y="16" width="2" height="1"/><rect x="43" y="16" width="2" height="1"/><rect x="46" y="16" width="1" height="1"/><rect x="48" y="16" width="1" height="1"/><rect x="52" y="16" width="2" height="1"/><rect x="56" y="16" width="1" height="1"/><rect x="60" y="16" width="2" height="1"/><rect x="63" y="16" width="1" height="1"/><rect x="68" y="16" width="1" height="1"/><rect x="72" y="16" width="1" height="1"/><rect x="78" y="16" width="1" height="1"/><rect x="80" y="16" width="2" height="1"/><rect x="85" y="16" width="1" height="1"/><rect x="90" y="16" width="1" height="1"/><rect x="92" y="16" width="1" height="1"/><rect x="97" y="16" width="2" height="1"/><rect x="29" y="17" width="2" height="1"/><rect x="32" y="17" width="1" height="1"/><rect x="34" y="17" width="2" height="1"/><rect x="38" y="17" width="1" height="1"/><rect x="40" y="17" width="1" height="1"/><rect x="43" y="17" width="2" height="1"/><rect x="46" y="17" width="1" height="1"/><rect x="49" y="17" width="1" height="1"/><rect x="51" y="17" width="2" height="1"/><rect x="54" y="17" width="1" height="1"/><rect x="56" y="17" width="1" height="1"/><rect x="60" y="17" width="2" height="1"/><rect x="63" y="17" width="1" height="1"/><rect x="65" y="17" width="1" height="1"/><rect x="68" y="17" width="3" height="1"/><rect x="72" y="17" width="1" height="1"/><rect x="74" y="17" width="1" height="1"/><rect x="76" y="17" width="1" height="1"/><rect x="78" y="17" width="1" height="1"/><rect x="80" y="17" width="2" height="1"/><rect x="85" y="17" width="1" height="1"/><rect x="87" y="17" width="1" height="1"/><rect x="93" y="17" width="1" height="1"/><rect x="98" y="17" width="1" height="1"/><rect x="29" y="18" width="2" height="1"/><rect x="34" y="18" width="2" height="1"/><rect x="37" y="18" width="2" height="1"/><rect x="41" y="18" width="1" height="1"/><rect x="43" y="18" width="2" height="1"/><rect x="46" y="18" width="2" height="1"/><rect x="49" y="18" width="1" height="1"/><rect x="52" y="18" width="2" height="1"/><rect x="55" y="18" width="2" height="1"/><rect x="58" y="18" width="1" height="1"/><rect x="61" y="18" width="1" height="1"/><rect x="63" y="18" width="1" height="1"/><rect x="66" y="18" width="1" height="1"/><rect x="68" y="18" width="2" height="1"/><rect x="71" y="18" width="2" height="1"/><rect x="75" y="18" width="1" height="1"/><rect x="77" y="18" width="2" height="1"/><rect x="80" y="18" width="2" height="1"/><rect x="85" y="18" width="1" height="1"/><rect x="90" y="18" width="1" height="1"/><rect x="94" y="18" width="1" height="1"/><rect x="97" y="18" width="2" height="1"/><rect x="29" y="19" width="1" height="1"/><rect x="31" y="19" width="1" height="1"/><rect x="34" y="19" width="3" height="1"/><rect x="38" y="19" width="2" height="1"/><rect x="43" y="19" width="2" height="1"/><rect x="46" y="19" width="2" height="1"/><rect x="51" y="19" width="3" height="1"/><rect x="55" y="19" width="2" height="1"/><rect x="60" y="19" width="2" height="1"/><rect x="63" y="19" width="1" height="1"/><rect x="65" y="19" width="1" height="1"/><rect x="68" y="19" width="2" height="1"/><rect x="71" y="19" width="2" height="1"/><rect x="74" y="19" width="1" height="1"/><rect x="77" y="19" width="2" height="1"/><rect x="80" y="19" width="2" height="1"/><rect x="83" y="19" width="1" height="1"/><rect x="85" y="19" width="1" height="1"/><rect x="88" y="19" width="1" height="1"/><rect x="92" y="19" width="1" height="1"/><rect x="97" y="19" width="2" height="1"/><rect x="29" y="20" width="2" height="1"/><rect x="32" y="20" width="1" height="1"/><rect x="34" y="20" width="2" height="1"/><rect x="37" y="20" width="3" height="1"/><rect x="41" y="20" width="1" height="1"/><rect x="43" y="20" width="2" height="1"/><rect x="46" y="20" width="2" height="1"/><rect x="49" y="20" width="1" height="1"/><rect x="51" y="20" width="3" height="1"/><rect x="55" y="20" width="2" height="1"/><rect x="58" y="20" width="1" height="1"/><rect x="61" y="20" width="1" height="1"/><rect x="63" y="20" width="1" height="1"/><rect x="66" y="20" width="1" height="1"/><rect x="68" y="20" width="6" height="1"/><rect x="77" y="20" width="2" height="1"/><rect x="80" y="20" width="2" height="1"/><rect x="83" y="20" width="1" height="1"/><rect x="85" y="20" width="2" height="1"/><rect x="88" y="20" width="1" height="1"/><rect x="90" y="20" width="2" height="1"/><rect x="93" y="20" width="1" height="1"/><rect x="95" y="20" width="1" height="1"/><rect x="97" y="20" width="2" height="1"/><rect x="29" y="21" width="2" height="1"/><rect x="32" y="21" width="1" height="1"/><rect x="34" y="21" width="3" height="1"/><rect x="38" y="21" width="1" height="1"/><rect x="43" y="21" width="2" height="1"/><rect x="46" y="21" width="2" height="1"/><rect x="52" y="21" width="5" height="1"/><rect x="58" y="21" width="4" height="1"/><rect x="63" y="21" width="2" height="1"/><rect x="66" y="21" width="1" height="1"/><rect x="68" y="21" width="2" height="1"/><rect x="71" y="21" width="2" height="1"/><rect x="75" y="21" width="1" height="1"/><rect x="77" y="21" width="2" height="1"/><rect x="80" y="21" width="2" height="1"/><rect x="85" y="21" width="2" height="1"/><rect x="88" y="21" width="1" height="1"/><rect x="91" y="21" width="1" height="1"/><rect x="93" y="21" width="1" height="1"/><rect x="97" y="21" width="2" height="1"/><rect x="29" y="22" width="1" height="1"/><rect x="31" y="22" width="1" height="1"/><rect x="34" y="22" width="5" height="1"/><rect x="40" y="22" width="2" height="1"/><rect x="43" y="22" width="2" height="1"/><rect x="46" y="22" width="4" height="1"/><rect x="51" y="22" width="6" height="1"/><rect x="58" y="22" width="1" height="1"/><rect x="61" y="22" width="3" height="1"/><rect x="65" y="22" width="2" height="1"/><rect x="68" y="22" width="5" height="1"/><rect x="74" y="22" width="1" height="1"/><rect x="76" y="22" width="3" height="1"/><rect x="80" y="22" width="4" height="1"/><rect x="85" y="22" width="2" height="1"/><rect x="88" y="22" width="2" height="1"/><rect x="92" y="22" width="1" height="1"/><rect x="94" y="22" width="2" height="1"/><rect x="98" y="22" width="1" height="1"/><rect x="29" y="23" width="2" height="1"/><rect x="32" y="23" width="7" height="1"/><rect x="40" y="23" width="1" height="1"/><rect x="42" y="23" width="6" height="1"/><rect x="49" y="23" width="1" height="1"/><rect x="52" y="23" width="6" height="1"/><rect x="59" y="23" width="3" height="1"/><rect x="63" y="23" width="3" height="1"/><rect x="67" y="23" width="7" height="1"/><rect x="75" y="23" width="1" height="1"/><rect x="77" y="23" width="2" height="1"/><rect x="80" y="23" width="2" height="1"/><rect x="84" y="23" width="3" height="1"/><rect x="89" y="23" width="3" height="1"/><rect x="93" y="23" width="1" height="1"/><rect x="96" y="23" width="3" height="1"/><rect x="29" y="24" width="3" height="1"/><rect x="33" y="24" width="6" height="1"/><rect x="40" y="24" width="1" height="1"/><rect x="42" y="24" width="3" height="1"/><rect x="46" y="24" width="13" height="1"/><rect x="60" y="24" width="2" height="1"/><rect x="63" y="24" width="1" height="1"/><rect x="65" y="24" width="2" height="1"/><rect x="68" y="24" width="5" height="1"/><rect x="74" y="24" width="5" height="1"/><rect x="80" y="24" width="3" height="1"/><rect x="84" y="24" width="4" height="1"/><rect x="91" y="24" width="4" height="1"/><rect x="97" y="24" width="2" height="1"/><rect x="29" y="25" width="1" height="1"/><rect x="31" y="25" width="2" height="1"/><rect x="35" y="25" width="4" height="1"/><rect x="40" y="25" width="5" height="1"/><rect x="46" y="25" width="4" height="1"/><rect x="52" y="25" width="4" height="1"/><rect x="58" y="25" width="1" height="1"/><rect x="60" y="25" width="2" height="1"/><rect x="63" y="25" width="1" height="1"/><rect x="65" y="25" width="2" height="1"/><rect x="68" y="25" width="5" height="1"/><rect x="74" y="25" width="5" height="1"/><rect x="80" y="25" width="8" height="1"/><rect x="89" y="25" width="1" height="1"/><rect x="92" y="25" width="4" height="1"/><rect x="97" y="25" width="2" height="1"/><rect x="28" y="26" width="4" height="1"/><rect x="34" y="26" width="3" height="1"/><rect x="38" y="26" width="2" height="1"/><rect x="41" y="26" width="16" height="1"/><rect x="58" y="26" width="2" height="1"/><rect x="61" y="26" width="1" height="1"/><rect x="63" y="26" width="3" height="1"/><rect x="68" y="26" width="11" height="1"/><rect x="80" y="26" width="6" height="1"/><rect x="87" y="26" width="1" height="1"/><rect x="89" y="26" width="2" height="1"/><rect x="93" y="26" width="4" height="1"/><rect x="98" y="26" width="1" height="1"/><rect x="29" y="27" width="2" height="1"/><rect x="32" y="27" width="1" height="1"/><rect x="34" y="27" width="3" height="1"/><rect x="38" y="27" width="7" height="1"/><rect x="46" y="27" width="5" height="1"/><rect x="52" y="27" width="1" height="1"/><rect x="56" y="27" width="1" height="1"/><rect x="60" y="27" width="2" height="1"/><rect x="63" y="27" width="1" height="1"/><rect x="66" y="27" width="1" height="1"/><rect x="68" y="27" width="2" height="1"/><rect x="71" y="27" width="8" height="1"/><rect x="80" y="27" width="6" height="1"/><rect x="87" y="27" width="3" height="1"/><rect x="92" y="27" width="2" height="1"/><rect x="95" y="27" width="1" height="1"/><rect x="97" y="27" width="2" height="1"/><rect x="29" y="28" width="1" height="1"/><rect x="32" y="28" width="1" height="1"/><rect x="34" y="28" width="2" height="1"/><rect x="37" y="28" width="17" height="1"/><rect x="56" y="28" width="1" height="1"/><rect x="58" y="28" width="1" height="1"/><rect x="61" y="28" width="3" height="1"/><rect x="68" y="28" width="1" height="1"/><rect x="71" y="28" width="8" height="1"/><rect x="80" y="28" width="6" height="1"/><rect x="87" y="28" width="4" height="1"/><rect x="92" y="28" width="2" height="1"/><rect x="96" y="28" width="3" height="1"/><rect x="29" y="29" width="1" height="1"/><rect x="32" y="29" width="1" height="1"/><rect x="34" y="29" width="4" height="1"/><rect x="39" y="29" width="6" height="1"/><rect x="46" y="29" width="9" height="1"/><rect x="56" y="29" width="1" height="1"/><rect x="58" y="29" width="2" height="1"/><rect x="61" y="29" width="3" height="1"/><rect x="65" y="29" width="2" height="1"/><rect x="68" y="29" width="11" height="1"/><rect x="80" y="29" width="6" height="1"/><rect x="87" y="29" width="7" height="1"/><rect x="95" y="29" width="1" height="1"/><rect x="97" y="29" width="2" height="1"/><rect x="29" y="30" width="3" height="1"/><rect x="33" y="30" width="26" height="1"/><rect x="61" y="30" width="1" height="1"/><rect x="63" y="30" width="1" height="1"/><rect x="65" y="30" width="2" height="1"/><rect x="68" y="30" width="18" height="1"/><rect x="87" y="30" width="7" height="1"/><rect x="98" y="30" width="1" height="1"/><rect x="28" y="31" width="2" height="1"/><rect x="31" y="31" width="28" height="1"/><rect x="60" y="31" width="5" height="1"/><rect x="66" y="31" width="4" height="1"/><rect x="71" y="31" width="8" height="1"/><rect x="80" y="31" width="6" height="1"/><rect x="88" y="31" width="4" height="1"/><rect x="93" y="31" width="3" height="1"/><rect x="97" y="31" width="2" height="1"/><rect x="29" y="32" width="1" height="1"/><rect x="32" y="32" width="13" height="1"/><rect x="46" y="32" width="11" height="1"/><rect x="58" y="32" width="4" height="1"/><rect x="63" y="32" width="16" height="1"/><rect x="81" y="32" width="6" height="1"/><rect x="88" y="32" width="4" height="1"/><rect x="93" y="32" width="1" height="1"/><rect x="95" y="32" width="1" height="1"/><rect x="98" y="32" width="1" height="1"/><rect x="29" y="33" width="16" height="1"/><rect x="47" y="33" width="31" height="1"/><rect x="79" y="33" width="7" height="1"/><rect x="87" y="33" width="5" height="1"/><rect x="93" y="33" width="6" height="1"/><rect x="28" y="34" width="18" height="1"/><rect x="48" y="34" width="29" height="1"/><rect x="78" y="34" width="8" height="1"/><rect x="88" y="34" width="3" height="1"/><rect x="93" y="34" width="2" height="1"/><rect x="98" y="34" width="1" height="1"/><rect x="29" y="35" width="33" height="1"/><rect x="63" y="35" width="13" height="1"/><rect x="77" y="35" width="14" height="1"/><rect x="92" y="35" width="7" height="1"/><rect x="29" y="36" width="18" height="1"/><rect x="50" y="36" width="11" height="1"/><rect x="64" y="36" width="12" height="1"/><rect x="77" y="36" width="10" height="1"/><rect x="88" y="36" width="3" height="1"/><rect x="93" y="36" width="6" height="1"/><rect x="29" y="37" width="17" height="1"/><rect x="51" y="37" width="9" height="1"/><rect x="65" y="37" width="9" height="1"/><rect x="79" y="37" width="7" height="1"/><rect x="87" y="37" width="5" height="1"/><rect x="93" y="37" width="6" height="1"/><rect x="28" y="38" width="17" height="1"/><rect x="53" y="38" width="5" height="1"/><rect x="67" y="38" width="5" height="1"/><rect x="80" y="38" width="10" height="1"/><rect x="91" y="38" width="8" height="1"/><rect x="29" y="39" width="15" height="1"/><rect x="54" y="39" width="3" height="1"/><rect x="67" y="39" width="4" height="1"/><rect x="81" y="39" width="9" height="1"/><rect x="91" y="39" width="1" height="1"/><rect x="93" y="39" width="6" height="1"/><rect x="29" y="40" width="13" height="1"/><rect x="55" y="40" width="1" height="1"/><rect x="69" y="40" width="1" height="1"/><rect x="82" y="40" width="2" height="1"/><rect x="86" y="40" width="13" height="1"/><rect x="29" y="41" width="12" height="1"/><rect x="87" y="41" width="1" height="1"/><rect x="90" y="41" width="9" height="1"/><rect x="28" y="42" width="12" height="1"/><rect x="90" y="42" width="2" height="1"/><rect x="93" y="42" width="6" height="1"/><rect x="29" y="43" width="9" height="1"/><rect x="90" y="43" width="9" height="1"/><rect x="29" y="44" width="8" height="1"/><rect x="90" y="44" width="9" height="1"/><rect x="29" y="45" width="7" height="1"/><rect x="89" y="45" width="10" height="1"/><rect x="28" y="46" width="6" height="1"/><rect x="90" y="46" width="9" height="1"/><rect x="28" y="47" width="5" height="1"/><rect x="91" y="47" width="8" height="1"/><rect x="29" y="48" width="3" height="1"/><rect x="92" y="48" width="7" height="1"/><rect x="30" y="49" width="1" height="1"/><rect x="94" y="49" width="6" height="1"/><rect x="95" y="50" width="4" height="1"/><rect x="96" y="51" width="2" height="1"/><rect x="39" y="52" width="3" height="1"/><rect x="43" y="52" width="3" height="1"/><rect x="47" y="52" width="4" height="1"/><rect x="52" y="52" width="2" height="1"/><rect x="56" y="52" width="2" height="1"/><rect x="63" y="52" width="4" height="1"/><rect x="69" y="52" width="1" height="1"/><rect x="71" y="52" width="3" height="1"/><rect x="75" y="52" width="4" height="1"/><rect x="39" y="53" width="1" height="1"/><rect x="42" y="53" width="2" height="1"/><rect x="46" y="53" width="2" height="1"/><rect x="51" y="53" width="1" height="1"/><rect x="55" y="53" width="1" height="1"/><rect x="63" y="53" width="1" height="1"/><rect x="69" y="53" width="1" height="1"/><rect x="71" y="53" width="1" height="1"/><rect x="74" y="53" width="2" height="1"/><rect x="39" y="54" width="3" height="1"/><rect x="43" y="54" width="3" height="1"/><rect x="47" y="54" width="3" height="1"/><rect x="52" y="54" width="2" height="1"/><rect x="56" y="54" width="2" height="1"/><rect x="63" y="54" width="3" height="1"/><rect x="69" y="54" width="1" height="1"/><rect x="71" y="54" width="3" height="1"/><rect x="75" y="54" width="3" height="1"/><rect x="39" y="55" width="1" height="1"/><rect x="43" y="55" width="1" height="1"/><rect x="46" y="55" width="2" height="1"/><rect x="54" y="55" width="1" height="1"/><rect x="58" y="55" width="1" height="1"/><rect x="63" y="55" width="1" height="1"/><rect x="69" y="55" width="1" height="1"/><rect x="71" y="55" width="1" height="1"/><rect x="74" y="55" width="2" height="1"/><rect x="39" y="56" width="1" height="1"/><rect x="43" y="56" width="1" height="1"/><rect x="46" y="56" width="8" height="1"/><rect x="55" y="56" width="3" height="1"/><rect x="63" y="56" width="1" height="1"/><rect x="69" y="56" width="1" height="1"/><rect x="71" y="56" width="1" height="1"/><rect x="74" y="56" width="5" height="1"/></g>
</svg>
