<svg xmlns="http://www.w3.org/2000/svg" viewBox="0 0 128 64" width="128" height="64" shape-rendering="crispEdges">
  <rect width="128" height="64" fill="#020406"/>
  <g fill="#fff"><rect x="60" y="8" width="3" height="1"/><rect x="66" y="8" width="3" height="1"/><rect x="55" y="9" width="2" height="1"/><rect x="60" y="9" width="3" height="1"/><rect x="66" y="9" width="3" height="1"/><rect x="72" y="9" width="2" height="1"/><rect x="50" y="10" width="1" height="1"/><rect x="54" y="10" width="3" height="1"/><rect x="60" y="10" width="3" height="1"/><rect x="66" y="10" width="3" height="1"/><rect x="72" y="10" width="3" height="1"/><rect x="78" y="10" width="1" height="1"/><rect x="48" y="11" width="3" height="1"/><rect x="54" y="11" width="3" height="1"/><rect x="60" y="11" width="3" height="1"/><rect x="66" y="11" width="3" height="1"/><rect x="72" y="11" width="3" height="1"/><rect x="78" y="11" width="3" height="1"/><rect x="42" y="12" width="3" height="1"/><rect x="48" y="12" width="3" height="1"/><rect x="54" y="12" width="3" height="1"/><rect x="60" y="12" width="3" height="1"/><rect x="66" y="12" width="3" height="1"/><rect x="72" y="12" width="3" height="1"/><rect x="78" y="12" width="3" height="1"/><rect x="84" y="12" width="3" height="1"/><rect x="36" y="13" width="3" height="1"/><rect x="42" y="13" width="3" height="1"/><rect x="48" y="13" width="3" height="1"/><rect x="54" y="13" width="3" height="1"/><rect x="60" y="13" width="3" height="1"/><rect x="66" y="13" width="3" height="1"/><rect x="72" y="13" width="3" height="1"/><rect x="78" y="13" width="3" height="1"/><rect x="84" y="13" width="3" height="1"/><rect x="90" y="13" width="3" height="1"/><rect x="30" y="14" width="3" height="1"/><rect x="36" y="14" width="3" height="1"/><rect x="42" y="14" width="3" height="1"/><rect x="48" y="14" width="3" height="1"/><rect x="54" y="14" width="3" height="1"/><rect x="60" y="14" width="3" height="1"/><rect x="66" y="14" width="3" height="1"/><rect x="72" y="14" width="3" height="1"/><rect x="78" y="14" width="3" height="1"/><rect x="84" y="14" width="3" height="1"/><rect x="90" y="14" width="3" height="1"/><rect x="96" y="14" width="3" height="1"/><rect x="25" y="15" width="2" height="1"/><rect x="30" y="15" width="3" height="1"/><rect x="36" y="15" width="3" height="1"/><rect x="42" y="15" width="3" height="1"/><rect x="48" y="15" width="3" height="1"/><rect x="54" y="15" width="3" height="1"/><rect x="60" y="15" width="3" height="1"/><rect x="66" y="15" width="3" height="1"/><rect x="72" y="15" width="3" height="1"/><rect x="78" y="15" width="3" height="1"/><rect x="84" y="15" width="3" height="1"/><rect x="90" y="15" width="3" height="1"/><rect x="96" y="15" width="3" height="1"/><rect x="102" y="15" width="2" height="1"/><rect x="20" y="16" width="1" height="1"/><rect x="24" y="16" width="3" height="1"/><rect x="30" y="16" width="3" height="1"/><rect x="36" y="16" width="3" height="1"/><rect x="42" y="16" width="3" height="1"/><rect x="48" y="16" width="3" height="1"/><rect x="54" y="16" width="3" height="1"/><rect x="60" y="16" width="3" height="1"/><rect x="66" y="16" width="3" height="1"/><rect x="72" y="16" width="3" height="1"/><rect x="78" y="16" width="3" height="1"/><rect x="84" y="16" width="3" height="1"/><rect x="90" y="16" width="3" height="1"/><rect x="96" y="16" width="3" height="1"/><rect x="102" y="16" width="3" height="1"/><rect x="108" y="16" width="1" height="1"/><rect x="18" y="17" width="3" height="1"/><rect x="24" y="17" width="3" height="1"/><rect x="30" y="17" width="3" height="1"/><rect x="36" y="17" width="3" height="1"/><rect x="42" y="17" width="3" height="1"/><rect x="48" y="17" width="3" height="1"/><rect x="54" y="17" width="3" height="1"/><rect x="60" y="17" width="3" height="1"/><rect x="66" y="17" width="3" height="1"/><rect x="72" y="17" width="3" height="1"/><rect x="78" y="17" width="3" height="1"/><rect x="84" y="17" width="3" height="1"/><rect x="90" y="17" width="3" height="1"/><rect x="96" y="17" width="3" height="1"/><rect x="102" y="17" width="3" height="1"/><rect x="108" y="17" width="3" height="1"/><rect x="12" y="18" width="3" height="1"/><rect x="18" y="18" width="3" height="1"/><rect x="24" y="18" width="3" height="1"/><rect x="30" y="18" width="3" height="1"/><rect x="36" y="18" width="3" height="1"/><rect x="42" y="18" width="3" height="1"/><rect x="48" y="18" width="3" height="1"/><rect x="54" y="18" width="21" height="1"/><rect x="78" y="18" width="3" height="1"/><rect x="84" y="18" width="3" height="1"/><rect x="90" y="18" width="3" height="1"/><rect x="96" y="18" width="3" height="1"/><rect x="102" y="18" width="3" height="1"/><rect x="108" y="18" width="3" height="1"/><rect x="114" y="18" width="3" height="1"/><rect x="6" y="19" width="3" height="1"/><rect x="12" y="19" width="3" height="1"/><rect x="18" y="19" width="3" height="1"/><rect x="24" y="19" width="3" height="1"/><rect x="30" y="19" width="3" height="1"/><rect x="36" y="19" width="3" height="1"/><rect x="42" y="19" width="3" height="1"/><rect x="48" y="19" width="3" height="1"/><rect x="54" y="19" width="3" height="1"/><rect x="60" y="19" width="3" height="1"/><rect x="66" y="19" width="3" height="1"/><rect x="72" y="19" width="3" height="1"/><rect x="78" y="19" width="3" height="1"/><rect x="84" y="19" width="3" height="1"/><rect x="90" y="19" width="3" height="1"/><rect x="96" y="19" width="3" height="1"/><rect x="102" y="19" width="3" height="1"/><rect x="108" y="19" width="3" height="1"/><rect x="114" y="19" width="3" height="1"/><rect x="120" y="19" width="3" height="1"/><rect x="0" y="20" width="3" height="1"/><rect x="6" y="20" width="3" height="1"/><rect x="12" y="20" width="3" height="1"/><rect x="18" y="20" width="3" height="1"/><rect x="24" y="20" width="3" height="1"/><rect x="30" y="20" width="3" height="1"/><rect x="36" y="20" width="3" height="1"/><rect x="42" y="20" width="3" height="1"/><rect x="48" y="20" width="3" height="1"/><rect x="54" y="20" width="3" height="1"/><rect x="60" y="20" width="3" height="1"/><rect x="66" y="20" width="3" height="1"/><rect x="72" y="20" width="3" height="1"/><rect x="78" y="20" width="3" height="1"/><rect x="84" y="20" width="3" height="1"/><rect x="90" y="20" width="3" height="1"/><rect x="96" y="20" width="3" height="1"/><rect x="102" y="20" width="3" height="1"/><rect x="108" y="20" width="3" height="1"/><rect x="114" y="20" width="3" height="1"/><rect x="120" y="20" width="3" height="1"/><rect x="126" y="20" width="2" height="1"/><rect x="0" y="21" width="3" height="1"/><rect x="6" y="21" width="3" height="1"/><rect x="12" y="21" width="3" height="1"/><rect x="18" y="21" width="3" height="1"/><rect x="24" y="21" width="3" height="1"/><rect x="30" y="21" width="3" height="1"/><rect x="36" y="21" width="3" height="1"/><rect x="42" y="21" width="3" height="1"/><rect x="48" y="21" width="3" height="1"/><rect x="54" y="21" width="3" height="1"/><rect x="60" y="21" width="3" height="1"/><rect x="66" y="21" width="3" height="1"/><rect x="72" y="21" width="3" height="1"/><rect x="78" y="21" width="3" height="1"/><rect x="84" y="21" width="3" height="1"/><rect x="90" y="21" width="3" height="1"/><rect x="96" y="21" width="3" height="1"/><rect x="102" y="21" width="3" height="1"/><rect x="108" y="21" width="3" height="1"/><rect x="114" y="21" width="3" height="1"/><rect x="120" y="21" width="3" height="1"/><rect x="126" y="21" width="2" height="1"/><rect x="0" y="22" width="3" height="1"/><rect x="6" y="22" width="3" height="1"/><rect x="12" y="22" width="3" height="1"/><rect x="18" y="22" width="3" height="1"/><rect x="24" y="22" width="3" height="1"/><rect x="30" y="22" width="3" height="1"/><rect x="36" y="22" width="3" height="1"/><rect x="42" y="22" width="3" height="1"/><rect x="48" y="22" width="3" height="1"/><rect x="54" y="22" width="3" height="1"/><rect x="60" y="22" width="3" height="1"/><rect x="66" y="22" width="3" height="1"/><rect x="72" y="22" width="3" height="1"/><rect x="78" y="22" width="3" height="1"/><rect x="84" y="22" width="3" height="1"/><rect x="90" y="22" width="3" height="1"/><rect x="96" y="22" width="3" height="1"/><rect x="102" y="22" width="3" height="1"/><rect x="108" y="22" width="3" height="1"/><rect x="114" y="22" width="3" height="1"/><rect x="120" y="22" width="3" height="1"/><rect x="126" y="22" width="2" height="1"/><rect x="0" y="23" width="3" height="1"/><rect x="6" y="23" width="3" height="1"/><rect x="12" y="23" width="3" height="1"/><rect x="18" y="23" width="3" height="1"/><rect x="24" y="23" width="3" height="1"/><rect x="30" y="23" width="3" height="1"/><rect x="36" y="23" width="3" height="1"/><rect x="42" y="23" width="3" height="1"/><rect x="48" y="23" width="3" height="1"/><rect x="54" y="23" width="3" height="1"/><rect x="60" y="23" width="3" height="1"/><rect x="66" y="23" width="3" height="1"/><rect x="72" y="23" width="3" height="1"/><rect x="78" y="23" width="3" height="1"/><rect x="84" y="23" width="3" height="1"/><rect x="90" y="23" width="3" height="1"/><rect x="96" y="23" width="3" height="1"/><rect x="102" y="23" width="3" height="1"/><rect x="108" y="23" width="3" height="1"/><rect x="114" y="23" width="3" height="1"/><rect x="120" y="23" width="3" height="1"/><rect x="126" y="23" width="2" height="1"/><rect x="0" y="24" width="3" height="1"/><rect x="6" y="24" width="3" height="1"/><rect x="12" y="24" width="3" height="1"/><rect x="18" y="24" width="3" height="1"/><rect x="24" y="24" width="3" height="1"/><rect x="30" y="24" width="3" height="1"/><rect x="36" y="24" width="3" height="1"/><rect x="42" y="24" width="3" height="1"/><rect x="48" y="24" width="3" height="1"/><rect x="54" y="24" width="3" height="1"/><rect x="60" y="24" width="3" height="1"/><rect x="66" y="24" width="3" height="1"/><rect x="72" y="24" width="3" height="1"/><rect x="78" y="24" width="3" height="1"/><rect x="84" y="24" width="3" height="1"/><rect x="90" y="24" width="3" height="1"/><rect x="96" y="24" width="3" height="1"/><rect x="102" y="24" width="3" height="1"/><rect x="108" y="24" width="3" height="1"/><rect x="114" y="24" width="3" height="1"/><rect x="120" y="24" width="3" height="1"/><rect x="126" y="24" width="2" height="1"/><rect x="0" y="25" width="3" height="1"/><rect x="6" y="25" width="3" height="1"/><rect x="12" y="25" width="3" height="1"/><rect x="18" y="25" width="3" height="1"/><rect x="24" y="25" width="3" height="1"/><rect x="30" y="25" width="3" height="1"/><rect x="36" y="25" width="3" height="1"/><rect x="42" y="25" width="3" height="1"/><rect x="48" y="25" width="3" height="1"/><rect x="54" y="25" width="3" height="1"/><rect x="60" y="25" width="3" height="1"/><rect x="66" y="25" width="3" height="1"/><rect x="72" y="25" width="3" height="1"/><rect x="78" y="25" width="3" height="1"/><rect x="84" y="25" width="3" height="1"/><rect x="90" y="25" width="3" height="1"/><rect x="96" y="25" width="3" height="1"/><rect x="102" y="25" width="3" height="1"/><rect x="108" y="25" width="3" height="1"/><rect x="114" y="25" width="3" height="1"/><rect x="120" y="25" width="3" height="1"/><rect x="126" y="25" width="2" height="1"/><rect x="0" y="26" width="3" height="1"/><rect x="6" y="26" width="3" height="1"/><rect x="12" y="26" width="3" height="1"/><rect x="18" y="26" width="3" height="1"/><rect x="24" y="26" width="3" height="1"/><rect x="30" y="26" width="3" height="1"/><rect x="36" y="26" width="3" height="1"/><rect x="42" y="26" width="3" height="1"/><rect x="48" y="26" width="3" height="1"/><rect x="54" y="26" width="3" height="1"/><rect x="60" y="26" width="3" height="1"/><rect x="66" y="26" width="3" height="1"/><rect x="72" y="26" width="3" height="1"/><rect x="78" y="26" width="3" height="1"/><rect x="84" y="26" width="3" height="1"/><rect x="90" y="26" width="3" height="1"/><rect x="96" y="26" width="3" height="1"/><rect x="102" y="26" width="3" height="1"/><rect x="108" y="26" width="3" height="1"/><rect x="114" y="26" width="3" height="1"/><rect x="120" y="26" width="3" height="1"/><rect x="126" y="26" width="2" height="1"/><rect x="0" y="27" width="3" height="1"/><rect x="6" y="27" width="3" height="1"/><rect x="12" y="27" width="3" height="1"/><rect x="18" y="27" width="3" height="1"/><rect x="24" y="27" width="3" height="1"/><rect x="30" y="27" width="3" height="1"/><rect x="36" y="27" width="3" height="1"/><rect x="42" y="27" width="3" height="1"/><rect x="48" y="27" width="3" height="1"/><rect x="54" y="27" width="3" height="1"/><rect x="60" y="27" width="3" height="1"/><rect x="66" y="27" width="3" height="1"/><rect x="72" y="27" width="3" height="1"/><rect x="78" y="27" width="3" height="1"/><rect x="84" y="27" width="3" height="1"/><rect x="90" y="27" width="3" height="1"/><rect x="96" y="27" width="3" height="1"/><rect x="102" y="27" width="3" height="1"/><rect x="108" y="27" width="3" height="1"/><rect x="114" y="27" width="3" height="1"/><rect x="120" y="27" width="3" height="1"/><rect x="126" y="27" width="2" height="1"/><rect x="0" y="28" width="3" height="1"/><rect x="6" y="28" width="3" height="1"/><rect x="12" y="28" width="3" height="1"/><rect x="18" y="28" width="3" height="1"/><rect x="24" y="28" width="3" height="1"/><rect x="30" y="28" width="3" height="1"/><rect x="36" y="28" width="3" height="1"/><rect x="42" y="28" width="3" height="1"/><rect x="48" y="28" width="3" height="1"/><rect x="54" y="28" width="3" height="1"/><rect x="60" y="28" width="3" height="1"/><rect x="66" y="28" width="3" height="1"/><rect x="72" y="28" width="3" height="1"/><rect x="78" y="28" width="3" height="1"/><rect x="84" y="28" width="3" height="1"/><rect x="90" y="28" width="3" height="1"/><rect x="96" y="28" width="3" height="1"/><rect x="102" y="28" width="3" height="1"/><rect x="108" y="28" width="3" height="1"/><rect x="114" y="28" width="3" height="1"/><rect x="120" y="28" width="3" height="1"/><rect x="126" y="28" width="2" height="1"/><rect x="0" y="29" width="3" height="1"/><rect x="6" y="29" width="3" height="1"/><rect x="12" y="29" width="3" height="1"/><rect x="18" y="29" width="3" height="1"/><rect x="24" y="29" width="3" height="1"/><rect x="30" y="29" width="3" height="1"/><rect x="36" y="29" width="3" height="1"/><rect x="42" y="29" width="3" height="1"/><rect x="48" y="29" width="3" height="1"/><rect x="54" y="29" width="3" height="1"/><rect x="60" y="29" width="3" height="1"/><rect x="66" y="29" width="3" height="1"/><rect x="72" y="29" width="3" height="1"/><rect x="78" y="29" width="3" height="1"/><rect x="84" y="29" width="3" height="1"/><rect x="90" y="29" width="3" height="1"/><rect x="96" y="29" width="3" height="1"/><rect x="102" y="29" width="3" height="1"/><rect x="108" y="29" width="3" height="1"/><rect x="114" y="29" width="3" height="1"/><rect x="120" y="29" width="3" height="1"/><rect x="126" y="29" width="2" height="1"/><rect x="0" y="30" width="3" height="1"/><rect x="6" y="30" width="3" height="1"/><rect x="12" y="30" width="3" height="1"/><rect x="18" y="30" width="3" height="1"/><rect x="24" y="30" width="3" height="1"/><rect x="30" y="30" width="3" height="1"/><rect x="36" y="30" width="3" height="1"/><rect x="42" y="30" width="3" height="1"/><rect x="48" y="30" width="3" height="1"/><rect x="54" y="30" width="3" height="1"/><rect x="60" y="30" width="3" height="1"/><rect x="66" y="30" width="3" height="1"/><rect x="72" y="30" width="3" height="1"/><rect x="78" y="30" width="3" height="1"/><rect x="84" y="30" width="3" height="1"/><rect x="90" y="30" width="3" height="1"/><rect x="96" y="30" width="3" height="1"/><rect x="102" y="30" width="3" height="1"/><rect x="108" y="30" width="3" height="1"/><rect x="114" y="30" width="3" height="1"/><rect x="120" y="30" width="3" height="1"/><rect x="126" y="30" width="2" height="1"/><rect x="0" y="31" width="3" height="1"/><rect x="6" y="31" width="3" height="1"/><rect x="12" y="31" width="3" height="1"/><rect x="18" y="31" width="3" height="1"/><rect x="24" y="31" width="3" height="1"/><rect x="30" y="31" width="3" height="1"/><rect x="36" y="31" width="3" height="1"/><rect x="42" y="31" width="3" height="1"/><rect x="48" y="31" width="3" height="1"/><rect x="54" y="31" width="3" height="1"/><rect x="60" y="31" width="3" height="1"/><rect x="66" y="31" width="3" height="1"/><rect x="72" y="31" width="3" height="1"/><rect x="78" y="31" width="3" height="1"/><rect x="84" y="31" width="3" height="1"/><rect x="90" y="31" width="3" height="1"/><rect x="96" y="31" width="3" height="1"/><rect x="102" y="31" width="3" height="1"/><rect x="108" y="31" width="3" height="1"/><rect x="114" y="31" width="3" height="1"/><rect x="120" y="31" width="3" height="1"/><rect x="126" y="31" width="2" height="1"/><rect x="0" y="32" width="3" height="1"/><rect x="6" y="32" width="3" height="1"/><rect x="12" y="32" width="3" height="1"/><rect x="18" y="32" width="3" height="1"/><rect x="24" y="32" width="3" height="1"/><rect x="30" y="32" width="3" height="1"/><rect x="36" y="32" width="3" height="1"/><rect x="42" y="32" width="3" height="1"/><rect x="48" y="32" width="3" height="1"/><rect x="54" y="32" width="3" height="1"/><rect x="60" y="32" width="3" height="1"/><rect x="64" y="32" width="5" height="1"/><rect x="72" y="32" width="3" height="1"/><rect x="78" y="32" width="3" height="1"/><rect x="84" y="32" width="3" height="1"/><rect x="90" y="32" width="3" height="1"/><rect x="96" y="32" width="3" height="1"/><rect x="102" y="32" width="3" height="1"/><rect x="108" y="32" width="3" height="1"/><rect x="114" y="32" width="3" height="1"/><rect x="120" y="32" width="3" height="1"/><rect x="126" y="32" width="2" height="1"/><rect x="0" y="33" width="3" height="1"/><rect x="6" y="33" width="3" height="1"/><rect x="12" y="33" width="3" height="1"/><rect x="18" y="33" width="3" height="1"/><rect x="24" y="33" width="3" height="1"/><rect x="30" y="33" width="3" height="1"/><rect x="36" y="33" width="3" height="1"/><rect x="42" y="33" width="3" height="1"/><rect x="48" y="33" width="3" height="1"/><rect x="54" y="33" width="3" height="1"/><rect x="58" y="33" width="12" height="1"/><rect x="72" y="33" width="3" height="1"/><rect x="78" y="33" width="3" height="1"/><rect x="84" y="33" width="3" height="1"/><rect x="90" y="33" width="3" height="1"/><rect x="96" y="33" width="3" height="1"/><rect x="102" y="33" width="3" height="1"/><rect x="108" y="33" width="3" height="1"/><rect x="114" y="33" width="3" height="1"/><rect x="120" y="33" width="3" height="1"/><rect x="126" y="33" width="2" height="1"/><rect x="0" y="34" width="3" height="1"/><rect x="6" y="34" width="3" height="1"/><rect x="12" y="34" width="3" height="1"/><rect x="18" y="34" width="3" height="1"/><rect x="24" y="34" width="3" height="1"/><rect x="30" y="34" width="3" height="1"/><rect x="36" y="34" width="3" height="1"/><rect x="42" y="34" width="3" height="1"/><rect x="48" y="34" width="3" height="1"/><rect x="54" y="34" width="3" height="1"/><rect x="60" y="34" width="3" height="1"/><rect x="66" y="34" width="4" height="1"/><rect x="72" y="34" width="3" height="1"/><rect x="78" y="34" width="3" height="1"/><rect x="84" y="34" width="3" height="1"/><rect x="90" y="34" width="3" height="1"/><rect x="96" y="34" width="3" height="1"/><rect x="102" y="34" width="3" height="1"/><rect x="108" y="34" width="3" height="1"/><rect x="114" y="34" width="3" height="1"/><rect x="120" y="34" width="3" height="1"/><rect x="126" y="34" width="2" height="1"/><rect x="0" y="35" width="3" height="1"/><rect x="6" y="35" width="3" height="1"/><rect x="12" y="35" width="3" height="1"/><rect x="18" y="35" width="3" height="1"/><rect x="24" y="35" width="3" height="1"/><rect x="30" y="35" width="3" height="1"/><rect x="36" y="35" width="3" height="1"/><rect x="42" y="35" width="3" height="1"/><rect x="48" y="35" width="3" height="1"/><rect x="54" y="35" width="3" height="1"/><rect x="60" y="35" width="3" height="1"/><rect x="64" y="35" width="1" height="1"/><rect x="66" y="35" width="5" height="1"/><rect x="72" y="35" width="3" height="1"/><rect x="78" y="35" width="3" height="1"/><rect x="84" y="35" width="3" height="1"/><rect x="90" y="35" width="3" height="1"/><rect x="96" y="35" width="3" height="1"/><rect x="102" y="35" width="3" height="1"/><rect x="108" y="35" width="3" height="1"/><rect x="114" y="35" width="3" height="1"/><rect x="120" y="35" width="3" height="1"/><rect x="126" y="35" width="2" height="1"/><rect x="0" y="36" width="3" height="1"/><rect x="6" y="36" width="3" height="1"/><rect x="12" y="36" width="3" height="1"/><rect x="18" y="36" width="3" height="1"/><rect x="24" y="36" width="3" height="1"/><rect x="30" y="36" width="3" height="1"/><rect x="36" y="36" width="3" height="1"/><rect x="42" y="36" width="3" height="1"/><rect x="48" y="36" width="3" height="1"/><rect x="54" y="36" width="5" height="1"/><rect x="60" y="36" width="3" height="1"/><rect x="64" y="36" width="5" height="1"/><rect x="70" y="36" width="1" height="1"/><rect x="72" y="36" width="3" height="1"/><rect x="78" y="36" width="3" height="1"/><rect x="84" y="36" width="3" height="1"/><rect x="90" y="36" width="3" height="1"/><rect x="96" y="36" width="3" height="1"/><rect x="102" y="36" width="3" height="1"/><rect x="108" y="36" width="3" height="1"/><rect x="114" y="36" width="3" height="1"/><rect x="120" y="36" width="3" height="1"/><rect x="126" y="36" width="2" height="1"/><rect x="0" y="37" width="3" height="1"/><rect x="6" y="37" width="3" height="1"/><rect x="12" y="37" width="3" height="1"/><rect x="18" y="37" width="3" height="1"/><rect x="24" y="37" width="3" height="1"/><rect x="30" y="37" width="3" height="1"/><rect x="36" y="37" width="3" height="1"/><rect x="42" y="37" width="3" height="1"/><rect x="48" y="37" width="3" height="1"/><rect x="54" y="37" width="3" height="1"/><rect x="60" y="37" width="15" height="1"/><rect x="78" y="37" width="3" height="1"/><rect x="84" y="37" width="3" height="1"/><rect x="90" y="37" width="3" height="1"/><rect x="96" y="37" width="3" height="1"/><rect x="102" y="37" width="3" height="1"/><rect x="108" y="37" width="3" height="1"/><rect x="114" y="37" width="3" height="1"/><rect x="120" y="37" width="3" height="1"/><rect x="126" y="37" width="2" height="1"/><rect x="0" y="38" width="3" height="1"/><rect x="6" y="38" width="3" height="1"/><rect x="12" y="38" width="3" height="1"/><rect x="18" y="38" width="3" height="1"/><rect x="24" y="38" width="3" height="1"/><rect x="30" y="38" width="3" height="1"/><rect x="36" y="38" width="3" height="1"/><rect x="42" y="38" width="3" height="1"/><rect x="48" y="38" width="3" height="1"/><rect x="54" y="38" width="3" height="1"/><rect x="60" y="38" width="5" height="1"/><rect x="66" y="38" width="3" height="1"/><rect x="70" y="38" width="1" height="1"/><rect x="72" y="38" width="3" height="1"/><rect x="78" y="38" width="3" height="1"/><rect x="84" y="38" width="3" height="1"/><rect x="90" y="38" width="3" height="1"/><rect x="96" y="38" width="3" height="1"/><rect x="102" y="38" width="3" height="1"/><rect x="108" y="38" width="3" height="1"/><rect x="114" y="38" width="3" height="1"/><rect x="120" y="38" width="3" height="1"/><rect x="126" y="38" width="2" height="1"/><rect x="0" y="39" width="3" height="1"/><rect x="6" y="39" width="3" height="1"/><rect x="12" y="39" width="3" height="1"/><rect x="18" y="39" width="3" height="1"/><rect x="24" y="39" width="3" height="1"/><rect x="30" y="39" width="3" height="1"/><rect x="36" y="39" width="3" height="1"/><rect x="42" y="39" width="3" height="1"/><rect x="48" y="39" width="3" height="1"/><rect x="54" y="39" width="21" height="1"/><rect x="78" y="39" width="3" height="1"/><rect x="84" y="39" width="3" height="1"/><rect x="90" y="39" width="3" height="1"/><rect x="96" y="39" width="3" height="1"/><rect x="102" y="39" width="3" height="1"/><rect x="108" y="39" width="3" height="1"/><rect x="114" y="39" width="3" height="1"/><rect x="120" y="39" width="3" height="1"/><rect x="126" y="39" width="2" height="1"/><rect x="0" y="40" width="3" height="1"/><rect x="6" y="40" width="3" height="1"/><rect x="12" y="40" width="3" height="1"/><rect x="18" y="40" width="3" height="1"/><rect x="24" y="40" width="3" height="1"/><rect x="30" y="40" width="3" height="1"/><rect x="36" y="40" width="3" height="1"/><rect x="42" y="40" width="3" height="1"/><rect x="48" y="40" width="3" height="1"/><rect x="54" y="40" width="3" height="1"/><rect x="60" y="40" width="11" height="1"/><rect x="72" y="40" width="3" height="1"/><rect x="78" y="40" width="3" height="1"/><rect x="84" y="40" width="3" height="1"/><rect x="90" y="40" width="3" height="1"/><rect x="96" y="40" width="3" height="1"/><rect x="102" y="40" width="3" height="1"/><rect x="108" y="40" width="3" height="1"/><rect x="114" y="40" width="3" height="1"/><rect x="120" y="40" width="3" height="1"/><rect x="126" y="40" width="2" height="1"/><rect x="0" y="41" width="3" height="1"/><rect x="6" y="41" width="3" height="1"/><rect x="12" y="41" width="3" height="1"/><rect x="18" y="41" width="3" height="1"/><rect x="24" y="41" width="3" height="1"/><rect x="30" y="41" width="3" height="1"/><rect x="36" y="41" width="3" height="1"/><rect x="42" y="41" width="3" height="1"/><rect x="48" y="41" width="3" height="1"/><rect x="54" y="41" width="3" height="1"/><rect x="58" y="41" width="1" height="1"/><rect x="60" y="41" width="5" height="1"/><rect x="66" y="41" width="4" height="1"/><rect x="71" y="41" width="4" height="1"/><rect x="78" y="41" width="3" height="1"/><rect x="84" y="41" width="3" height="1"/><rect x="90" y="41" width="3" height="1"/><rect x="96" y="41" width="3" height="1"/><rect x="102" y="41" width="3" height="1"/><rect x="108" y="41" width="3" height="1"/><rect x="114" y="41" width="3" height="1"/><rect x="120" y="41" width="3" height="1"/><rect x="126" y="41" width="2" height="1"/><rect x="0" y="42" width="128" height="1"/><rect x="0" y="43" width="3" height="1"/><rect x="6" y="43" width="3" height="1"/><rect x="12" y="43" width="3" height="1"/><rect x="18" y="43" width="3" height="1"/><rect x="24" y="43" width="3" height="1"/><rect x="30" y="43" width="3" height="1"/><rect x="36" y="43" width="3" height="1"/><rect x="42" y="43" width="3" height="1"/><rect x="48" y="43" width="3" height="1"/><rect x="54" y="43" width="3" height="1"/><rect x="58" y="43" width="12" height="1"/><rect x="72" y="43" width="3" height="1"/><rect x="78" y="43" width="3" height="1"/><rect x="84" y="43" width="3" height="1"/><rect x="90" y="43" width="3" height="1"/><rect x="96" y="43" width="3" height="1"/><rect x="102" y="43" width="3" height="1"/><rect x="108" y="43" width="3" height="1"/><rect x="114" y="43" width="3" height="1"/><rect x="120" y="43" width="3" height="1"/><rect x="126" y="43" width="2" height="1"/><rect x="0" y="44" width="3" height="1"/><rect x="6" y="44" width="3" height="1"/><rect x="12" y="44" width="3" height="1"/><rect x="18" y="44" width="3" height="1"/><rect x="24" y="44" width="3" height="1"/><rect x="30" y="44" width="3" height="1"/><rect x="36" y="44" width="3" height="1"/><rect x="42" y="44" width="3" height="1"/><rect x="48" y="44" width="3" height="1"/><rect x="54" y="44" width="5" height="1"/><rect x="60" y="44" width="4" height="1"/><rect x="66" y="44" width="5" height="1"/><rect x="72" y="44" width="3" height="1"/><rect x="78" y="44" width="3" height="1"/><rect x="84" y="44" width="3" height="1"/><rect x="90" y="44" width="3" height="1"/><rect x="96" y="44" width="3" height="1"/><rect x="102" y="44" width="3" height="1"/><rect x="108" y="44" width="3" height="1"/><rect x="114" y="44" width="3" height="1"/><rect x="120" y="44" width="3" height="1"/><rect x="126" y="44" width="2" height="1"/><rect x="0" y="45" width="3" height="1"/><rect x="6" y="45" width="3" height="1"/><rect x="12" y="45" width="3" height="1"/><rect x="18" y="45" width="3" height="1"/><rect x="24" y="45" width="3" height="1"/><rect x="30" y="45" width="3" height="1"/><rect x="36" y="45" width="3" height="1"/><rect x="42" y="45" width="3" height="1"/><rect x="48" y="45" width="3" height="1"/><rect x="54" y="45" width="3" height="1"/><rect x="59" y="45" width="10" height="1"/><rect x="70" y="45" width="1" height="1"/><rect x="72" y="45" width="3" height="1"/><rect x="78" y="45" width="3" height="1"/><rect x="84" y="45" width="3" height="1"/><rect x="90" y="45" width="3" height="1"/><rect x="96" y="45" width="3" height="1"/><rect x="102" y="45" width="3" height="1"/><rect x="108" y="45" width="3" height="1"/><rect x="114" y="45" width="3" height="1"/><rect x="120" y="45" width="3" height="1"/><rect x="126" y="45" width="2" height="1"/><rect x="0" y="46" width="3" height="1"/><rect x="6" y="46" width="3" height="1"/><rect x="12" y="46" width="3" height="1"/><rect x="18" y="46" width="3" height="1"/><rect x="24" y="46" width="3" height="1"/><rect x="30" y="46" width="3" height="1"/><rect x="36" y="46" width="3" height="1"/><rect x="42" y="46" width="3" height="1"/><rect x="48" y="46" width="5" height="1"/><rect x="54" y="46" width="10" height="1"/><rect x="66" y="46" width="3" height="1"/><rect x="70" y="46" width="1" height="1"/><rect x="72" y="46" width="3" height="1"/><rect x="78" y="46" width="3" height="1"/><rect x="84" y="46" width="3" height="1"/><rect x="90" y="46" width="3" height="1"/><rect x="96" y="46" width="3" height="1"/><rect x="102" y="46" width="3" height="1"/><rect x="108" y="46" width="3" height="1"/><rect x="114" y="46" width="3" height="1"/><rect x="120" y="46" width="3" height="1"/><rect x="126" y="46" width="2" height="1"/><rect x="0" y="47" width="3" height="1"/><rect x="6" y="47" width="3" height="1"/><rect x="12" y="47" width="3" height="1"/><rect x="18" y="47" width="3" height="1"/><rect x="24" y="47" width="3" height="1"/><rect x="30" y="47" width="3" height="1"/><rect x="36" y="47" width="3" height="1"/><rect x="42" y="47" width="3" height="1"/><rect x="48" y="47" width="3" height="1"/><rect x="54" y="47" width="5" height="1"/><rect x="60" y="47" width="4" height="1"/><rect x="66" y="47" width="3" height="1"/><rect x="72" y="47" width="3" height="1"/><rect x="78" y="47" width="3" height="1"/><rect x="84" y="47" width="3" height="1"/><rect x="90" y="47" width="3" height="1"/><rect x="96" y="47" width="3" height="1"/><rect x="102" y="47" width="3" height="1"/><rect x="108" y="47" width="3" height="1"/><rect x="114" y="47" width="3" height="1"/><rect x="120" y="47" width="3" height="1"/><rect x="126" y="47" width="2" height="1"/><rect x="0" y="48" width="3" height="1"/><rect x="6" y="48" width="3" height="1"/><rect x="12" y="48" width="3" height="1"/><rect x="18" y="48" width="3" height="1"/><rect x="24" y="48" width="3" height="1"/><rect x="30" y="48" width="3" height="1"/><rect x="36" y="48" width="3" height="1"/><rect x="42" y="48" width="3" height="1"/><rect x="48" y="48" width="3" height="1"/><rect x="53" y="48" width="6" height="1"/><rect x="60" y="48" width="3" height="1"/><rect x="64" y="48" width="1" height="1"/><rect x="66" y="48" width="3" height="1"/><rect x="72" y="48" width="3" height="1"/><rect x="78" y="48" width="3" height="1"/><rect x="84" y="48" width="3" height="1"/><rect x="90" y="48" width="3" height="1"/><rect x="96" y="48" width="3" height="1"/><rect x="102" y="48" width="3" height="1"/><rect x="108" y="48" width="3" height="1"/><rect x="114" y="48" width="3" height="1"/><rect x="120" y="48" width="3" height="1"/><rect x="126" y="48" width="2" height="1"/><rect x="1" y="49" width="2" height="1"/><rect x="6" y="49" width="3" height="1"/><rect x="12" y="49" width="3" height="1"/><rect x="18" y="49" width="3" height="1"/><rect x="24" y="49" width="3" height="1"/><rect x="30" y="49" width="3" height="1"/><rect x="36" y="49" width="3" height="1"/><rect x="42" y="49" width="3" height="1"/><rect x="48" y="49" width="3" height="1"/><rect x="53" y="49" width="12" height="1"/><rect x="66" y="49" width="3" height="1"/><rect x="72" y="49" width="4" height="1"/><rect x="78" y="49" width="3" height="1"/><rect x="84" y="49" width="3" height="1"/><rect x="90" y="49" width="3" height="1"/><rect x="96" y="49" width="3" height="1"/><rect x="102" y="49" width="3" height="1"/><rect x="108" y="49" width="3" height="1"/><rect x="114" y="49" width="3" height="1"/><rect x="120" y="49" width="3" height="1"/><rect x="126" y="49" width="2" height="1"/><rect x="0" y="50" width="128" height="1"/><rect x="18" y="51" width="3" height="1"/><rect x="24" y="51" width="3" height="1"/><rect x="30" y="51" width="3" height="1"/><rect x="36" y="51" width="3" height="1"/><rect x="42" y="51" width="3" height="1"/><rect x="48" y="51" width="3" height="1"/><rect x="53" y="51" width="5" height="1"/><rect x="59" y="51" width="4" height="1"/><rect x="66" y="51" width="3" height="1"/><rect x="70" y="51" width="11" height="1"/><rect x="84" y="51" width="3" height="1"/><rect x="90" y="51" width="3" height="1"/><rect x="96" y="51" width="3" height="1"/><rect x="102" y="51" width="3" height="1"/><rect x="108" y="51" width="3" height="1"/><rect x="25" y="52" width="2" height="1"/><rect x="30" y="52" width="3" height="1"/><rect x="36" y="52" width="3" height="1"/><rect x="42" y="52" width="3" height="1"/><rect x="48" y="52" width="3" height="1"/><rect x="52" y="52" width="7" height="1"/><rect x="60" y="52" width="15" height="1"/><rect x="76" y="52" width="5" height="1"/><rect x="84" y="52" width="3" height="1"/><rect x="90" y="52" width="3" height="1"/><rect x="96" y="52" width="3" height="1"/><rect x="102" y="52" width="2" height="1"/><rect x="36" y="53" width="3" height="1"/><rect x="42" y="53" width="3" height="1"/><rect x="48" y="53" width="3" height="1"/><rect x="53" y="53" width="11" height="1"/><rect x="65" y="53" width="11" height="1"/><rect x="78" y="53" width="3" height="1"/><rect x="84" y="53" width="3" height="1"/><rect x="90" y="53" width="3" height="1"/><rect x="42" y="54" width="3" height="1"/><rect x="48" y="54" width="5" height="1"/><rect x="54" y="54" width="3" height="1"/><rect x="58" y="54" width="18" height="1"/><rect x="78" y="54" width="3" height="1"/><rect x="84" y="54" width="3" height="1"/><rect x="49" y="55" width="3" height="1"/><rect x="54" y="55" width="4" height="1"/><rect x="59" y="55" width="5" height="1"/><rect x="65" y="55" width="5" height="1"/><rect x="71" y="55" width="4" height="1"/><rect x="77" y="55" width="3" height="1"/><rect x="50" y="56" width="2" height="1"/><rect x="54" y="56" width="1" height="1"/><rect x="56" y="56" width="1" height="1"/><rect x="58" y="56" width="1" height="1"/><rect x="60" y="56" width="15" height="1"/><rect x="76" y="56" width="1" height="1"/><rect x="51" y="57" width="1" height="1"/><rect x="54" y="57" width="2" height="1"/><rect x="57" y="57" width="1" height="1"/><rect x="59" y="57" width="5" height="1"/><rect x="65" y="57" width="3" height="1"/><rect x="69" y="57" width="1" height="1"/><rect x="71" y="57" width="3" height="1"/><rect x="75" y="57" width="1" height="1"/><rect x="5" y="58" width="2" height="1"/><rect x="50" y="58" width="2" height="1"/><rect x="54" y="58" width="15" height="1"/><rect x="70" y="58" width="3" height="1"/><rect x="75" y="58" width="2" height="1"/><rect x="5" y="59" width="2" height="1"/><rect x="16" y="59" width="1" height="1"/><rect x="19" y="59" width="2" height="1"/><rect x="23" y="59" width="2" height="1"/><rect x="40" y="59" width="4" height="1"/><rect x="51" y="59" width="7" height="1"/><rect x="59" y="59" width="1" height="1"/><rect x="61" y="59" width="6" height="1"/><rect x="69" y="59" width="1" height="1"/><rect x="71" y="59" width="1" height="1"/><rect x="3" y="60" width="6" height="1"/><rect x="16" y="60" width="1" height="1"/><rect x="18" y="60" width="1" height="1"/><rect x="21" y="60" width="2" height="1"/><rect x="25" y="60" width="1" height="1"/><rect x="39" y="60" width="1" height="1"/><rect x="41" y="60" width="1" height="1"/><rect x="43" y="60" width="2" height="1"/><rect x="50" y="60" width="7" height="1"/><rect x="60" y="60" width="5" height="1"/><rect x="66" y="60" width="2" height="1"/><rect x="70" y="60" width="1" height="1"/><rect x="74" y="60" width="2" height="1"/><rect x="3" y="61" width="6" height="1"/><rect x="16" y="61" width="1" height="1"/><rect x="18" y="61" width="1" height="1"/><rect x="21" y="61" width="2" height="1"/><rect x="25" y="61" width="1" height="1"/><rect x="39" y="61" width="6" height="1"/><rect x="50" y="61" width="1" height="1"/><rect x="53" y="61" width="9" height="1"/><rect x="63" y="61" width="1" height="1"/><rect x="65" y="61" width="1" height="1"/><rect x="67" y="61" width="2" height="1"/><rect x="75" y="61" width="1" height="1"/><rect x="5" y="62" width="2" height="1"/><rect x="16" y="62" width="1" height="1"/><rect x="18" y="62" width="1" height="1"/><rect x="21" y="62" width="2" height="1"/><rect x="25" y="62" width="1" height="1"/><rect x="39" y="62" width="6" height="1"/><rect x="49" y="62" width="2" height="1"/><rect x="52" y="62" width="5" height="1"/><rect x="58" y="62" width="9" height="1"/><rect x="68" y="62" width="2" height="1"/><rect x="74" y="62" width="1" height="1"/><rect x="5" y="63" width="2" height="1"/><rect x="15" y="63" width="3" height="1"/><rect x="19" y="63" width="2" height="1"/><rect x="23" y="63" width="2" height="1"/><rect x="42" y="63" width="3" height="1"/><rect x="51" y="63" width="2" height="1"/></g>
</svg>
