<svg xmlns="http://www.w3.org/2000/svg" viewBox="0 0 128 64" width="128" height="64" shape-rendering="crispEdges">
  <rect width="128" height="64" fill="#020406"/>
  <g fill="#fff"><rect x="88" y="0" width="2" height="1"/><rect x="94" y="0" width="3" height="1"/><rect x="98" y="0" width="1" height="1"/><rect x="102" y="0" width="1" height="1"/><rect x="104" y="0" width="2" height="1"/><rect x="88" y="1" width="2" height="1"/><rect x="94" y="1" width="3" height="1"/><rect x="98" y="1" width="1" height="1"/><rect x="103" y="1" width="3" height="1"/><rect x="3" y="2" width="4" height="1"/><rect x="9" y="2" width="3" height="1"/><rect x="15" y="2" width="3" height="1"/><rect x="20" y="2" width="4" height="1"/><rect x="26" y="2" width="5" height="1"/><rect x="39" y="2" width="3" height="1"/><rect x="76" y="2" width="1" height="1"/><rect x="80" y="2" width="1" height="1"/><rect x="82" y="2" width="5" height="1"/><rect x="88" y="2" width="2" height="1"/><rect x="94" y="2" width="5" height="1"/><rect x="102" y="2" width="1" height="1"/><rect x="104" y="2" width="2" height="1"/><rect x="2" y="3" width="1" height="1"/><rect x="8" y="3" width="1" height="1"/><rect x="12" y="3" width="1" height="1"/><rect x="14" y="3" width="1" height="1"/><rect x="18" y="3" width="1" height="1"/><rect x="20" y="3" width="1" height="1"/><rect x="24" y="3" width="1" height="1"/><rect x="26" y="3" width="1" height="1"/><rect x="33" y="3" width="2" height="1"/><rect x="38" y="3" width="1" height="1"/><rect x="42" y="3" width="1" height="1"/><rect x="76" y="3" width="1" height="1"/><rect x="80" y="3" width="1" height="1"/><rect x="84" y="3" width="1" height="1"/><rect x="88" y="3" width="3" height="1"/><rect x="94" y="3" width="3" height="1"/><rect x="98" y="3" width="1" height="1"/><rect x="103" y="3" width="3" height="1"/><rect x="2" y="4" width="1" height="1"/><rect x="8" y="4" width="1" height="1"/><rect x="14" y="4" width="1" height="1"/><rect x="18" y="4" width="1" height="1"/><rect x="20" y="4" width="1" height="1"/><rect x="24" y="4" width="1" height="1"/><rect x="26" y="4" width="1" height="1"/><rect x="33" y="4" width="2" height="1"/><rect x="38" y="4" width="1" height="1"/><rect x="41" y="4" width="2" height="1"/><rect x="76" y="4" width="1" height="1"/><rect x="80" y="4" width="1" height="1"/><rect x="84" y="4" width="1" height="1"/><rect x="88" y="4" width="3" height="1"/><rect x="94" y="4" width="5" height="1"/><rect x="102" y="4" width="1" height="1"/><rect x="104" y="4" width="2" height="1"/><rect x="3" y="5" width="3" height="1"/><rect x="8" y="5" width="1" height="1"/><rect x="14" y="5" width="1" height="1"/><rect x="18" y="5" width="1" height="1"/><rect x="20" y="5" width="4" height="1"/><rect x="26" y="5" width="4" height="1"/><rect x="38" y="5" width="1" height="1"/><rect x="40" y="5" width="1" height="1"/><rect x="42" y="5" width="1" height="1"/><rect x="76" y="5" width="5" height="1"/><rect x="84" y="5" width="1" height="1"/><rect x="88" y="5" width="2" height="1"/><rect x="94" y="5" width="3" height="1"/><rect x="98" y="5" width="1" height="1"/><rect x="103" y="5" width="3" height="1"/><rect x="6" y="6" width="1" height="1"/><rect x="8" y="6" width="1" height="1"/><rect x="14" y="6" width="1" height="1"/><rect x="18" y="6" width="1" height="1"/><rect x="20" y="6" width="1" height="1"/><rect x="22" y="6" width="1" height="1"/><rect x="26" y="6" width="1" height="1"/><rect x="33" y="6" width="2" height="1"/><rect x="38" y="6" width="2" height="1"/><rect x="42" y="6" width="1" height="1"/><rect x="76" y="6" width="1" height="1"/><rect x="80" y="6" width="1" height="1"/><rect x="84" y="6" width="1" height="1"/><rect x="88" y="6" width="3" height="1"/><rect x="94" y="6" width="3" height="1"/><rect x="98" y="6" width="1" height="1"/><rect x="102" y="6" width="1" height="1"/><rect x="104" y="6" width="2" height="1"/><rect x="6" y="7" width="1" height="1"/><rect x="8" y="7" width="1" height="1"/><rect x="12" y="7" width="1" height="1"/><rect x="14" y="7" width="1" height="1"/><rect x="18" y="7" width="1" height="1"/><rect x="20" y="7" width="1" height="1"/><rect x="23" y="7" width="1" height="1"/><rect x="26" y="7" width="1" height="1"/><rect x="33" y="7" width="2" height="1"/><rect x="38" y="7" width="1" height="1"/><rect x="42" y="7" width="1" height="1"/><rect x="76" y="7" width="1" height="1"/><rect x="80" y="7" width="1" height="1"/><rect x="84" y="7" width="1" height="1"/><rect x="88" y="7" width="3" height="1"/><rect x="94" y="7" width="3" height="1"/><rect x="98" y="7" width="1" height="1"/><rect x="103" y="7" width="3" height="1"/><rect x="2" y="8" width="4" height="1"/><rect x="9" y="8" width="3" height="1"/><rect x="15" y="8" width="3" height="1"/><rect x="20" y="8" width="1" height="1"/><rect x="24" y="8" width="1" height="1"/><rect x="26" y="8" width="5" height="1"/><rect x="39" y="8" width="3" height="1"/><rect x="76" y="8" width="1" height="1"/><rect x="80" y="8" width="1" height="1"/><rect x="82" y="8" width="5" height="1"/><rect x="88" y="8" width="2" height="1"/><rect x="94" y="8" width="5" height="1"/><rect x="102" y="8" width="1" height="1"/><rect x="104" y="8" width="2" height="1"/><rect x="88" y="9" width="2" height="1"/><rect x="94" y="9" width="3" height="1"/><rect x="98" y="9" width="1" height="1"/><rect x="103" y="9" width="3" height="1"/><rect x="88" y="10" width="2" height="1"/><rect x="94" y="10" width="3" height="1"/><rect x="98" y="10" width="1" height="1"/><rect x="102" y="10" width="1" height="1"/><rect x="104" y="10" width="2" height="1"/><rect x="88" y="11" width="2" height="1"/><rect x="94" y="11" width="3" height="1"/><rect x="98" y="11" width="1" height="1"/><rect x="103" y="11" width="3" height="1"/><rect x="88" y="12" width="2" height="1"/><rect x="94" y="12" width="3" height="1"/><rect x="98" y="12" width="1" height="1"/><rect x="102" y="12" width="1" height="1"/><rect x="104" y="12" width="2" height="1"/><rect x="88" y="13" width="2" height="1"/><rect x="94" y="13" width="3" height="1"/><rect x="98" y="13" width="1" height="1"/><rect x="103" y="13" width="3" height="1"/><rect x="88" y="14" width="2" height="1"/><rect x="94" y="14" width="3" height="1"/><rect x="98" y="14" width="1" height="1"/><rect x="102" y="14" width="1" height="1"/><rect x="104" y="14" width="2" height="1"/><rect x="88" y="15" width="2" height="1"/><rect x="94" y="15" width="3" height="1"/><rect x="98" y="15" width="1" height="1"/><rect x="103" y="15" width="3" height="1"/><rect x="88" y="16" width="2" height="1"/><rect x="94" y="16" width="3" height="1"/><rect x="98" y="16" width="1" height="1"/><rect x="102" y="16" width="1" height="1"/><rect x="104" y="16" width="2" height="1"/><rect x="88" y="17" width="2" height="1"/><rect x="94" y="17" width="3" height="1"/><rect x="98" y="17" width="1" height="1"/><rect x="103" y="17" width="3" height="1"/><rect x="88" y="18" width="2" height="1"/><rect x="94" y="18" width="3" height="1"/><rect x="98" y="18" width="1" height="1"/><rect x="102" y="18" width="1" height="1"/><rect x="104" y="18" width="2" height="1"/><rect x="88" y="19" width="2" height="1"/><rect x="94" y="19" width="3" height="1"/><rect x="98" y="19" width="1" height="1"/><rect x="103" y="19" width="3" height="1"/><rect x="88" y="20" width="2" height="1"/><rect x="94" y="20" width="3" height="1"/><rect x="98" y="20" width="1" height="1"/><rect x="102" y="20" width="1" height="1"/><rect x="104" y="20" width="2" height="1"/><rect x="88" y="21" width="2" height="1"/><rect x="94" y="21" width="3" height="1"/><rect x="98" y="21" width="1" height="1"/><rect x="103" y="21" width="3" height="1"/><rect x="88" y="22" width="2" height="1"/><rect x="94" y="22" width="3" height="1"/><rect x="98" y="22" width="1" height="1"/><rect x="102" y="22" width="1" height="1"/><rect x="104" y="22" width="2" height="1"/><rect x="88" y="23" width="2" height="1"/><rect x="94" y="23" width="3" height="1"/><rect x="98" y="23" width="1" height="1"/><rect x="103" y="23" width="3" height="1"/><rect x="88" y="24" width="2" height="1"/><rect x="94" y="24" width="3" height="1"/><rect x="98" y="24" width="1" height="1"/><rect x="102" y="24" width="1" height="1"/><rect x="104" y="24" width="2" height="1"/><rect x="88" y="25" width="2" height="1"/><rect x="94" y="25" width="3" height="1"/><rect x="98" y="25" width="1" height="1"/><rect x="103" y="25" width="3" height="1"/><rect x="88" y="26" width="2" height="1"/><rect x="94" y="26" width="3" height="1"/><rect x="98" y="26" width="1" height="1"/><rect x="102" y="26" width="1" height="1"/><rect x="104" y="26" width="2" height="1"/><rect x="20" y="27" width="7" height="1"/><rect x="88" y="27" width="2" height="1"/><rect x="94" y="27" width="3" height="1"/><rect x="98" y="27" width="1" height="1"/><rect x="103" y="27" width="3" height="1"/><rect x="18" y="28" width="2" height="1"/><rect x="23" y="28" width="1" height="1"/><rect x="27" y="28" width="1" height="1"/><rect x="88" y="28" width="2" height="1"/><rect x="94" y="28" width="3" height="1"/><rect x="98" y="28" width="1" height="1"/><rect x="104" y="28" width="2" height="1"/><rect x="17" y="29" width="1" height="1"/><rect x="22" y="29" width="1" height="1"/><rect x="28" y="29" width="1" height="1"/><rect x="88" y="29" width="2" height="1"/><rect x="94" y="29" width="12" height="1"/><rect x="15" y="30" width="2" height="1"/><rect x="22" y="30" width="1" height="1"/><rect x="27" y="30" width="1" height="1"/><rect x="29" y="30" width="1" height="1"/><rect x="88" y="30" width="2" height="1"/><rect x="91" y="30" width="1" height="1"/><rect x="104" y="30" width="2" height="1"/><rect x="14" y="31" width="1" height="1"/><rect x="17" y="31" width="1" height="1"/><rect x="22" y="31" width="1" height="1"/><rect x="27" y="31" width="1" height="1"/><rect x="29" y="31" width="1" height="1"/><rect x="86" y="31" width="22" height="1"/><rect x="14" y="32" width="1" height="1"/><rect x="18" y="32" width="1" height="1"/><rect x="23" y="32" width="1" height="1"/><rect x="29" y="32" width="1" height="1"/><rect x="86" y="32" width="1" height="1"/><rect x="89" y="32" width="2" height="1"/><rect x="95" y="32" width="8" height="1"/><rect x="105" y="32" width="3" height="1"/><rect x="14" y="33" width="1" height="1"/><rect x="19" y="33" width="1" height="1"/><rect x="24" y="33" width="7" height="1"/><rect x="86" y="33" width="1" height="1"/><rect x="89" y="33" width="2" height="1"/><rect x="95" y="33" width="3" height="1"/><rect x="99" y="33" width="1" height="1"/><rect x="104" y="33" width="1" height="1"/><rect x="106" y="33" width="2" height="1"/><rect x="15" y="34" width="1" height="1"/><rect x="19" y="34" width="1" height="1"/><rect x="23" y="34" width="1" height="1"/><rect x="31" y="34" width="1" height="1"/><rect x="86" y="34" width="1" height="1"/><rect x="89" y="34" width="2" height="1"/><rect x="95" y="34" width="3" height="1"/><rect x="99" y="34" width="1" height="1"/><rect x="105" y="34" width="3" height="1"/><rect x="16" y="35" width="4" height="1"/><rect x="22" y="35" width="1" height="1"/><rect x="24" y="35" width="7" height="1"/><rect x="86" y="35" width="1" height="1"/><rect x="89" y="35" width="2" height="1"/><rect x="95" y="35" width="3" height="1"/><rect x="99" y="35" width="1" height="1"/><rect x="104" y="35" width="1" height="1"/><rect x="106" y="35" width="2" height="1"/><rect x="17" y="36" width="1" height="1"/><rect x="23" y="36" width="1" height="1"/><rect x="30" y="36" width="1" height="1"/><rect x="44" y="36" width="47" height="1"/><rect x="95" y="36" width="3" height="1"/><rect x="99" y="36" width="1" height="1"/><rect x="105" y="36" width="3" height="1"/><rect x="18" y="37" width="2" height="1"/><rect x="24" y="37" width="6" height="1"/><rect x="43" y="37" width="1" height="1"/><rect x="86" y="37" width="1" height="1"/><rect x="89" y="37" width="2" height="1"/><rect x="95" y="37" width="3" height="1"/><rect x="99" y="37" width="1" height="1"/><rect x="104" y="37" width="1" height="1"/><rect x="106" y="37" width="2" height="1"/><rect x="20" y="38" width="4" height="1"/><rect x="42" y="38" width="1" height="1"/><rect x="59" y="38" width="3" height="1"/><rect x="64" y="38" width="3" height="1"/><rect x="70" y="38" width="4" height="1"/><rect x="75" y="38" width="4" height="1"/><rect x="81" y="38" width="4" height="1"/><rect x="86" y="38" width="1" height="1"/><rect x="89" y="38" width="3" height="1"/><rect x="95" y="38" width="3" height="1"/><rect x="99" y="38" width="1" height="1"/><rect x="105" y="38" width="3" height="1"/><rect x="42" y="39" width="1" height="1"/><rect x="59" y="39" width="1" height="1"/><rect x="62" y="39" width="1" height="1"/><rect x="64" y="39" width="2" height="1"/><rect x="67" y="39" width="1" height="1"/><rect x="69" y="39" width="5" height="1"/><rect x="75" y="39" width="2" height="1"/><rect x="80" y="39" width="3" height="1"/><rect x="86" y="39" width="1" height="1"/><rect x="91" y="39" width="1" height="1"/><rect x="104" y="39" width="1" height="1"/><rect x="106" y="39" width="2" height="1"/><rect x="42" y="40" width="1" height="1"/><rect x="59" y="40" width="2" height="1"/><rect x="62" y="40" width="1" height="1"/><rect x="64" y="40" width="2" height="1"/><rect x="69" y="40" width="3" height="1"/><rect x="77" y="40" width="2" height="1"/><rect x="83" y="40" width="2" height="1"/><rect x="86" y="40" width="1" height="1"/><rect x="91" y="40" width="1" height="1"/><rect x="107" y="40" width="1" height="1"/><rect x="42" y="41" width="1" height="1"/><rect x="48" y="41" width="3" height="1"/><rect x="59" y="41" width="3" height="1"/><rect x="64" y="41" width="2" height="1"/><rect x="70" y="41" width="4" height="1"/><rect x="75" y="41" width="4" height="1"/><rect x="80" y="41" width="5" height="1"/><rect x="86" y="41" width="22" height="1"/><rect x="42" y="42" width="1" height="1"/><rect x="47" y="42" width="1" height="1"/><rect x="51" y="42" width="1" height="1"/><rect x="59" y="42" width="2" height="1"/><rect x="86" y="42" width="22" height="1"/><rect x="42" y="43" width="1" height="1"/><rect x="46" y="43" width="1" height="1"/><rect x="52" y="43" width="1" height="1"/><rect x="59" y="43" width="2" height="1"/><rect x="68" y="43" width="1" height="1"/><rect x="86" y="43" width="1" height="1"/><rect x="91" y="43" width="1" height="1"/><rect x="107" y="43" width="1" height="1"/><rect x="42" y="44" width="1" height="1"/><rect x="46" y="44" width="1" height="1"/><rect x="52" y="44" width="1" height="1"/><rect x="67" y="44" width="4" height="1"/><rect x="72" y="44" width="4" height="1"/><rect x="86" y="44" width="1" height="1"/><rect x="91" y="44" width="1" height="1"/><rect x="104" y="44" width="1" height="1"/><rect x="106" y="44" width="2" height="1"/><rect x="42" y="45" width="1" height="1"/><rect x="46" y="45" width="2" height="1"/><rect x="51" y="45" width="2" height="1"/><rect x="68" y="45" width="1" height="1"/><rect x="71" y="45" width="2" height="1"/><rect x="75" y="45" width="2" height="1"/><rect x="86" y="45" width="1" height="1"/><rect x="89" y="45" width="3" height="1"/><rect x="95" y="45" width="3" height="1"/><rect x="99" y="45" width="1" height="1"/><rect x="105" y="45" width="3" height="1"/><rect x="42" y="46" width="1" height="1"/><rect x="46" y="46" width="1" height="1"/><rect x="48" y="46" width="3" height="1"/><rect x="52" y="46" width="1" height="1"/><rect x="68" y="46" width="1" height="1"/><rect x="71" y="46" width="2" height="1"/><rect x="75" y="46" width="2" height="1"/><rect x="86" y="46" width="1" height="1"/><rect x="89" y="46" width="3" height="1"/><rect x="95" y="46" width="3" height="1"/><rect x="99" y="46" width="1" height="1"/><rect x="104" y="46" width="1" height="1"/><rect x="106" y="46" width="2" height="1"/><rect x="42" y="47" width="1" height="1"/><rect x="46" y="47" width="1" height="1"/><rect x="52" y="47" width="1" height="1"/><rect x="68" y="47" width="3" height="1"/><rect x="72" y="47" width="4" height="1"/><rect x="86" y="47" width="1" height="1"/><rect x="89" y="47" width="3" height="1"/><rect x="95" y="47" width="3" height="1"/><rect x="99" y="47" width="1" height="1"/><rect x="105" y="47" width="3" height="1"/><rect x="42" y="48" width="1" height="1"/><rect x="47" y="48" width="1" height="1"/><rect x="51" y="48" width="1" height="1"/><rect x="86" y="48" width="1" height="1"/><rect x="89" y="48" width="3" height="1"/><rect x="95" y="48" width="3" height="1"/><rect x="99" y="48" width="1" height="1"/><rect x="104" y="48" width="1" height="1"/><rect x="106" y="48" width="2" height="1"/><rect x="42" y="49" width="1" height="1"/><rect x="48" y="49" width="3" height="1"/><rect x="66" y="49" width="1" height="1"/><rect x="80" y="49" width="1" height="1"/><rect x="86" y="49" width="1" height="1"/><rect x="89" y="49" width="3" height="1"/><rect x="95" y="49" width="3" height="1"/><rect x="99" y="49" width="1" height="1"/><rect x="105" y="49" width="3" height="1"/><rect x="42" y="50" width="1" height="1"/><rect x="61" y="50" width="4" height="1"/><rect x="66" y="50" width="3" height="1"/><rect x="70" y="50" width="4" height="1"/><rect x="75" y="50" width="4" height="1"/><rect x="80" y="50" width="3" height="1"/><rect x="86" y="50" width="1" height="1"/><rect x="89" y="50" width="3" height="1"/><rect x="95" y="50" width="3" height="1"/><rect x="99" y="50" width="1" height="1"/><rect x="104" y="50" width="1" height="1"/><rect x="106" y="50" width="2" height="1"/><rect x="42" y="51" width="1" height="1"/><rect x="60" y="51" width="3" height="1"/><rect x="66" y="51" width="1" height="1"/><rect x="70" y="51" width="1" height="1"/><rect x="73" y="51" width="1" height="1"/><rect x="75" y="51" width="2" height="1"/><rect x="78" y="51" width="1" height="1"/><rect x="80" y="51" width="1" height="1"/><rect x="86" y="51" width="1" height="1"/><rect x="89" y="51" width="3" height="1"/><rect x="95" y="51" width="8" height="1"/><rect x="105" y="51" width="3" height="1"/><rect x="42" y="52" width="1" height="1"/><rect x="62" y="52" width="3" height="1"/><rect x="66" y="52" width="1" height="1"/><rect x="70" y="52" width="4" height="1"/><rect x="75" y="52" width="2" height="1"/><rect x="80" y="52" width="1" height="1"/><rect x="86" y="52" width="22" height="1"/><rect x="42" y="53" width="1" height="1"/><rect x="60" y="53" width="4" height="1"/><rect x="67" y="53" width="2" height="1"/><rect x="70" y="53" width="1" height="1"/><rect x="72" y="53" width="2" height="1"/><rect x="75" y="53" width="2" height="1"/><rect x="81" y="53" width="2" height="1"/><rect x="88" y="53" width="2" height="1"/><rect x="91" y="53" width="1" height="1"/><rect x="104" y="53" width="2" height="1"/><rect x="43" y="54" width="1" height="1"/><rect x="88" y="54" width="3" height="1"/><rect x="94" y="54" width="12" height="1"/><rect x="44" y="55" width="46" height="1"/><rect x="94" y="55" width="3" height="1"/><rect x="98" y="55" width="1" height="1"/><rect x="104" y="55" width="2" height="1"/><rect x="88" y="56" width="2" height="1"/><rect x="94" y="56" width="3" height="1"/><rect x="98" y="56" width="1" height="1"/><rect x="103" y="56" width="3" height="1"/><rect x="88" y="57" width="2" height="1"/><rect x="94" y="57" width="3" height="1"/><rect x="98" y="57" width="1" height="1"/><rect x="102" y="57" width="1" height="1"/><rect x="104" y="57" width="2" height="1"/><rect x="88" y="58" width="2" height="1"/><rect x="94" y="58" width="3" height="1"/><rect x="98" y="58" width="1" height="1"/><rect x="103" y="58" width="3" height="1"/><rect x="88" y="59" width="2" height="1"/><rect x="94" y="59" width="3" height="1"/><rect x="98" y="59" width="1" height="1"/><rect x="102" y="59" width="1" height="1"/><rect x="104" y="59" width="2" height="1"/><rect x="88" y="60" width="2" height="1"/><rect x="94" y="60" width="3" height="1"/><rect x="98" y="60" width="1" height="1"/><rect x="103" y="60" width="3" height="1"/><rect x="88" y="61" width="2" height="1"/><rect x="94" y="61" width="3" height="1"/><rect x="98" y="61" width="1" height="1"/><rect x="102" y="61" width="1" height="1"/><rect x="104" y="61" width="2" height="1"/><rect x="88" y="62" width="2" height="1"/><rect x="94" y="62" width="3" height="1"/><rect x="98" y="62" width="1" height="1"/><rect x="103" y="62" width="3" height="1"/><rect x="88" y="63" width="2" height="1"/><rect x="94" y="63" width="3" height="1"/><rect x="98" y="63" width="1" height="1"/><rect x="102" y="63" width="1" height="1"/><rect x="104" y="63" width="2" height="1"/></g>
</svg>
