<svg xmlns="http://www.w3.org/2000/svg" viewBox="0 0 128 64" width="128" height="64" shape-rendering="crispEdges">
  <rect width="128" height="64" fill="#020406"/>
  <g fill="#fff"><rect x="48" y="2" width="11" height="1"/><rect x="67" y="2" width="10" height="1"/><rect x="84" y="2" width="7" height="1"/><rect x="46" y="3" width="2" height="1"/><rect x="59" y="3" width="1" height="1"/><rect x="66" y="3" width="1" height="1"/><rect x="77" y="3" width="1" height="1"/><rect x="82" y="3" width="2" height="1"/><rect x="91" y="3" width="1" height="1"/><rect x="27" y="4" width="12" height="1"/><rect x="44" y="4" width="2" height="1"/><rect x="49" y="4" width="9" height="1"/><rect x="60" y="4" width="1" height="1"/><rect x="65" y="4" width="1" height="1"/><rect x="68" y="4" width="8" height="1"/><rect x="78" y="4" width="1" height="1"/><rect x="81" y="4" width="1" height="1"/><rect x="85" y="4" width="5" height="1"/><rect x="92" y="4" width="2" height="1"/><rect x="98" y="4" width="7" height="1"/><rect x="26" y="5" width="1" height="1"/><rect x="39" y="5" width="1" height="1"/><rect x="43" y="5" width="1" height="1"/><rect x="47" y="5" width="5" height="1"/><rect x="53" y="5" width="6" height="1"/><rect x="61" y="5" width="1" height="1"/><rect x="64" y="5" width="1" height="1"/><rect x="67" y="5" width="2" height="1"/><rect x="70" y="5" width="7" height="1"/><rect x="79" y="5" width="2" height="1"/><rect x="83" y="5" width="8" height="1"/><rect x="94" y="5" width="1" height="1"/><rect x="97" y="5" width="1" height="1"/><rect x="105" y="5" width="7" height="1"/><rect x="23" y="6" width="3" height="1"/><rect x="28" y="6" width="10" height="1"/><rect x="39" y="6" width="1" height="1"/><rect x="41" y="6" width="2" height="1"/><rect x="45" y="6" width="5" height="1"/><rect x="53" y="6" width="7" height="1"/><rect x="61" y="6" width="1" height="1"/><rect x="64" y="6" width="1" height="1"/><rect x="66" y="6" width="1" height="1"/><rect x="68" y="6" width="6" height="1"/><rect x="75" y="6" width="3" height="1"/><rect x="82" y="6" width="11" height="1"/><rect x="95" y="6" width="2" height="1"/><rect x="99" y="6" width="5" height="1"/><rect x="112" y="6" width="1" height="1"/><rect x="21" y="7" width="2" height="1"/><rect x="27" y="7" width="3" height="1"/><rect x="40" y="7" width="1" height="1"/><rect x="44" y="7" width="4" height="1"/><rect x="53" y="7" width="7" height="1"/><rect x="62" y="7" width="1" height="1"/><rect x="64" y="7" width="1" height="1"/><rect x="67" y="7" width="1" height="1"/><rect x="69" y="7" width="1" height="1"/><rect x="72" y="7" width="16" height="1"/><rect x="89" y="7" width="5" height="1"/><rect x="101" y="7" width="10" height="1"/><rect x="113" y="7" width="1" height="1"/><rect x="20" y="8" width="1" height="1"/><rect x="24" y="8" width="3" height="1"/><rect x="32" y="8" width="5" height="1"/><rect x="42" y="8" width="5" height="1"/><rect x="54" y="8" width="7" height="1"/><rect x="62" y="8" width="1" height="1"/><rect x="64" y="8" width="1" height="1"/><rect x="66" y="8" width="1" height="1"/><rect x="68" y="8" width="1" height="1"/><rect x="70" y="8" width="3" height="1"/><rect x="74" y="8" width="13" height="1"/><rect x="91" y="8" width="4" height="1"/><rect x="100" y="8" width="1" height="1"/><rect x="102" y="8" width="1" height="1"/><rect x="104" y="8" width="8" height="1"/><rect x="113" y="8" width="1" height="1"/><rect x="19" y="9" width="1" height="1"/><rect x="22" y="9" width="3" height="1"/><rect x="28" y="9" width="9" height="1"/><rect x="42" y="9" width="19" height="1"/><rect x="63" y="9" width="2" height="1"/><rect x="67" y="9" width="1" height="1"/><rect x="69" y="9" width="1" height="1"/><rect x="71" y="9" width="2" height="1"/><rect x="75" y="9" width="1" height="1"/><rect x="77" y="9" width="9" height="1"/><rect x="90" y="9" width="1" height="1"/><rect x="92" y="9" width="1" height="1"/><rect x="94" y="9" width="2" height="1"/><rect x="101" y="9" width="1" height="1"/><rect x="103" y="9" width="5" height="1"/><rect x="110" y="9" width="2" height="1"/><rect x="114" y="9" width="1" height="1"/><rect x="18" y="10" width="1" height="1"/><rect x="21" y="10" width="2" height="1"/><rect x="25" y="10" width="6" height="1"/><rect x="32" y="10" width="5" height="1"/><rect x="40" y="10" width="22" height="1"/><rect x="66" y="10" width="1" height="1"/><rect x="68" y="10" width="1" height="1"/><rect x="70" y="10" width="3" height="1"/><rect x="76" y="10" width="9" height="1"/><rect x="87" y="10" width="2" height="1"/><rect x="91" y="10" width="1" height="1"/><rect x="93" y="10" width="2" height="1"/><rect x="101" y="10" width="2" height="1"/><rect x="104" y="10" width="7" height="1"/><rect x="115" y="10" width="1" height="1"/><rect x="17" y="11" width="1" height="1"/><rect x="20" y="11" width="2" height="1"/><rect x="25" y="11" width="1" height="1"/><rect x="31" y="11" width="4" height="1"/><rect x="39" y="11" width="23" height="1"/><rect x="67" y="11" width="1" height="1"/><rect x="69" y="11" width="1" height="1"/><rect x="71" y="11" width="2" height="1"/><rect x="77" y="11" width="7" height="1"/><rect x="86" y="11" width="1" height="1"/><rect x="89" y="11" width="1" height="1"/><rect x="92" y="11" width="1" height="1"/><rect x="94" y="11" width="3" height="1"/><rect x="104" y="11" width="3" height="1"/><rect x="108" y="11" width="6" height="1"/><rect x="115" y="11" width="1" height="1"/><rect x="16" y="12" width="1" height="1"/><rect x="19" y="12" width="3" height="1"/><rect x="30" y="12" width="4" height="1"/><rect x="37" y="12" width="7" height="1"/><rect x="56" y="12" width="6" height="1"/><rect x="66" y="12" width="1" height="1"/><rect x="68" y="12" width="1" height="1"/><rect x="70" y="12" width="3" height="1"/><rect x="74" y="12" width="1" height="1"/><rect x="77" y="12" width="7" height="1"/><rect x="85" y="12" width="1" height="1"/><rect x="90" y="12" width="1" height="1"/><rect x="93" y="12" width="1" height="1"/><rect x="96" y="12" width="2" height="1"/><rect x="102" y="12" width="2" height="1"/><rect x="105" y="12" width="1" height="1"/><rect x="112" y="12" width="2" height="1"/><rect x="115" y="12" width="1" height="1"/><rect x="15" y="13" width="1" height="1"/><rect x="18" y="13" width="1" height="1"/><rect x="20" y="13" width="1" height="1"/><rect x="28" y="13" width="4" height="1"/><rect x="37" y="13" width="6" height="1"/><rect x="45" y="13" width="9" height="1"/><rect x="56" y="13" width="7" height="1"/><rect x="67" y="13" width="1" height="1"/><rect x="69" y="13" width="4" height="1"/><rect x="74" y="13" width="2" height="1"/><rect x="85" y="13" width="1" height="1"/><rect x="91" y="13" width="1" height="1"/><rect x="93" y="13" width="6" height="1"/><rect x="105" y="13" width="2" height="1"/><rect x="116" y="13" width="2" height="1"/><rect x="15" y="14" width="1" height="1"/><rect x="17" y="14" width="1" height="1"/><rect x="19" y="14" width="1" height="1"/><rect x="23" y="14" width="8" height="1"/><rect x="33" y="14" width="2" height="1"/><rect x="37" y="14" width="5" height="1"/><rect x="44" y="14" width="1" height="1"/><rect x="54" y="14" width="1" height="1"/><rect x="57" y="14" width="5" height="1"/><rect x="64" y="14" width="2" height="1"/><rect x="69" y="14" width="4" height="1"/><rect x="74" y="14" width="1" height="1"/><rect x="76" y="14" width="9" height="1"/><rect x="91" y="14" width="1" height="1"/><rect x="93" y="14" width="6" height="1"/><rect x="103" y="14" width="3" height="1"/><rect x="107" y="14" width="1" height="1"/><rect x="111" y="14" width="2" height="1"/><rect x="114" y="14" width="1" height="1"/><rect x="118" y="14" width="1" height="1"/><rect x="15" y="15" width="1" height="1"/><rect x="18" y="15" width="1" height="1"/><rect x="20" y="15" width="1" height="1"/><rect x="22" y="15" width="8" height="1"/><rect x="32" y="15" width="1" height="1"/><rect x="35" y="15" width="1" height="1"/><rect x="39" y="15" width="2" height="1"/><rect x="43" y="15" width="1" height="1"/><rect x="55" y="15" width="1" height="1"/><rect x="58" y="15" width="3" height="1"/><rect x="63" y="15" width="1" height="1"/><rect x="66" y="15" width="2" height="1"/><rect x="70" y="15" width="3" height="1"/><rect x="74" y="15" width="1" height="1"/><rect x="91" y="15" width="1" height="1"/><rect x="95" y="15" width="4" height="1"/><rect x="101" y="15" width="1" height="1"/><rect x="105" y="15" width="3" height="1"/><rect x="109" y="15" width="8" height="1"/><rect x="118" y="15" width="1" height="1"/><rect x="16" y="16" width="1" height="1"/><rect x="19" y="16" width="1" height="1"/><rect x="21" y="16" width="6" height="1"/><rect x="31" y="16" width="1" height="1"/><rect x="36" y="16" width="2" height="1"/><rect x="42" y="16" width="1" height="1"/><rect x="56" y="16" width="1" height="1"/><rect x="62" y="16" width="1" height="1"/><rect x="68" y="16" width="1" height="1"/><rect x="74" y="16" width="1" height="1"/><rect x="92" y="16" width="2" height="1"/><rect x="98" y="16" width="1" height="1"/><rect x="100" y="16" width="1" height="1"/><rect x="102" y="16" width="2" height="1"/><rect x="106" y="16" width="11" height="1"/><rect x="118" y="16" width="1" height="1"/><rect x="17" y="17" width="1" height="1"/><rect x="20" y="17" width="2" height="1"/><rect x="28" y="17" width="3" height="1"/><rect x="38" y="17" width="4" height="1"/><rect x="57" y="17" width="5" height="1"/><rect x="69" y="17" width="5" height="1"/><rect x="94" y="17" width="3" height="1"/><rect x="100" y="17" width="1" height="1"/><rect x="104" y="17" width="1" height="1"/><rect x="109" y="17" width="3" height="1"/><rect x="115" y="17" width="1" height="1"/><rect x="118" y="17" width="1" height="1"/><rect x="18" y="18" width="1" height="1"/><rect x="26" y="18" width="2" height="1"/><rect x="97" y="18" width="3" height="1"/><rect x="105" y="18" width="3" height="1"/><rect x="117" y="18" width="1" height="1"/><rect x="19" y="19" width="5" height="1"/><rect x="25" y="19" width="1" height="1"/><rect x="58" y="19" width="5" height="1"/><rect x="70" y="19" width="20" height="1"/><rect x="108" y="19" width="2" height="1"/><rect x="113" y="19" width="4" height="1"/><rect x="22" y="20" width="2" height="1"/><rect x="25" y="20" width="6" height="1"/><rect x="40" y="20" width="5" height="1"/><rect x="57" y="20" width="1" height="1"/><rect x="63" y="20" width="1" height="1"/><rect x="69" y="20" width="1" height="1"/><rect x="90" y="20" width="1" height="1"/><rect x="99" y="20" width="11" height="1"/><rect x="112" y="20" width="1" height="1"/><rect x="19" y="21" width="3" height="1"/><rect x="31" y="21" width="3" height="1"/><rect x="38" y="21" width="2" height="1"/><rect x="45" y="21" width="1" height="1"/><rect x="56" y="21" width="1" height="1"/><rect x="59" y="21" width="1" height="1"/><rect x="61" y="21" width="1" height="1"/><rect x="64" y="21" width="1" height="1"/><rect x="68" y="21" width="1" height="1"/><rect x="71" y="21" width="18" height="1"/><rect x="91" y="21" width="1" height="1"/><rect x="98" y="21" width="1" height="1"/><rect x="113" y="21" width="1" height="1"/><rect x="18" y="22" width="1" height="1"/><rect x="23" y="22" width="7" height="1"/><rect x="34" y="22" width="1" height="1"/><rect x="37" y="22" width="1" height="1"/><rect x="41" y="22" width="3" height="1"/><rect x="45" y="22" width="1" height="1"/><rect x="55" y="22" width="1" height="1"/><rect x="58" y="22" width="1" height="1"/><rect x="60" y="22" width="1" height="1"/><rect x="62" y="22" width="1" height="1"/><rect x="65" y="22" width="1" height="1"/><rect x="67" y="22" width="1" height="1"/><rect x="70" y="22" width="20" height="1"/><rect x="92" y="22" width="1" height="1"/><rect x="97" y="22" width="1" height="1"/><rect x="100" y="22" width="12" height="1"/><rect x="114" y="22" width="1" height="1"/><rect x="17" y="23" width="1" height="1"/><rect x="20" y="23" width="1" height="1"/><rect x="22" y="23" width="1" height="1"/><rect x="24" y="23" width="9" height="1"/><rect x="35" y="23" width="1" height="1"/><rect x="37" y="23" width="1" height="1"/><rect x="39" y="23" width="5" height="1"/><rect x="46" y="23" width="1" height="1"/><rect x="54" y="23" width="1" height="1"/><rect x="57" y="23" width="1" height="1"/><rect x="59" y="23" width="1" height="1"/><rect x="61" y="23" width="3" height="1"/><rect x="65" y="23" width="2" height="1"/><rect x="69" y="23" width="22" height="1"/><rect x="92" y="23" width="1" height="1"/><rect x="96" y="23" width="1" height="1"/><rect x="99" y="23" width="1" height="1"/><rect x="101" y="23" width="12" height="1"/><rect x="115" y="23" width="1" height="1"/><rect x="16" y="24" width="1" height="1"/><rect x="19" y="24" width="1" height="1"/><rect x="21" y="24" width="1" height="1"/><rect x="23" y="24" width="11" height="1"/><rect x="36" y="24" width="1" height="1"/><rect x="39" y="24" width="2" height="1"/><rect x="42" y="24" width="3" height="1"/><rect x="47" y="24" width="1" height="1"/><rect x="53" y="24" width="1" height="1"/><rect x="56" y="24" width="1" height="1"/><rect x="58" y="24" width="1" height="1"/><rect x="60" y="24" width="1" height="1"/><rect x="62" y="24" width="2" height="1"/><rect x="69" y="24" width="22" height="1"/><rect x="92" y="24" width="1" height="1"/><rect x="96" y="24" width="1" height="1"/><rect x="98" y="24" width="1" height="1"/><rect x="101" y="24" width="13" height="1"/><rect x="116" y="24" width="1" height="1"/><rect x="15" y="25" width="1" height="1"/><rect x="18" y="25" width="1" height="1"/><rect x="20" y="25" width="1" height="1"/><rect x="22" y="25" width="1" height="1"/><rect x="28" y="25" width="3" height="1"/><rect x="32" y="25" width="3" height="1"/><rect x="39" y="25" width="1" height="1"/><rect x="41" y="25" width="1" height="1"/><rect x="43" y="25" width="3" height="1"/><rect x="47" y="25" width="1" height="1"/><rect x="52" y="25" width="1" height="1"/><rect x="55" y="25" width="1" height="1"/><rect x="57" y="25" width="1" height="1"/><rect x="59" y="25" width="1" height="1"/><rect x="61" y="25" width="3" height="1"/><rect x="68" y="25" width="1" height="1"/><rect x="70" y="25" width="6" height="1"/><rect x="92" y="25" width="1" height="1"/><rect x="96" y="25" width="1" height="1"/><rect x="99" y="25" width="6" height="1"/><rect x="111" y="25" width="1" height="1"/><rect x="113" y="25" width="2" height="1"/><rect x="117" y="25" width="1" height="1"/><rect x="14" y="26" width="1" height="1"/><rect x="17" y="26" width="1" height="1"/><rect x="19" y="26" width="1" height="1"/><rect x="24" y="26" width="3" height="1"/><rect x="29" y="26" width="1" height="1"/><rect x="31" y="26" width="1" height="1"/><rect x="33" y="26" width="3" height="1"/><rect x="40" y="26" width="1" height="1"/><rect x="42" y="26" width="1" height="1"/><rect x="44" y="26" width="1" height="1"/><rect x="47" y="26" width="1" height="1"/><rect x="52" y="26" width="1" height="1"/><rect x="54" y="26" width="1" height="1"/><rect x="56" y="26" width="1" height="1"/><rect x="58" y="26" width="1" height="1"/><rect x="60" y="26" width="3" height="1"/><rect x="67" y="26" width="1" height="1"/><rect x="69" y="26" width="1" height="1"/><rect x="71" y="26" width="1" height="1"/><rect x="74" y="26" width="2" height="1"/><rect x="92" y="26" width="1" height="1"/><rect x="96" y="26" width="1" height="1"/><rect x="98" y="26" width="2" height="1"/><rect x="102" y="26" width="2" height="1"/><rect x="112" y="26" width="1" height="1"/><rect x="114" y="26" width="2" height="1"/><rect x="117" y="26" width="1" height="1"/><rect x="13" y="27" width="1" height="1"/><rect x="16" y="27" width="1" height="1"/><rect x="18" y="27" width="1" height="1"/><rect x="20" y="27" width="1" height="1"/><rect x="22" y="27" width="2" height="1"/><rect x="27" y="27" width="1" height="1"/><rect x="30" y="27" width="1" height="1"/><rect x="32" y="27" width="4" height="1"/><rect x="41" y="27" width="1" height="1"/><rect x="43" y="27" width="2" height="1"/><rect x="46" y="27" width="1" height="1"/><rect x="52" y="27" width="1" height="1"/><rect x="55" y="27" width="1" height="1"/><rect x="57" y="27" width="1" height="1"/><rect x="59" y="27" width="3" height="1"/><rect x="66" y="27" width="1" height="1"/><rect x="68" y="27" width="1" height="1"/><rect x="70" y="27" width="1" height="1"/><rect x="72" y="27" width="19" height="1"/><rect x="93" y="27" width="1" height="1"/><rect x="96" y="27" width="1" height="1"/><rect x="98" y="27" width="1" height="1"/><rect x="100" y="27" width="4" height="1"/><rect x="111" y="27" width="1" height="1"/><rect x="113" y="27" width="3" height="1"/><rect x="117" y="27" width="1" height="1"/><rect x="13" y="28" width="1" height="1"/><rect x="15" y="28" width="1" height="1"/><rect x="17" y="28" width="1" height="1"/><rect x="19" y="28" width="1" height="1"/><rect x="22" y="28" width="1" height="1"/><rect x="27" y="28" width="1" height="1"/><rect x="29" y="28" width="1" height="1"/><rect x="31" y="28" width="5" height="1"/><rect x="42" y="28" width="2" height="1"/><rect x="46" y="28" width="1" height="1"/><rect x="51" y="28" width="1" height="1"/><rect x="54" y="28" width="1" height="1"/><rect x="56" y="28" width="1" height="1"/><rect x="58" y="28" width="3" height="1"/><rect x="63" y="28" width="1" height="1"/><rect x="67" y="28" width="1" height="1"/><rect x="69" y="28" width="1" height="1"/><rect x="71" y="28" width="21" height="1"/><rect x="93" y="28" width="1" height="1"/><rect x="96" y="28" width="1" height="1"/><rect x="99" y="28" width="1" height="1"/><rect x="102" y="28" width="2" height="1"/><rect x="110" y="28" width="1" height="1"/><rect x="112" y="28" width="1" height="1"/><rect x="114" y="28" width="2" height="1"/><rect x="117" y="28" width="1" height="1"/><rect x="13" y="29" width="1" height="1"/><rect x="16" y="29" width="1" height="1"/><rect x="18" y="29" width="2" height="1"/><rect x="21" y="29" width="1" height="1"/><rect x="27" y="29" width="1" height="1"/><rect x="30" y="29" width="1" height="1"/><rect x="32" y="29" width="1" height="1"/><rect x="34" y="29" width="2" height="1"/><rect x="41" y="29" width="1" height="1"/><rect x="43" y="29" width="2" height="1"/><rect x="46" y="29" width="1" height="1"/><rect x="51" y="29" width="1" height="1"/><rect x="53" y="29" width="1" height="1"/><rect x="55" y="29" width="1" height="1"/><rect x="57" y="29" width="3" height="1"/><rect x="62" y="29" width="1" height="1"/><rect x="64" y="29" width="1" height="1"/><rect x="66" y="29" width="1" height="1"/><rect x="68" y="29" width="1" height="1"/><rect x="70" y="29" width="3" height="1"/><rect x="74" y="29" width="18" height="1"/><rect x="93" y="29" width="1" height="1"/><rect x="96" y="29" width="1" height="1"/><rect x="98" y="29" width="1" height="1"/><rect x="100" y="29" width="4" height="1"/><rect x="107" y="29" width="3" height="1"/><rect x="111" y="29" width="1" height="1"/><rect x="113" y="29" width="2" height="1"/><rect x="117" y="29" width="1" height="1"/><rect x="12" y="30" width="1" height="1"/><rect x="15" y="30" width="1" height="1"/><rect x="17" y="30" width="1" height="1"/><rect x="21" y="30" width="1" height="1"/><rect x="27" y="30" width="1" height="1"/><rect x="29" y="30" width="1" height="1"/><rect x="31" y="30" width="5" height="1"/><rect x="42" y="30" width="3" height="1"/><rect x="47" y="30" width="1" height="1"/><rect x="50" y="30" width="1" height="1"/><rect x="54" y="30" width="1" height="1"/><rect x="56" y="30" width="3" height="1"/><rect x="61" y="30" width="1" height="1"/><rect x="64" y="30" width="1" height="1"/><rect x="67" y="30" width="1" height="1"/><rect x="69" y="30" width="2" height="1"/><rect x="72" y="30" width="18" height="1"/><rect x="93" y="30" width="1" height="1"/><rect x="96" y="30" width="1" height="1"/><rect x="99" y="30" width="1" height="1"/><rect x="101" y="30" width="10" height="1"/><rect x="112" y="30" width="2" height="1"/><rect x="116" y="30" width="1" height="1"/><rect x="12" y="31" width="1" height="1"/><rect x="14" y="31" width="1" height="1"/><rect x="16" y="31" width="1" height="1"/><rect x="18" y="31" width="1" height="1"/><rect x="20" y="31" width="1" height="1"/><rect x="27" y="31" width="1" height="1"/><rect x="30" y="31" width="1" height="1"/><rect x="33" y="31" width="3" height="1"/><rect x="41" y="31" width="1" height="1"/><rect x="44" y="31" width="1" height="1"/><rect x="48" y="31" width="2" height="1"/><rect x="52" y="31" width="2" height="1"/><rect x="55" y="31" width="4" height="1"/><rect x="60" y="31" width="1" height="1"/><rect x="64" y="31" width="1" height="1"/><rect x="66" y="31" width="1" height="1"/><rect x="68" y="31" width="8" height="1"/><rect x="92" y="31" width="1" height="1"/><rect x="96" y="31" width="1" height="1"/><rect x="100" y="31" width="2" height="1"/><rect x="104" y="31" width="7" height="1"/><rect x="115" y="31" width="1" height="1"/><rect x="12" y="32" width="1" height="1"/><rect x="15" y="32" width="1" height="1"/><rect x="17" y="32" width="1" height="1"/><rect x="20" y="32" width="1" height="1"/><rect x="26" y="32" width="1" height="1"/><rect x="29" y="32" width="1" height="1"/><rect x="31" y="32" width="5" height="1"/><rect x="42" y="32" width="5" height="1"/><rect x="48" y="32" width="1" height="1"/><rect x="51" y="32" width="7" height="1"/><rect x="60" y="32" width="1" height="1"/><rect x="64" y="32" width="1" height="1"/><rect x="67" y="32" width="1" height="1"/><rect x="70" y="32" width="1" height="1"/><rect x="72" y="32" width="3" height="1"/><rect x="77" y="32" width="9" height="1"/><rect x="92" y="32" width="1" height="1"/><rect x="96" y="32" width="1" height="1"/><rect x="98" y="32" width="1" height="1"/><rect x="100" y="32" width="11" height="1"/><rect x="114" y="32" width="1" height="1"/><rect x="13" y="33" width="1" height="1"/><rect x="16" y="33" width="1" height="1"/><rect x="18" y="33" width="1" height="1"/><rect x="20" y="33" width="1" height="1"/><rect x="25" y="33" width="1" height="1"/><rect x="28" y="33" width="3" height="1"/><rect x="32" y="33" width="4" height="1"/><rect x="37" y="33" width="2" height="1"/><rect x="41" y="33" width="3" height="1"/><rect x="45" y="33" width="2" height="1"/><rect x="50" y="33" width="7" height="1"/><rect x="59" y="33" width="1" height="1"/><rect x="64" y="33" width="1" height="1"/><rect x="66" y="33" width="1" height="1"/><rect x="68" y="33" width="2" height="1"/><rect x="71" y="33" width="3" height="1"/><rect x="76" y="33" width="1" height="1"/><rect x="84" y="33" width="1" height="1"/><rect x="93" y="33" width="1" height="1"/><rect x="96" y="33" width="1" height="1"/><rect x="99" y="33" width="1" height="1"/><rect x="101" y="33" width="1" height="1"/><rect x="103" y="33" width="5" height="1"/><rect x="109" y="33" width="3" height="1"/><rect x="115" y="33" width="2" height="1"/><rect x="13" y="34" width="1" height="1"/><rect x="15" y="34" width="1" height="1"/><rect x="17" y="34" width="2" height="1"/><rect x="21" y="34" width="1" height="1"/><rect x="24" y="34" width="1" height="1"/><rect x="27" y="34" width="8" height="1"/><rect x="37" y="34" width="1" height="1"/><rect x="39" y="34" width="1" height="1"/><rect x="42" y="34" width="15" height="1"/><rect x="58" y="34" width="1" height="1"/><rect x="64" y="34" width="1" height="1"/><rect x="67" y="34" width="1" height="1"/><rect x="69" y="34" width="4" height="1"/><rect x="75" y="34" width="1" height="1"/><rect x="79" y="34" width="5" height="1"/><rect x="86" y="34" width="1" height="1"/><rect x="88" y="34" width="4" height="1"/><rect x="94" y="34" width="1" height="1"/><rect x="96" y="34" width="1" height="1"/><rect x="98" y="34" width="1" height="1"/><rect x="101" y="34" width="3" height="1"/><rect x="106" y="34" width="1" height="1"/><rect x="108" y="34" width="1" height="1"/><rect x="110" y="34" width="4" height="1"/><rect x="117" y="34" width="1" height="1"/><rect x="13" y="35" width="1" height="1"/><rect x="16" y="35" width="1" height="1"/><rect x="18" y="35" width="2" height="1"/><rect x="22" y="35" width="2" height="1"/><rect x="26" y="35" width="8" height="1"/><rect x="36" y="35" width="1" height="1"/><rect x="40" y="35" width="1" height="1"/><rect x="42" y="35" width="15" height="1"/><rect x="58" y="35" width="1" height="1"/><rect x="64" y="35" width="1" height="1"/><rect x="66" y="35" width="1" height="1"/><rect x="68" y="35" width="1" height="1"/><rect x="70" y="35" width="3" height="1"/><rect x="75" y="35" width="4" height="1"/><rect x="85" y="35" width="1" height="1"/><rect x="87" y="35" width="6" height="1"/><rect x="95" y="35" width="1" height="1"/><rect x="98" y="35" width="1" height="1"/><rect x="100" y="35" width="3" height="1"/><rect x="109" y="35" width="1" height="1"/><rect x="111" y="35" width="5" height="1"/><rect x="118" y="35" width="1" height="1"/><rect x="14" y="36" width="1" height="1"/><rect x="17" y="36" width="3" height="1"/><rect x="25" y="36" width="8" height="1"/><rect x="35" y="36" width="1" height="1"/><rect x="40" y="36" width="1" height="1"/><rect x="42" y="36" width="1" height="1"/><rect x="44" y="36" width="12" height="1"/><rect x="58" y="36" width="1" height="1"/><rect x="64" y="36" width="1" height="1"/><rect x="67" y="36" width="1" height="1"/><rect x="69" y="36" width="5" height="1"/><rect x="80" y="36" width="13" height="1"/><rect x="101" y="36" width="2" height="1"/><rect x="104" y="36" width="4" height="1"/><rect x="110" y="36" width="1" height="1"/><rect x="113" y="36" width="4" height="1"/><rect x="119" y="36" width="1" height="1"/><rect x="14" y="37" width="1" height="1"/><rect x="16" y="37" width="16" height="1"/><rect x="34" y="37" width="2" height="1"/><rect x="40" y="37" width="1" height="1"/><rect x="43" y="37" width="2" height="1"/><rect x="46" y="37" width="9" height="1"/><rect x="57" y="37" width="1" height="1"/><rect x="64" y="37" width="1" height="1"/><rect x="66" y="37" width="1" height="1"/><rect x="68" y="37" width="1" height="1"/><rect x="70" y="37" width="1" height="1"/><rect x="72" y="37" width="20" height="1"/><rect x="94" y="37" width="1" height="1"/><rect x="97" y="37" width="6" height="1"/><rect x="104" y="37" width="1" height="1"/><rect x="108" y="37" width="1" height="1"/><rect x="112" y="37" width="6" height="1"/><rect x="120" y="37" width="1" height="1"/><rect x="14" y="38" width="1" height="1"/><rect x="18" y="38" width="13" height="1"/><rect x="33" y="38" width="1" height="1"/><rect x="41" y="38" width="1" height="1"/><rect x="43" y="38" width="3" height="1"/><rect x="47" y="38" width="7" height="1"/><rect x="56" y="38" width="1" height="1"/><rect x="64" y="38" width="1" height="1"/><rect x="67" y="38" width="1" height="1"/><rect x="69" y="38" width="1" height="1"/><rect x="71" y="38" width="20" height="1"/><rect x="93" y="38" width="1" height="1"/><rect x="95" y="38" width="1" height="1"/><rect x="99" y="38" width="4" height="1"/><rect x="104" y="38" width="1" height="1"/><rect x="109" y="38" width="2" height="1"/><rect x="113" y="38" width="6" height="1"/><rect x="120" y="38" width="1" height="1"/><rect x="15" y="39" width="2" height="1"/><rect x="19" y="39" width="11" height="1"/><rect x="32" y="39" width="1" height="1"/><rect x="41" y="39" width="1" height="1"/><rect x="44" y="39" width="9" height="1"/><rect x="55" y="39" width="1" height="1"/><rect x="65" y="39" width="1" height="1"/><rect x="68" y="39" width="1" height="1"/><rect x="70" y="39" width="1" height="1"/><rect x="72" y="39" width="2" height="1"/><rect x="75" y="39" width="12" height="1"/><rect x="92" y="39" width="1" height="1"/><rect x="95" y="39" width="1" height="1"/><rect x="97" y="39" width="2" height="1"/><rect x="101" y="39" width="2" height="1"/><rect x="104" y="39" width="1" height="1"/><rect x="111" y="39" width="1" height="1"/><rect x="114" y="39" width="4" height="1"/><rect x="120" y="39" width="1" height="1"/><rect x="17" y="40" width="1" height="1"/><rect x="20" y="40" width="8" height="1"/><rect x="31" y="40" width="1" height="1"/><rect x="42" y="40" width="1" height="1"/><rect x="45" y="40" width="5" height="1"/><rect x="54" y="40" width="1" height="1"/><rect x="66" y="40" width="1" height="1"/><rect x="69" y="40" width="1" height="1"/><rect x="71" y="40" width="3" height="1"/><rect x="75" y="40" width="4" height="1"/><rect x="88" y="40" width="4" height="1"/><rect x="95" y="40" width="1" height="1"/><rect x="98" y="40" width="4" height="1"/><rect x="104" y="40" width="1" height="1"/><rect x="112" y="40" width="1" height="1"/><rect x="115" y="40" width="2" height="1"/><rect x="119" y="40" width="1" height="1"/><rect x="18" y="41" width="1" height="1"/><rect x="29" y="41" width="2" height="1"/><rect x="43" y="41" width="1" height="1"/><rect x="46" y="41" width="3" height="1"/><rect x="51" y="41" width="3" height="1"/><rect x="67" y="41" width="1" height="1"/><rect x="70" y="41" width="8" height="1"/><rect x="80" y="41" width="8" height="1"/><rect x="96" y="41" width="1" height="1"/><rect x="103" y="41" width="1" height="1"/><rect x="113" y="41" width="1" height="1"/><rect x="118" y="41" width="1" height="1"/><rect x="19" y="42" width="10" height="1"/><rect x="44" y="42" width="1" height="1"/><rect x="50" y="42" width="1" height="1"/><rect x="68" y="42" width="1" height="1"/><rect x="79" y="42" width="1" height="1"/><rect x="97" y="42" width="6" height="1"/><rect x="114" y="42" width="4" height="1"/><rect x="45" y="43" width="5" height="1"/><rect x="69" y="43" width="10" height="1"/><rect x="23" y="48" width="13" height="1"/><rect x="39" y="48" width="5" height="1"/><rect x="45" y="48" width="6" height="1"/><rect x="53" y="48" width="6" height="1"/><rect x="66" y="48" width="4" height="1"/><rect x="71" y="48" width="2" height="1"/><rect x="76" y="48" width="8" height="1"/><rect x="85" y="48" width="2" height="1"/><rect x="92" y="48" width="7" height="1"/><rect x="100" y="48" width="6" height="1"/><rect x="23" y="49" width="2" height="1"/><rect x="27" y="49" width="4" height="1"/><rect x="33" y="49" width="2" height="1"/><rect x="38" y="49" width="6" height="1"/><rect x="45" y="49" width="2" height="1"/><rect x="49" y="49" width="1" height="1"/><rect x="53" y="49" width="2" height="1"/><rect x="57" y="49" width="1" height="1"/><rect x="66" y="49" width="2" height="1"/><rect x="69" y="49" width="1" height="1"/><rect x="71" y="49" width="2" height="1"/><rect x="76" y="49" width="4" height="1"/><rect x="82" y="49" width="2" height="1"/><rect x="85" y="49" width="2" height="1"/><rect x="95" y="49" width="2" height="1"/><rect x="99" y="49" width="2" height="1"/><rect x="104" y="49" width="2" height="1"/><rect x="23" y="50" width="5" height="1"/><rect x="29" y="50" width="5" height="1"/><rect x="38" y="50" width="3" height="1"/><rect x="46" y="50" width="6" height="1"/><rect x="54" y="50" width="6" height="1"/><rect x="71" y="50" width="2" height="1"/><rect x="76" y="50" width="7" height="1"/><rect x="95" y="50" width="1" height="1"/><rect x="99" y="50" width="2" height="1"/><rect x="104" y="50" width="2" height="1"/><rect x="23" y="51" width="2" height="1"/><rect x="29" y="51" width="2" height="1"/><rect x="32" y="51" width="3" height="1"/><rect x="38" y="51" width="2" height="1"/><rect x="42" y="51" width="3" height="1"/><rect x="50" y="51" width="2" height="1"/><rect x="58" y="51" width="2" height="1"/><rect x="71" y="51" width="2" height="1"/><rect x="75" y="51" width="2" height="1"/><rect x="78" y="51" width="2" height="1"/><rect x="94" y="51" width="2" height="1"/><rect x="99" y="51" width="2" height="1"/><rect x="104" y="51" width="2" height="1"/><rect x="23" y="52" width="2" height="1"/><rect x="29" y="52" width="2" height="1"/><rect x="34" y="52" width="2" height="1"/><rect x="38" y="52" width="5" height="1"/><rect x="46" y="52" width="5" height="1"/><rect x="54" y="52" width="5" height="1"/><rect x="72" y="52" width="4" height="1"/><rect x="78" y="52" width="2" height="1"/><rect x="94" y="52" width="2" height="1"/><rect x="100" y="52" width="5" height="1"/><rect x="50" y="54" width="6" height="1"/><rect x="58" y="54" width="2" height="1"/><rect x="61" y="54" width="2" height="1"/><rect x="64" y="54" width="5" height="1"/><rect x="72" y="54" width="7" height="1"/><rect x="49" y="55" width="7" height="1"/><rect x="59" y="55" width="3" height="1"/><rect x="66" y="55" width="2" height="1"/><rect x="75" y="55" width="2" height="1"/><rect x="49" y="56" width="3" height="1"/><rect x="59" y="56" width="3" height="1"/><rect x="66" y="56" width="2" height="1"/><rect x="75" y="56" width="2" height="1"/><rect x="49" y="57" width="2" height="1"/><rect x="53" y="57" width="3" height="1"/><rect x="58" y="57" width="5" height="1"/><rect x="66" y="57" width="2" height="1"/><rect x="74" y="57" width="2" height="1"/><rect x="49" y="58" width="5" height="1"/><rect x="57" y="58" width="2" height="1"/><rect x="61" y="58" width="2" height="1"/><rect x="65" y="58" width="5" height="1"/><rect x="74" y="58" width="2" height="1"/></g>
</svg>
