<svg xmlns="http://www.w3.org/2000/svg" viewBox="0 0 128 64" width="128" height="64" shape-rendering="crispEdges">
  <rect width="128" height="64" fill="#020406"/>
  <g fill="#fff"><rect x="6" y="5" width="11" height="1"/><rect x="18" y="5" width="5" height="1"/><rect x="33" y="5" width="3" height="1"/><rect x="5" y="6" width="1" height="1"/><rect x="17" y="6" width="1" height="1"/><rect x="23" y="6" width="1" height="1"/><rect x="32" y="6" width="1" height="1"/><rect x="36" y="6" width="5" height="1"/><rect x="4" y="7" width="1" height="1"/><rect x="7" y="7" width="1" height="1"/><rect x="9" y="7" width="7" height="1"/><rect x="19" y="7" width="3" height="1"/><rect x="23" y="7" width="1" height="1"/><rect x="31" y="7" width="1" height="1"/><rect x="34" y="7" width="1" height="1"/><rect x="41" y="7" width="1" height="1"/><rect x="45" y="7" width="10" height="1"/><rect x="4" y="8" width="1" height="1"/><rect x="6" y="8" width="1" height="1"/><rect x="8" y="8" width="1" height="1"/><rect x="10" y="8" width="2" height="1"/><rect x="20" y="8" width="2" height="1"/><rect x="23" y="8" width="1" height="1"/><rect x="31" y="8" width="1" height="1"/><rect x="33" y="8" width="1" height="1"/><rect x="35" y="8" width="5" height="1"/><rect x="42" y="8" width="1" height="1"/><rect x="44" y="8" width="1" height="1"/><rect x="55" y="8" width="1" height="1"/><rect x="57" y="8" width="13" height="1"/><rect x="73" y="8" width="5" height="1"/><rect x="4" y="9" width="1" height="1"/><rect x="7" y="9" width="1" height="1"/><rect x="9" y="9" width="1" height="1"/><rect x="19" y="9" width="1" height="1"/><rect x="21" y="9" width="1" height="1"/><rect x="23" y="9" width="1" height="1"/><rect x="31" y="9" width="1" height="1"/><rect x="34" y="9" width="1" height="1"/><rect x="36" y="9" width="5" height="1"/><rect x="43" y="9" width="1" height="1"/><rect x="46" y="9" width="1" height="1"/><rect x="48" y="9" width="6" height="1"/><rect x="56" y="9" width="1" height="1"/><rect x="70" y="9" width="1" height="1"/><rect x="72" y="9" width="1" height="1"/><rect x="78" y="9" width="1" height="1"/><rect x="4" y="10" width="1" height="1"/><rect x="6" y="10" width="1" height="1"/><rect x="8" y="10" width="7" height="1"/><rect x="18" y="10" width="1" height="1"/><rect x="20" y="10" width="1" height="1"/><rect x="23" y="10" width="1" height="1"/><rect x="31" y="10" width="1" height="1"/><rect x="33" y="10" width="1" height="1"/><rect x="35" y="10" width="1" height="1"/><rect x="37" y="10" width="4" height="1"/><rect x="45" y="10" width="1" height="1"/><rect x="47" y="10" width="1" height="1"/><rect x="49" y="10" width="6" height="1"/><rect x="58" y="10" width="2" height="1"/><rect x="61" y="10" width="4" height="1"/><rect x="67" y="10" width="2" height="1"/><rect x="71" y="10" width="1" height="1"/><rect x="74" y="10" width="3" height="1"/><rect x="78" y="10" width="1" height="1"/><rect x="4" y="11" width="1" height="1"/><rect x="7" y="11" width="9" height="1"/><rect x="19" y="11" width="1" height="1"/><rect x="23" y="11" width="1" height="1"/><rect x="31" y="11" width="1" height="1"/><rect x="34" y="11" width="1" height="1"/><rect x="36" y="11" width="1" height="1"/><rect x="39" y="11" width="1" height="1"/><rect x="41" y="11" width="1" height="1"/><rect x="46" y="11" width="1" height="1"/><rect x="48" y="11" width="2" height="1"/><rect x="52" y="11" width="6" height="1"/><rect x="59" y="11" width="2" height="1"/><rect x="62" y="11" width="3" height="1"/><rect x="66" y="11" width="1" height="1"/><rect x="68" y="11" width="1" height="1"/><rect x="73" y="11" width="4" height="1"/><rect x="78" y="11" width="1" height="1"/><rect x="4" y="12" width="1" height="1"/><rect x="6" y="12" width="1" height="1"/><rect x="8" y="12" width="1" height="1"/><rect x="18" y="12" width="1" height="1"/><rect x="20" y="12" width="2" height="1"/><rect x="23" y="12" width="1" height="1"/><rect x="30" y="12" width="1" height="1"/><rect x="33" y="12" width="1" height="1"/><rect x="35" y="12" width="1" height="1"/><rect x="40" y="12" width="1" height="1"/><rect x="42" y="12" width="1" height="1"/><rect x="47" y="12" width="1" height="1"/><rect x="53" y="12" width="4" height="1"/><rect x="58" y="12" width="1" height="1"/><rect x="63" y="12" width="3" height="1"/><rect x="67" y="12" width="1" height="1"/><rect x="73" y="12" width="3" height="1"/><rect x="78" y="12" width="1" height="1"/><rect x="4" y="13" width="1" height="1"/><rect x="7" y="13" width="2" height="1"/><rect x="11" y="13" width="5" height="1"/><rect x="19" y="13" width="1" height="1"/><rect x="21" y="13" width="1" height="1"/><rect x="24" y="13" width="2" height="1"/><rect x="27" y="13" width="3" height="1"/><rect x="32" y="13" width="1" height="1"/><rect x="34" y="13" width="1" height="1"/><rect x="36" y="13" width="1" height="1"/><rect x="41" y="13" width="1" height="1"/><rect x="46" y="13" width="1" height="1"/><rect x="48" y="13" width="1" height="1"/><rect x="53" y="13" width="5" height="1"/><rect x="59" y="13" width="1" height="1"/><rect x="63" y="13" width="2" height="1"/><rect x="66" y="13" width="1" height="1"/><rect x="68" y="13" width="1" height="1"/><rect x="72" y="13" width="3" height="1"/><rect x="77" y="13" width="1" height="1"/><rect x="4" y="14" width="1" height="1"/><rect x="6" y="14" width="1" height="1"/><rect x="8" y="14" width="1" height="1"/><rect x="10" y="14" width="1" height="1"/><rect x="16" y="14" width="1" height="1"/><rect x="20" y="14" width="3" height="1"/><rect x="26" y="14" width="1" height="1"/><rect x="33" y="14" width="1" height="1"/><rect x="35" y="14" width="3" height="1"/><rect x="42" y="14" width="1" height="1"/><rect x="47" y="14" width="1" height="1"/><rect x="49" y="14" width="1" height="1"/><rect x="51" y="14" width="6" height="1"/><rect x="58" y="14" width="2" height="1"/><rect x="63" y="14" width="3" height="1"/><rect x="67" y="14" width="1" height="1"/><rect x="71" y="14" width="3" height="1"/><rect x="76" y="14" width="1" height="1"/><rect x="4" y="15" width="1" height="1"/><rect x="6" y="15" width="3" height="1"/><rect x="10" y="15" width="1" height="1"/><rect x="17" y="15" width="1" height="1"/><rect x="19" y="15" width="6" height="1"/><rect x="28" y="15" width="3" height="1"/><rect x="34" y="15" width="8" height="1"/><rect x="43" y="15" width="1" height="1"/><rect x="48" y="15" width="7" height="1"/><rect x="57" y="15" width="1" height="1"/><rect x="59" y="15" width="1" height="1"/><rect x="61" y="15" width="4" height="1"/><rect x="68" y="15" width="5" height="1"/><rect x="75" y="15" width="1" height="1"/><rect x="4" y="16" width="1" height="1"/><rect x="7" y="16" width="2" height="1"/><rect x="10" y="16" width="1" height="1"/><rect x="17" y="16" width="1" height="1"/><rect x="21" y="16" width="13" height="1"/><rect x="35" y="16" width="10" height="1"/><rect x="47" y="16" width="1" height="1"/><rect x="49" y="16" width="5" height="1"/><rect x="58" y="16" width="6" height="1"/><rect x="69" y="16" width="3" height="1"/><rect x="74" y="16" width="1" height="1"/><rect x="5" y="17" width="1" height="1"/><rect x="10" y="17" width="1" height="1"/><rect x="18" y="17" width="2" height="1"/><rect x="22" y="17" width="11" height="1"/><rect x="34" y="17" width="4" height="1"/><rect x="40" y="17" width="6" height="1"/><rect x="48" y="17" width="4" height="1"/><rect x="57" y="17" width="1" height="1"/><rect x="59" y="17" width="3" height="1"/><rect x="65" y="17" width="1" height="1"/><rect x="68" y="17" width="3" height="1"/><rect x="73" y="17" width="1" height="1"/><rect x="113" y="17" width="7" height="1"/><rect x="6" y="18" width="4" height="1"/><rect x="20" y="18" width="1" height="1"/><rect x="35" y="18" width="3" height="1"/><rect x="43" y="18" width="4" height="1"/><rect x="48" y="18" width="3" height="1"/><rect x="53" y="18" width="3" height="1"/><rect x="58" y="18" width="2" height="1"/><rect x="63" y="18" width="2" height="1"/><rect x="66" y="18" width="1" height="1"/><rect x="69" y="18" width="2" height="1"/><rect x="73" y="18" width="1" height="1"/><rect x="105" y="18" width="8" height="1"/><rect x="120" y="18" width="1" height="1"/><rect x="21" y="19" width="13" height="1"/><rect x="39" y="19" width="3" height="1"/><rect x="44" y="19" width="3" height="1"/><rect x="49" y="19" width="2" height="1"/><rect x="52" y="19" width="1" height="1"/><rect x="56" y="19" width="1" height="1"/><rect x="58" y="19" width="2" height="1"/><rect x="62" y="19" width="1" height="1"/><rect x="66" y="19" width="1" height="1"/><rect x="68" y="19" width="2" height="1"/><rect x="74" y="19" width="5" height="1"/><rect x="95" y="19" width="5" height="1"/><rect x="104" y="19" width="1" height="1"/><rect x="114" y="19" width="5" height="1"/><rect x="121" y="19" width="1" height="1"/><rect x="34" y="20" width="5" height="1"/><rect x="42" y="20" width="1" height="1"/><rect x="50" y="20" width="1" height="1"/><rect x="52" y="20" width="1" height="1"/><rect x="56" y="20" width="1" height="1"/><rect x="58" y="20" width="2" height="1"/><rect x="61" y="20" width="1" height="1"/><rect x="66" y="20" width="1" height="1"/><rect x="68" y="20" width="2" height="1"/><rect x="79" y="20" width="1" height="1"/><rect x="87" y="20" width="8" height="1"/><rect x="100" y="20" width="1" height="1"/><rect x="103" y="20" width="1" height="1"/><rect x="106" y="20" width="4" height="1"/><rect x="113" y="20" width="7" height="1"/><rect x="122" y="20" width="1" height="1"/><rect x="43" y="21" width="6" height="1"/><rect x="52" y="21" width="1" height="1"/><rect x="56" y="21" width="1" height="1"/><rect x="61" y="21" width="1" height="1"/><rect x="66" y="21" width="1" height="1"/><rect x="71" y="21" width="1" height="1"/><rect x="73" y="21" width="5" height="1"/><rect x="79" y="21" width="1" height="1"/><rect x="82" y="21" width="5" height="1"/><rect x="96" y="21" width="3" height="1"/><rect x="101" y="21" width="2" height="1"/><rect x="105" y="21" width="1" height="1"/><rect x="107" y="21" width="2" height="1"/><rect x="115" y="21" width="6" height="1"/><rect x="122" y="21" width="1" height="1"/><rect x="49" y="22" width="3" height="1"/><rect x="57" y="22" width="4" height="1"/><rect x="67" y="22" width="2" height="1"/><rect x="72" y="22" width="1" height="1"/><rect x="74" y="22" width="4" height="1"/><rect x="80" y="22" width="2" height="1"/><rect x="88" y="22" width="1" height="1"/><rect x="90" y="22" width="9" height="1"/><rect x="104" y="22" width="1" height="1"/><rect x="106" y="22" width="1" height="1"/><rect x="116" y="22" width="5" height="1"/><rect x="122" y="22" width="1" height="1"/><rect x="69" y="23" width="1" height="1"/><rect x="71" y="23" width="1" height="1"/><rect x="73" y="23" width="6" height="1"/><rect x="83" y="23" width="2" height="1"/><rect x="89" y="23" width="2" height="1"/><rect x="95" y="23" width="3" height="1"/><rect x="103" y="23" width="1" height="1"/><rect x="105" y="23" width="1" height="1"/><rect x="115" y="23" width="5" height="1"/><rect x="122" y="23" width="1" height="1"/><rect x="68" y="24" width="1" height="1"/><rect x="72" y="24" width="2" height="1"/><rect x="76" y="24" width="3" height="1"/><rect x="82" y="24" width="3" height="1"/><rect x="88" y="24" width="2" height="1"/><rect x="94" y="24" width="3" height="1"/><rect x="102" y="24" width="1" height="1"/><rect x="104" y="24" width="1" height="1"/><rect x="113" y="24" width="6" height="1"/><rect x="121" y="24" width="1" height="1"/><rect x="68" y="25" width="1" height="1"/><rect x="70" y="25" width="2" height="1"/><rect x="73" y="25" width="1" height="1"/><rect x="75" y="25" width="2" height="1"/><rect x="83" y="25" width="1" height="1"/><rect x="86" y="25" width="1" height="1"/><rect x="88" y="25" width="7" height="1"/><rect x="101" y="25" width="1" height="1"/><rect x="103" y="25" width="1" height="1"/><rect x="111" y="25" width="6" height="1"/><rect x="120" y="25" width="1" height="1"/><rect x="68" y="26" width="1" height="1"/><rect x="72" y="26" width="7" height="1"/><rect x="82" y="26" width="2" height="1"/><rect x="87" y="26" width="1" height="1"/><rect x="89" y="26" width="5" height="1"/><rect x="102" y="26" width="1" height="1"/><rect x="104" y="26" width="1" height="1"/><rect x="108" y="26" width="7" height="1"/><rect x="118" y="26" width="2" height="1"/><rect x="68" y="27" width="1" height="1"/><rect x="71" y="27" width="1" height="1"/><rect x="77" y="27" width="3" height="1"/><rect x="83" y="27" width="1" height="1"/><rect x="86" y="27" width="1" height="1"/><rect x="88" y="27" width="1" height="1"/><rect x="90" y="27" width="5" height="1"/><rect x="100" y="27" width="2" height="1"/><rect x="103" y="27" width="10" height="1"/><rect x="116" y="27" width="2" height="1"/><rect x="67" y="28" width="1" height="1"/><rect x="70" y="28" width="1" height="1"/><rect x="72" y="28" width="1" height="1"/><rect x="76" y="28" width="3" height="1"/><rect x="81" y="28" width="3" height="1"/><rect x="87" y="28" width="1" height="1"/><rect x="92" y="28" width="6" height="1"/><rect x="101" y="28" width="10" height="1"/><rect x="114" y="28" width="2" height="1"/><rect x="67" y="29" width="1" height="1"/><rect x="69" y="29" width="1" height="1"/><rect x="71" y="29" width="1" height="1"/><rect x="73" y="29" width="4" height="1"/><rect x="81" y="29" width="2" height="1"/><rect x="86" y="29" width="2" height="1"/><rect x="94" y="29" width="3" height="1"/><rect x="101" y="29" width="7" height="1"/><rect x="112" y="29" width="2" height="1"/><rect x="67" y="30" width="1" height="1"/><rect x="69" y="30" width="2" height="1"/><rect x="72" y="30" width="4" height="1"/><rect x="78" y="30" width="2" height="1"/><rect x="84" y="30" width="1" height="1"/><rect x="89" y="30" width="4" height="1"/><rect x="98" y="30" width="2" height="1"/><rect x="109" y="30" width="3" height="1"/><rect x="67" y="31" width="1" height="1"/><rect x="71" y="31" width="3" height="1"/><rect x="77" y="31" width="1" height="1"/><rect x="80" y="31" width="4" height="1"/><rect x="85" y="31" width="4" height="1"/><rect x="93" y="31" width="5" height="1"/><rect x="100" y="31" width="9" height="1"/><rect x="68" y="32" width="2" height="1"/><rect x="75" y="32" width="2" height="1"/><rect x="70" y="33" width="5" height="1"/><rect x="13" y="37" width="13" height="1"/><rect x="29" y="37" width="5" height="1"/><rect x="35" y="37" width="6" height="1"/><rect x="43" y="37" width="6" height="1"/><rect x="56" y="37" width="13" height="1"/><rect x="75" y="37" width="6" height="1"/><rect x="83" y="37" width="7" height="1"/><rect x="93" y="37" width="3" height="1"/><rect x="98" y="37" width="7" height="1"/><rect x="107" y="37" width="7" height="1"/><rect x="13" y="38" width="2" height="1"/><rect x="17" y="38" width="4" height="1"/><rect x="23" y="38" width="2" height="1"/><rect x="28" y="38" width="6" height="1"/><rect x="35" y="38" width="2" height="1"/><rect x="39" y="38" width="1" height="1"/><rect x="43" y="38" width="2" height="1"/><rect x="47" y="38" width="1" height="1"/><rect x="59" y="38" width="2" height="1"/><rect x="62" y="38" width="2" height="1"/><rect x="67" y="38" width="2" height="1"/><rect x="75" y="38" width="2" height="1"/><rect x="79" y="38" width="1" height="1"/><rect x="86" y="38" width="2" height="1"/><rect x="92" y="38" width="2" height="1"/><rect x="95" y="38" width="2" height="1"/><rect x="98" y="38" width="2" height="1"/><rect x="102" y="38" width="2" height="1"/><rect x="110" y="38" width="2" height="1"/><rect x="13" y="39" width="5" height="1"/><rect x="19" y="39" width="5" height="1"/><rect x="28" y="39" width="3" height="1"/><rect x="36" y="39" width="6" height="1"/><rect x="44" y="39" width="6" height="1"/><rect x="59" y="39" width="1" height="1"/><rect x="62" y="39" width="2" height="1"/><rect x="67" y="39" width="2" height="1"/><rect x="76" y="39" width="6" height="1"/><rect x="86" y="39" width="1" height="1"/><rect x="91" y="39" width="3" height="1"/><rect x="95" y="39" width="2" height="1"/><rect x="98" y="39" width="5" height="1"/><rect x="110" y="39" width="1" height="1"/><rect x="13" y="40" width="2" height="1"/><rect x="19" y="40" width="2" height="1"/><rect x="22" y="40" width="3" height="1"/><rect x="28" y="40" width="2" height="1"/><rect x="32" y="40" width="3" height="1"/><rect x="40" y="40" width="2" height="1"/><rect x="48" y="40" width="2" height="1"/><rect x="58" y="40" width="2" height="1"/><rect x="62" y="40" width="2" height="1"/><rect x="67" y="40" width="2" height="1"/><rect x="80" y="40" width="2" height="1"/><rect x="85" y="40" width="2" height="1"/><rect x="91" y="40" width="9" height="1"/><rect x="101" y="40" width="3" height="1"/><rect x="109" y="40" width="2" height="1"/><rect x="13" y="41" width="2" height="1"/><rect x="19" y="41" width="2" height="1"/><rect x="24" y="41" width="2" height="1"/><rect x="28" y="41" width="5" height="1"/><rect x="36" y="41" width="5" height="1"/><rect x="44" y="41" width="5" height="1"/><rect x="58" y="41" width="2" height="1"/><rect x="63" y="41" width="5" height="1"/><rect x="76" y="41" width="5" height="1"/><rect x="85" y="41" width="2" height="1"/><rect x="91" y="41" width="2" height="1"/><rect x="96" y="41" width="4" height="1"/><rect x="103" y="41" width="2" height="1"/><rect x="109" y="41" width="2" height="1"/><rect x="60" y="45" width="9" height="1"/><rect x="58" y="46" width="2" height="1"/><rect x="69" y="46" width="1" height="1"/><rect x="57" y="47" width="1" height="1"/><rect x="61" y="47" width="7" height="1"/><rect x="70" y="47" width="1" height="1"/><rect x="55" y="48" width="2" height="1"/><rect x="59" y="48" width="2" height="1"/><rect x="64" y="48" width="1" height="1"/><rect x="68" y="48" width="1" height="1"/><rect x="71" y="48" width="1" height="1"/><rect x="54" y="49" width="1" height="1"/><rect x="58" y="49" width="1" height="1"/><rect x="63" y="49" width="1" height="1"/><rect x="69" y="49" width="1" height="1"/><rect x="72" y="49" width="1" height="1"/><rect x="53" y="50" width="1" height="1"/><rect x="56" y="50" width="2" height="1"/><rect x="63" y="50" width="1" height="1"/><rect x="68" y="50" width="1" height="1"/><rect x="70" y="50" width="1" height="1"/><rect x="72" y="50" width="1" height="1"/><rect x="53" y="51" width="1" height="1"/><rect x="55" y="51" width="1" height="1"/><rect x="58" y="51" width="1" height="1"/><rect x="63" y="51" width="1" height="1"/><rect x="68" y="51" width="1" height="1"/><rect x="70" y="51" width="1" height="1"/><rect x="72" y="51" width="1" height="1"/><rect x="53" y="52" width="1" height="1"/><rect x="55" y="52" width="1" height="1"/><rect x="59" y="52" width="1" height="1"/><rect x="64" y="52" width="1" height="1"/><rect x="70" y="52" width="1" height="1"/><rect x="73" y="52" width="1" height="1"/><rect x="53" y="53" width="1" height="1"/><rect x="55" y="53" width="1" height="1"/><rect x="60" y="53" width="1" height="1"/><rect x="65" y="53" width="7" height="1"/><rect x="74" y="53" width="1" height="1"/><rect x="53" y="54" width="1" height="1"/><rect x="56" y="54" width="1" height="1"/><rect x="60" y="54" width="1" height="1"/><rect x="64" y="54" width="1" height="1"/><rect x="72" y="54" width="1" height="1"/><rect x="74" y="54" width="1" height="1"/><rect x="54" y="55" width="1" height="1"/><rect x="57" y="55" width="4" height="1"/><rect x="63" y="55" width="1" height="1"/><rect x="65" y="55" width="7" height="1"/><rect x="74" y="55" width="1" height="1"/><rect x="55" y="56" width="1" height="1"/><rect x="58" y="56" width="1" height="1"/><rect x="64" y="56" width="1" height="1"/><rect x="71" y="56" width="1" height="1"/><rect x="73" y="56" width="1" height="1"/><rect x="56" y="57" width="1" height="1"/><rect x="59" y="57" width="2" height="1"/><rect x="65" y="57" width="6" height="1"/><rect x="73" y="57" width="1" height="1"/><rect x="57" y="58" width="1" height="1"/><rect x="61" y="58" width="4" height="1"/><rect x="72" y="58" width="1" height="1"/><rect x="58" y="59" width="2" height="1"/><rect x="66" y="59" width="6" height="1"/><rect x="60" y="60" width="6" height="1"/></g>
</svg>
