<svg xmlns="http://www.w3.org/2000/svg" viewBox="0 0 128 64" width="128" height="64" shape-rendering="crispEdges">
  <rect width="128" height="64" fill="#020406"/>
  <g fill="#fff"><rect x="0" y="0" width="1" height="1"/><rect x="7" y="0" width="3" height="1"/><rect x="12" y="0" width="4" height="1"/><rect x="26" y="0" width="1" height="1"/><rect x="79" y="0" width="3" height="1"/><rect x="85" y="0" width="3" height="1"/><rect x="90" y="0" width="5" height="1"/><rect x="102" y="0" width="1" height="1"/><rect x="106" y="0" width="1" height="1"/><rect x="108" y="0" width="1" height="1"/><rect x="112" y="0" width="1" height="1"/><rect x="118" y="0" width="1" height="1"/><rect x="120" y="0" width="1" height="1"/><rect x="124" y="0" width="1" height="1"/><rect x="0" y="1" width="1" height="1"/><rect x="6" y="1" width="1" height="1"/><rect x="10" y="1" width="1" height="1"/><rect x="12" y="1" width="1" height="1"/><rect x="16" y="1" width="1" height="1"/><rect x="25" y="1" width="2" height="1"/><rect x="78" y="1" width="1" height="1"/><rect x="82" y="1" width="1" height="1"/><rect x="84" y="1" width="1" height="1"/><rect x="88" y="1" width="1" height="1"/><rect x="90" y="1" width="1" height="1"/><rect x="102" y="1" width="1" height="1"/><rect x="105" y="1" width="1" height="1"/><rect x="108" y="1" width="2" height="1"/><rect x="111" y="1" width="2" height="1"/><rect x="117" y="1" width="1" height="1"/><rect x="120" y="1" width="1" height="1"/><rect x="124" y="1" width="1" height="1"/><rect x="0" y="2" width="1" height="1"/><rect x="6" y="2" width="1" height="1"/><rect x="10" y="2" width="1" height="1"/><rect x="12" y="2" width="1" height="1"/><rect x="16" y="2" width="1" height="1"/><rect x="26" y="2" width="1" height="1"/><rect x="78" y="2" width="1" height="1"/><rect x="81" y="2" width="2" height="1"/><rect x="84" y="2" width="1" height="1"/><rect x="88" y="2" width="1" height="1"/><rect x="90" y="2" width="1" height="1"/><rect x="102" y="2" width="1" height="1"/><rect x="104" y="2" width="1" height="1"/><rect x="108" y="2" width="1" height="1"/><rect x="110" y="2" width="1" height="1"/><rect x="112" y="2" width="1" height="1"/><rect x="117" y="2" width="1" height="1"/><rect x="120" y="2" width="1" height="1"/><rect x="124" y="2" width="1" height="1"/><rect x="0" y="3" width="1" height="1"/><rect x="6" y="3" width="5" height="1"/><rect x="12" y="3" width="4" height="1"/><rect x="26" y="3" width="1" height="1"/><rect x="78" y="3" width="1" height="1"/><rect x="80" y="3" width="1" height="1"/><rect x="82" y="3" width="1" height="1"/><rect x="85" y="3" width="3" height="1"/><rect x="90" y="3" width="4" height="1"/><rect x="102" y="3" width="2" height="1"/><rect x="108" y="3" width="1" height="1"/><rect x="110" y="3" width="1" height="1"/><rect x="112" y="3" width="1" height="1"/><rect x="116" y="3" width="1" height="1"/><rect x="120" y="3" width="5" height="1"/><rect x="0" y="4" width="1" height="1"/><rect x="6" y="4" width="1" height="1"/><rect x="10" y="4" width="1" height="1"/><rect x="12" y="4" width="1" height="1"/><rect x="26" y="4" width="1" height="1"/><rect x="78" y="4" width="2" height="1"/><rect x="82" y="4" width="1" height="1"/><rect x="84" y="4" width="1" height="1"/><rect x="88" y="4" width="1" height="1"/><rect x="94" y="4" width="1" height="1"/><rect x="102" y="4" width="1" height="1"/><rect x="104" y="4" width="1" height="1"/><rect x="108" y="4" width="1" height="1"/><rect x="112" y="4" width="1" height="1"/><rect x="115" y="4" width="1" height="1"/><rect x="120" y="4" width="1" height="1"/><rect x="124" y="4" width="1" height="1"/><rect x="0" y="5" width="1" height="1"/><rect x="6" y="5" width="1" height="1"/><rect x="10" y="5" width="1" height="1"/><rect x="12" y="5" width="1" height="1"/><rect x="26" y="5" width="1" height="1"/><rect x="78" y="5" width="1" height="1"/><rect x="82" y="5" width="1" height="1"/><rect x="84" y="5" width="1" height="1"/><rect x="88" y="5" width="1" height="1"/><rect x="94" y="5" width="1" height="1"/><rect x="102" y="5" width="1" height="1"/><rect x="105" y="5" width="1" height="1"/><rect x="108" y="5" width="1" height="1"/><rect x="112" y="5" width="1" height="1"/><rect x="115" y="5" width="1" height="1"/><rect x="120" y="5" width="1" height="1"/><rect x="124" y="5" width="1" height="1"/><rect x="0" y="6" width="5" height="1"/><rect x="6" y="6" width="1" height="1"/><rect x="10" y="6" width="1" height="1"/><rect x="12" y="6" width="1" height="1"/><rect x="25" y="6" width="3" height="1"/><rect x="79" y="6" width="3" height="1"/><rect x="85" y="6" width="3" height="1"/><rect x="90" y="6" width="4" height="1"/><rect x="102" y="6" width="1" height="1"/><rect x="106" y="6" width="1" height="1"/><rect x="108" y="6" width="1" height="1"/><rect x="112" y="6" width="1" height="1"/><rect x="114" y="6" width="1" height="1"/><rect x="120" y="6" width="1" height="1"/><rect x="124" y="6" width="1" height="1"/><rect x="52" y="10" width="1" height="1"/><rect x="99" y="13" width="1" height="1"/><rect x="77" y="15" width="1" height="1"/><rect x="17" y="16" width="1" height="1"/><rect x="119" y="19" width="1" height="1"/><rect x="61" y="20" width="1" height="1"/><rect x="1" y="32" width="1" height="1"/><rect x="3" y="32" width="1" height="1"/><rect x="5" y="32" width="1" height="1"/><rect x="7" y="32" width="1" height="1"/><rect x="9" y="32" width="1" height="1"/><rect x="11" y="32" width="1" height="1"/><rect x="13" y="32" width="1" height="1"/><rect x="15" y="32" width="1" height="1"/><rect x="17" y="32" width="1" height="1"/><rect x="19" y="32" width="1" height="1"/><rect x="21" y="32" width="1" height="1"/><rect x="23" y="32" width="1" height="1"/><rect x="25" y="32" width="1" height="1"/><rect x="27" y="32" width="1" height="1"/><rect x="29" y="32" width="1" height="1"/><rect x="31" y="32" width="1" height="1"/><rect x="33" y="32" width="1" height="1"/><rect x="35" y="32" width="1" height="1"/><rect x="37" y="32" width="1" height="1"/><rect x="39" y="32" width="1" height="1"/><rect x="41" y="32" width="1" height="1"/><rect x="43" y="32" width="1" height="1"/><rect x="45" y="32" width="1" height="1"/><rect x="47" y="32" width="1" height="1"/><rect x="49" y="32" width="1" height="1"/><rect x="51" y="32" width="1" height="1"/><rect x="53" y="32" width="1" height="1"/><rect x="55" y="32" width="1" height="1"/><rect x="57" y="32" width="1" height="1"/><rect x="59" y="32" width="1" height="1"/><rect x="61" y="32" width="1" height="1"/><rect x="63" y="32" width="1" height="1"/><rect x="65" y="32" width="1" height="1"/><rect x="67" y="32" width="1" height="1"/><rect x="69" y="32" width="1" height="1"/><rect x="71" y="32" width="1" height="1"/><rect x="73" y="32" width="1" height="1"/><rect x="75" y="32" width="1" height="1"/><rect x="77" y="32" width="1" height="1"/><rect x="79" y="32" width="1" height="1"/><rect x="81" y="32" width="1" height="1"/><rect x="83" y="32" width="1" height="1"/><rect x="85" y="32" width="1" height="1"/><rect x="87" y="32" width="1" height="1"/><rect x="89" y="32" width="1" height="1"/><rect x="91" y="32" width="1" height="1"/><rect x="105" y="32" width="1" height="1"/><rect x="107" y="32" width="1" height="1"/><rect x="109" y="32" width="1" height="1"/><rect x="111" y="32" width="1" height="1"/><rect x="113" y="32" width="1" height="1"/><rect x="115" y="32" width="1" height="1"/><rect x="117" y="32" width="1" height="1"/><rect x="119" y="32" width="1" height="1"/><rect x="121" y="32" width="1" height="1"/><rect x="123" y="32" width="1" height="1"/><rect x="125" y="32" width="1" height="1"/><rect x="127" y="32" width="1" height="1"/><rect x="0" y="33" width="1" height="1"/><rect x="2" y="33" width="1" height="1"/><rect x="4" y="33" width="1" height="1"/><rect x="6" y="33" width="1" height="1"/><rect x="8" y="33" width="1" height="1"/><rect x="10" y="33" width="1" height="1"/><rect x="12" y="33" width="1" height="1"/><rect x="14" y="33" width="1" height="1"/><rect x="16" y="33" width="1" height="1"/><rect x="18" y="33" width="1" height="1"/><rect x="20" y="33" width="1" height="1"/><rect x="22" y="33" width="1" height="1"/><rect x="24" y="33" width="1" height="1"/><rect x="26" y="33" width="1" height="1"/><rect x="28" y="33" width="1" height="1"/><rect x="30" y="33" width="1" height="1"/><rect x="32" y="33" width="1" height="1"/><rect x="34" y="33" width="1" height="1"/><rect x="36" y="33" width="1" height="1"/><rect x="38" y="33" width="1" height="1"/><rect x="40" y="33" width="1" height="1"/><rect x="42" y="33" width="1" height="1"/><rect x="44" y="33" width="1" height="1"/><rect x="46" y="33" width="1" height="1"/><rect x="48" y="33" width="1" height="1"/><rect x="50" y="33" width="1" height="1"/><rect x="52" y="33" width="1" height="1"/><rect x="54" y="33" width="1" height="1"/><rect x="56" y="33" width="1" height="1"/><rect x="58" y="33" width="1" height="1"/><rect x="60" y="33" width="1" height="1"/><rect x="62" y="33" width="1" height="1"/><rect x="64" y="33" width="1" height="1"/><rect x="66" y="33" width="1" height="1"/><rect x="68" y="33" width="1" height="1"/><rect x="70" y="33" width="1" height="1"/><rect x="72" y="33" width="1" height="1"/><rect x="88" y="33" width="1" height="1"/><rect x="90" y="33" width="1" height="1"/><rect x="92" y="33" width="1" height="1"/><rect x="94" y="33" width="1" height="1"/><rect x="96" y="33" width="1" height="1"/><rect x="98" y="33" width="1" height="1"/><rect x="100" y="33" width="1" height="1"/><rect x="102" y="33" width="1" height="1"/><rect x="104" y="33" width="1" height="1"/><rect x="106" y="33" width="1" height="1"/><rect x="108" y="33" width="1" height="1"/><rect x="110" y="33" width="1" height="1"/><rect x="112" y="33" width="1" height="1"/><rect x="114" y="33" width="1" height="1"/><rect x="116" y="33" width="1" height="1"/><rect x="118" y="33" width="1" height="1"/><rect x="120" y="33" width="1" height="1"/><rect x="122" y="33" width="1" height="1"/><rect x="124" y="33" width="1" height="1"/><rect x="126" y="33" width="1" height="1"/><rect x="0" y="34" width="66" height="1"/><rect x="84" y="34" width="44" height="1"/><rect x="0" y="35" width="1" height="1"/><rect x="2" y="35" width="1" height="1"/><rect x="4" y="35" width="1" height="1"/><rect x="6" y="35" width="1" height="1"/><rect x="8" y="35" width="1" height="1"/><rect x="10" y="35" width="1" height="1"/><rect x="12" y="35" width="1" height="1"/><rect x="14" y="35" width="1" height="1"/><rect x="16" y="35" width="1" height="1"/><rect x="18" y="35" width="1" height="1"/><rect x="20" y="35" width="1" height="1"/><rect x="22" y="35" width="1" height="1"/><rect x="24" y="35" width="1" height="1"/><rect x="26" y="35" width="1" height="1"/><rect x="28" y="35" width="1" height="1"/><rect x="30" y="35" width="1" height="1"/><rect x="32" y="35" width="1" height="1"/><rect x="34" y="35" width="1" height="1"/><rect x="36" y="35" width="1" height="1"/><rect x="38" y="35" width="1" height="1"/><rect x="40" y="35" width="1" height="1"/><rect x="42" y="35" width="1" height="1"/><rect x="44" y="35" width="1" height="1"/><rect x="46" y="35" width="1" height="1"/><rect x="48" y="35" width="1" height="1"/><rect x="50" y="35" width="1" height="1"/><rect x="52" y="35" width="1" height="1"/><rect x="54" y="35" width="1" height="1"/><rect x="56" y="35" width="1" height="1"/><rect x="58" y="35" width="1" height="1"/><rect x="60" y="35" width="1" height="1"/><rect x="84" y="35" width="1" height="1"/><rect x="86" y="35" width="1" height="1"/><rect x="88" y="35" width="1" height="1"/><rect x="90" y="35" width="1" height="1"/><rect x="92" y="35" width="1" height="1"/><rect x="94" y="35" width="1" height="1"/><rect x="96" y="35" width="1" height="1"/><rect x="98" y="35" width="1" height="1"/><rect x="100" y="35" width="1" height="1"/><rect x="102" y="35" width="1" height="1"/><rect x="104" y="35" width="1" height="1"/><rect x="106" y="35" width="1" height="1"/><rect x="108" y="35" width="1" height="1"/><rect x="110" y="35" width="1" height="1"/><rect x="112" y="35" width="1" height="1"/><rect x="114" y="35" width="1" height="1"/><rect x="116" y="35" width="1" height="1"/><rect x="118" y="35" width="1" height="1"/><rect x="120" y="35" width="1" height="1"/><rect x="122" y="35" width="1" height="1"/><rect x="124" y="35" width="1" height="1"/><rect x="126" y="35" width="1" height="1"/><rect x="0" y="36" width="58" height="1"/><rect x="82" y="36" width="46" height="1"/><rect x="0" y="37" width="1" height="1"/><rect x="2" y="37" width="1" height="1"/><rect x="4" y="37" width="1" height="1"/><rect x="6" y="37" width="1" height="1"/><rect x="8" y="37" width="1" height="1"/><rect x="10" y="37" width="1" height="1"/><rect x="12" y="37" width="1" height="1"/><rect x="14" y="37" width="1" height="1"/><rect x="16" y="37" width="1" height="1"/><rect x="18" y="37" width="1" height="1"/><rect x="20" y="37" width="1" height="1"/><rect x="22" y="37" width="1" height="1"/><rect x="24" y="37" width="1" height="1"/><rect x="26" y="37" width="1" height="1"/><rect x="28" y="37" width="1" height="1"/><rect x="30" y="37" width="1" height="1"/><rect x="32" y="37" width="1" height="1"/><rect x="34" y="37" width="1" height="1"/><rect x="36" y="37" width="1" height="1"/><rect x="38" y="37" width="1" height="1"/><rect x="40" y="37" width="1" height="1"/><rect x="42" y="37" width="1" height="1"/><rect x="44" y="37" width="1" height="1"/><rect x="46" y="37" width="1" height="1"/><rect x="48" y="37" width="1" height="1"/><rect x="50" y="37" width="1" height="1"/><rect x="52" y="37" width="1" height="1"/><rect x="54" y="37" width="2" height="1"/><rect x="82" y="37" width="1" height="1"/><rect x="84" y="37" width="1" height="1"/><rect x="86" y="37" width="1" height="1"/><rect x="88" y="37" width="1" height="1"/><rect x="90" y="37" width="1" height="1"/><rect x="92" y="37" width="1" height="1"/><rect x="94" y="37" width="1" height="1"/><rect x="96" y="37" width="1" height="1"/><rect x="98" y="37" width="1" height="1"/><rect x="100" y="37" width="1" height="1"/><rect x="102" y="37" width="1" height="1"/><rect x="104" y="37" width="1" height="1"/><rect x="106" y="37" width="1" height="1"/><rect x="108" y="37" width="1" height="1"/><rect x="110" y="37" width="1" height="1"/><rect x="112" y="37" width="1" height="1"/><rect x="114" y="37" width="1" height="1"/><rect x="116" y="37" width="1" height="1"/><rect x="118" y="37" width="1" height="1"/><rect x="120" y="37" width="1" height="1"/><rect x="122" y="37" width="1" height="1"/><rect x="124" y="37" width="1" height="1"/><rect x="126" y="37" width="1" height="1"/><rect x="0" y="38" width="54" height="1"/><rect x="82" y="38" width="46" height="1"/><rect x="0" y="39" width="1" height="1"/><rect x="2" y="39" width="1" height="1"/><rect x="4" y="39" width="1" height="1"/><rect x="6" y="39" width="1" height="1"/><rect x="8" y="39" width="1" height="1"/><rect x="10" y="39" width="1" height="1"/><rect x="12" y="39" width="1" height="1"/><rect x="14" y="39" width="1" height="1"/><rect x="16" y="39" width="1" height="1"/><rect x="18" y="39" width="1" height="1"/><rect x="20" y="39" width="1" height="1"/><rect x="22" y="39" width="1" height="1"/><rect x="24" y="39" width="1" height="1"/><rect x="26" y="39" width="1" height="1"/><rect x="28" y="39" width="1" height="1"/><rect x="30" y="39" width="1" height="1"/><rect x="32" y="39" width="1" height="1"/><rect x="34" y="39" width="1" height="1"/><rect x="36" y="39" width="1" height="1"/><rect x="38" y="39" width="1" height="1"/><rect x="40" y="39" width="1" height="1"/><rect x="42" y="39" width="1" height="1"/><rect x="44" y="39" width="1" height="1"/><rect x="46" y="39" width="1" height="1"/><rect x="48" y="39" width="1" height="1"/><rect x="86" y="39" width="1" height="1"/><rect x="88" y="39" width="1" height="1"/><rect x="90" y="39" width="1" height="1"/><rect x="92" y="39" width="1" height="1"/><rect x="94" y="39" width="1" height="1"/><rect x="96" y="39" width="1" height="1"/><rect x="98" y="39" width="1" height="1"/><rect x="100" y="39" width="1" height="1"/><rect x="102" y="39" width="1" height="1"/><rect x="104" y="39" width="1" height="1"/><rect x="106" y="39" width="1" height="1"/><rect x="108" y="39" width="1" height="1"/><rect x="110" y="39" width="1" height="1"/><rect x="112" y="39" width="1" height="1"/><rect x="114" y="39" width="1" height="1"/><rect x="116" y="39" width="1" height="1"/><rect x="118" y="39" width="1" height="1"/><rect x="120" y="39" width="1" height="1"/><rect x="122" y="39" width="1" height="1"/><rect x="124" y="39" width="1" height="1"/><rect x="126" y="39" width="1" height="1"/><rect x="0" y="40" width="48" height="1"/><rect x="86" y="40" width="42" height="1"/><rect x="0" y="41" width="1" height="1"/><rect x="2" y="41" width="1" height="1"/><rect x="4" y="41" width="1" height="1"/><rect x="6" y="41" width="1" height="1"/><rect x="8" y="41" width="1" height="1"/><rect x="10" y="41" width="1" height="1"/><rect x="12" y="41" width="1" height="1"/><rect x="14" y="41" width="1" height="1"/><rect x="16" y="41" width="1" height="1"/><rect x="18" y="41" width="1" height="1"/><rect x="20" y="41" width="1" height="1"/><rect x="22" y="41" width="1" height="1"/><rect x="24" y="41" width="1" height="1"/><rect x="26" y="41" width="1" height="1"/><rect x="28" y="41" width="1" height="1"/><rect x="30" y="41" width="1" height="1"/><rect x="32" y="41" width="1" height="1"/><rect x="34" y="41" width="1" height="1"/><rect x="36" y="41" width="1" height="1"/><rect x="38" y="41" width="1" height="1"/><rect x="40" y="41" width="1" height="1"/><rect x="42" y="41" width="1" height="1"/><rect x="44" y="41" width="4" height="1"/><rect x="86" y="41" width="3" height="1"/><rect x="90" y="41" width="1" height="1"/><rect x="92" y="41" width="1" height="1"/><rect x="94" y="41" width="1" height="1"/><rect x="96" y="41" width="1" height="1"/><rect x="98" y="41" width="1" height="1"/><rect x="100" y="41" width="1" height="1"/><rect x="102" y="41" width="1" height="1"/><rect x="104" y="41" width="1" height="1"/><rect x="106" y="41" width="1" height="1"/><rect x="108" y="41" width="1" height="1"/><rect x="110" y="41" width="1" height="1"/><rect x="112" y="41" width="1" height="1"/><rect x="114" y="41" width="1" height="1"/><rect x="116" y="41" width="1" height="1"/><rect x="118" y="41" width="1" height="1"/><rect x="120" y="41" width="1" height="1"/><rect x="122" y="41" width="1" height="1"/><rect x="124" y="41" width="1" height="1"/><rect x="126" y="41" width="1" height="1"/><rect x="1" y="42" width="1" height="1"/><rect x="3" y="42" width="1" height="1"/><rect x="5" y="42" width="1" height="1"/><rect x="7" y="42" width="1" height="1"/><rect x="9" y="42" width="1" height="1"/><rect x="11" y="42" width="1" height="1"/><rect x="13" y="42" width="1" height="1"/><rect x="15" y="42" width="1" height="1"/><rect x="17" y="42" width="1" height="1"/><rect x="19" y="42" width="1" height="1"/><rect x="21" y="42" width="1" height="1"/><rect x="23" y="42" width="1" height="1"/><rect x="25" y="42" width="1" height="1"/><rect x="27" y="42" width="1" height="1"/><rect x="29" y="42" width="1" height="1"/><rect x="31" y="42" width="1" height="1"/><rect x="33" y="42" width="1" height="1"/><rect x="35" y="42" width="1" height="1"/><rect x="37" y="42" width="1" height="1"/><rect x="39" y="42" width="1" height="1"/><rect x="41" y="42" width="1" height="1"/><rect x="43" y="42" width="4" height="1"/><rect x="87" y="42" width="3" height="1"/><rect x="91" y="42" width="1" height="1"/><rect x="93" y="42" width="1" height="1"/><rect x="95" y="42" width="1" height="1"/><rect x="97" y="42" width="1" height="1"/><rect x="99" y="42" width="1" height="1"/><rect x="101" y="42" width="1" height="1"/><rect x="103" y="42" width="1" height="1"/><rect x="105" y="42" width="1" height="1"/><rect x="107" y="42" width="1" height="1"/><rect x="109" y="42" width="1" height="1"/><rect x="111" y="42" width="1" height="1"/><rect x="113" y="42" width="1" height="1"/><rect x="115" y="42" width="1" height="1"/><rect x="117" y="42" width="1" height="1"/><rect x="119" y="42" width="1" height="1"/><rect x="121" y="42" width="1" height="1"/><rect x="123" y="42" width="1" height="1"/><rect x="125" y="42" width="1" height="1"/><rect x="127" y="42" width="1" height="1"/><rect x="0" y="43" width="42" height="1"/><rect x="90" y="43" width="38" height="1"/><rect x="1" y="44" width="1" height="1"/><rect x="3" y="44" width="1" height="1"/><rect x="5" y="44" width="1" height="1"/><rect x="7" y="44" width="1" height="1"/><rect x="9" y="44" width="1" height="1"/><rect x="11" y="44" width="1" height="1"/><rect x="13" y="44" width="1" height="1"/><rect x="15" y="44" width="1" height="1"/><rect x="17" y="44" width="1" height="1"/><rect x="19" y="44" width="1" height="1"/><rect x="21" y="44" width="1" height="1"/><rect x="23" y="44" width="1" height="1"/><rect x="25" y="44" width="1" height="1"/><rect x="27" y="44" width="1" height="1"/><rect x="29" y="44" width="1" height="1"/><rect x="31" y="44" width="1" height="1"/><rect x="33" y="44" width="1" height="1"/><rect x="35" y="44" width="1" height="1"/><rect x="37" y="44" width="1" height="1"/><rect x="64" y="44" width="3" height="1"/><rect x="93" y="44" width="1" height="1"/><rect x="95" y="44" width="1" height="1"/><rect x="97" y="44" width="1" height="1"/><rect x="99" y="44" width="1" height="1"/><rect x="101" y="44" width="1" height="1"/><rect x="103" y="44" width="1" height="1"/><rect x="105" y="44" width="1" height="1"/><rect x="107" y="44" width="1" height="1"/><rect x="109" y="44" width="1" height="1"/><rect x="111" y="44" width="1" height="1"/><rect x="113" y="44" width="1" height="1"/><rect x="115" y="44" width="1" height="1"/><rect x="117" y="44" width="1" height="1"/><rect x="119" y="44" width="1" height="1"/><rect x="121" y="44" width="1" height="1"/><rect x="123" y="44" width="1" height="1"/><rect x="125" y="44" width="1" height="1"/><rect x="127" y="44" width="1" height="1"/><rect x="0" y="45" width="1" height="1"/><rect x="2" y="45" width="1" height="1"/><rect x="4" y="45" width="1" height="1"/><rect x="6" y="45" width="1" height="1"/><rect x="8" y="45" width="1" height="1"/><rect x="10" y="45" width="1" height="1"/><rect x="12" y="45" width="1" height="1"/><rect x="14" y="45" width="1" height="1"/><rect x="16" y="45" width="1" height="1"/><rect x="18" y="45" width="1" height="1"/><rect x="20" y="45" width="1" height="1"/><rect x="22" y="45" width="1" height="1"/><rect x="24" y="45" width="1" height="1"/><rect x="26" y="45" width="1" height="1"/><rect x="28" y="45" width="1" height="1"/><rect x="30" y="45" width="1" height="1"/><rect x="32" y="45" width="1" height="1"/><rect x="34" y="45" width="1" height="1"/><rect x="36" y="45" width="1" height="1"/><rect x="62" y="45" width="2" height="1"/><rect x="66" y="45" width="1" height="1"/><rect x="94" y="45" width="1" height="1"/><rect x="96" y="45" width="1" height="1"/><rect x="98" y="45" width="1" height="1"/><rect x="100" y="45" width="1" height="1"/><rect x="102" y="45" width="1" height="1"/><rect x="104" y="45" width="1" height="1"/><rect x="106" y="45" width="1" height="1"/><rect x="108" y="45" width="1" height="1"/><rect x="110" y="45" width="1" height="1"/><rect x="112" y="45" width="1" height="1"/><rect x="114" y="45" width="1" height="1"/><rect x="116" y="45" width="1" height="1"/><rect x="118" y="45" width="1" height="1"/><rect x="120" y="45" width="1" height="1"/><rect x="122" y="45" width="1" height="1"/><rect x="124" y="45" width="1" height="1"/><rect x="126" y="45" width="1" height="1"/><rect x="0" y="46" width="36" height="1"/><rect x="60" y="46" width="7" height="1"/><rect x="96" y="46" width="32" height="1"/><rect x="0" y="47" width="39" height="1"/><rect x="59" y="47" width="2" height="1"/><rect x="62" y="47" width="1" height="1"/><rect x="64" y="47" width="1" height="1"/><rect x="66" y="47" width="2" height="1"/><rect x="93" y="47" width="35" height="1"/><rect x="0" y="48" width="38" height="1"/><rect x="59" y="48" width="1" height="1"/><rect x="61" y="48" width="1" height="1"/><rect x="63" y="48" width="1" height="1"/><rect x="65" y="48" width="1" height="1"/><rect x="67" y="48" width="2" height="1"/><rect x="94" y="48" width="34" height="1"/><rect x="0" y="49" width="1" height="1"/><rect x="2" y="49" width="1" height="1"/><rect x="4" y="49" width="1" height="1"/><rect x="6" y="49" width="1" height="1"/><rect x="8" y="49" width="1" height="1"/><rect x="10" y="49" width="1" height="1"/><rect x="12" y="49" width="1" height="1"/><rect x="14" y="49" width="1" height="1"/><rect x="16" y="49" width="1" height="1"/><rect x="18" y="49" width="1" height="1"/><rect x="20" y="49" width="1" height="1"/><rect x="22" y="49" width="1" height="1"/><rect x="24" y="49" width="1" height="1"/><rect x="26" y="49" width="1" height="1"/><rect x="28" y="49" width="1" height="1"/><rect x="58" y="49" width="7" height="1"/><rect x="66" y="49" width="1" height="1"/><rect x="68" y="49" width="1" height="1"/><rect x="100" y="49" width="1" height="1"/><rect x="102" y="49" width="1" height="1"/><rect x="104" y="49" width="1" height="1"/><rect x="106" y="49" width="1" height="1"/><rect x="108" y="49" width="1" height="1"/><rect x="110" y="49" width="1" height="1"/><rect x="112" y="49" width="1" height="1"/><rect x="114" y="49" width="1" height="1"/><rect x="116" y="49" width="1" height="1"/><rect x="118" y="49" width="1" height="1"/><rect x="120" y="49" width="1" height="1"/><rect x="122" y="49" width="1" height="1"/><rect x="124" y="49" width="1" height="1"/><rect x="126" y="49" width="1" height="1"/><rect x="1" y="50" width="1" height="1"/><rect x="3" y="50" width="1" height="1"/><rect x="5" y="50" width="1" height="1"/><rect x="7" y="50" width="1" height="1"/><rect x="9" y="50" width="1" height="1"/><rect x="11" y="50" width="1" height="1"/><rect x="13" y="50" width="1" height="1"/><rect x="15" y="50" width="1" height="1"/><rect x="17" y="50" width="1" height="1"/><rect x="19" y="50" width="1" height="1"/><rect x="21" y="50" width="1" height="1"/><rect x="23" y="50" width="1" height="1"/><rect x="25" y="50" width="1" height="1"/><rect x="27" y="50" width="1" height="1"/><rect x="29" y="50" width="5" height="1"/><rect x="58" y="50" width="2" height="1"/><rect x="61" y="50" width="1" height="1"/><rect x="63" y="50" width="6" height="1"/><rect x="96" y="50" width="6" height="1"/><rect x="103" y="50" width="1" height="1"/><rect x="105" y="50" width="1" height="1"/><rect x="107" y="50" width="1" height="1"/><rect x="109" y="50" width="1" height="1"/><rect x="111" y="50" width="1" height="1"/><rect x="113" y="50" width="1" height="1"/><rect x="115" y="50" width="1" height="1"/><rect x="117" y="50" width="1" height="1"/><rect x="119" y="50" width="1" height="1"/><rect x="121" y="50" width="1" height="1"/><rect x="123" y="50" width="1" height="1"/><rect x="125" y="50" width="1" height="1"/><rect x="127" y="50" width="1" height="1"/><rect x="0" y="51" width="1" height="1"/><rect x="2" y="51" width="1" height="1"/><rect x="4" y="51" width="1" height="1"/><rect x="6" y="51" width="1" height="1"/><rect x="8" y="51" width="1" height="1"/><rect x="10" y="51" width="1" height="1"/><rect x="12" y="51" width="1" height="1"/><rect x="14" y="51" width="1" height="1"/><rect x="16" y="51" width="1" height="1"/><rect x="18" y="51" width="1" height="1"/><rect x="20" y="51" width="1" height="1"/><rect x="22" y="51" width="1" height="1"/><rect x="24" y="51" width="1" height="1"/><rect x="58" y="51" width="5" height="1"/><rect x="66" y="51" width="3" height="1"/><rect x="104" y="51" width="1" height="1"/><rect x="106" y="51" width="1" height="1"/><rect x="108" y="51" width="1" height="1"/><rect x="110" y="51" width="1" height="1"/><rect x="112" y="51" width="1" height="1"/><rect x="114" y="51" width="1" height="1"/><rect x="116" y="51" width="1" height="1"/><rect x="118" y="51" width="1" height="1"/><rect x="120" y="51" width="1" height="1"/><rect x="122" y="51" width="1" height="1"/><rect x="124" y="51" width="1" height="1"/><rect x="126" y="51" width="1" height="1"/><rect x="1" y="52" width="1" height="1"/><rect x="3" y="52" width="1" height="1"/><rect x="5" y="52" width="1" height="1"/><rect x="7" y="52" width="1" height="1"/><rect x="9" y="52" width="1" height="1"/><rect x="11" y="52" width="1" height="1"/><rect x="13" y="52" width="1" height="1"/><rect x="15" y="52" width="1" height="1"/><rect x="17" y="52" width="1" height="1"/><rect x="19" y="52" width="1" height="1"/><rect x="21" y="52" width="1" height="1"/><rect x="23" y="52" width="1" height="1"/><rect x="25" y="52" width="6" height="1"/><rect x="58" y="52" width="2" height="1"/><rect x="63" y="52" width="6" height="1"/><rect x="99" y="52" width="7" height="1"/><rect x="107" y="52" width="1" height="1"/><rect x="109" y="52" width="1" height="1"/><rect x="111" y="52" width="1" height="1"/><rect x="113" y="52" width="1" height="1"/><rect x="115" y="52" width="1" height="1"/><rect x="117" y="52" width="1" height="1"/><rect x="119" y="52" width="1" height="1"/><rect x="121" y="52" width="1" height="1"/><rect x="123" y="52" width="1" height="1"/><rect x="125" y="52" width="1" height="1"/><rect x="127" y="52" width="1" height="1"/><rect x="0" y="53" width="1" height="1"/><rect x="2" y="53" width="1" height="1"/><rect x="4" y="53" width="1" height="1"/><rect x="6" y="53" width="1" height="1"/><rect x="8" y="53" width="1" height="1"/><rect x="10" y="53" width="1" height="1"/><rect x="12" y="53" width="1" height="1"/><rect x="14" y="53" width="1" height="1"/><rect x="16" y="53" width="1" height="1"/><rect x="18" y="53" width="1" height="1"/><rect x="20" y="53" width="1" height="1"/><rect x="22" y="53" width="1" height="1"/><rect x="24" y="53" width="6" height="1"/><rect x="58" y="53" width="2" height="1"/><rect x="66" y="53" width="2" height="1"/><rect x="100" y="53" width="7" height="1"/><rect x="108" y="53" width="1" height="1"/><rect x="110" y="53" width="1" height="1"/><rect x="112" y="53" width="1" height="1"/><rect x="114" y="53" width="1" height="1"/><rect x="116" y="53" width="1" height="1"/><rect x="118" y="53" width="1" height="1"/><rect x="120" y="53" width="1" height="1"/><rect x="122" y="53" width="1" height="1"/><rect x="124" y="53" width="1" height="1"/><rect x="126" y="53" width="1" height="1"/><rect x="0" y="54" width="21" height="1"/><rect x="58" y="54" width="2" height="1"/><rect x="66" y="54" width="2" height="1"/><rect x="109" y="54" width="19" height="1"/><rect x="0" y="55" width="20" height="1"/><rect x="59" y="55" width="1" height="1"/><rect x="66" y="55" width="2" height="1"/><rect x="110" y="55" width="18" height="1"/><rect x="0" y="56" width="25" height="1"/><rect x="59" y="56" width="1" height="1"/><rect x="66" y="56" width="1" height="1"/><rect x="105" y="56" width="23" height="1"/><rect x="0" y="57" width="24" height="1"/><rect x="59" y="57" width="1" height="1"/><rect x="65" y="57" width="1" height="1"/><rect x="106" y="57" width="22" height="1"/><rect x="0" y="58" width="23" height="1"/><rect x="60" y="58" width="2" height="1"/><rect x="64" y="58" width="1" height="1"/><rect x="107" y="58" width="21" height="1"/><rect x="0" y="59" width="21" height="1"/><rect x="62" y="59" width="2" height="1"/><rect x="109" y="59" width="19" height="1"/><rect x="0" y="60" width="20" height="1"/><rect x="110" y="60" width="18" height="1"/><rect x="0" y="61" width="18" height="1"/><rect x="112" y="61" width="16" height="1"/><rect x="0" y="62" width="17" height="1"/><rect x="113" y="62" width="15" height="1"/><rect x="0" y="63" width="15" height="1"/><rect x="115" y="63" width="13" height="1"/></g>
</svg>
