<svg xmlns="http://www.w3.org/2000/svg" viewBox="0 0 128 64" width="128" height="64" shape-rendering="crispEdges">
  <rect width="128" height="64" fill="#020406"/>
  <g fill="#fff"><rect x="0" y="0" width="8" height="1"/><rect x="24" y="0" width="10" height="1"/><rect x="38" y="0" width="6" height="1"/><rect x="50" y="0" width="8" height="1"/><rect x="60" y="0" width="10" height="1"/><rect x="0" y="1" width="8" height="1"/><rect x="24" y="1" width="10" height="1"/><rect x="38" y="1" width="6" height="1"/><rect x="50" y="1" width="8" height="1"/><rect x="60" y="1" width="10" height="1"/><rect x="8" y="2" width="2" height="1"/><rect x="24" y="2" width="2" height="1"/><rect x="36" y="2" width="2" height="1"/><rect x="44" y="2" width="2" height="1"/><rect x="48" y="2" width="2" height="1"/><rect x="64" y="2" width="2" height="1"/><rect x="8" y="3" width="2" height="1"/><rect x="24" y="3" width="2" height="1"/><rect x="36" y="3" width="2" height="1"/><rect x="44" y="3" width="2" height="1"/><rect x="48" y="3" width="2" height="1"/><rect x="64" y="3" width="2" height="1"/><rect x="8" y="4" width="2" height="1"/><rect x="24" y="4" width="2" height="1"/><rect x="36" y="4" width="2" height="1"/><rect x="44" y="4" width="2" height="1"/><rect x="48" y="4" width="2" height="1"/><rect x="64" y="4" width="2" height="1"/><rect x="8" y="5" width="2" height="1"/><rect x="24" y="5" width="2" height="1"/><rect x="36" y="5" width="2" height="1"/><rect x="44" y="5" width="2" height="1"/><rect x="48" y="5" width="2" height="1"/><rect x="64" y="5" width="2" height="1"/><rect x="2" y="6" width="6" height="1"/><rect x="24" y="6" width="8" height="1"/><rect x="36" y="6" width="10" height="1"/><rect x="50" y="6" width="6" height="1"/><rect x="64" y="6" width="2" height="1"/><rect x="2" y="7" width="6" height="1"/><rect x="24" y="7" width="8" height="1"/><rect x="36" y="7" width="10" height="1"/><rect x="50" y="7" width="6" height="1"/><rect x="64" y="7" width="2" height="1"/><rect x="8" y="8" width="2" height="1"/><rect x="24" y="8" width="2" height="1"/><rect x="36" y="8" width="2" height="1"/><rect x="44" y="8" width="2" height="1"/><rect x="56" y="8" width="2" height="1"/><rect x="64" y="8" width="2" height="1"/><rect x="8" y="9" width="2" height="1"/><rect x="24" y="9" width="2" height="1"/><rect x="36" y="9" width="2" height="1"/><rect x="44" y="9" width="2" height="1"/><rect x="56" y="9" width="2" height="1"/><rect x="64" y="9" width="2" height="1"/><rect x="8" y="10" width="2" height="1"/><rect x="24" y="10" width="2" height="1"/><rect x="36" y="10" width="2" height="1"/><rect x="44" y="10" width="2" height="1"/><rect x="56" y="10" width="2" height="1"/><rect x="64" y="10" width="2" height="1"/><rect x="8" y="11" width="2" height="1"/><rect x="24" y="11" width="2" height="1"/><rect x="36" y="11" width="2" height="1"/><rect x="44" y="11" width="2" height="1"/><rect x="56" y="11" width="2" height="1"/><rect x="64" y="11" width="2" height="1"/><rect x="0" y="12" width="8" height="1"/><rect x="24" y="12" width="2" height="1"/><rect x="36" y="12" width="2" height="1"/><rect x="44" y="12" width="2" height="1"/><rect x="48" y="12" width="8" height="1"/><rect x="64" y="12" width="2" height="1"/><rect x="0" y="13" width="8" height="1"/><rect x="24" y="13" width="2" height="1"/><rect x="36" y="13" width="2" height="1"/><rect x="44" y="13" width="2" height="1"/><rect x="48" y="13" width="8" height="1"/><rect x="64" y="13" width="2" height="1"/><rect x="0" y="18" width="2" height="1"/><rect x="14" y="18" width="6" height="1"/><rect x="24" y="18" width="8" height="1"/><rect x="38" y="18" width="8" height="1"/><rect x="0" y="19" width="2" height="1"/><rect x="14" y="19" width="6" height="1"/><rect x="24" y="19" width="8" height="1"/><rect x="38" y="19" width="8" height="1"/><rect x="0" y="20" width="2" height="1"/><rect x="12" y="20" width="2" height="1"/><rect x="20" y="20" width="2" height="1"/><rect x="24" y="20" width="2" height="1"/><rect x="32" y="20" width="2" height="1"/><rect x="36" y="20" width="2" height="1"/><rect x="0" y="21" width="2" height="1"/><rect x="12" y="21" width="2" height="1"/><rect x="20" y="21" width="2" height="1"/><rect x="24" y="21" width="2" height="1"/><rect x="32" y="21" width="2" height="1"/><rect x="36" y="21" width="2" height="1"/><rect x="0" y="22" width="2" height="1"/><rect x="12" y="22" width="2" height="1"/><rect x="20" y="22" width="2" height="1"/><rect x="24" y="22" width="2" height="1"/><rect x="32" y="22" width="2" height="1"/><rect x="36" y="22" width="2" height="1"/><rect x="0" y="23" width="2" height="1"/><rect x="12" y="23" width="2" height="1"/><rect x="20" y="23" width="2" height="1"/><rect x="24" y="23" width="2" height="1"/><rect x="32" y="23" width="2" height="1"/><rect x="36" y="23" width="2" height="1"/><rect x="0" y="24" width="2" height="1"/><rect x="12" y="24" width="10" height="1"/><rect x="24" y="24" width="8" height="1"/><rect x="38" y="24" width="6" height="1"/><rect x="0" y="25" width="2" height="1"/><rect x="12" y="25" width="10" height="1"/><rect x="24" y="25" width="8" height="1"/><rect x="38" y="25" width="6" height="1"/><rect x="0" y="26" width="2" height="1"/><rect x="12" y="26" width="2" height="1"/><rect x="20" y="26" width="2" height="1"/><rect x="24" y="26" width="2" height="1"/><rect x="44" y="26" width="2" height="1"/><rect x="0" y="27" width="2" height="1"/><rect x="12" y="27" width="2" height="1"/><rect x="20" y="27" width="2" height="1"/><rect x="24" y="27" width="2" height="1"/><rect x="44" y="27" width="2" height="1"/><rect x="0" y="28" width="2" height="1"/><rect x="12" y="28" width="2" height="1"/><rect x="20" y="28" width="2" height="1"/><rect x="24" y="28" width="2" height="1"/><rect x="44" y="28" width="2" height="1"/><rect x="50" y="28" width="4" height="1"/><rect x="62" y="28" width="4" height="1"/><rect x="74" y="28" width="4" height="1"/><rect x="0" y="29" width="2" height="1"/><rect x="12" y="29" width="2" height="1"/><rect x="20" y="29" width="2" height="1"/><rect x="24" y="29" width="2" height="1"/><rect x="44" y="29" width="2" height="1"/><rect x="50" y="29" width="4" height="1"/><rect x="62" y="29" width="4" height="1"/><rect x="74" y="29" width="4" height="1"/><rect x="0" y="30" width="10" height="1"/><rect x="12" y="30" width="2" height="1"/><rect x="20" y="30" width="2" height="1"/><rect x="24" y="30" width="2" height="1"/><rect x="36" y="30" width="8" height="1"/><rect x="50" y="30" width="4" height="1"/><rect x="62" y="30" width="4" height="1"/><rect x="74" y="30" width="4" height="1"/><rect x="0" y="31" width="10" height="1"/><rect x="12" y="31" width="2" height="1"/><rect x="20" y="31" width="2" height="1"/><rect x="24" y="31" width="2" height="1"/><rect x="36" y="31" width="8" height="1"/><rect x="50" y="31" width="4" height="1"/><rect x="62" y="31" width="4" height="1"/><rect x="74" y="31" width="4" height="1"/></g>
</svg>
