<svg xmlns="http://www.w3.org/2000/svg" viewBox="0 0 128 64" width="128" height="64" shape-rendering="crispEdges">
  <rect width="128" height="64" fill="#020406"/>
  <g fill="#fff"><rect x="50" y="20" width="10" height="1"/><rect x="62" y="20" width="10" height="1"/><rect x="74" y="20" width="2" height="1"/><rect x="82" y="20" width="2" height="1"/><rect x="50" y="21" width="10" height="1"/><rect x="62" y="21" width="10" height="1"/><rect x="74" y="21" width="2" height="1"/><rect x="82" y="21" width="2" height="1"/><rect x="50" y="22" width="2" height="1"/><rect x="66" y="22" width="2" height="1"/><rect x="74" y="22" width="4" height="1"/><rect x="82" y="22" width="2" height="1"/><rect x="50" y="23" width="2" height="1"/><rect x="66" y="23" width="2" height="1"/><rect x="74" y="23" width="4" height="1"/><rect x="82" y="23" width="2" height="1"/><rect x="50" y="24" width="2" height="1"/><rect x="66" y="24" width="2" height="1"/><rect x="74" y="24" width="2" height="1"/><rect x="78" y="24" width="2" height="1"/><rect x="82" y="24" width="2" height="1"/><rect x="50" y="25" width="2" height="1"/><rect x="66" y="25" width="2" height="1"/><rect x="74" y="25" width="2" height="1"/><rect x="78" y="25" width="2" height="1"/><rect x="82" y="25" width="2" height="1"/><rect x="50" y="26" width="8" height="1"/><rect x="66" y="26" width="2" height="1"/><rect x="74" y="26" width="2" height="1"/><rect x="80" y="26" width="4" height="1"/><rect x="50" y="27" width="8" height="1"/><rect x="66" y="27" width="2" height="1"/><rect x="74" y="27" width="2" height="1"/><rect x="80" y="27" width="4" height="1"/><rect x="50" y="28" width="2" height="1"/><rect x="66" y="28" width="2" height="1"/><rect x="74" y="28" width="2" height="1"/><rect x="82" y="28" width="2" height="1"/><rect x="50" y="29" width="2" height="1"/><rect x="66" y="29" width="2" height="1"/><rect x="74" y="29" width="2" height="1"/><rect x="82" y="29" width="2" height="1"/><rect x="50" y="30" width="2" height="1"/><rect x="66" y="30" width="2" height="1"/><rect x="74" y="30" width="2" height="1"/><rect x="82" y="30" width="2" height="1"/><rect x="50" y="31" width="2" height="1"/><rect x="66" y="31" width="2" height="1"/><rect x="74" y="31" width="2" height="1"/><rect x="82" y="31" width="2" height="1"/><rect x="50" y="32" width="2" height="1"/><rect x="62" y="32" width="10" height="1"/><rect x="74" y="32" width="2" height="1"/><rect x="82" y="32" width="2" height="1"/><rect x="50" y="33" width="2" height="1"/><rect x="62" y="33" width="10" height="1"/><rect x="74" y="33" width="2" height="1"/><rect x="82" y="33" width="2" height="1"/><rect x="0" y="56" width="5" height="1"/><rect x="6" y="56" width="1" height="1"/><rect x="10" y="56" width="1" height="1"/><rect x="21" y="56" width="1" height="1"/><rect x="25" y="56" width="3" height="1"/><rect x="37" y="56" width="4" height="1"/><rect x="42" y="56" width="5" height="1"/><rect x="49" y="56" width="3" height="1"/><rect x="55" y="56" width="3" height="1"/><rect x="60" y="56" width="1" height="1"/><rect x="64" y="56" width="1" height="1"/><rect x="66" y="56" width="4" height="1"/><rect x="73" y="56" width="4" height="1"/><rect x="2" y="57" width="1" height="1"/><rect x="6" y="57" width="2" height="1"/><rect x="10" y="57" width="1" height="1"/><rect x="20" y="57" width="2" height="1"/><rect x="24" y="57" width="1" height="1"/><rect x="28" y="57" width="1" height="1"/><rect x="36" y="57" width="1" height="1"/><rect x="42" y="57" width="1" height="1"/><rect x="48" y="57" width="1" height="1"/><rect x="52" y="57" width="1" height="1"/><rect x="54" y="57" width="1" height="1"/><rect x="58" y="57" width="1" height="1"/><rect x="60" y="57" width="2" height="1"/><rect x="64" y="57" width="1" height="1"/><rect x="66" y="57" width="1" height="1"/><rect x="70" y="57" width="1" height="1"/><rect x="72" y="57" width="1" height="1"/><rect x="2" y="58" width="1" height="1"/><rect x="6" y="58" width="1" height="1"/><rect x="8" y="58" width="1" height="1"/><rect x="10" y="58" width="1" height="1"/><rect x="19" y="58" width="1" height="1"/><rect x="21" y="58" width="1" height="1"/><rect x="28" y="58" width="1" height="1"/><rect x="36" y="58" width="1" height="1"/><rect x="42" y="58" width="1" height="1"/><rect x="48" y="58" width="1" height="1"/><rect x="54" y="58" width="1" height="1"/><rect x="58" y="58" width="1" height="1"/><rect x="60" y="58" width="1" height="1"/><rect x="62" y="58" width="1" height="1"/><rect x="64" y="58" width="1" height="1"/><rect x="66" y="58" width="1" height="1"/><rect x="70" y="58" width="1" height="1"/><rect x="72" y="58" width="1" height="1"/><rect x="2" y="59" width="1" height="1"/><rect x="6" y="59" width="1" height="1"/><rect x="9" y="59" width="2" height="1"/><rect x="18" y="59" width="1" height="1"/><rect x="21" y="59" width="1" height="1"/><rect x="27" y="59" width="1" height="1"/><rect x="37" y="59" width="3" height="1"/><rect x="42" y="59" width="4" height="1"/><rect x="48" y="59" width="1" height="1"/><rect x="54" y="59" width="1" height="1"/><rect x="58" y="59" width="1" height="1"/><rect x="60" y="59" width="1" height="1"/><rect x="63" y="59" width="2" height="1"/><rect x="66" y="59" width="1" height="1"/><rect x="70" y="59" width="1" height="1"/><rect x="73" y="59" width="3" height="1"/><rect x="2" y="60" width="1" height="1"/><rect x="6" y="60" width="1" height="1"/><rect x="10" y="60" width="1" height="1"/><rect x="18" y="60" width="5" height="1"/><rect x="26" y="60" width="1" height="1"/><rect x="40" y="60" width="1" height="1"/><rect x="42" y="60" width="1" height="1"/><rect x="48" y="60" width="1" height="1"/><rect x="54" y="60" width="1" height="1"/><rect x="58" y="60" width="1" height="1"/><rect x="60" y="60" width="1" height="1"/><rect x="64" y="60" width="1" height="1"/><rect x="66" y="60" width="1" height="1"/><rect x="70" y="60" width="1" height="1"/><rect x="76" y="60" width="1" height="1"/><rect x="2" y="61" width="1" height="1"/><rect x="6" y="61" width="1" height="1"/><rect x="10" y="61" width="1" height="1"/><rect x="21" y="61" width="1" height="1"/><rect x="25" y="61" width="1" height="1"/><rect x="40" y="61" width="1" height="1"/><rect x="42" y="61" width="1" height="1"/><rect x="48" y="61" width="1" height="1"/><rect x="52" y="61" width="1" height="1"/><rect x="54" y="61" width="1" height="1"/><rect x="58" y="61" width="1" height="1"/><rect x="60" y="61" width="1" height="1"/><rect x="64" y="61" width="1" height="1"/><rect x="66" y="61" width="1" height="1"/><rect x="70" y="61" width="1" height="1"/><rect x="76" y="61" width="1" height="1"/><rect x="0" y="62" width="5" height="1"/><rect x="6" y="62" width="1" height="1"/><rect x="10" y="62" width="1" height="1"/><rect x="21" y="62" width="1" height="1"/><rect x="24" y="62" width="5" height="1"/><rect x="36" y="62" width="4" height="1"/><rect x="42" y="62" width="5" height="1"/><rect x="49" y="62" width="3" height="1"/><rect x="55" y="62" width="3" height="1"/><rect x="60" y="62" width="1" height="1"/><rect x="64" y="62" width="1" height="1"/><rect x="66" y="62" width="4" height="1"/><rect x="72" y="62" width="4" height="1"/></g>
</svg>
