<svg xmlns="http://www.w3.org/2000/svg" viewBox="0 0 64 128" width="64" height="128" shape-rendering="crispEdges">
  <rect width="64" height="128" fill="#020406"/>
  <g fill="#fff"><rect x="5" y="8" width="3" height="1"/><rect x="12" y="8" width="3" height="1"/><rect x="17" y="8" width="2" height="1"/><rect x="30" y="8" width="2" height="1"/><rect x="43" y="8" width="6" height="1"/><rect x="53" y="8" width="5" height="1"/><rect x="5" y="9" width="3" height="1"/><rect x="12" y="9" width="3" height="1"/><rect x="17" y="9" width="2" height="1"/><rect x="30" y="9" width="2" height="1"/><rect x="43" y="9" width="7" height="1"/><rect x="52" y="9" width="7" height="1"/><rect x="5" y="10" width="3" height="1"/><rect x="12" y="10" width="3" height="1"/><rect x="43" y="10" width="3" height="1"/><rect x="47" y="10" width="3" height="1"/><rect x="52" y="10" width="7" height="1"/><rect x="5" y="11" width="4" height="1"/><rect x="11" y="11" width="4" height="1"/><rect x="43" y="11" width="2" height="1"/><rect x="48" y="11" width="2" height="1"/><rect x="52" y="11" width="2" height="1"/><rect x="56" y="11" width="3" height="1"/><rect x="5" y="12" width="4" height="1"/><rect x="11" y="12" width="4" height="1"/><rect x="17" y="12" width="2" height="1"/><rect x="21" y="12" width="3" height="1"/><rect x="25" y="12" width="2" height="1"/><rect x="30" y="12" width="2" height="1"/><rect x="43" y="12" width="2" height="1"/><rect x="48" y="12" width="2" height="1"/><rect x="52" y="12" width="2" height="1"/><rect x="56" y="12" width="3" height="1"/><rect x="5" y="13" width="4" height="1"/><rect x="11" y="13" width="4" height="1"/><rect x="17" y="13" width="2" height="1"/><rect x="21" y="13" width="7" height="1"/><rect x="30" y="13" width="2" height="1"/><rect x="43" y="13" width="2" height="1"/><rect x="48" y="13" width="2" height="1"/><rect x="52" y="13" width="2" height="1"/><rect x="5" y="14" width="10" height="1"/><rect x="17" y="14" width="2" height="1"/><rect x="21" y="14" width="7" height="1"/><rect x="30" y="14" width="2" height="1"/><rect x="43" y="14" width="7" height="1"/><rect x="52" y="14" width="2" height="1"/><rect x="5" y="15" width="10" height="1"/><rect x="17" y="15" width="2" height="1"/><rect x="21" y="15" width="3" height="1"/><rect x="25" y="15" width="3" height="1"/><rect x="30" y="15" width="2" height="1"/><rect x="43" y="15" width="7" height="1"/><rect x="52" y="15" width="2" height="1"/><rect x="5" y="16" width="2" height="1"/><rect x="8" y="16" width="7" height="1"/><rect x="17" y="16" width="2" height="1"/><rect x="21" y="16" width="3" height="1"/><rect x="25" y="16" width="3" height="1"/><rect x="30" y="16" width="2" height="1"/><rect x="43" y="16" width="6" height="1"/><rect x="52" y="16" width="2" height="1"/><rect x="5" y="17" width="2" height="1"/><rect x="8" y="17" width="3" height="1"/><rect x="12" y="17" width="3" height="1"/><rect x="17" y="17" width="2" height="1"/><rect x="21" y="17" width="3" height="1"/><rect x="25" y="17" width="3" height="1"/><rect x="30" y="17" width="2" height="1"/><rect x="43" y="17" width="2" height="1"/><rect x="52" y="17" width="2" height="1"/><rect x="5" y="18" width="2" height="1"/><rect x="9" y="18" width="2" height="1"/><rect x="12" y="18" width="3" height="1"/><rect x="17" y="18" width="2" height="1"/><rect x="21" y="18" width="3" height="1"/><rect x="25" y="18" width="3" height="1"/><rect x="30" y="18" width="2" height="1"/><rect x="43" y="18" width="2" height="1"/><rect x="52" y="18" width="2" height="1"/><rect x="56" y="18" width="3" height="1"/><rect x="5" y="19" width="2" height="1"/><rect x="9" y="19" width="2" height="1"/><rect x="12" y="19" width="3" height="1"/><rect x="17" y="19" width="2" height="1"/><rect x="21" y="19" width="3" height="1"/><rect x="25" y="19" width="3" height="1"/><rect x="30" y="19" width="2" height="1"/><rect x="43" y="19" width="2" height="1"/><rect x="52" y="19" width="2" height="1"/><rect x="56" y="19" width="3" height="1"/><rect x="5" y="20" width="2" height="1"/><rect x="12" y="20" width="3" height="1"/><rect x="17" y="20" width="2" height="1"/><rect x="21" y="20" width="3" height="1"/><rect x="25" y="20" width="3" height="1"/><rect x="30" y="20" width="2" height="1"/><rect x="43" y="20" width="2" height="1"/><rect x="52" y="20" width="7" height="1"/><rect x="5" y="21" width="2" height="1"/><rect x="12" y="21" width="3" height="1"/><rect x="17" y="21" width="2" height="1"/><rect x="21" y="21" width="3" height="1"/><rect x="25" y="21" width="3" height="1"/><rect x="30" y="21" width="2" height="1"/><rect x="43" y="21" width="2" height="1"/><rect x="52" y="21" width="7" height="1"/><rect x="5" y="22" width="2" height="1"/><rect x="13" y="22" width="2" height="1"/><rect x="17" y="22" width="2" height="1"/><rect x="21" y="22" width="3" height="1"/><rect x="25" y="22" width="3" height="1"/><rect x="30" y="22" width="2" height="1"/><rect x="43" y="22" width="2" height="1"/><rect x="53" y="22" width="5" height="1"/><rect x="3" y="32" width="26" height="1"/><rect x="2" y="33" width="1" height="1"/><rect x="29" y="33" width="1" height="1"/><rect x="2" y="34" width="1" height="1"/><rect x="9" y="34" width="14" height="1"/><rect x="29" y="34" width="1" height="1"/><rect x="40" y="34" width="8" height="1"/><rect x="2" y="35" width="1" height="1"/><rect x="8" y="35" width="1" height="1"/><rect x="23" y="35" width="1" height="1"/><rect x="29" y="35" width="1" height="1"/><rect x="40" y="35" width="8" height="1"/><rect x="2" y="36" width="1" height="1"/><rect x="7" y="36" width="1" height="1"/><rect x="24" y="36" width="1" height="1"/><rect x="29" y="36" width="1" height="1"/><rect x="40" y="36" width="8" height="1"/><rect x="2" y="37" width="1" height="1"/><rect x="7" y="37" width="1" height="1"/><rect x="11" y="37" width="10" height="1"/><rect x="24" y="37" width="1" height="1"/><rect x="29" y="37" width="1" height="1"/><rect x="41" y="37" width="6" height="1"/><rect x="2" y="38" width="1" height="1"/><rect x="7" y="38" width="1" height="1"/><rect x="10" y="38" width="1" height="1"/><rect x="21" y="38" width="1" height="1"/><rect x="24" y="38" width="1" height="1"/><rect x="29" y="38" width="1" height="1"/><rect x="43" y="38" width="2" height="1"/><rect x="2" y="39" width="1" height="1"/><rect x="7" y="39" width="1" height="1"/><rect x="9" y="39" width="1" height="1"/><rect x="22" y="39" width="1" height="1"/><rect x="24" y="39" width="1" height="1"/><rect x="29" y="39" width="1" height="1"/><rect x="50" y="39" width="2" height="1"/><rect x="2" y="40" width="1" height="1"/><rect x="7" y="40" width="1" height="1"/><rect x="9" y="40" width="1" height="1"/><rect x="22" y="40" width="1" height="1"/><rect x="24" y="40" width="1" height="1"/><rect x="29" y="40" width="1" height="1"/><rect x="40" y="40" width="8" height="1"/><rect x="50" y="40" width="3" height="1"/><rect x="2" y="41" width="1" height="1"/><rect x="7" y="41" width="1" height="1"/><rect x="9" y="41" width="1" height="1"/><rect x="22" y="41" width="1" height="1"/><rect x="24" y="41" width="1" height="1"/><rect x="29" y="41" width="1" height="1"/><rect x="39" y="41" width="10" height="1"/><rect x="51" y="41" width="2" height="1"/><rect x="2" y="42" width="1" height="1"/><rect x="7" y="42" width="1" height="1"/><rect x="9" y="42" width="1" height="1"/><rect x="22" y="42" width="1" height="1"/><rect x="24" y="42" width="1" height="1"/><rect x="29" y="42" width="1" height="1"/><rect x="37" y="42" width="4" height="1"/><rect x="47" y="42" width="4" height="1"/><rect x="2" y="43" width="1" height="1"/><rect x="7" y="43" width="1" height="1"/><rect x="9" y="43" width="1" height="1"/><rect x="22" y="43" width="1" height="1"/><rect x="24" y="43" width="1" height="1"/><rect x="29" y="43" width="1" height="1"/><rect x="37" y="43" width="3" height="1"/><rect x="43" y="43" width="2" height="1"/><rect x="48" y="43" width="3" height="1"/><rect x="2" y="44" width="1" height="1"/><rect x="7" y="44" width="1" height="1"/><rect x="10" y="44" width="1" height="1"/><rect x="21" y="44" width="1" height="1"/><rect x="24" y="44" width="1" height="1"/><rect x="29" y="44" width="1" height="1"/><rect x="36" y="44" width="3" height="1"/><rect x="43" y="44" width="2" height="1"/><rect x="49" y="44" width="3" height="1"/><rect x="2" y="45" width="1" height="1"/><rect x="7" y="45" width="1" height="1"/><rect x="11" y="45" width="10" height="1"/><rect x="24" y="45" width="1" height="1"/><rect x="29" y="45" width="1" height="1"/><rect x="36" y="45" width="2" height="1"/><rect x="43" y="45" width="2" height="1"/><rect x="50" y="45" width="2" height="1"/><rect x="2" y="46" width="1" height="1"/><rect x="7" y="46" width="1" height="1"/><rect x="24" y="46" width="1" height="1"/><rect x="29" y="46" width="1" height="1"/><rect x="35" y="46" width="3" height="1"/><rect x="43" y="46" width="2" height="1"/><rect x="50" y="46" width="3" height="1"/><rect x="2" y="47" width="1" height="1"/><rect x="7" y="47" width="1" height="1"/><rect x="24" y="47" width="1" height="1"/><rect x="29" y="47" width="1" height="1"/><rect x="35" y="47" width="2" height="1"/><rect x="43" y="47" width="2" height="1"/><rect x="51" y="47" width="2" height="1"/><rect x="2" y="48" width="1" height="1"/><rect x="7" y="48" width="1" height="1"/><rect x="11" y="48" width="1" height="1"/><rect x="24" y="48" width="1" height="1"/><rect x="29" y="48" width="1" height="1"/><rect x="35" y="48" width="2" height="1"/><rect x="42" y="48" width="4" height="1"/><rect x="51" y="48" width="2" height="1"/><rect x="2" y="49" width="1" height="1"/><rect x="7" y="49" width="1" height="1"/><rect x="10" y="49" width="3" height="1"/><rect x="19" y="49" width="3" height="1"/><rect x="24" y="49" width="1" height="1"/><rect x="29" y="49" width="1" height="1"/><rect x="35" y="49" width="2" height="1"/><rect x="43" y="49" width="2" height="1"/><rect x="51" y="49" width="2" height="1"/><rect x="2" y="50" width="1" height="1"/><rect x="7" y="50" width="1" height="1"/><rect x="11" y="50" width="1" height="1"/><rect x="24" y="50" width="1" height="1"/><rect x="29" y="50" width="1" height="1"/><rect x="35" y="50" width="2" height="1"/><rect x="51" y="50" width="2" height="1"/><rect x="2" y="51" width="1" height="1"/><rect x="7" y="51" width="1" height="1"/><rect x="24" y="51" width="1" height="1"/><rect x="29" y="51" width="1" height="1"/><rect x="35" y="51" width="3" height="1"/><rect x="50" y="51" width="3" height="1"/><rect x="2" y="52" width="1" height="1"/><rect x="7" y="52" width="1" height="1"/><rect x="10" y="52" width="3" height="1"/><rect x="21" y="52" width="1" height="1"/><rect x="24" y="52" width="1" height="1"/><rect x="29" y="52" width="1" height="1"/><rect x="36" y="52" width="2" height="1"/><rect x="50" y="52" width="2" height="1"/><rect x="2" y="53" width="1" height="1"/><rect x="7" y="53" width="1" height="1"/><rect x="11" y="53" width="1" height="1"/><rect x="20" y="53" width="1" height="1"/><rect x="24" y="53" width="1" height="1"/><rect x="29" y="53" width="1" height="1"/><rect x="36" y="53" width="3" height="1"/><rect x="49" y="53" width="3" height="1"/><rect x="2" y="54" width="1" height="1"/><rect x="7" y="54" width="1" height="1"/><rect x="10" y="54" width="3" height="1"/><rect x="19" y="54" width="1" height="1"/><rect x="24" y="54" width="1" height="1"/><rect x="29" y="54" width="1" height="1"/><rect x="37" y="54" width="3" height="1"/><rect x="48" y="54" width="3" height="1"/><rect x="2" y="55" width="1" height="1"/><rect x="7" y="55" width="1" height="1"/><rect x="24" y="55" width="1" height="1"/><rect x="29" y="55" width="1" height="1"/><rect x="38" y="55" width="5" height="1"/><rect x="45" y="55" width="5" height="1"/><rect x="2" y="56" width="1" height="1"/><rect x="8" y="56" width="1" height="1"/><rect x="23" y="56" width="1" height="1"/><rect x="29" y="56" width="1" height="1"/><rect x="39" y="56" width="10" height="1"/><rect x="2" y="57" width="1" height="1"/><rect x="9" y="57" width="14" height="1"/><rect x="29" y="57" width="1" height="1"/><rect x="42" y="57" width="4" height="1"/><rect x="2" y="58" width="1" height="1"/><rect x="29" y="58" width="1" height="1"/><rect x="3" y="59" width="26" height="1"/><rect x="39" y="64" width="1" height="1"/><rect x="44" y="64" width="2" height="1"/><rect x="50" y="64" width="1" height="1"/><rect x="10" y="65" width="1" height="1"/><rect x="37" y="65" width="14" height="1"/><rect x="8" y="66" width="6" height="1"/><rect x="19" y="66" width="5" height="1"/><rect x="36" y="66" width="1" height="1"/><rect x="38" y="66" width="1" height="1"/><rect x="43" y="66" width="2" height="1"/><rect x="48" y="66" width="2" height="1"/><rect x="51" y="66" width="1" height="1"/><rect x="7" y="67" width="18" height="1"/><rect x="35" y="67" width="1" height="1"/><rect x="38" y="67" width="1" height="1"/><rect x="43" y="67" width="1" height="1"/><rect x="48" y="67" width="1" height="1"/><rect x="52" y="67" width="1" height="1"/><rect x="7" y="68" width="19" height="1"/><rect x="35" y="68" width="1" height="1"/><rect x="52" y="68" width="1" height="1"/><rect x="6" y="69" width="4" height="1"/><rect x="12" y="69" width="9" height="1"/><rect x="23" y="69" width="3" height="1"/><rect x="35" y="69" width="1" height="1"/><rect x="38" y="69" width="3" height="1"/><rect x="43" y="69" width="2" height="1"/><rect x="47" y="69" width="3" height="1"/><rect x="52" y="69" width="1" height="1"/><rect x="6" y="70" width="4" height="1"/><rect x="12" y="70" width="9" height="1"/><rect x="23" y="70" width="3" height="1"/><rect x="35" y="70" width="1" height="1"/><rect x="38" y="70" width="1" height="1"/><rect x="40" y="70" width="1" height="1"/><rect x="42" y="70" width="1" height="1"/><rect x="45" y="70" width="1" height="1"/><rect x="47" y="70" width="1" height="1"/><rect x="49" y="70" width="1" height="1"/><rect x="52" y="70" width="1" height="1"/><rect x="6" y="71" width="2" height="1"/><rect x="14" y="71" width="7" height="1"/><rect x="23" y="71" width="4" height="1"/><rect x="35" y="71" width="1" height="1"/><rect x="38" y="71" width="1" height="1"/><rect x="40" y="71" width="1" height="1"/><rect x="42" y="71" width="4" height="1"/><rect x="47" y="71" width="1" height="1"/><rect x="49" y="71" width="1" height="1"/><rect x="52" y="71" width="1" height="1"/><rect x="5" y="72" width="3" height="1"/><rect x="15" y="72" width="4" height="1"/><rect x="20" y="72" width="7" height="1"/><rect x="35" y="72" width="1" height="1"/><rect x="39" y="72" width="1" height="1"/><rect x="43" y="72" width="2" height="1"/><rect x="48" y="72" width="1" height="1"/><rect x="52" y="72" width="1" height="1"/><rect x="5" y="73" width="5" height="1"/><rect x="12" y="73" width="6" height="1"/><rect x="21" y="73" width="6" height="1"/><rect x="35" y="73" width="1" height="1"/><rect x="52" y="73" width="1" height="1"/><rect x="5" y="74" width="5" height="1"/><rect x="12" y="74" width="7" height="1"/><rect x="20" y="74" width="7" height="1"/><rect x="35" y="74" width="1" height="1"/><rect x="38" y="74" width="1" height="1"/><rect x="40" y="74" width="1" height="1"/><rect x="42" y="74" width="4" height="1"/><rect x="47" y="74" width="1" height="1"/><rect x="49" y="74" width="1" height="1"/><rect x="52" y="74" width="1" height="1"/><rect x="5" y="75" width="6" height="1"/><rect x="12" y="75" width="15" height="1"/><rect x="35" y="75" width="1" height="1"/><rect x="38" y="75" width="1" height="1"/><rect x="40" y="75" width="1" height="1"/><rect x="42" y="75" width="1" height="1"/><rect x="45" y="75" width="1" height="1"/><rect x="47" y="75" width="1" height="1"/><rect x="49" y="75" width="1" height="1"/><rect x="52" y="75" width="1" height="1"/><rect x="5" y="76" width="22" height="1"/><rect x="35" y="76" width="1" height="1"/><rect x="38" y="76" width="3" height="1"/><rect x="43" y="76" width="2" height="1"/><rect x="47" y="76" width="3" height="1"/><rect x="52" y="76" width="1" height="1"/><rect x="5" y="77" width="22" height="1"/><rect x="35" y="77" width="1" height="1"/><rect x="52" y="77" width="1" height="1"/><rect x="5" y="78" width="8" height="1"/><rect x="19" y="78" width="8" height="1"/><rect x="35" y="78" width="1" height="1"/><rect x="38" y="78" width="3" height="1"/><rect x="42" y="78" width="4" height="1"/><rect x="47" y="78" width="3" height="1"/><rect x="52" y="78" width="1" height="1"/><rect x="5" y="79" width="8" height="1"/><rect x="20" y="79" width="7" height="1"/><rect x="35" y="79" width="1" height="1"/><rect x="38" y="79" width="1" height="1"/><rect x="40" y="79" width="1" height="1"/><rect x="42" y="79" width="1" height="1"/><rect x="45" y="79" width="1" height="1"/><rect x="47" y="79" width="1" height="1"/><rect x="49" y="79" width="1" height="1"/><rect x="52" y="79" width="1" height="1"/><rect x="5" y="80" width="7" height="1"/><rect x="20" y="80" width="7" height="1"/><rect x="35" y="80" width="1" height="1"/><rect x="38" y="80" width="3" height="1"/><rect x="42" y="80" width="4" height="1"/><rect x="47" y="80" width="3" height="1"/><rect x="52" y="80" width="1" height="1"/><rect x="6" y="81" width="5" height="1"/><rect x="21" y="81" width="5" height="1"/><rect x="35" y="81" width="1" height="1"/><rect x="52" y="81" width="1" height="1"/><rect x="36" y="82" width="1" height="1"/><rect x="51" y="82" width="1" height="1"/><rect x="37" y="83" width="14" height="1"/><rect x="6" y="93" width="7" height="1"/><rect x="19" y="93" width="7" height="1"/><rect x="6" y="94" width="8" height="1"/><rect x="18" y="94" width="8" height="1"/><rect x="34" y="94" width="4" height="1"/><rect x="40" y="94" width="5" height="1"/><rect x="46" y="94" width="5" height="1"/><rect x="52" y="94" width="4" height="1"/><rect x="6" y="95" width="9" height="1"/><rect x="17" y="95" width="9" height="1"/><rect x="34" y="95" width="1" height="1"/><rect x="38" y="95" width="1" height="1"/><rect x="40" y="95" width="1" height="1"/><rect x="46" y="95" width="1" height="1"/><rect x="52" y="95" width="1" height="1"/><rect x="56" y="95" width="1" height="1"/><rect x="6" y="96" width="3" height="1"/><rect x="11" y="96" width="4" height="1"/><rect x="17" y="96" width="4" height="1"/><rect x="23" y="96" width="3" height="1"/><rect x="34" y="96" width="1" height="1"/><rect x="38" y="96" width="1" height="1"/><rect x="40" y="96" width="1" height="1"/><rect x="46" y="96" width="1" height="1"/><rect x="52" y="96" width="1" height="1"/><rect x="56" y="96" width="1" height="1"/><rect x="6" y="97" width="3" height="1"/><rect x="13" y="97" width="2" height="1"/><rect x="17" y="97" width="2" height="1"/><rect x="23" y="97" width="4" height="1"/><rect x="34" y="97" width="4" height="1"/><rect x="40" y="97" width="4" height="1"/><rect x="46" y="97" width="4" height="1"/><rect x="52" y="97" width="4" height="1"/><rect x="6" y="98" width="9" height="1"/><rect x="17" y="98" width="9" height="1"/><rect x="34" y="98" width="1" height="1"/><rect x="38" y="98" width="1" height="1"/><rect x="40" y="98" width="1" height="1"/><rect x="46" y="98" width="1" height="1"/><rect x="52" y="98" width="1" height="1"/><rect x="5" y="99" width="4" height="1"/><rect x="11" y="99" width="4" height="1"/><rect x="17" y="99" width="4" height="1"/><rect x="23" y="99" width="4" height="1"/><rect x="34" y="99" width="1" height="1"/><rect x="38" y="99" width="1" height="1"/><rect x="40" y="99" width="1" height="1"/><rect x="46" y="99" width="1" height="1"/><rect x="52" y="99" width="1" height="1"/><rect x="5" y="100" width="4" height="1"/><rect x="13" y="100" width="2" height="1"/><rect x="17" y="100" width="2" height="1"/><rect x="23" y="100" width="4" height="1"/><rect x="34" y="100" width="4" height="1"/><rect x="40" y="100" width="5" height="1"/><rect x="46" y="100" width="5" height="1"/><rect x="52" y="100" width="1" height="1"/><rect x="5" y="101" width="10" height="1"/><rect x="17" y="101" width="10" height="1"/><rect x="6" y="102" width="3" height="1"/><rect x="11" y="102" width="4" height="1"/><rect x="17" y="102" width="4" height="1"/><rect x="23" y="102" width="3" height="1"/><rect x="5" y="103" width="4" height="1"/><rect x="13" y="103" width="2" height="1"/><rect x="17" y="103" width="2" height="1"/><rect x="23" y="103" width="4" height="1"/><rect x="5" y="104" width="10" height="1"/><rect x="17" y="104" width="10" height="1"/><rect x="39" y="104" width="3" height="1"/><rect x="44" y="104" width="1" height="1"/><rect x="48" y="104" width="1" height="1"/><rect x="6" y="105" width="9" height="1"/><rect x="17" y="105" width="9" height="1"/><rect x="38" y="105" width="1" height="1"/><rect x="42" y="105" width="1" height="1"/><rect x="44" y="105" width="2" height="1"/><rect x="48" y="105" width="1" height="1"/><rect x="5" y="106" width="10" height="1"/><rect x="17" y="106" width="9" height="1"/><rect x="38" y="106" width="1" height="1"/><rect x="42" y="106" width="1" height="1"/><rect x="44" y="106" width="1" height="1"/><rect x="46" y="106" width="1" height="1"/><rect x="48" y="106" width="1" height="1"/><rect x="6" y="107" width="9" height="1"/><rect x="17" y="107" width="9" height="1"/><rect x="38" y="107" width="1" height="1"/><rect x="42" y="107" width="1" height="1"/><rect x="44" y="107" width="1" height="1"/><rect x="47" y="107" width="2" height="1"/><rect x="11" y="108" width="4" height="1"/><rect x="17" y="108" width="4" height="1"/><rect x="38" y="108" width="1" height="1"/><rect x="42" y="108" width="1" height="1"/><rect x="44" y="108" width="1" height="1"/><rect x="48" y="108" width="1" height="1"/><rect x="13" y="109" width="2" height="1"/><rect x="17" y="109" width="2" height="1"/><rect x="38" y="109" width="1" height="1"/><rect x="42" y="109" width="1" height="1"/><rect x="44" y="109" width="1" height="1"/><rect x="48" y="109" width="1" height="1"/><rect x="14" y="110" width="1" height="1"/><rect x="17" y="110" width="1" height="1"/><rect x="39" y="110" width="3" height="1"/><rect x="44" y="110" width="1" height="1"/><rect x="48" y="110" width="1" height="1"/><rect x="1" y="120" width="3" height="1"/><rect x="7" y="120" width="3" height="1"/><rect x="12" y="120" width="1" height="1"/><rect x="19" y="120" width="3" height="1"/><rect x="24" y="120" width="1" height="1"/><rect x="28" y="120" width="1" height="1"/><rect x="30" y="120" width="1" height="1"/><rect x="37" y="120" width="3" height="1"/><rect x="42" y="120" width="5" height="1"/><rect x="49" y="120" width="3" height="1"/><rect x="54" y="120" width="4" height="1"/><rect x="0" y="121" width="1" height="1"/><rect x="4" y="121" width="1" height="1"/><rect x="6" y="121" width="1" height="1"/><rect x="10" y="121" width="1" height="1"/><rect x="12" y="121" width="1" height="1"/><rect x="18" y="121" width="1" height="1"/><rect x="22" y="121" width="1" height="1"/><rect x="24" y="121" width="1" height="1"/><rect x="28" y="121" width="1" height="1"/><rect x="30" y="121" width="1" height="1"/><rect x="36" y="121" width="1" height="1"/><rect x="40" y="121" width="1" height="1"/><rect x="44" y="121" width="1" height="1"/><rect x="48" y="121" width="1" height="1"/><rect x="52" y="121" width="1" height="1"/><rect x="54" y="121" width="1" height="1"/><rect x="58" y="121" width="1" height="1"/><rect x="0" y="122" width="1" height="1"/><rect x="6" y="122" width="1" height="1"/><rect x="10" y="122" width="1" height="1"/><rect x="12" y="122" width="1" height="1"/><rect x="18" y="122" width="1" height="1"/><rect x="24" y="122" width="1" height="1"/><rect x="28" y="122" width="1" height="1"/><rect x="30" y="122" width="1" height="1"/><rect x="36" y="122" width="1" height="1"/><rect x="40" y="122" width="1" height="1"/><rect x="44" y="122" width="1" height="1"/><rect x="48" y="122" width="1" height="1"/><rect x="52" y="122" width="1" height="1"/><rect x="54" y="122" width="1" height="1"/><rect x="58" y="122" width="1" height="1"/><rect x="0" y="123" width="1" height="1"/><rect x="6" y="123" width="5" height="1"/><rect x="12" y="123" width="1" height="1"/><rect x="18" y="123" width="1" height="1"/><rect x="24" y="123" width="1" height="1"/><rect x="28" y="123" width="1" height="1"/><rect x="30" y="123" width="1" height="1"/><rect x="36" y="123" width="5" height="1"/><rect x="44" y="123" width="1" height="1"/><rect x="48" y="123" width="1" height="1"/><rect x="52" y="123" width="1" height="1"/><rect x="54" y="123" width="4" height="1"/><rect x="0" y="124" width="1" height="1"/><rect x="6" y="124" width="1" height="1"/><rect x="10" y="124" width="1" height="1"/><rect x="12" y="124" width="1" height="1"/><rect x="18" y="124" width="1" height="1"/><rect x="24" y="124" width="1" height="1"/><rect x="28" y="124" width="1" height="1"/><rect x="30" y="124" width="1" height="1"/><rect x="36" y="124" width="1" height="1"/><rect x="40" y="124" width="1" height="1"/><rect x="44" y="124" width="1" height="1"/><rect x="48" y="124" width="1" height="1"/><rect x="52" y="124" width="1" height="1"/><rect x="54" y="124" width="1" height="1"/><rect x="56" y="124" width="1" height="1"/><rect x="0" y="125" width="1" height="1"/><rect x="4" y="125" width="1" height="1"/><rect x="6" y="125" width="1" height="1"/><rect x="10" y="125" width="1" height="1"/><rect x="12" y="125" width="1" height="1"/><rect x="18" y="125" width="1" height="1"/><rect x="22" y="125" width="1" height="1"/><rect x="24" y="125" width="1" height="1"/><rect x="28" y="125" width="1" height="1"/><rect x="30" y="125" width="1" height="1"/><rect x="36" y="125" width="1" height="1"/><rect x="40" y="125" width="1" height="1"/><rect x="44" y="125" width="1" height="1"/><rect x="48" y="125" width="1" height="1"/><rect x="52" y="125" width="1" height="1"/><rect x="54" y="125" width="1" height="1"/><rect x="57" y="125" width="1" height="1"/><rect x="1" y="126" width="3" height="1"/><rect x="6" y="126" width="1" height="1"/><rect x="10" y="126" width="1" height="1"/><rect x="12" y="126" width="5" height="1"/><rect x="19" y="126" width="3" height="1"/><rect x="25" y="126" width="3" height="1"/><rect x="30" y="126" width="5" height="1"/><rect x="36" y="126" width="1" height="1"/><rect x="40" y="126" width="1" height="1"/><rect x="44" y="126" width="1" height="1"/><rect x="49" y="126" width="3" height="1"/><rect x="54" y="126" width="1" height="1"/><rect x="58" y="126" width="1" height="1"/></g>
</svg>
