<svg xmlns="http://www.w3.org/2000/svg" viewBox="0 0 64 128" width="64" height="128" shape-rendering="crispEdges">
  <rect width="64" height="128" fill="#020406"/>
  <g fill="#fff"><rect x="1" y="0" width="4" height="1"/><rect x="6" y="0" width="5" height="1"/><rect x="13" y="0" width="3" height="1"/><rect x="18" y="0" width="4" height="1"/><rect x="24" y="0" width="1" height="1"/><rect x="28" y="0" width="1" height="1"/><rect x="31" y="0" width="3" height="1"/><rect x="36" y="0" width="5" height="1"/><rect x="43" y="0" width="3" height="1"/><rect x="48" y="0" width="1" height="1"/><rect x="52" y="0" width="1" height="1"/><rect x="0" y="1" width="1" height="1"/><rect x="8" y="1" width="1" height="1"/><rect x="12" y="1" width="1" height="1"/><rect x="16" y="1" width="1" height="1"/><rect x="18" y="1" width="1" height="1"/><rect x="22" y="1" width="1" height="1"/><rect x="24" y="1" width="1" height="1"/><rect x="28" y="1" width="1" height="1"/><rect x="30" y="1" width="1" height="1"/><rect x="34" y="1" width="1" height="1"/><rect x="38" y="1" width="1" height="1"/><rect x="42" y="1" width="1" height="1"/><rect x="46" y="1" width="1" height="1"/><rect x="48" y="1" width="1" height="1"/><rect x="52" y="1" width="1" height="1"/><rect x="0" y="2" width="1" height="1"/><rect x="8" y="2" width="1" height="1"/><rect x="12" y="2" width="1" height="1"/><rect x="16" y="2" width="1" height="1"/><rect x="18" y="2" width="1" height="1"/><rect x="22" y="2" width="1" height="1"/><rect x="24" y="2" width="1" height="1"/><rect x="28" y="2" width="1" height="1"/><rect x="30" y="2" width="1" height="1"/><rect x="34" y="2" width="1" height="1"/><rect x="38" y="2" width="1" height="1"/><rect x="42" y="2" width="1" height="1"/><rect x="48" y="2" width="1" height="1"/><rect x="52" y="2" width="1" height="1"/><rect x="1" y="3" width="3" height="1"/><rect x="8" y="3" width="1" height="1"/><rect x="12" y="3" width="1" height="1"/><rect x="16" y="3" width="1" height="1"/><rect x="18" y="3" width="4" height="1"/><rect x="24" y="3" width="1" height="1"/><rect x="26" y="3" width="1" height="1"/><rect x="28" y="3" width="1" height="1"/><rect x="30" y="3" width="5" height="1"/><rect x="38" y="3" width="1" height="1"/><rect x="42" y="3" width="1" height="1"/><rect x="48" y="3" width="5" height="1"/><rect x="4" y="4" width="1" height="1"/><rect x="8" y="4" width="1" height="1"/><rect x="12" y="4" width="1" height="1"/><rect x="16" y="4" width="1" height="1"/><rect x="18" y="4" width="1" height="1"/><rect x="24" y="4" width="1" height="1"/><rect x="26" y="4" width="1" height="1"/><rect x="28" y="4" width="1" height="1"/><rect x="30" y="4" width="1" height="1"/><rect x="34" y="4" width="1" height="1"/><rect x="38" y="4" width="1" height="1"/><rect x="42" y="4" width="1" height="1"/><rect x="48" y="4" width="1" height="1"/><rect x="52" y="4" width="1" height="1"/><rect x="4" y="5" width="1" height="1"/><rect x="8" y="5" width="1" height="1"/><rect x="12" y="5" width="1" height="1"/><rect x="16" y="5" width="1" height="1"/><rect x="18" y="5" width="1" height="1"/><rect x="24" y="5" width="1" height="1"/><rect x="26" y="5" width="1" height="1"/><rect x="28" y="5" width="1" height="1"/><rect x="30" y="5" width="1" height="1"/><rect x="34" y="5" width="1" height="1"/><rect x="38" y="5" width="1" height="1"/><rect x="42" y="5" width="1" height="1"/><rect x="46" y="5" width="1" height="1"/><rect x="48" y="5" width="1" height="1"/><rect x="52" y="5" width="1" height="1"/><rect x="0" y="6" width="4" height="1"/><rect x="8" y="6" width="1" height="1"/><rect x="13" y="6" width="3" height="1"/><rect x="18" y="6" width="1" height="1"/><rect x="25" y="6" width="1" height="1"/><rect x="27" y="6" width="1" height="1"/><rect x="30" y="6" width="1" height="1"/><rect x="34" y="6" width="1" height="1"/><rect x="38" y="6" width="1" height="1"/><rect x="43" y="6" width="3" height="1"/><rect x="48" y="6" width="1" height="1"/><rect x="52" y="6" width="1" height="1"/><rect x="2" y="20" width="6" height="1"/><rect x="38" y="20" width="6" height="1"/><rect x="2" y="21" width="6" height="1"/><rect x="38" y="21" width="6" height="1"/><rect x="0" y="22" width="2" height="1"/><rect x="8" y="22" width="2" height="1"/><rect x="26" y="22" width="4" height="1"/><rect x="36" y="22" width="2" height="1"/><rect x="44" y="22" width="2" height="1"/><rect x="0" y="23" width="2" height="1"/><rect x="8" y="23" width="2" height="1"/><rect x="26" y="23" width="4" height="1"/><rect x="36" y="23" width="2" height="1"/><rect x="44" y="23" width="2" height="1"/><rect x="0" y="24" width="2" height="1"/><rect x="6" y="24" width="4" height="1"/><rect x="26" y="24" width="4" height="1"/><rect x="36" y="24" width="2" height="1"/><rect x="42" y="24" width="4" height="1"/><rect x="0" y="25" width="2" height="1"/><rect x="6" y="25" width="4" height="1"/><rect x="26" y="25" width="4" height="1"/><rect x="36" y="25" width="2" height="1"/><rect x="42" y="25" width="4" height="1"/><rect x="0" y="26" width="2" height="1"/><rect x="4" y="26" width="2" height="1"/><rect x="8" y="26" width="2" height="1"/><rect x="36" y="26" width="2" height="1"/><rect x="40" y="26" width="2" height="1"/><rect x="44" y="26" width="2" height="1"/><rect x="0" y="27" width="2" height="1"/><rect x="4" y="27" width="2" height="1"/><rect x="8" y="27" width="2" height="1"/><rect x="36" y="27" width="2" height="1"/><rect x="40" y="27" width="2" height="1"/><rect x="44" y="27" width="2" height="1"/><rect x="0" y="28" width="4" height="1"/><rect x="8" y="28" width="2" height="1"/><rect x="26" y="28" width="4" height="1"/><rect x="36" y="28" width="4" height="1"/><rect x="44" y="28" width="2" height="1"/><rect x="0" y="29" width="4" height="1"/><rect x="8" y="29" width="2" height="1"/><rect x="26" y="29" width="4" height="1"/><rect x="36" y="29" width="4" height="1"/><rect x="44" y="29" width="2" height="1"/><rect x="0" y="30" width="2" height="1"/><rect x="8" y="30" width="2" height="1"/><rect x="26" y="30" width="4" height="1"/><rect x="36" y="30" width="2" height="1"/><rect x="44" y="30" width="2" height="1"/><rect x="0" y="31" width="2" height="1"/><rect x="8" y="31" width="2" height="1"/><rect x="26" y="31" width="4" height="1"/><rect x="36" y="31" width="2" height="1"/><rect x="44" y="31" width="2" height="1"/><rect x="2" y="32" width="6" height="1"/><rect x="38" y="32" width="6" height="1"/><rect x="2" y="33" width="6" height="1"/><rect x="38" y="33" width="6" height="1"/><rect x="7" y="64" width="3" height="1"/><rect x="13" y="64" width="3" height="1"/><rect x="19" y="64" width="3" height="1"/><rect x="6" y="65" width="1" height="1"/><rect x="10" y="65" width="1" height="1"/><rect x="12" y="65" width="1" height="1"/><rect x="16" y="65" width="1" height="1"/><rect x="18" y="65" width="1" height="1"/><rect x="22" y="65" width="1" height="1"/><rect x="6" y="66" width="1" height="1"/><rect x="9" y="66" width="2" height="1"/><rect x="12" y="66" width="1" height="1"/><rect x="15" y="66" width="2" height="1"/><rect x="18" y="66" width="1" height="1"/><rect x="21" y="66" width="2" height="1"/><rect x="6" y="67" width="1" height="1"/><rect x="8" y="67" width="1" height="1"/><rect x="10" y="67" width="1" height="1"/><rect x="12" y="67" width="1" height="1"/><rect x="14" y="67" width="1" height="1"/><rect x="16" y="67" width="1" height="1"/><rect x="18" y="67" width="1" height="1"/><rect x="20" y="67" width="1" height="1"/><rect x="22" y="67" width="1" height="1"/><rect x="6" y="68" width="2" height="1"/><rect x="10" y="68" width="1" height="1"/><rect x="12" y="68" width="2" height="1"/><rect x="16" y="68" width="1" height="1"/><rect x="18" y="68" width="2" height="1"/><rect x="22" y="68" width="1" height="1"/><rect x="6" y="69" width="1" height="1"/><rect x="10" y="69" width="1" height="1"/><rect x="12" y="69" width="1" height="1"/><rect x="16" y="69" width="1" height="1"/><rect x="18" y="69" width="1" height="1"/><rect x="22" y="69" width="1" height="1"/><rect x="7" y="70" width="3" height="1"/><rect x="13" y="70" width="3" height="1"/><rect x="19" y="70" width="3" height="1"/></g>
</svg>
