<svg xmlns="http://www.w3.org/2000/svg" viewBox="0 0 64 128" width="64" height="128" shape-rendering="crispEdges">
  <rect width="64" height="128" fill="#020406"/>
  <g fill="#fff"><rect x="7" y="4" width="3" height="1"/><rect x="13" y="4" width="3" height="1"/><rect x="18" y="4" width="1" height="1"/><rect x="25" y="4" width="3" height="1"/><rect x="6" y="5" width="1" height="1"/><rect x="10" y="5" width="1" height="1"/><rect x="12" y="5" width="1" height="1"/><rect x="16" y="5" width="1" height="1"/><rect x="18" y="5" width="1" height="1"/><rect x="24" y="5" width="1" height="1"/><rect x="28" y="5" width="1" height="1"/><rect x="6" y="6" width="1" height="1"/><rect x="12" y="6" width="1" height="1"/><rect x="16" y="6" width="1" height="1"/><rect x="18" y="6" width="1" height="1"/><rect x="24" y="6" width="1" height="1"/><rect x="6" y="7" width="1" height="1"/><rect x="12" y="7" width="5" height="1"/><rect x="18" y="7" width="1" height="1"/><rect x="24" y="7" width="1" height="1"/><rect x="6" y="8" width="1" height="1"/><rect x="12" y="8" width="1" height="1"/><rect x="16" y="8" width="1" height="1"/><rect x="18" y="8" width="1" height="1"/><rect x="24" y="8" width="1" height="1"/><rect x="6" y="9" width="1" height="1"/><rect x="10" y="9" width="1" height="1"/><rect x="12" y="9" width="1" height="1"/><rect x="16" y="9" width="1" height="1"/><rect x="18" y="9" width="1" height="1"/><rect x="24" y="9" width="1" height="1"/><rect x="28" y="9" width="1" height="1"/><rect x="7" y="10" width="3" height="1"/><rect x="12" y="10" width="1" height="1"/><rect x="16" y="10" width="1" height="1"/><rect x="18" y="10" width="5" height="1"/><rect x="25" y="10" width="3" height="1"/><rect x="8" y="18" width="48" height="1"/><rect x="8" y="19" width="1" height="1"/><rect x="55" y="19" width="1" height="1"/><rect x="8" y="20" width="1" height="1"/><rect x="55" y="20" width="1" height="1"/><rect x="8" y="21" width="1" height="1"/><rect x="55" y="21" width="1" height="1"/><rect x="8" y="22" width="1" height="1"/><rect x="55" y="22" width="1" height="1"/><rect x="8" y="23" width="1" height="1"/><rect x="15" y="23" width="3" height="1"/><rect x="55" y="23" width="1" height="1"/><rect x="8" y="24" width="1" height="1"/><rect x="14" y="24" width="1" height="1"/><rect x="18" y="24" width="1" height="1"/><rect x="55" y="24" width="1" height="1"/><rect x="8" y="25" width="1" height="1"/><rect x="14" y="25" width="1" height="1"/><rect x="17" y="25" width="2" height="1"/><rect x="55" y="25" width="1" height="1"/><rect x="8" y="26" width="1" height="1"/><rect x="14" y="26" width="1" height="1"/><rect x="16" y="26" width="1" height="1"/><rect x="18" y="26" width="1" height="1"/><rect x="55" y="26" width="1" height="1"/><rect x="8" y="27" width="1" height="1"/><rect x="14" y="27" width="2" height="1"/><rect x="18" y="27" width="1" height="1"/><rect x="55" y="27" width="1" height="1"/><rect x="8" y="28" width="1" height="1"/><rect x="14" y="28" width="1" height="1"/><rect x="18" y="28" width="1" height="1"/><rect x="55" y="28" width="1" height="1"/><rect x="8" y="29" width="1" height="1"/><rect x="15" y="29" width="3" height="1"/><rect x="55" y="29" width="1" height="1"/><rect x="8" y="30" width="1" height="1"/><rect x="55" y="30" width="1" height="1"/><rect x="8" y="31" width="1" height="1"/><rect x="55" y="31" width="1" height="1"/><rect x="8" y="32" width="1" height="1"/><rect x="55" y="32" width="1" height="1"/><rect x="8" y="33" width="48" height="1"/><rect x="9" y="44" width="11" height="1"/><rect x="25" y="44" width="11" height="1"/><rect x="41" y="44" width="11" height="1"/><rect x="8" y="45" width="1" height="1"/><rect x="20" y="45" width="1" height="1"/><rect x="24" y="45" width="1" height="1"/><rect x="36" y="45" width="1" height="1"/><rect x="40" y="45" width="1" height="1"/><rect x="52" y="45" width="1" height="1"/><rect x="8" y="46" width="1" height="1"/><rect x="20" y="46" width="1" height="1"/><rect x="24" y="46" width="1" height="1"/><rect x="36" y="46" width="1" height="1"/><rect x="40" y="46" width="1" height="1"/><rect x="52" y="46" width="1" height="1"/><rect x="8" y="47" width="1" height="1"/><rect x="20" y="47" width="1" height="1"/><rect x="24" y="47" width="1" height="1"/><rect x="36" y="47" width="1" height="1"/><rect x="40" y="47" width="1" height="1"/><rect x="52" y="47" width="1" height="1"/><rect x="8" y="48" width="1" height="1"/><rect x="12" y="48" width="5" height="1"/><rect x="20" y="48" width="1" height="1"/><rect x="24" y="48" width="1" height="1"/><rect x="29" y="48" width="3" height="1"/><rect x="36" y="48" width="1" height="1"/><rect x="40" y="48" width="1" height="1"/><rect x="45" y="48" width="3" height="1"/><rect x="52" y="48" width="1" height="1"/><rect x="8" y="49" width="1" height="1"/><rect x="16" y="49" width="1" height="1"/><rect x="20" y="49" width="1" height="1"/><rect x="24" y="49" width="1" height="1"/><rect x="28" y="49" width="1" height="1"/><rect x="32" y="49" width="1" height="1"/><rect x="36" y="49" width="1" height="1"/><rect x="40" y="49" width="1" height="1"/><rect x="44" y="49" width="1" height="1"/><rect x="48" y="49" width="1" height="1"/><rect x="52" y="49" width="1" height="1"/><rect x="8" y="50" width="1" height="1"/><rect x="15" y="50" width="1" height="1"/><rect x="20" y="50" width="1" height="1"/><rect x="24" y="50" width="1" height="1"/><rect x="28" y="50" width="1" height="1"/><rect x="32" y="50" width="1" height="1"/><rect x="36" y="50" width="1" height="1"/><rect x="40" y="50" width="1" height="1"/><rect x="44" y="50" width="1" height="1"/><rect x="48" y="50" width="1" height="1"/><rect x="52" y="50" width="1" height="1"/><rect x="8" y="51" width="1" height="1"/><rect x="14" y="51" width="1" height="1"/><rect x="20" y="51" width="1" height="1"/><rect x="24" y="51" width="1" height="1"/><rect x="29" y="51" width="3" height="1"/><rect x="36" y="51" width="1" height="1"/><rect x="40" y="51" width="1" height="1"/><rect x="45" y="51" width="4" height="1"/><rect x="52" y="51" width="1" height="1"/><rect x="8" y="52" width="1" height="1"/><rect x="13" y="52" width="1" height="1"/><rect x="20" y="52" width="1" height="1"/><rect x="24" y="52" width="1" height="1"/><rect x="28" y="52" width="1" height="1"/><rect x="32" y="52" width="1" height="1"/><rect x="36" y="52" width="1" height="1"/><rect x="40" y="52" width="1" height="1"/><rect x="48" y="52" width="1" height="1"/><rect x="52" y="52" width="1" height="1"/><rect x="8" y="53" width="1" height="1"/><rect x="13" y="53" width="1" height="1"/><rect x="20" y="53" width="1" height="1"/><rect x="24" y="53" width="1" height="1"/><rect x="28" y="53" width="1" height="1"/><rect x="32" y="53" width="1" height="1"/><rect x="36" y="53" width="1" height="1"/><rect x="40" y="53" width="1" height="1"/><rect x="48" y="53" width="1" height="1"/><rect x="52" y="53" width="1" height="1"/><rect x="8" y="54" width="1" height="1"/><rect x="13" y="54" width="1" height="1"/><rect x="20" y="54" width="1" height="1"/><rect x="24" y="54" width="1" height="1"/><rect x="29" y="54" width="3" height="1"/><rect x="36" y="54" width="1" height="1"/><rect x="40" y="54" width="1" height="1"/><rect x="45" y="54" width="3" height="1"/><rect x="52" y="54" width="1" height="1"/><rect x="8" y="55" width="1" height="1"/><rect x="20" y="55" width="1" height="1"/><rect x="24" y="55" width="1" height="1"/><rect x="36" y="55" width="1" height="1"/><rect x="40" y="55" width="1" height="1"/><rect x="52" y="55" width="1" height="1"/><rect x="8" y="56" width="1" height="1"/><rect x="20" y="56" width="1" height="1"/><rect x="24" y="56" width="1" height="1"/><rect x="36" y="56" width="1" height="1"/><rect x="40" y="56" width="1" height="1"/><rect x="52" y="56" width="1" height="1"/><rect x="9" y="57" width="11" height="1"/><rect x="25" y="57" width="11" height="1"/><rect x="41" y="57" width="11" height="1"/><rect x="9" y="62" width="11" height="1"/><rect x="25" y="62" width="11" height="1"/><rect x="41" y="62" width="11" height="1"/><rect x="8" y="63" width="1" height="1"/><rect x="20" y="63" width="1" height="1"/><rect x="24" y="63" width="1" height="1"/><rect x="36" y="63" width="1" height="1"/><rect x="40" y="63" width="1" height="1"/><rect x="52" y="63" width="1" height="1"/><rect x="8" y="64" width="1" height="1"/><rect x="20" y="64" width="1" height="1"/><rect x="24" y="64" width="1" height="1"/><rect x="36" y="64" width="1" height="1"/><rect x="40" y="64" width="1" height="1"/><rect x="52" y="64" width="1" height="1"/><rect x="8" y="65" width="1" height="1"/><rect x="20" y="65" width="1" height="1"/><rect x="24" y="65" width="1" height="1"/><rect x="36" y="65" width="1" height="1"/><rect x="40" y="65" width="1" height="1"/><rect x="52" y="65" width="1" height="1"/><rect x="8" y="66" width="1" height="1"/><rect x="15" y="66" width="1" height="1"/><rect x="20" y="66" width="1" height="1"/><rect x="24" y="66" width="1" height="1"/><rect x="28" y="66" width="5" height="1"/><rect x="36" y="66" width="1" height="1"/><rect x="40" y="66" width="1" height="1"/><rect x="45" y="66" width="3" height="1"/><rect x="52" y="66" width="1" height="1"/><rect x="8" y="67" width="1" height="1"/><rect x="14" y="67" width="2" height="1"/><rect x="20" y="67" width="1" height="1"/><rect x="24" y="67" width="1" height="1"/><rect x="28" y="67" width="1" height="1"/><rect x="36" y="67" width="1" height="1"/><rect x="40" y="67" width="1" height="1"/><rect x="44" y="67" width="1" height="1"/><rect x="52" y="67" width="1" height="1"/><rect x="8" y="68" width="1" height="1"/><rect x="13" y="68" width="1" height="1"/><rect x="15" y="68" width="1" height="1"/><rect x="20" y="68" width="1" height="1"/><rect x="24" y="68" width="1" height="1"/><rect x="28" y="68" width="1" height="1"/><rect x="36" y="68" width="1" height="1"/><rect x="40" y="68" width="1" height="1"/><rect x="44" y="68" width="1" height="1"/><rect x="52" y="68" width="1" height="1"/><rect x="8" y="69" width="1" height="1"/><rect x="12" y="69" width="1" height="1"/><rect x="15" y="69" width="1" height="1"/><rect x="20" y="69" width="1" height="1"/><rect x="24" y="69" width="1" height="1"/><rect x="28" y="69" width="4" height="1"/><rect x="36" y="69" width="1" height="1"/><rect x="40" y="69" width="1" height="1"/><rect x="44" y="69" width="4" height="1"/><rect x="52" y="69" width="1" height="1"/><rect x="8" y="70" width="1" height="1"/><rect x="12" y="70" width="5" height="1"/><rect x="20" y="70" width="1" height="1"/><rect x="24" y="70" width="1" height="1"/><rect x="32" y="70" width="1" height="1"/><rect x="36" y="70" width="1" height="1"/><rect x="40" y="70" width="1" height="1"/><rect x="44" y="70" width="1" height="1"/><rect x="48" y="70" width="1" height="1"/><rect x="52" y="70" width="1" height="1"/><rect x="8" y="71" width="1" height="1"/><rect x="15" y="71" width="1" height="1"/><rect x="20" y="71" width="1" height="1"/><rect x="24" y="71" width="1" height="1"/><rect x="32" y="71" width="1" height="1"/><rect x="36" y="71" width="1" height="1"/><rect x="40" y="71" width="1" height="1"/><rect x="44" y="71" width="1" height="1"/><rect x="48" y="71" width="1" height="1"/><rect x="52" y="71" width="1" height="1"/><rect x="8" y="72" width="1" height="1"/><rect x="15" y="72" width="1" height="1"/><rect x="20" y="72" width="1" height="1"/><rect x="24" y="72" width="1" height="1"/><rect x="28" y="72" width="4" height="1"/><rect x="36" y="72" width="1" height="1"/><rect x="40" y="72" width="1" height="1"/><rect x="45" y="72" width="3" height="1"/><rect x="52" y="72" width="1" height="1"/><rect x="8" y="73" width="1" height="1"/><rect x="20" y="73" width="1" height="1"/><rect x="24" y="73" width="1" height="1"/><rect x="36" y="73" width="1" height="1"/><rect x="40" y="73" width="1" height="1"/><rect x="52" y="73" width="1" height="1"/><rect x="8" y="74" width="1" height="1"/><rect x="20" y="74" width="1" height="1"/><rect x="24" y="74" width="1" height="1"/><rect x="36" y="74" width="1" height="1"/><rect x="40" y="74" width="1" height="1"/><rect x="52" y="74" width="1" height="1"/><rect x="9" y="75" width="11" height="1"/><rect x="25" y="75" width="11" height="1"/><rect x="41" y="75" width="11" height="1"/><rect x="9" y="80" width="11" height="1"/><rect x="25" y="80" width="11" height="1"/><rect x="41" y="80" width="11" height="1"/><rect x="8" y="81" width="1" height="1"/><rect x="20" y="81" width="1" height="1"/><rect x="24" y="81" width="1" height="1"/><rect x="36" y="81" width="1" height="1"/><rect x="40" y="81" width="1" height="1"/><rect x="52" y="81" width="1" height="1"/><rect x="8" y="82" width="1" height="1"/><rect x="20" y="82" width="1" height="1"/><rect x="24" y="82" width="1" height="1"/><rect x="36" y="82" width="1" height="1"/><rect x="40" y="82" width="1" height="1"/><rect x="52" y="82" width="1" height="1"/><rect x="8" y="83" width="1" height="1"/><rect x="20" y="83" width="1" height="1"/><rect x="24" y="83" width="1" height="1"/><rect x="36" y="83" width="1" height="1"/><rect x="40" y="83" width="1" height="1"/><rect x="52" y="83" width="1" height="1"/><rect x="8" y="84" width="1" height="1"/><rect x="14" y="84" width="1" height="1"/><rect x="20" y="84" width="1" height="1"/><rect x="24" y="84" width="1" height="1"/><rect x="29" y="84" width="3" height="1"/><rect x="36" y="84" width="1" height="1"/><rect x="40" y="84" width="1" height="1"/><rect x="44" y="84" width="4" height="1"/><rect x="52" y="84" width="1" height="1"/><rect x="8" y="85" width="1" height="1"/><rect x="13" y="85" width="2" height="1"/><rect x="20" y="85" width="1" height="1"/><rect x="24" y="85" width="1" height="1"/><rect x="28" y="85" width="1" height="1"/><rect x="32" y="85" width="1" height="1"/><rect x="36" y="85" width="1" height="1"/><rect x="40" y="85" width="1" height="1"/><rect x="48" y="85" width="1" height="1"/><rect x="52" y="85" width="1" height="1"/><rect x="8" y="86" width="1" height="1"/><rect x="14" y="86" width="1" height="1"/><rect x="20" y="86" width="1" height="1"/><rect x="24" y="86" width="1" height="1"/><rect x="32" y="86" width="1" height="1"/><rect x="36" y="86" width="1" height="1"/><rect x="40" y="86" width="1" height="1"/><rect x="48" y="86" width="1" height="1"/><rect x="52" y="86" width="1" height="1"/><rect x="8" y="87" width="1" height="1"/><rect x="14" y="87" width="1" height="1"/><rect x="20" y="87" width="1" height="1"/><rect x="24" y="87" width="1" height="1"/><rect x="31" y="87" width="1" height="1"/><rect x="36" y="87" width="1" height="1"/><rect x="40" y="87" width="1" height="1"/><rect x="45" y="87" width="3" height="1"/><rect x="52" y="87" width="1" height="1"/><rect x="8" y="88" width="1" height="1"/><rect x="14" y="88" width="1" height="1"/><rect x="20" y="88" width="1" height="1"/><rect x="24" y="88" width="1" height="1"/><rect x="30" y="88" width="1" height="1"/><rect x="36" y="88" width="1" height="1"/><rect x="40" y="88" width="1" height="1"/><rect x="48" y="88" width="1" height="1"/><rect x="52" y="88" width="1" height="1"/><rect x="8" y="89" width="1" height="1"/><rect x="14" y="89" width="1" height="1"/><rect x="20" y="89" width="1" height="1"/><rect x="24" y="89" width="1" height="1"/><rect x="29" y="89" width="1" height="1"/><rect x="36" y="89" width="1" height="1"/><rect x="40" y="89" width="1" height="1"/><rect x="48" y="89" width="1" height="1"/><rect x="52" y="89" width="1" height="1"/><rect x="8" y="90" width="1" height="1"/><rect x="13" y="90" width="3" height="1"/><rect x="20" y="90" width="1" height="1"/><rect x="24" y="90" width="1" height="1"/><rect x="28" y="90" width="5" height="1"/><rect x="36" y="90" width="1" height="1"/><rect x="40" y="90" width="1" height="1"/><rect x="44" y="90" width="4" height="1"/><rect x="52" y="90" width="1" height="1"/><rect x="8" y="91" width="1" height="1"/><rect x="20" y="91" width="1" height="1"/><rect x="24" y="91" width="1" height="1"/><rect x="36" y="91" width="1" height="1"/><rect x="40" y="91" width="1" height="1"/><rect x="52" y="91" width="1" height="1"/><rect x="8" y="92" width="1" height="1"/><rect x="20" y="92" width="1" height="1"/><rect x="24" y="92" width="1" height="1"/><rect x="36" y="92" width="1" height="1"/><rect x="40" y="92" width="1" height="1"/><rect x="52" y="92" width="1" height="1"/><rect x="9" y="93" width="11" height="1"/><rect x="25" y="93" width="11" height="1"/><rect x="41" y="93" width="11" height="1"/><rect x="9" y="98" width="11" height="1"/><rect x="25" y="98" width="11" height="1"/><rect x="41" y="98" width="11" height="1"/><rect x="8" y="99" width="1" height="1"/><rect x="20" y="99" width="1" height="1"/><rect x="24" y="99" width="1" height="1"/><rect x="36" y="99" width="1" height="1"/><rect x="40" y="99" width="1" height="1"/><rect x="52" y="99" width="1" height="1"/><rect x="8" y="100" width="1" height="1"/><rect x="20" y="100" width="1" height="1"/><rect x="24" y="100" width="1" height="1"/><rect x="36" y="100" width="1" height="1"/><rect x="40" y="100" width="1" height="1"/><rect x="52" y="100" width="1" height="1"/><rect x="8" y="101" width="1" height="1"/><rect x="20" y="101" width="1" height="1"/><rect x="24" y="101" width="1" height="1"/><rect x="36" y="101" width="1" height="1"/><rect x="40" y="101" width="1" height="1"/><rect x="52" y="101" width="1" height="1"/><rect x="8" y="102" width="1" height="1"/><rect x="13" y="102" width="3" height="1"/><rect x="20" y="102" width="1" height="1"/><rect x="24" y="102" width="1" height="1"/><rect x="29" y="102" width="3" height="1"/><rect x="36" y="102" width="1" height="1"/><rect x="40" y="102" width="1" height="1"/><rect x="52" y="102" width="1" height="1"/><rect x="8" y="103" width="1" height="1"/><rect x="12" y="103" width="1" height="1"/><rect x="16" y="103" width="1" height="1"/><rect x="20" y="103" width="1" height="1"/><rect x="24" y="103" width="1" height="1"/><rect x="28" y="103" width="1" height="1"/><rect x="32" y="103" width="1" height="1"/><rect x="36" y="103" width="1" height="1"/><rect x="40" y="103" width="1" height="1"/><rect x="52" y="103" width="1" height="1"/><rect x="8" y="104" width="1" height="1"/><rect x="12" y="104" width="1" height="1"/><rect x="20" y="104" width="1" height="1"/><rect x="24" y="104" width="1" height="1"/><rect x="28" y="104" width="1" height="1"/><rect x="31" y="104" width="2" height="1"/><rect x="36" y="104" width="1" height="1"/><rect x="40" y="104" width="1" height="1"/><rect x="52" y="104" width="1" height="1"/><rect x="8" y="105" width="1" height="1"/><rect x="12" y="105" width="1" height="1"/><rect x="20" y="105" width="1" height="1"/><rect x="24" y="105" width="1" height="1"/><rect x="28" y="105" width="1" height="1"/><rect x="30" y="105" width="1" height="1"/><rect x="32" y="105" width="1" height="1"/><rect x="36" y="105" width="1" height="1"/><rect x="40" y="105" width="1" height="1"/><rect x="52" y="105" width="1" height="1"/><rect x="8" y="106" width="1" height="1"/><rect x="12" y="106" width="1" height="1"/><rect x="20" y="106" width="1" height="1"/><rect x="24" y="106" width="1" height="1"/><rect x="28" y="106" width="2" height="1"/><rect x="32" y="106" width="1" height="1"/><rect x="36" y="106" width="1" height="1"/><rect x="40" y="106" width="1" height="1"/><rect x="52" y="106" width="1" height="1"/><rect x="8" y="107" width="1" height="1"/><rect x="12" y="107" width="1" height="1"/><rect x="16" y="107" width="1" height="1"/><rect x="20" y="107" width="1" height="1"/><rect x="24" y="107" width="1" height="1"/><rect x="28" y="107" width="1" height="1"/><rect x="32" y="107" width="1" height="1"/><rect x="36" y="107" width="1" height="1"/><rect x="40" y="107" width="1" height="1"/><rect x="52" y="107" width="1" height="1"/><rect x="8" y="108" width="1" height="1"/><rect x="13" y="108" width="3" height="1"/><rect x="20" y="108" width="1" height="1"/><rect x="24" y="108" width="1" height="1"/><rect x="29" y="108" width="3" height="1"/><rect x="36" y="108" width="1" height="1"/><rect x="40" y="108" width="1" height="1"/><rect x="52" y="108" width="1" height="1"/><rect x="8" y="109" width="1" height="1"/><rect x="20" y="109" width="1" height="1"/><rect x="24" y="109" width="1" height="1"/><rect x="36" y="109" width="1" height="1"/><rect x="40" y="109" width="1" height="1"/><rect x="52" y="109" width="1" height="1"/><rect x="8" y="110" width="1" height="1"/><rect x="20" y="110" width="1" height="1"/><rect x="24" y="110" width="1" height="1"/><rect x="36" y="110" width="1" height="1"/><rect x="40" y="110" width="1" height="1"/><rect x="52" y="110" width="1" height="1"/><rect x="9" y="111" width="11" height="1"/><rect x="25" y="111" width="11" height="1"/><rect x="41" y="111" width="11" height="1"/></g>
</svg>
