<svg xmlns="http://www.w3.org/2000/svg" viewBox="0 0 128 64" width="128" height="64" shape-rendering="crispEdges">
  <rect width="128" height="64" fill="#020406"/>
  <g fill="#fff"><rect x="72" y="6" width="4" height="1"/><rect x="78" y="6" width="5" height="1"/><rect x="84" y="6" width="5" height="1"/><rect x="90" y="6" width="4" height="1"/><rect x="72" y="7" width="1" height="1"/><rect x="76" y="7" width="1" height="1"/><rect x="78" y="7" width="1" height="1"/><rect x="84" y="7" width="1" height="1"/><rect x="90" y="7" width="1" height="1"/><rect x="94" y="7" width="1" height="1"/><rect x="5" y="8" width="3" height="1"/><rect x="12" y="8" width="3" height="1"/><rect x="17" y="8" width="2" height="1"/><rect x="30" y="8" width="2" height="1"/><rect x="43" y="8" width="6" height="1"/><rect x="53" y="8" width="5" height="1"/><rect x="72" y="8" width="1" height="1"/><rect x="76" y="8" width="1" height="1"/><rect x="78" y="8" width="1" height="1"/><rect x="84" y="8" width="1" height="1"/><rect x="90" y="8" width="1" height="1"/><rect x="94" y="8" width="1" height="1"/><rect x="5" y="9" width="3" height="1"/><rect x="12" y="9" width="3" height="1"/><rect x="17" y="9" width="2" height="1"/><rect x="30" y="9" width="2" height="1"/><rect x="43" y="9" width="7" height="1"/><rect x="52" y="9" width="7" height="1"/><rect x="72" y="9" width="4" height="1"/><rect x="78" y="9" width="4" height="1"/><rect x="84" y="9" width="4" height="1"/><rect x="90" y="9" width="4" height="1"/><rect x="5" y="10" width="3" height="1"/><rect x="12" y="10" width="3" height="1"/><rect x="43" y="10" width="3" height="1"/><rect x="47" y="10" width="3" height="1"/><rect x="52" y="10" width="7" height="1"/><rect x="72" y="10" width="1" height="1"/><rect x="76" y="10" width="1" height="1"/><rect x="78" y="10" width="1" height="1"/><rect x="84" y="10" width="1" height="1"/><rect x="90" y="10" width="1" height="1"/><rect x="5" y="11" width="4" height="1"/><rect x="11" y="11" width="4" height="1"/><rect x="43" y="11" width="2" height="1"/><rect x="48" y="11" width="2" height="1"/><rect x="52" y="11" width="2" height="1"/><rect x="56" y="11" width="3" height="1"/><rect x="72" y="11" width="1" height="1"/><rect x="76" y="11" width="1" height="1"/><rect x="78" y="11" width="1" height="1"/><rect x="84" y="11" width="1" height="1"/><rect x="90" y="11" width="1" height="1"/><rect x="5" y="12" width="4" height="1"/><rect x="11" y="12" width="4" height="1"/><rect x="17" y="12" width="2" height="1"/><rect x="21" y="12" width="3" height="1"/><rect x="25" y="12" width="2" height="1"/><rect x="30" y="12" width="2" height="1"/><rect x="43" y="12" width="2" height="1"/><rect x="48" y="12" width="2" height="1"/><rect x="52" y="12" width="2" height="1"/><rect x="56" y="12" width="3" height="1"/><rect x="72" y="12" width="4" height="1"/><rect x="78" y="12" width="5" height="1"/><rect x="84" y="12" width="5" height="1"/><rect x="90" y="12" width="1" height="1"/><rect x="5" y="13" width="4" height="1"/><rect x="11" y="13" width="4" height="1"/><rect x="17" y="13" width="2" height="1"/><rect x="21" y="13" width="7" height="1"/><rect x="30" y="13" width="2" height="1"/><rect x="43" y="13" width="2" height="1"/><rect x="48" y="13" width="2" height="1"/><rect x="52" y="13" width="2" height="1"/><rect x="5" y="14" width="10" height="1"/><rect x="17" y="14" width="2" height="1"/><rect x="21" y="14" width="7" height="1"/><rect x="30" y="14" width="2" height="1"/><rect x="43" y="14" width="7" height="1"/><rect x="52" y="14" width="2" height="1"/><rect x="5" y="15" width="10" height="1"/><rect x="17" y="15" width="2" height="1"/><rect x="21" y="15" width="3" height="1"/><rect x="25" y="15" width="3" height="1"/><rect x="30" y="15" width="2" height="1"/><rect x="43" y="15" width="7" height="1"/><rect x="52" y="15" width="2" height="1"/><rect x="5" y="16" width="2" height="1"/><rect x="8" y="16" width="7" height="1"/><rect x="17" y="16" width="2" height="1"/><rect x="21" y="16" width="3" height="1"/><rect x="25" y="16" width="3" height="1"/><rect x="30" y="16" width="2" height="1"/><rect x="43" y="16" width="6" height="1"/><rect x="52" y="16" width="2" height="1"/><rect x="83" y="16" width="3" height="1"/><rect x="88" y="16" width="1" height="1"/><rect x="92" y="16" width="1" height="1"/><rect x="5" y="17" width="2" height="1"/><rect x="8" y="17" width="3" height="1"/><rect x="12" y="17" width="3" height="1"/><rect x="17" y="17" width="2" height="1"/><rect x="21" y="17" width="3" height="1"/><rect x="25" y="17" width="3" height="1"/><rect x="30" y="17" width="2" height="1"/><rect x="43" y="17" width="2" height="1"/><rect x="52" y="17" width="2" height="1"/><rect x="82" y="17" width="1" height="1"/><rect x="86" y="17" width="1" height="1"/><rect x="88" y="17" width="2" height="1"/><rect x="92" y="17" width="1" height="1"/><rect x="5" y="18" width="2" height="1"/><rect x="9" y="18" width="2" height="1"/><rect x="12" y="18" width="3" height="1"/><rect x="17" y="18" width="2" height="1"/><rect x="21" y="18" width="3" height="1"/><rect x="25" y="18" width="3" height="1"/><rect x="30" y="18" width="2" height="1"/><rect x="43" y="18" width="2" height="1"/><rect x="52" y="18" width="2" height="1"/><rect x="56" y="18" width="3" height="1"/><rect x="82" y="18" width="1" height="1"/><rect x="86" y="18" width="1" height="1"/><rect x="88" y="18" width="1" height="1"/><rect x="90" y="18" width="1" height="1"/><rect x="92" y="18" width="1" height="1"/><rect x="5" y="19" width="2" height="1"/><rect x="9" y="19" width="2" height="1"/><rect x="12" y="19" width="3" height="1"/><rect x="17" y="19" width="2" height="1"/><rect x="21" y="19" width="3" height="1"/><rect x="25" y="19" width="3" height="1"/><rect x="30" y="19" width="2" height="1"/><rect x="43" y="19" width="2" height="1"/><rect x="52" y="19" width="2" height="1"/><rect x="56" y="19" width="3" height="1"/><rect x="82" y="19" width="1" height="1"/><rect x="86" y="19" width="1" height="1"/><rect x="88" y="19" width="1" height="1"/><rect x="91" y="19" width="2" height="1"/><rect x="5" y="20" width="2" height="1"/><rect x="12" y="20" width="3" height="1"/><rect x="17" y="20" width="2" height="1"/><rect x="21" y="20" width="3" height="1"/><rect x="25" y="20" width="3" height="1"/><rect x="30" y="20" width="2" height="1"/><rect x="43" y="20" width="2" height="1"/><rect x="52" y="20" width="7" height="1"/><rect x="82" y="20" width="1" height="1"/><rect x="86" y="20" width="1" height="1"/><rect x="88" y="20" width="1" height="1"/><rect x="92" y="20" width="1" height="1"/><rect x="5" y="21" width="2" height="1"/><rect x="12" y="21" width="3" height="1"/><rect x="17" y="21" width="2" height="1"/><rect x="21" y="21" width="3" height="1"/><rect x="25" y="21" width="3" height="1"/><rect x="30" y="21" width="2" height="1"/><rect x="43" y="21" width="2" height="1"/><rect x="52" y="21" width="7" height="1"/><rect x="82" y="21" width="1" height="1"/><rect x="86" y="21" width="1" height="1"/><rect x="88" y="21" width="1" height="1"/><rect x="92" y="21" width="1" height="1"/><rect x="5" y="22" width="2" height="1"/><rect x="13" y="22" width="2" height="1"/><rect x="17" y="22" width="2" height="1"/><rect x="21" y="22" width="3" height="1"/><rect x="25" y="22" width="3" height="1"/><rect x="30" y="22" width="2" height="1"/><rect x="43" y="22" width="2" height="1"/><rect x="53" y="22" width="5" height="1"/><rect x="83" y="22" width="3" height="1"/><rect x="88" y="22" width="1" height="1"/><rect x="92" y="22" width="1" height="1"/><rect x="3" y="32" width="26" height="1"/><rect x="2" y="33" width="1" height="1"/><rect x="29" y="33" width="1" height="1"/><rect x="2" y="34" width="1" height="1"/><rect x="9" y="34" width="14" height="1"/><rect x="29" y="34" width="1" height="1"/><rect x="40" y="34" width="8" height="1"/><rect x="2" y="35" width="1" height="1"/><rect x="8" y="35" width="1" height="1"/><rect x="23" y="35" width="1" height="1"/><rect x="29" y="35" width="1" height="1"/><rect x="40" y="35" width="8" height="1"/><rect x="2" y="36" width="1" height="1"/><rect x="7" y="36" width="1" height="1"/><rect x="24" y="36" width="1" height="1"/><rect x="29" y="36" width="1" height="1"/><rect x="40" y="36" width="8" height="1"/><rect x="103" y="36" width="1" height="1"/><rect x="108" y="36" width="2" height="1"/><rect x="114" y="36" width="1" height="1"/><rect x="2" y="37" width="1" height="1"/><rect x="7" y="37" width="1" height="1"/><rect x="11" y="37" width="10" height="1"/><rect x="24" y="37" width="1" height="1"/><rect x="29" y="37" width="1" height="1"/><rect x="41" y="37" width="6" height="1"/><rect x="74" y="37" width="1" height="1"/><rect x="101" y="37" width="14" height="1"/><rect x="2" y="38" width="1" height="1"/><rect x="7" y="38" width="1" height="1"/><rect x="10" y="38" width="1" height="1"/><rect x="21" y="38" width="1" height="1"/><rect x="24" y="38" width="1" height="1"/><rect x="29" y="38" width="1" height="1"/><rect x="43" y="38" width="2" height="1"/><rect x="72" y="38" width="6" height="1"/><rect x="83" y="38" width="5" height="1"/><rect x="100" y="38" width="1" height="1"/><rect x="102" y="38" width="1" height="1"/><rect x="107" y="38" width="2" height="1"/><rect x="112" y="38" width="2" height="1"/><rect x="115" y="38" width="1" height="1"/><rect x="2" y="39" width="1" height="1"/><rect x="7" y="39" width="1" height="1"/><rect x="9" y="39" width="1" height="1"/><rect x="22" y="39" width="1" height="1"/><rect x="24" y="39" width="1" height="1"/><rect x="29" y="39" width="1" height="1"/><rect x="50" y="39" width="2" height="1"/><rect x="71" y="39" width="18" height="1"/><rect x="99" y="39" width="1" height="1"/><rect x="102" y="39" width="1" height="1"/><rect x="107" y="39" width="1" height="1"/><rect x="112" y="39" width="1" height="1"/><rect x="116" y="39" width="1" height="1"/><rect x="2" y="40" width="1" height="1"/><rect x="7" y="40" width="1" height="1"/><rect x="9" y="40" width="1" height="1"/><rect x="22" y="40" width="1" height="1"/><rect x="24" y="40" width="1" height="1"/><rect x="29" y="40" width="1" height="1"/><rect x="40" y="40" width="8" height="1"/><rect x="50" y="40" width="3" height="1"/><rect x="71" y="40" width="19" height="1"/><rect x="99" y="40" width="1" height="1"/><rect x="116" y="40" width="1" height="1"/><rect x="2" y="41" width="1" height="1"/><rect x="7" y="41" width="1" height="1"/><rect x="9" y="41" width="1" height="1"/><rect x="22" y="41" width="1" height="1"/><rect x="24" y="41" width="1" height="1"/><rect x="29" y="41" width="1" height="1"/><rect x="39" y="41" width="10" height="1"/><rect x="51" y="41" width="2" height="1"/><rect x="70" y="41" width="4" height="1"/><rect x="76" y="41" width="9" height="1"/><rect x="87" y="41" width="3" height="1"/><rect x="99" y="41" width="1" height="1"/><rect x="102" y="41" width="3" height="1"/><rect x="107" y="41" width="2" height="1"/><rect x="111" y="41" width="3" height="1"/><rect x="116" y="41" width="1" height="1"/><rect x="2" y="42" width="1" height="1"/><rect x="7" y="42" width="1" height="1"/><rect x="9" y="42" width="1" height="1"/><rect x="22" y="42" width="1" height="1"/><rect x="24" y="42" width="1" height="1"/><rect x="29" y="42" width="1" height="1"/><rect x="37" y="42" width="4" height="1"/><rect x="47" y="42" width="4" height="1"/><rect x="70" y="42" width="4" height="1"/><rect x="76" y="42" width="9" height="1"/><rect x="87" y="42" width="3" height="1"/><rect x="99" y="42" width="1" height="1"/><rect x="102" y="42" width="1" height="1"/><rect x="104" y="42" width="1" height="1"/><rect x="106" y="42" width="1" height="1"/><rect x="109" y="42" width="1" height="1"/><rect x="111" y="42" width="1" height="1"/><rect x="113" y="42" width="1" height="1"/><rect x="116" y="42" width="1" height="1"/><rect x="2" y="43" width="1" height="1"/><rect x="7" y="43" width="1" height="1"/><rect x="9" y="43" width="1" height="1"/><rect x="22" y="43" width="1" height="1"/><rect x="24" y="43" width="1" height="1"/><rect x="29" y="43" width="1" height="1"/><rect x="37" y="43" width="3" height="1"/><rect x="43" y="43" width="2" height="1"/><rect x="48" y="43" width="3" height="1"/><rect x="70" y="43" width="2" height="1"/><rect x="78" y="43" width="7" height="1"/><rect x="87" y="43" width="4" height="1"/><rect x="99" y="43" width="1" height="1"/><rect x="102" y="43" width="1" height="1"/><rect x="104" y="43" width="1" height="1"/><rect x="106" y="43" width="4" height="1"/><rect x="111" y="43" width="1" height="1"/><rect x="113" y="43" width="1" height="1"/><rect x="116" y="43" width="1" height="1"/><rect x="2" y="44" width="1" height="1"/><rect x="7" y="44" width="1" height="1"/><rect x="10" y="44" width="1" height="1"/><rect x="21" y="44" width="1" height="1"/><rect x="24" y="44" width="1" height="1"/><rect x="29" y="44" width="1" height="1"/><rect x="36" y="44" width="3" height="1"/><rect x="43" y="44" width="2" height="1"/><rect x="49" y="44" width="3" height="1"/><rect x="69" y="44" width="3" height="1"/><rect x="79" y="44" width="4" height="1"/><rect x="84" y="44" width="7" height="1"/><rect x="99" y="44" width="1" height="1"/><rect x="103" y="44" width="1" height="1"/><rect x="107" y="44" width="2" height="1"/><rect x="112" y="44" width="1" height="1"/><rect x="116" y="44" width="1" height="1"/><rect x="2" y="45" width="1" height="1"/><rect x="7" y="45" width="1" height="1"/><rect x="11" y="45" width="10" height="1"/><rect x="24" y="45" width="1" height="1"/><rect x="29" y="45" width="1" height="1"/><rect x="36" y="45" width="2" height="1"/><rect x="43" y="45" width="2" height="1"/><rect x="50" y="45" width="2" height="1"/><rect x="69" y="45" width="5" height="1"/><rect x="76" y="45" width="6" height="1"/><rect x="85" y="45" width="6" height="1"/><rect x="99" y="45" width="1" height="1"/><rect x="116" y="45" width="1" height="1"/><rect x="2" y="46" width="1" height="1"/><rect x="7" y="46" width="1" height="1"/><rect x="24" y="46" width="1" height="1"/><rect x="29" y="46" width="1" height="1"/><rect x="35" y="46" width="3" height="1"/><rect x="43" y="46" width="2" height="1"/><rect x="50" y="46" width="3" height="1"/><rect x="69" y="46" width="5" height="1"/><rect x="76" y="46" width="7" height="1"/><rect x="84" y="46" width="7" height="1"/><rect x="99" y="46" width="1" height="1"/><rect x="102" y="46" width="1" height="1"/><rect x="104" y="46" width="1" height="1"/><rect x="106" y="46" width="4" height="1"/><rect x="111" y="46" width="1" height="1"/><rect x="113" y="46" width="1" height="1"/><rect x="116" y="46" width="1" height="1"/><rect x="2" y="47" width="1" height="1"/><rect x="7" y="47" width="1" height="1"/><rect x="24" y="47" width="1" height="1"/><rect x="29" y="47" width="1" height="1"/><rect x="35" y="47" width="2" height="1"/><rect x="43" y="47" width="2" height="1"/><rect x="51" y="47" width="2" height="1"/><rect x="69" y="47" width="6" height="1"/><rect x="76" y="47" width="15" height="1"/><rect x="99" y="47" width="1" height="1"/><rect x="102" y="47" width="1" height="1"/><rect x="104" y="47" width="1" height="1"/><rect x="106" y="47" width="1" height="1"/><rect x="109" y="47" width="1" height="1"/><rect x="111" y="47" width="1" height="1"/><rect x="113" y="47" width="1" height="1"/><rect x="116" y="47" width="1" height="1"/><rect x="2" y="48" width="1" height="1"/><rect x="7" y="48" width="1" height="1"/><rect x="11" y="48" width="1" height="1"/><rect x="24" y="48" width="1" height="1"/><rect x="29" y="48" width="1" height="1"/><rect x="35" y="48" width="2" height="1"/><rect x="42" y="48" width="4" height="1"/><rect x="51" y="48" width="2" height="1"/><rect x="69" y="48" width="22" height="1"/><rect x="99" y="48" width="1" height="1"/><rect x="102" y="48" width="3" height="1"/><rect x="107" y="48" width="2" height="1"/><rect x="111" y="48" width="3" height="1"/><rect x="116" y="48" width="1" height="1"/><rect x="2" y="49" width="1" height="1"/><rect x="7" y="49" width="1" height="1"/><rect x="10" y="49" width="3" height="1"/><rect x="19" y="49" width="3" height="1"/><rect x="24" y="49" width="1" height="1"/><rect x="29" y="49" width="1" height="1"/><rect x="35" y="49" width="2" height="1"/><rect x="43" y="49" width="2" height="1"/><rect x="51" y="49" width="2" height="1"/><rect x="69" y="49" width="22" height="1"/><rect x="99" y="49" width="1" height="1"/><rect x="116" y="49" width="1" height="1"/><rect x="2" y="50" width="1" height="1"/><rect x="7" y="50" width="1" height="1"/><rect x="11" y="50" width="1" height="1"/><rect x="24" y="50" width="1" height="1"/><rect x="29" y="50" width="1" height="1"/><rect x="35" y="50" width="2" height="1"/><rect x="51" y="50" width="2" height="1"/><rect x="69" y="50" width="8" height="1"/><rect x="83" y="50" width="8" height="1"/><rect x="99" y="50" width="1" height="1"/><rect x="102" y="50" width="3" height="1"/><rect x="106" y="50" width="4" height="1"/><rect x="111" y="50" width="3" height="1"/><rect x="116" y="50" width="1" height="1"/><rect x="2" y="51" width="1" height="1"/><rect x="7" y="51" width="1" height="1"/><rect x="24" y="51" width="1" height="1"/><rect x="29" y="51" width="1" height="1"/><rect x="35" y="51" width="3" height="1"/><rect x="50" y="51" width="3" height="1"/><rect x="69" y="51" width="8" height="1"/><rect x="84" y="51" width="7" height="1"/><rect x="99" y="51" width="1" height="1"/><rect x="102" y="51" width="1" height="1"/><rect x="104" y="51" width="1" height="1"/><rect x="106" y="51" width="1" height="1"/><rect x="109" y="51" width="1" height="1"/><rect x="111" y="51" width="1" height="1"/><rect x="113" y="51" width="1" height="1"/><rect x="116" y="51" width="1" height="1"/><rect x="2" y="52" width="1" height="1"/><rect x="7" y="52" width="1" height="1"/><rect x="10" y="52" width="3" height="1"/><rect x="21" y="52" width="1" height="1"/><rect x="24" y="52" width="1" height="1"/><rect x="29" y="52" width="1" height="1"/><rect x="36" y="52" width="2" height="1"/><rect x="50" y="52" width="2" height="1"/><rect x="69" y="52" width="7" height="1"/><rect x="84" y="52" width="7" height="1"/><rect x="99" y="52" width="1" height="1"/><rect x="102" y="52" width="3" height="1"/><rect x="106" y="52" width="4" height="1"/><rect x="111" y="52" width="3" height="1"/><rect x="116" y="52" width="1" height="1"/><rect x="2" y="53" width="1" height="1"/><rect x="7" y="53" width="1" height="1"/><rect x="11" y="53" width="1" height="1"/><rect x="20" y="53" width="1" height="1"/><rect x="24" y="53" width="1" height="1"/><rect x="29" y="53" width="1" height="1"/><rect x="36" y="53" width="3" height="1"/><rect x="49" y="53" width="3" height="1"/><rect x="70" y="53" width="5" height="1"/><rect x="85" y="53" width="5" height="1"/><rect x="99" y="53" width="1" height="1"/><rect x="116" y="53" width="1" height="1"/><rect x="2" y="54" width="1" height="1"/><rect x="7" y="54" width="1" height="1"/><rect x="10" y="54" width="3" height="1"/><rect x="19" y="54" width="1" height="1"/><rect x="24" y="54" width="1" height="1"/><rect x="29" y="54" width="1" height="1"/><rect x="37" y="54" width="3" height="1"/><rect x="48" y="54" width="3" height="1"/><rect x="100" y="54" width="1" height="1"/><rect x="115" y="54" width="1" height="1"/><rect x="2" y="55" width="1" height="1"/><rect x="7" y="55" width="1" height="1"/><rect x="24" y="55" width="1" height="1"/><rect x="29" y="55" width="1" height="1"/><rect x="38" y="55" width="5" height="1"/><rect x="45" y="55" width="5" height="1"/><rect x="101" y="55" width="14" height="1"/><rect x="2" y="56" width="1" height="1"/><rect x="8" y="56" width="1" height="1"/><rect x="23" y="56" width="1" height="1"/><rect x="29" y="56" width="1" height="1"/><rect x="39" y="56" width="10" height="1"/><rect x="2" y="57" width="1" height="1"/><rect x="9" y="57" width="14" height="1"/><rect x="29" y="57" width="1" height="1"/><rect x="35" y="57" width="3" height="1"/><rect x="41" y="57" width="6" height="1"/><rect x="53" y="57" width="3" height="1"/><rect x="58" y="57" width="1" height="1"/><rect x="62" y="57" width="1" height="1"/><rect x="64" y="57" width="1" height="1"/><rect x="71" y="57" width="3" height="1"/><rect x="76" y="57" width="5" height="1"/><rect x="83" y="57" width="3" height="1"/><rect x="88" y="57" width="4" height="1"/><rect x="2" y="58" width="1" height="1"/><rect x="29" y="58" width="1" height="1"/><rect x="34" y="58" width="1" height="1"/><rect x="38" y="58" width="1" height="1"/><rect x="40" y="58" width="1" height="1"/><rect x="44" y="58" width="1" height="1"/><rect x="46" y="58" width="1" height="1"/><rect x="52" y="58" width="1" height="1"/><rect x="56" y="58" width="1" height="1"/><rect x="58" y="58" width="1" height="1"/><rect x="62" y="58" width="1" height="1"/><rect x="64" y="58" width="1" height="1"/><rect x="70" y="58" width="1" height="1"/><rect x="74" y="58" width="1" height="1"/><rect x="78" y="58" width="1" height="1"/><rect x="82" y="58" width="1" height="1"/><rect x="86" y="58" width="1" height="1"/><rect x="88" y="58" width="1" height="1"/><rect x="92" y="58" width="1" height="1"/><rect x="3" y="59" width="26" height="1"/><rect x="34" y="59" width="1" height="1"/><rect x="40" y="59" width="1" height="1"/><rect x="44" y="59" width="1" height="1"/><rect x="46" y="59" width="1" height="1"/><rect x="52" y="59" width="1" height="1"/><rect x="58" y="59" width="1" height="1"/><rect x="62" y="59" width="1" height="1"/><rect x="64" y="59" width="1" height="1"/><rect x="70" y="59" width="1" height="1"/><rect x="74" y="59" width="1" height="1"/><rect x="78" y="59" width="1" height="1"/><rect x="82" y="59" width="1" height="1"/><rect x="86" y="59" width="1" height="1"/><rect x="88" y="59" width="1" height="1"/><rect x="92" y="59" width="1" height="1"/><rect x="34" y="60" width="1" height="1"/><rect x="40" y="60" width="5" height="1"/><rect x="46" y="60" width="1" height="1"/><rect x="52" y="60" width="1" height="1"/><rect x="58" y="60" width="1" height="1"/><rect x="62" y="60" width="1" height="1"/><rect x="64" y="60" width="1" height="1"/><rect x="70" y="60" width="5" height="1"/><rect x="78" y="60" width="1" height="1"/><rect x="82" y="60" width="1" height="1"/><rect x="86" y="60" width="1" height="1"/><rect x="88" y="60" width="4" height="1"/><rect x="34" y="61" width="1" height="1"/><rect x="40" y="61" width="1" height="1"/><rect x="44" y="61" width="1" height="1"/><rect x="46" y="61" width="1" height="1"/><rect x="52" y="61" width="1" height="1"/><rect x="58" y="61" width="1" height="1"/><rect x="62" y="61" width="1" height="1"/><rect x="64" y="61" width="1" height="1"/><rect x="70" y="61" width="1" height="1"/><rect x="74" y="61" width="1" height="1"/><rect x="78" y="61" width="1" height="1"/><rect x="82" y="61" width="1" height="1"/><rect x="86" y="61" width="1" height="1"/><rect x="88" y="61" width="1" height="1"/><rect x="90" y="61" width="1" height="1"/><rect x="34" y="62" width="1" height="1"/><rect x="38" y="62" width="1" height="1"/><rect x="40" y="62" width="1" height="1"/><rect x="44" y="62" width="1" height="1"/><rect x="46" y="62" width="1" height="1"/><rect x="52" y="62" width="1" height="1"/><rect x="56" y="62" width="1" height="1"/><rect x="58" y="62" width="1" height="1"/><rect x="62" y="62" width="1" height="1"/><rect x="64" y="62" width="1" height="1"/><rect x="70" y="62" width="1" height="1"/><rect x="74" y="62" width="1" height="1"/><rect x="78" y="62" width="1" height="1"/><rect x="82" y="62" width="1" height="1"/><rect x="86" y="62" width="1" height="1"/><rect x="88" y="62" width="1" height="1"/><rect x="91" y="62" width="1" height="1"/><rect x="35" y="63" width="3" height="1"/><rect x="40" y="63" width="1" height="1"/><rect x="44" y="63" width="1" height="1"/><rect x="46" y="63" width="5" height="1"/><rect x="53" y="63" width="3" height="1"/><rect x="59" y="63" width="3" height="1"/><rect x="64" y="63" width="5" height="1"/><rect x="70" y="63" width="1" height="1"/><rect x="74" y="63" width="1" height="1"/><rect x="78" y="63" width="1" height="1"/><rect x="83" y="63" width="3" height="1"/><rect x="88" y="63" width="1" height="1"/><rect x="92" y="63" width="1" height="1"/></g>
</svg>
