<svg xmlns="http://www.w3.org/2000/svg" viewBox="0 0 128 64" width="128" height="64" shape-rendering="crispEdges">
  <rect width="128" height="64" fill="#020406"/>
  <g fill="#fff"><rect x="1" y="0" width="3" height="1"/><rect x="6" y="0" width="5" height="1"/><rect x="12" y="0" width="1" height="1"/><rect x="16" y="0" width="1" height="1"/><rect x="25" y="0" width="4" height="1"/><rect x="31" y="0" width="3" height="1"/><rect x="36" y="0" width="1" height="1"/><rect x="40" y="0" width="1" height="1"/><rect x="43" y="0" width="3" height="1"/><rect x="48" y="0" width="4" height="1"/><rect x="54" y="0" width="5" height="1"/><rect x="0" y="1" width="1" height="1"/><rect x="4" y="1" width="1" height="1"/><rect x="6" y="1" width="1" height="1"/><rect x="12" y="1" width="2" height="1"/><rect x="16" y="1" width="1" height="1"/><rect x="24" y="1" width="1" height="1"/><rect x="30" y="1" width="1" height="1"/><rect x="34" y="1" width="1" height="1"/><rect x="36" y="1" width="1" height="1"/><rect x="40" y="1" width="1" height="1"/><rect x="42" y="1" width="1" height="1"/><rect x="46" y="1" width="1" height="1"/><rect x="48" y="1" width="1" height="1"/><rect x="52" y="1" width="1" height="1"/><rect x="54" y="1" width="1" height="1"/><rect x="0" y="2" width="1" height="1"/><rect x="6" y="2" width="1" height="1"/><rect x="12" y="2" width="1" height="1"/><rect x="14" y="2" width="1" height="1"/><rect x="16" y="2" width="1" height="1"/><rect x="24" y="2" width="1" height="1"/><rect x="30" y="2" width="1" height="1"/><rect x="34" y="2" width="1" height="1"/><rect x="36" y="2" width="1" height="1"/><rect x="40" y="2" width="1" height="1"/><rect x="42" y="2" width="1" height="1"/><rect x="46" y="2" width="1" height="1"/><rect x="48" y="2" width="1" height="1"/><rect x="52" y="2" width="1" height="1"/><rect x="54" y="2" width="1" height="1"/><rect x="0" y="3" width="1" height="1"/><rect x="2" y="3" width="3" height="1"/><rect x="6" y="3" width="4" height="1"/><rect x="12" y="3" width="1" height="1"/><rect x="15" y="3" width="2" height="1"/><rect x="25" y="3" width="3" height="1"/><rect x="30" y="3" width="1" height="1"/><rect x="34" y="3" width="1" height="1"/><rect x="36" y="3" width="1" height="1"/><rect x="40" y="3" width="1" height="1"/><rect x="42" y="3" width="5" height="1"/><rect x="48" y="3" width="4" height="1"/><rect x="54" y="3" width="4" height="1"/><rect x="0" y="4" width="1" height="1"/><rect x="4" y="4" width="1" height="1"/><rect x="6" y="4" width="1" height="1"/><rect x="12" y="4" width="1" height="1"/><rect x="16" y="4" width="1" height="1"/><rect x="28" y="4" width="1" height="1"/><rect x="30" y="4" width="1" height="1"/><rect x="32" y="4" width="1" height="1"/><rect x="34" y="4" width="1" height="1"/><rect x="36" y="4" width="1" height="1"/><rect x="40" y="4" width="1" height="1"/><rect x="42" y="4" width="1" height="1"/><rect x="46" y="4" width="1" height="1"/><rect x="48" y="4" width="1" height="1"/><rect x="50" y="4" width="1" height="1"/><rect x="54" y="4" width="1" height="1"/><rect x="0" y="5" width="1" height="1"/><rect x="4" y="5" width="1" height="1"/><rect x="6" y="5" width="1" height="1"/><rect x="12" y="5" width="1" height="1"/><rect x="16" y="5" width="1" height="1"/><rect x="28" y="5" width="1" height="1"/><rect x="30" y="5" width="1" height="1"/><rect x="33" y="5" width="1" height="1"/><rect x="36" y="5" width="1" height="1"/><rect x="40" y="5" width="1" height="1"/><rect x="42" y="5" width="1" height="1"/><rect x="46" y="5" width="1" height="1"/><rect x="48" y="5" width="1" height="1"/><rect x="51" y="5" width="1" height="1"/><rect x="54" y="5" width="1" height="1"/><rect x="1" y="6" width="3" height="1"/><rect x="6" y="6" width="5" height="1"/><rect x="12" y="6" width="1" height="1"/><rect x="16" y="6" width="1" height="1"/><rect x="24" y="6" width="4" height="1"/><rect x="31" y="6" width="2" height="1"/><rect x="34" y="6" width="1" height="1"/><rect x="37" y="6" width="3" height="1"/><rect x="42" y="6" width="1" height="1"/><rect x="46" y="6" width="1" height="1"/><rect x="48" y="6" width="1" height="1"/><rect x="52" y="6" width="1" height="1"/><rect x="54" y="6" width="5" height="1"/><rect x="0" y="20" width="128" height="1"/><rect x="9" y="21" width="1" height="1"/><rect x="27" y="21" width="1" height="1"/><rect x="45" y="21" width="1" height="1"/><rect x="63" y="21" width="1" height="1"/><rect x="81" y="21" width="1" height="1"/><rect x="99" y="21" width="1" height="1"/><rect x="117" y="21" width="1" height="1"/><rect x="9" y="22" width="1" height="1"/><rect x="27" y="22" width="1" height="1"/><rect x="45" y="22" width="1" height="1"/><rect x="63" y="22" width="1" height="1"/><rect x="81" y="22" width="1" height="1"/><rect x="99" y="22" width="1" height="1"/><rect x="117" y="22" width="1" height="1"/><rect x="9" y="23" width="1" height="1"/><rect x="27" y="23" width="1" height="1"/><rect x="45" y="23" width="1" height="1"/><rect x="63" y="23" width="1" height="1"/><rect x="81" y="23" width="1" height="1"/><rect x="99" y="23" width="1" height="1"/><rect x="117" y="23" width="1" height="1"/><rect x="9" y="24" width="1" height="1"/><rect x="27" y="24" width="1" height="1"/><rect x="45" y="24" width="1" height="1"/><rect x="63" y="24" width="1" height="1"/><rect x="81" y="24" width="1" height="1"/><rect x="99" y="24" width="1" height="1"/><rect x="117" y="24" width="1" height="1"/><rect x="9" y="25" width="1" height="1"/><rect x="27" y="25" width="1" height="1"/><rect x="45" y="25" width="1" height="1"/><rect x="63" y="25" width="1" height="1"/><rect x="81" y="25" width="1" height="1"/><rect x="99" y="25" width="1" height="1"/><rect x="117" y="25" width="1" height="1"/><rect x="9" y="26" width="1" height="1"/><rect x="27" y="26" width="1" height="1"/><rect x="45" y="26" width="1" height="1"/><rect x="63" y="26" width="1" height="1"/><rect x="81" y="26" width="1" height="1"/><rect x="99" y="26" width="1" height="1"/><rect x="117" y="26" width="1" height="1"/><rect x="9" y="27" width="1" height="1"/><rect x="27" y="27" width="1" height="1"/><rect x="45" y="27" width="1" height="1"/><rect x="63" y="27" width="1" height="1"/><rect x="81" y="27" width="1" height="1"/><rect x="99" y="27" width="1" height="1"/><rect x="117" y="27" width="1" height="1"/><rect x="9" y="28" width="1" height="1"/><rect x="27" y="28" width="1" height="1"/><rect x="45" y="28" width="1" height="1"/><rect x="63" y="28" width="1" height="1"/><rect x="81" y="28" width="1" height="1"/><rect x="99" y="28" width="1" height="1"/><rect x="117" y="28" width="1" height="1"/><rect x="9" y="29" width="1" height="1"/><rect x="27" y="29" width="1" height="1"/><rect x="45" y="29" width="1" height="1"/><rect x="63" y="29" width="1" height="1"/><rect x="81" y="29" width="1" height="1"/><rect x="99" y="29" width="1" height="1"/><rect x="117" y="29" width="1" height="1"/><rect x="9" y="30" width="1" height="1"/><rect x="27" y="30" width="1" height="1"/><rect x="45" y="30" width="1" height="1"/><rect x="63" y="30" width="1" height="1"/><rect x="81" y="30" width="1" height="1"/><rect x="99" y="30" width="1" height="1"/><rect x="117" y="30" width="1" height="1"/><rect x="9" y="31" width="1" height="1"/><rect x="27" y="31" width="1" height="1"/><rect x="45" y="31" width="1" height="1"/><rect x="63" y="31" width="1" height="1"/><rect x="81" y="31" width="1" height="1"/><rect x="99" y="31" width="1" height="1"/><rect x="117" y="31" width="1" height="1"/><rect x="9" y="32" width="1" height="1"/><rect x="27" y="32" width="1" height="1"/><rect x="45" y="32" width="1" height="1"/><rect x="63" y="32" width="1" height="1"/><rect x="81" y="32" width="1" height="1"/><rect x="99" y="32" width="1" height="1"/><rect x="117" y="32" width="1" height="1"/><rect x="9" y="33" width="1" height="1"/><rect x="27" y="33" width="1" height="1"/><rect x="45" y="33" width="1" height="1"/><rect x="63" y="33" width="1" height="1"/><rect x="81" y="33" width="1" height="1"/><rect x="99" y="33" width="1" height="1"/><rect x="117" y="33" width="1" height="1"/><rect x="9" y="34" width="1" height="1"/><rect x="27" y="34" width="1" height="1"/><rect x="45" y="34" width="1" height="1"/><rect x="63" y="34" width="1" height="1"/><rect x="81" y="34" width="1" height="1"/><rect x="99" y="34" width="1" height="1"/><rect x="117" y="34" width="1" height="1"/><rect x="9" y="35" width="1" height="1"/><rect x="27" y="35" width="1" height="1"/><rect x="45" y="35" width="1" height="1"/><rect x="63" y="35" width="1" height="1"/><rect x="81" y="35" width="1" height="1"/><rect x="99" y="35" width="1" height="1"/><rect x="117" y="35" width="1" height="1"/><rect x="9" y="36" width="1" height="1"/><rect x="27" y="36" width="1" height="1"/><rect x="45" y="36" width="1" height="1"/><rect x="63" y="36" width="1" height="1"/><rect x="81" y="36" width="1" height="1"/><rect x="99" y="36" width="1" height="1"/><rect x="117" y="36" width="1" height="1"/><rect x="9" y="37" width="1" height="1"/><rect x="27" y="37" width="1" height="1"/><rect x="45" y="37" width="1" height="1"/><rect x="63" y="37" width="1" height="1"/><rect x="81" y="37" width="1" height="1"/><rect x="99" y="37" width="1" height="1"/><rect x="117" y="37" width="1" height="1"/><rect x="9" y="38" width="1" height="1"/><rect x="27" y="38" width="1" height="1"/><rect x="45" y="38" width="1" height="1"/><rect x="63" y="38" width="1" height="1"/><rect x="81" y="38" width="1" height="1"/><rect x="99" y="38" width="1" height="1"/><rect x="117" y="38" width="1" height="1"/><rect x="9" y="39" width="1" height="1"/><rect x="27" y="39" width="1" height="1"/><rect x="45" y="39" width="1" height="1"/><rect x="63" y="39" width="1" height="1"/><rect x="81" y="39" width="1" height="1"/><rect x="99" y="39" width="1" height="1"/><rect x="117" y="39" width="1" height="1"/><rect x="9" y="40" width="1" height="1"/><rect x="27" y="40" width="1" height="1"/><rect x="45" y="40" width="1" height="1"/><rect x="63" y="40" width="1" height="1"/><rect x="81" y="40" width="1" height="1"/><rect x="99" y="40" width="1" height="1"/><rect x="117" y="40" width="1" height="1"/><rect x="9" y="41" width="1" height="1"/><rect x="27" y="41" width="1" height="1"/><rect x="45" y="41" width="1" height="1"/><rect x="63" y="41" width="1" height="1"/><rect x="81" y="41" width="1" height="1"/><rect x="99" y="41" width="1" height="1"/><rect x="117" y="41" width="1" height="1"/><rect x="9" y="42" width="1" height="1"/><rect x="27" y="42" width="1" height="1"/><rect x="45" y="42" width="1" height="1"/><rect x="63" y="42" width="1" height="1"/><rect x="81" y="42" width="1" height="1"/><rect x="99" y="42" width="1" height="1"/><rect x="117" y="42" width="1" height="1"/><rect x="9" y="43" width="1" height="1"/><rect x="27" y="43" width="1" height="1"/><rect x="45" y="43" width="1" height="1"/><rect x="63" y="43" width="1" height="1"/><rect x="81" y="43" width="1" height="1"/><rect x="99" y="43" width="1" height="1"/><rect x="117" y="43" width="1" height="1"/><rect x="0" y="44" width="128" height="1"/></g>
</svg>
