<svg xmlns="http://www.w3.org/2000/svg" viewBox="0 0 128 64" width="128" height="64" shape-rendering="crispEdges">
  <rect width="128" height="64" fill="#020406"/>
  <g fill="#fff"><rect x="0" y="0" width="2" height="1"/><rect x="8" y="0" width="2" height="1"/><rect x="12" y="0" width="10" height="1"/><rect x="24" y="0" width="10" height="1"/><rect x="36" y="0" width="10" height="1"/><rect x="48" y="0" width="8" height="1"/><rect x="0" y="1" width="2" height="1"/><rect x="8" y="1" width="2" height="1"/><rect x="12" y="1" width="10" height="1"/><rect x="24" y="1" width="10" height="1"/><rect x="36" y="1" width="10" height="1"/><rect x="48" y="1" width="8" height="1"/><rect x="0" y="2" width="4" height="1"/><rect x="6" y="2" width="4" height="1"/><rect x="12" y="2" width="2" height="1"/><rect x="28" y="2" width="2" height="1"/><rect x="36" y="2" width="2" height="1"/><rect x="48" y="2" width="2" height="1"/><rect x="56" y="2" width="2" height="1"/><rect x="0" y="3" width="4" height="1"/><rect x="6" y="3" width="4" height="1"/><rect x="12" y="3" width="2" height="1"/><rect x="28" y="3" width="2" height="1"/><rect x="36" y="3" width="2" height="1"/><rect x="48" y="3" width="2" height="1"/><rect x="56" y="3" width="2" height="1"/><rect x="0" y="4" width="2" height="1"/><rect x="4" y="4" width="2" height="1"/><rect x="8" y="4" width="2" height="1"/><rect x="12" y="4" width="2" height="1"/><rect x="28" y="4" width="2" height="1"/><rect x="36" y="4" width="2" height="1"/><rect x="48" y="4" width="2" height="1"/><rect x="56" y="4" width="2" height="1"/><rect x="0" y="5" width="2" height="1"/><rect x="4" y="5" width="2" height="1"/><rect x="8" y="5" width="2" height="1"/><rect x="12" y="5" width="2" height="1"/><rect x="28" y="5" width="2" height="1"/><rect x="36" y="5" width="2" height="1"/><rect x="48" y="5" width="2" height="1"/><rect x="56" y="5" width="2" height="1"/><rect x="0" y="6" width="2" height="1"/><rect x="4" y="6" width="2" height="1"/><rect x="8" y="6" width="2" height="1"/><rect x="12" y="6" width="8" height="1"/><rect x="28" y="6" width="2" height="1"/><rect x="36" y="6" width="8" height="1"/><rect x="48" y="6" width="8" height="1"/><rect x="0" y="7" width="2" height="1"/><rect x="4" y="7" width="2" height="1"/><rect x="8" y="7" width="2" height="1"/><rect x="12" y="7" width="8" height="1"/><rect x="28" y="7" width="2" height="1"/><rect x="36" y="7" width="8" height="1"/><rect x="48" y="7" width="8" height="1"/><rect x="0" y="8" width="2" height="1"/><rect x="8" y="8" width="2" height="1"/><rect x="12" y="8" width="2" height="1"/><rect x="28" y="8" width="2" height="1"/><rect x="36" y="8" width="2" height="1"/><rect x="48" y="8" width="2" height="1"/><rect x="52" y="8" width="2" height="1"/><rect x="0" y="9" width="2" height="1"/><rect x="8" y="9" width="2" height="1"/><rect x="12" y="9" width="2" height="1"/><rect x="28" y="9" width="2" height="1"/><rect x="36" y="9" width="2" height="1"/><rect x="48" y="9" width="2" height="1"/><rect x="52" y="9" width="2" height="1"/><rect x="0" y="10" width="2" height="1"/><rect x="8" y="10" width="2" height="1"/><rect x="12" y="10" width="2" height="1"/><rect x="28" y="10" width="2" height="1"/><rect x="36" y="10" width="2" height="1"/><rect x="48" y="10" width="2" height="1"/><rect x="54" y="10" width="2" height="1"/><rect x="0" y="11" width="2" height="1"/><rect x="8" y="11" width="2" height="1"/><rect x="12" y="11" width="2" height="1"/><rect x="28" y="11" width="2" height="1"/><rect x="36" y="11" width="2" height="1"/><rect x="48" y="11" width="2" height="1"/><rect x="54" y="11" width="2" height="1"/><rect x="0" y="12" width="2" height="1"/><rect x="8" y="12" width="2" height="1"/><rect x="12" y="12" width="10" height="1"/><rect x="28" y="12" width="2" height="1"/><rect x="36" y="12" width="10" height="1"/><rect x="48" y="12" width="2" height="1"/><rect x="56" y="12" width="2" height="1"/><rect x="0" y="13" width="2" height="1"/><rect x="8" y="13" width="2" height="1"/><rect x="12" y="13" width="10" height="1"/><rect x="28" y="13" width="2" height="1"/><rect x="36" y="13" width="10" height="1"/><rect x="48" y="13" width="2" height="1"/><rect x="56" y="13" width="2" height="1"/><rect x="0" y="18" width="128" height="1"/><rect x="0" y="19" width="1" height="1"/><rect x="127" y="19" width="1" height="1"/><rect x="0" y="20" width="1" height="1"/><rect x="127" y="20" width="1" height="1"/><rect x="0" y="21" width="1" height="1"/><rect x="127" y="21" width="1" height="1"/><rect x="0" y="22" width="1" height="1"/><rect x="4" y="22" width="1" height="1"/><rect x="8" y="22" width="1" height="1"/><rect x="11" y="22" width="3" height="1"/><rect x="16" y="22" width="1" height="1"/><rect x="22" y="22" width="1" height="1"/><rect x="65" y="22" width="3" height="1"/><rect x="77" y="22" width="3" height="1"/><rect x="83" y="22" width="3" height="1"/><rect x="88" y="22" width="1" height="1"/><rect x="92" y="22" width="1" height="1"/><rect x="127" y="22" width="1" height="1"/><rect x="0" y="23" width="1" height="1"/><rect x="4" y="23" width="1" height="1"/><rect x="8" y="23" width="1" height="1"/><rect x="10" y="23" width="1" height="1"/><rect x="14" y="23" width="1" height="1"/><rect x="16" y="23" width="1" height="1"/><rect x="23" y="23" width="1" height="1"/><rect x="64" y="23" width="1" height="1"/><rect x="68" y="23" width="1" height="1"/><rect x="76" y="23" width="1" height="1"/><rect x="80" y="23" width="1" height="1"/><rect x="82" y="23" width="1" height="1"/><rect x="86" y="23" width="1" height="1"/><rect x="88" y="23" width="1" height="1"/><rect x="92" y="23" width="1" height="1"/><rect x="127" y="23" width="1" height="1"/><rect x="0" y="24" width="1" height="1"/><rect x="4" y="24" width="1" height="1"/><rect x="8" y="24" width="1" height="1"/><rect x="10" y="24" width="1" height="1"/><rect x="14" y="24" width="1" height="1"/><rect x="16" y="24" width="1" height="1"/><rect x="24" y="24" width="1" height="1"/><rect x="64" y="24" width="1" height="1"/><rect x="67" y="24" width="2" height="1"/><rect x="76" y="24" width="1" height="1"/><rect x="79" y="24" width="2" height="1"/><rect x="82" y="24" width="1" height="1"/><rect x="85" y="24" width="2" height="1"/><rect x="88" y="24" width="1" height="1"/><rect x="92" y="24" width="1" height="1"/><rect x="127" y="24" width="1" height="1"/><rect x="0" y="25" width="1" height="1"/><rect x="4" y="25" width="1" height="1"/><rect x="8" y="25" width="1" height="1"/><rect x="10" y="25" width="1" height="1"/><rect x="14" y="25" width="1" height="1"/><rect x="16" y="25" width="1" height="1"/><rect x="25" y="25" width="1" height="1"/><rect x="64" y="25" width="1" height="1"/><rect x="66" y="25" width="1" height="1"/><rect x="68" y="25" width="1" height="1"/><rect x="76" y="25" width="1" height="1"/><rect x="78" y="25" width="1" height="1"/><rect x="80" y="25" width="1" height="1"/><rect x="82" y="25" width="1" height="1"/><rect x="84" y="25" width="1" height="1"/><rect x="86" y="25" width="1" height="1"/><rect x="88" y="25" width="1" height="1"/><rect x="92" y="25" width="1" height="1"/><rect x="127" y="25" width="1" height="1"/><rect x="0" y="26" width="1" height="1"/><rect x="4" y="26" width="1" height="1"/><rect x="8" y="26" width="1" height="1"/><rect x="10" y="26" width="1" height="1"/><rect x="14" y="26" width="1" height="1"/><rect x="16" y="26" width="1" height="1"/><rect x="24" y="26" width="1" height="1"/><rect x="64" y="26" width="2" height="1"/><rect x="68" y="26" width="1" height="1"/><rect x="76" y="26" width="2" height="1"/><rect x="80" y="26" width="1" height="1"/><rect x="82" y="26" width="2" height="1"/><rect x="86" y="26" width="1" height="1"/><rect x="88" y="26" width="1" height="1"/><rect x="92" y="26" width="1" height="1"/><rect x="127" y="26" width="1" height="1"/><rect x="0" y="27" width="1" height="1"/><rect x="5" y="27" width="1" height="1"/><rect x="7" y="27" width="1" height="1"/><rect x="10" y="27" width="1" height="1"/><rect x="14" y="27" width="1" height="1"/><rect x="16" y="27" width="1" height="1"/><rect x="23" y="27" width="1" height="1"/><rect x="64" y="27" width="1" height="1"/><rect x="68" y="27" width="1" height="1"/><rect x="71" y="27" width="2" height="1"/><rect x="76" y="27" width="1" height="1"/><rect x="80" y="27" width="1" height="1"/><rect x="82" y="27" width="1" height="1"/><rect x="86" y="27" width="1" height="1"/><rect x="89" y="27" width="1" height="1"/><rect x="91" y="27" width="1" height="1"/><rect x="127" y="27" width="1" height="1"/><rect x="0" y="28" width="1" height="1"/><rect x="6" y="28" width="1" height="1"/><rect x="11" y="28" width="3" height="1"/><rect x="16" y="28" width="5" height="1"/><rect x="22" y="28" width="1" height="1"/><rect x="65" y="28" width="3" height="1"/><rect x="71" y="28" width="2" height="1"/><rect x="77" y="28" width="3" height="1"/><rect x="83" y="28" width="3" height="1"/><rect x="90" y="28" width="1" height="1"/><rect x="127" y="28" width="1" height="1"/><rect x="0" y="29" width="1" height="1"/><rect x="127" y="29" width="1" height="1"/><rect x="0" y="30" width="1" height="1"/><rect x="127" y="30" width="1" height="1"/><rect x="0" y="31" width="1" height="1"/><rect x="127" y="31" width="1" height="1"/><rect x="0" y="32" width="1" height="1"/><rect x="127" y="32" width="1" height="1"/><rect x="0" y="33" width="1" height="1"/><rect x="127" y="33" width="1" height="1"/><rect x="0" y="34" width="128" height="1"/><rect x="0" y="35" width="1" height="1"/><rect x="127" y="35" width="1" height="1"/><rect x="0" y="36" width="1" height="1"/><rect x="127" y="36" width="1" height="1"/><rect x="0" y="37" width="1" height="1"/><rect x="127" y="37" width="1" height="1"/><rect x="0" y="38" width="1" height="1"/><rect x="4" y="38" width="4" height="1"/><rect x="10" y="38" width="5" height="1"/><rect x="17" y="38" width="4" height="1"/><rect x="22" y="38" width="1" height="1"/><rect x="64" y="38" width="1" height="1"/><rect x="72" y="38" width="1" height="1"/><rect x="77" y="38" width="3" height="1"/><rect x="83" y="38" width="3" height="1"/><rect x="88" y="38" width="1" height="1"/><rect x="92" y="38" width="1" height="1"/><rect x="127" y="38" width="1" height="1"/><rect x="0" y="39" width="1" height="1"/><rect x="4" y="39" width="1" height="1"/><rect x="8" y="39" width="1" height="1"/><rect x="10" y="39" width="1" height="1"/><rect x="16" y="39" width="1" height="1"/><rect x="23" y="39" width="1" height="1"/><rect x="65" y="39" width="1" height="1"/><rect x="71" y="39" width="2" height="1"/><rect x="76" y="39" width="1" height="1"/><rect x="80" y="39" width="1" height="1"/><rect x="82" y="39" width="1" height="1"/><rect x="86" y="39" width="1" height="1"/><rect x="88" y="39" width="1" height="1"/><rect x="91" y="39" width="1" height="1"/><rect x="127" y="39" width="1" height="1"/><rect x="0" y="40" width="1" height="1"/><rect x="4" y="40" width="1" height="1"/><rect x="8" y="40" width="1" height="1"/><rect x="10" y="40" width="1" height="1"/><rect x="16" y="40" width="1" height="1"/><rect x="24" y="40" width="1" height="1"/><rect x="66" y="40" width="1" height="1"/><rect x="72" y="40" width="1" height="1"/><rect x="76" y="40" width="1" height="1"/><rect x="79" y="40" width="2" height="1"/><rect x="82" y="40" width="1" height="1"/><rect x="85" y="40" width="2" height="1"/><rect x="88" y="40" width="1" height="1"/><rect x="90" y="40" width="1" height="1"/><rect x="127" y="40" width="1" height="1"/><rect x="0" y="41" width="1" height="1"/><rect x="4" y="41" width="4" height="1"/><rect x="10" y="41" width="4" height="1"/><rect x="17" y="41" width="3" height="1"/><rect x="25" y="41" width="1" height="1"/><rect x="67" y="41" width="1" height="1"/><rect x="72" y="41" width="1" height="1"/><rect x="76" y="41" width="1" height="1"/><rect x="78" y="41" width="1" height="1"/><rect x="80" y="41" width="1" height="1"/><rect x="82" y="41" width="1" height="1"/><rect x="84" y="41" width="1" height="1"/><rect x="86" y="41" width="1" height="1"/><rect x="88" y="41" width="2" height="1"/><rect x="127" y="41" width="1" height="1"/><rect x="0" y="42" width="1" height="1"/><rect x="4" y="42" width="1" height="1"/><rect x="6" y="42" width="1" height="1"/><rect x="10" y="42" width="1" height="1"/><rect x="20" y="42" width="1" height="1"/><rect x="24" y="42" width="1" height="1"/><rect x="66" y="42" width="1" height="1"/><rect x="72" y="42" width="1" height="1"/><rect x="76" y="42" width="2" height="1"/><rect x="80" y="42" width="1" height="1"/><rect x="82" y="42" width="2" height="1"/><rect x="86" y="42" width="1" height="1"/><rect x="88" y="42" width="1" height="1"/><rect x="90" y="42" width="1" height="1"/><rect x="127" y="42" width="1" height="1"/><rect x="0" y="43" width="1" height="1"/><rect x="4" y="43" width="1" height="1"/><rect x="7" y="43" width="1" height="1"/><rect x="10" y="43" width="1" height="1"/><rect x="20" y="43" width="1" height="1"/><rect x="23" y="43" width="1" height="1"/><rect x="65" y="43" width="1" height="1"/><rect x="72" y="43" width="1" height="1"/><rect x="76" y="43" width="1" height="1"/><rect x="80" y="43" width="1" height="1"/><rect x="82" y="43" width="1" height="1"/><rect x="86" y="43" width="1" height="1"/><rect x="88" y="43" width="1" height="1"/><rect x="91" y="43" width="1" height="1"/><rect x="127" y="43" width="1" height="1"/><rect x="0" y="44" width="1" height="1"/><rect x="4" y="44" width="1" height="1"/><rect x="8" y="44" width="1" height="1"/><rect x="10" y="44" width="5" height="1"/><rect x="16" y="44" width="4" height="1"/><rect x="22" y="44" width="1" height="1"/><rect x="64" y="44" width="1" height="1"/><rect x="71" y="44" width="3" height="1"/><rect x="77" y="44" width="3" height="1"/><rect x="83" y="44" width="3" height="1"/><rect x="88" y="44" width="1" height="1"/><rect x="92" y="44" width="1" height="1"/><rect x="127" y="44" width="1" height="1"/><rect x="0" y="45" width="1" height="1"/><rect x="127" y="45" width="1" height="1"/><rect x="0" y="46" width="1" height="1"/><rect x="127" y="46" width="1" height="1"/><rect x="0" y="47" width="1" height="1"/><rect x="127" y="47" width="1" height="1"/><rect x="0" y="48" width="1" height="1"/><rect x="127" y="48" width="1" height="1"/><rect x="0" y="49" width="1" height="1"/><rect x="127" y="49" width="1" height="1"/><rect x="0" y="50" width="128" height="1"/><rect x="0" y="51" width="1" height="1"/><rect x="127" y="51" width="1" height="1"/><rect x="0" y="52" width="1" height="1"/><rect x="127" y="52" width="1" height="1"/><rect x="0" y="53" width="1" height="1"/><rect x="127" y="53" width="1" height="1"/><rect x="0" y="54" width="1" height="1"/><rect x="5" y="54" width="3" height="1"/><rect x="10" y="54" width="1" height="1"/><rect x="14" y="54" width="1" height="1"/><rect x="16" y="54" width="5" height="1"/><rect x="22" y="54" width="1" height="1"/><rect x="64" y="54" width="1" height="1"/><rect x="68" y="54" width="1" height="1"/><rect x="71" y="54" width="3" height="1"/><rect x="127" y="54" width="1" height="1"/><rect x="0" y="55" width="1" height="1"/><rect x="4" y="55" width="1" height="1"/><rect x="8" y="55" width="1" height="1"/><rect x="10" y="55" width="2" height="1"/><rect x="14" y="55" width="1" height="1"/><rect x="18" y="55" width="1" height="1"/><rect x="23" y="55" width="1" height="1"/><rect x="64" y="55" width="2" height="1"/><rect x="68" y="55" width="1" height="1"/><rect x="70" y="55" width="1" height="1"/><rect x="74" y="55" width="1" height="1"/><rect x="127" y="55" width="1" height="1"/><rect x="0" y="56" width="1" height="1"/><rect x="4" y="56" width="1" height="1"/><rect x="10" y="56" width="1" height="1"/><rect x="12" y="56" width="1" height="1"/><rect x="14" y="56" width="1" height="1"/><rect x="18" y="56" width="1" height="1"/><rect x="24" y="56" width="1" height="1"/><rect x="64" y="56" width="1" height="1"/><rect x="66" y="56" width="1" height="1"/><rect x="68" y="56" width="1" height="1"/><rect x="70" y="56" width="1" height="1"/><rect x="74" y="56" width="1" height="1"/><rect x="127" y="56" width="1" height="1"/><rect x="0" y="57" width="1" height="1"/><rect x="4" y="57" width="1" height="1"/><rect x="10" y="57" width="1" height="1"/><rect x="13" y="57" width="2" height="1"/><rect x="18" y="57" width="1" height="1"/><rect x="25" y="57" width="1" height="1"/><rect x="64" y="57" width="1" height="1"/><rect x="67" y="57" width="2" height="1"/><rect x="70" y="57" width="1" height="1"/><rect x="74" y="57" width="1" height="1"/><rect x="127" y="57" width="1" height="1"/><rect x="0" y="58" width="1" height="1"/><rect x="4" y="58" width="1" height="1"/><rect x="10" y="58" width="1" height="1"/><rect x="14" y="58" width="1" height="1"/><rect x="18" y="58" width="1" height="1"/><rect x="24" y="58" width="1" height="1"/><rect x="64" y="58" width="1" height="1"/><rect x="68" y="58" width="1" height="1"/><rect x="70" y="58" width="1" height="1"/><rect x="74" y="58" width="1" height="1"/><rect x="127" y="58" width="1" height="1"/><rect x="0" y="59" width="1" height="1"/><rect x="4" y="59" width="1" height="1"/><rect x="8" y="59" width="1" height="1"/><rect x="10" y="59" width="1" height="1"/><rect x="14" y="59" width="1" height="1"/><rect x="18" y="59" width="1" height="1"/><rect x="23" y="59" width="1" height="1"/><rect x="64" y="59" width="1" height="1"/><rect x="68" y="59" width="1" height="1"/><rect x="70" y="59" width="1" height="1"/><rect x="74" y="59" width="1" height="1"/><rect x="127" y="59" width="1" height="1"/><rect x="0" y="60" width="1" height="1"/><rect x="5" y="60" width="3" height="1"/><rect x="10" y="60" width="1" height="1"/><rect x="14" y="60" width="1" height="1"/><rect x="18" y="60" width="1" height="1"/><rect x="22" y="60" width="1" height="1"/><rect x="64" y="60" width="1" height="1"/><rect x="68" y="60" width="1" height="1"/><rect x="71" y="60" width="3" height="1"/><rect x="127" y="60" width="1" height="1"/><rect x="0" y="61" width="1" height="1"/><rect x="127" y="61" width="1" height="1"/><rect x="0" y="62" width="1" height="1"/><rect x="127" y="62" width="1" height="1"/><rect x="0" y="63" width="128" height="1"/></g>
</svg>
