<svg xmlns="http://www.w3.org/2000/svg" viewBox="0 0 128 64" width="128" height="64" shape-rendering="crispEdges">
  <rect width="128" height="64" fill="#020406"/>
  <g fill="#fff"><rect x="1" y="0" width="3" height="1"/><rect x="7" y="0" width="4" height="1"/><rect x="13" y="0" width="3" height="1"/><rect x="25" y="0" width="3" height="1"/><rect x="30" y="0" width="4" height="1"/><rect x="42" y="0" width="1" height="1"/><rect x="48" y="0" width="5" height="1"/><rect x="54" y="0" width="1" height="1"/><rect x="58" y="0" width="70" height="1"/><rect x="0" y="1" width="1" height="1"/><rect x="4" y="1" width="1" height="1"/><rect x="6" y="1" width="1" height="1"/><rect x="12" y="1" width="1" height="1"/><rect x="16" y="1" width="1" height="1"/><rect x="24" y="1" width="1" height="1"/><rect x="28" y="1" width="1" height="1"/><rect x="34" y="1" width="1" height="1"/><rect x="42" y="1" width="1" height="1"/><rect x="50" y="1" width="1" height="1"/><rect x="54" y="1" width="1" height="1"/><rect x="58" y="1" width="1" height="1"/><rect x="60" y="1" width="1" height="1"/><rect x="64" y="1" width="1" height="1"/><rect x="80" y="1" width="1" height="1"/><rect x="96" y="1" width="1" height="1"/><rect x="112" y="1" width="1" height="1"/><rect x="0" y="2" width="1" height="1"/><rect x="4" y="2" width="1" height="1"/><rect x="6" y="2" width="1" height="1"/><rect x="12" y="2" width="1" height="1"/><rect x="24" y="2" width="1" height="1"/><rect x="28" y="2" width="1" height="1"/><rect x="34" y="2" width="1" height="1"/><rect x="42" y="2" width="1" height="1"/><rect x="50" y="2" width="1" height="1"/><rect x="54" y="2" width="1" height="1"/><rect x="58" y="2" width="1" height="1"/><rect x="60" y="2" width="1" height="1"/><rect x="64" y="2" width="1" height="1"/><rect x="80" y="2" width="1" height="1"/><rect x="96" y="2" width="1" height="1"/><rect x="112" y="2" width="1" height="1"/><rect x="0" y="3" width="1" height="1"/><rect x="4" y="3" width="1" height="1"/><rect x="7" y="3" width="3" height="1"/><rect x="12" y="3" width="1" height="1"/><rect x="24" y="3" width="5" height="1"/><rect x="31" y="3" width="3" height="1"/><rect x="42" y="3" width="1" height="1"/><rect x="50" y="3" width="1" height="1"/><rect x="54" y="3" width="1" height="1"/><rect x="58" y="3" width="1" height="1"/><rect x="60" y="3" width="5" height="1"/><rect x="80" y="3" width="1" height="1"/><rect x="96" y="3" width="1" height="1"/><rect x="112" y="3" width="1" height="1"/><rect x="0" y="4" width="1" height="1"/><rect x="4" y="4" width="1" height="1"/><rect x="10" y="4" width="1" height="1"/><rect x="12" y="4" width="1" height="1"/><rect x="24" y="4" width="1" height="1"/><rect x="28" y="4" width="1" height="1"/><rect x="34" y="4" width="1" height="1"/><rect x="42" y="4" width="1" height="1"/><rect x="50" y="4" width="1" height="1"/><rect x="54" y="4" width="1" height="1"/><rect x="58" y="4" width="1" height="1"/><rect x="60" y="4" width="1" height="1"/><rect x="64" y="4" width="1" height="1"/><rect x="80" y="4" width="1" height="1"/><rect x="96" y="4" width="1" height="1"/><rect x="112" y="4" width="1" height="1"/><rect x="0" y="5" width="1" height="1"/><rect x="4" y="5" width="1" height="1"/><rect x="10" y="5" width="1" height="1"/><rect x="12" y="5" width="1" height="1"/><rect x="16" y="5" width="1" height="1"/><rect x="24" y="5" width="1" height="1"/><rect x="28" y="5" width="1" height="1"/><rect x="34" y="5" width="1" height="1"/><rect x="42" y="5" width="1" height="1"/><rect x="50" y="5" width="1" height="1"/><rect x="55" y="5" width="1" height="1"/><rect x="57" y="5" width="1" height="1"/><rect x="60" y="5" width="1" height="1"/><rect x="64" y="5" width="1" height="1"/><rect x="80" y="5" width="1" height="1"/><rect x="96" y="5" width="1" height="1"/><rect x="112" y="5" width="1" height="1"/><rect x="1" y="6" width="3" height="1"/><rect x="6" y="6" width="4" height="1"/><rect x="13" y="6" width="3" height="1"/><rect x="24" y="6" width="1" height="1"/><rect x="28" y="6" width="1" height="1"/><rect x="30" y="6" width="4" height="1"/><rect x="42" y="6" width="5" height="1"/><rect x="48" y="6" width="5" height="1"/><rect x="56" y="6" width="1" height="1"/><rect x="60" y="6" width="5" height="1"/><rect x="80" y="6" width="1" height="1"/><rect x="96" y="6" width="1" height="1"/><rect x="112" y="6" width="1" height="1"/><rect x="64" y="7" width="1" height="1"/><rect x="80" y="7" width="1" height="1"/><rect x="96" y="7" width="1" height="1"/><rect x="112" y="7" width="1" height="1"/><rect x="0" y="8" width="128" height="1"/><rect x="0" y="9" width="1" height="1"/><rect x="16" y="9" width="1" height="1"/><rect x="32" y="9" width="1" height="1"/><rect x="48" y="9" width="1" height="1"/><rect x="64" y="9" width="1" height="1"/><rect x="80" y="9" width="1" height="1"/><rect x="96" y="9" width="1" height="1"/><rect x="112" y="9" width="1" height="1"/><rect x="0" y="10" width="1" height="1"/><rect x="16" y="10" width="1" height="1"/><rect x="32" y="10" width="1" height="1"/><rect x="48" y="10" width="1" height="1"/><rect x="64" y="10" width="1" height="1"/><rect x="80" y="10" width="1" height="1"/><rect x="96" y="10" width="1" height="1"/><rect x="112" y="10" width="1" height="1"/><rect x="0" y="11" width="1" height="1"/><rect x="16" y="11" width="1" height="1"/><rect x="32" y="11" width="1" height="1"/><rect x="48" y="11" width="1" height="1"/><rect x="64" y="11" width="1" height="1"/><rect x="80" y="11" width="1" height="1"/><rect x="96" y="11" width="1" height="1"/><rect x="112" y="11" width="1" height="1"/><rect x="0" y="12" width="1" height="1"/><rect x="16" y="12" width="1" height="1"/><rect x="32" y="12" width="1" height="1"/><rect x="48" y="12" width="1" height="1"/><rect x="64" y="12" width="1" height="1"/><rect x="80" y="12" width="1" height="1"/><rect x="96" y="12" width="1" height="1"/><rect x="112" y="12" width="1" height="1"/><rect x="0" y="13" width="1" height="1"/><rect x="16" y="13" width="1" height="1"/><rect x="32" y="13" width="1" height="1"/><rect x="48" y="13" width="1" height="1"/><rect x="64" y="13" width="1" height="1"/><rect x="80" y="13" width="1" height="1"/><rect x="96" y="13" width="1" height="1"/><rect x="112" y="13" width="1" height="1"/><rect x="0" y="14" width="1" height="1"/><rect x="16" y="14" width="1" height="1"/><rect x="32" y="14" width="1" height="1"/><rect x="48" y="14" width="1" height="1"/><rect x="64" y="14" width="1" height="1"/><rect x="80" y="14" width="1" height="1"/><rect x="96" y="14" width="1" height="1"/><rect x="112" y="14" width="1" height="1"/><rect x="0" y="15" width="1" height="1"/><rect x="16" y="15" width="1" height="1"/><rect x="32" y="15" width="1" height="1"/><rect x="48" y="15" width="1" height="1"/><rect x="64" y="15" width="1" height="1"/><rect x="80" y="15" width="1" height="1"/><rect x="96" y="15" width="1" height="1"/><rect x="112" y="15" width="1" height="1"/><rect x="0" y="16" width="128" height="1"/><rect x="0" y="17" width="1" height="1"/><rect x="16" y="17" width="1" height="1"/><rect x="32" y="17" width="1" height="1"/><rect x="35" y="17" width="1" height="1"/><rect x="40" y="17" width="2" height="1"/><rect x="48" y="17" width="1" height="1"/><rect x="64" y="17" width="1" height="1"/><rect x="80" y="17" width="1" height="1"/><rect x="85" y="17" width="1" height="1"/><rect x="90" y="17" width="2" height="1"/><rect x="96" y="17" width="1" height="1"/><rect x="112" y="17" width="1" height="1"/><rect x="0" y="18" width="1" height="1"/><rect x="16" y="18" width="1" height="1"/><rect x="32" y="18" width="1" height="1"/><rect x="34" y="18" width="1" height="1"/><rect x="42" y="18" width="1" height="1"/><rect x="48" y="18" width="1" height="1"/><rect x="64" y="18" width="1" height="1"/><rect x="80" y="18" width="1" height="1"/><rect x="84" y="18" width="1" height="1"/><rect x="92" y="18" width="1" height="1"/><rect x="96" y="18" width="1" height="1"/><rect x="112" y="18" width="1" height="1"/><rect x="0" y="19" width="1" height="1"/><rect x="16" y="19" width="1" height="1"/><rect x="32" y="19" width="2" height="1"/><rect x="43" y="19" width="1" height="1"/><rect x="48" y="19" width="1" height="1"/><rect x="64" y="19" width="1" height="1"/><rect x="80" y="19" width="1" height="1"/><rect x="83" y="19" width="1" height="1"/><rect x="93" y="19" width="1" height="1"/><rect x="96" y="19" width="1" height="1"/><rect x="112" y="19" width="1" height="1"/><rect x="0" y="20" width="1" height="1"/><rect x="16" y="20" width="1" height="1"/><rect x="32" y="20" width="1" height="1"/><rect x="44" y="20" width="1" height="1"/><rect x="48" y="20" width="1" height="1"/><rect x="64" y="20" width="1" height="1"/><rect x="80" y="20" width="1" height="1"/><rect x="82" y="20" width="1" height="1"/><rect x="94" y="20" width="1" height="1"/><rect x="96" y="20" width="1" height="1"/><rect x="112" y="20" width="1" height="1"/><rect x="0" y="21" width="1" height="1"/><rect x="16" y="21" width="1" height="1"/><rect x="31" y="21" width="2" height="1"/><rect x="44" y="21" width="1" height="1"/><rect x="48" y="21" width="1" height="1"/><rect x="64" y="21" width="1" height="1"/><rect x="80" y="21" width="1" height="1"/><rect x="82" y="21" width="1" height="1"/><rect x="95" y="21" width="2" height="1"/><rect x="112" y="21" width="1" height="1"/><rect x="0" y="22" width="1" height="1"/><rect x="16" y="22" width="1" height="1"/><rect x="31" y="22" width="2" height="1"/><rect x="45" y="22" width="1" height="1"/><rect x="48" y="22" width="1" height="1"/><rect x="64" y="22" width="1" height="1"/><rect x="80" y="22" width="2" height="1"/><rect x="95" y="22" width="2" height="1"/><rect x="112" y="22" width="1" height="1"/><rect x="0" y="23" width="1" height="1"/><rect x="16" y="23" width="1" height="1"/><rect x="30" y="23" width="1" height="1"/><rect x="32" y="23" width="1" height="1"/><rect x="46" y="23" width="1" height="1"/><rect x="48" y="23" width="1" height="1"/><rect x="64" y="23" width="1" height="1"/><rect x="80" y="23" width="1" height="1"/><rect x="96" y="23" width="1" height="1"/><rect x="112" y="23" width="1" height="1"/><rect x="0" y="24" width="128" height="1"/><rect x="0" y="25" width="1" height="1"/><rect x="16" y="25" width="1" height="1"/><rect x="29" y="25" width="1" height="1"/><rect x="32" y="25" width="1" height="1"/><rect x="47" y="25" width="2" height="1"/><rect x="64" y="25" width="1" height="1"/><rect x="79" y="25" width="2" height="1"/><rect x="96" y="25" width="2" height="1"/><rect x="112" y="25" width="1" height="1"/><rect x="0" y="26" width="1" height="1"/><rect x="16" y="26" width="1" height="1"/><rect x="28" y="26" width="1" height="1"/><rect x="32" y="26" width="1" height="1"/><rect x="47" y="26" width="2" height="1"/><rect x="64" y="26" width="1" height="1"/><rect x="79" y="26" width="2" height="1"/><rect x="96" y="26" width="1" height="1"/><rect x="98" y="26" width="1" height="1"/><rect x="112" y="26" width="1" height="1"/><rect x="0" y="27" width="1" height="1"/><rect x="16" y="27" width="1" height="1"/><rect x="28" y="27" width="1" height="1"/><rect x="32" y="27" width="1" height="1"/><rect x="48" y="27" width="1" height="1"/><rect x="64" y="27" width="1" height="1"/><rect x="78" y="27" width="1" height="1"/><rect x="80" y="27" width="1" height="1"/><rect x="96" y="27" width="1" height="1"/><rect x="98" y="27" width="1" height="1"/><rect x="112" y="27" width="1" height="1"/><rect x="0" y="28" width="1" height="1"/><rect x="16" y="28" width="1" height="1"/><rect x="27" y="28" width="1" height="1"/><rect x="32" y="28" width="1" height="1"/><rect x="48" y="28" width="1" height="1"/><rect x="64" y="28" width="1" height="1"/><rect x="78" y="28" width="1" height="1"/><rect x="80" y="28" width="1" height="1"/><rect x="96" y="28" width="1" height="1"/><rect x="99" y="28" width="1" height="1"/><rect x="112" y="28" width="1" height="1"/><rect x="0" y="29" width="1" height="1"/><rect x="16" y="29" width="1" height="1"/><rect x="27" y="29" width="1" height="1"/><rect x="32" y="29" width="1" height="1"/><rect x="48" y="29" width="2" height="1"/><rect x="64" y="29" width="1" height="1"/><rect x="77" y="29" width="1" height="1"/><rect x="80" y="29" width="1" height="1"/><rect x="96" y="29" width="1" height="1"/><rect x="99" y="29" width="1" height="1"/><rect x="112" y="29" width="1" height="1"/><rect x="127" y="29" width="1" height="1"/><rect x="0" y="30" width="1" height="1"/><rect x="16" y="30" width="1" height="1"/><rect x="26" y="30" width="1" height="1"/><rect x="32" y="30" width="1" height="1"/><rect x="48" y="30" width="1" height="1"/><rect x="50" y="30" width="1" height="1"/><rect x="64" y="30" width="1" height="1"/><rect x="77" y="30" width="1" height="1"/><rect x="80" y="30" width="1" height="1"/><rect x="96" y="30" width="1" height="1"/><rect x="100" y="30" width="1" height="1"/><rect x="112" y="30" width="1" height="1"/><rect x="127" y="30" width="1" height="1"/><rect x="0" y="31" width="1" height="1"/><rect x="16" y="31" width="1" height="1"/><rect x="26" y="31" width="1" height="1"/><rect x="32" y="31" width="1" height="1"/><rect x="48" y="31" width="1" height="1"/><rect x="50" y="31" width="1" height="1"/><rect x="64" y="31" width="1" height="1"/><rect x="76" y="31" width="1" height="1"/><rect x="80" y="31" width="1" height="1"/><rect x="96" y="31" width="1" height="1"/><rect x="100" y="31" width="1" height="1"/><rect x="112" y="31" width="1" height="1"/><rect x="126" y="31" width="1" height="1"/><rect x="0" y="32" width="128" height="1"/><rect x="0" y="33" width="2" height="1"/><rect x="16" y="33" width="1" height="1"/><rect x="25" y="33" width="1" height="1"/><rect x="32" y="33" width="1" height="1"/><rect x="48" y="33" width="1" height="1"/><rect x="51" y="33" width="1" height="1"/><rect x="64" y="33" width="1" height="1"/><rect x="75" y="33" width="1" height="1"/><rect x="80" y="33" width="1" height="1"/><rect x="96" y="33" width="1" height="1"/><rect x="101" y="33" width="1" height="1"/><rect x="112" y="33" width="1" height="1"/><rect x="125" y="33" width="1" height="1"/><rect x="0" y="34" width="2" height="1"/><rect x="16" y="34" width="1" height="1"/><rect x="24" y="34" width="1" height="1"/><rect x="32" y="34" width="1" height="1"/><rect x="48" y="34" width="1" height="1"/><rect x="52" y="34" width="1" height="1"/><rect x="64" y="34" width="1" height="1"/><rect x="75" y="34" width="1" height="1"/><rect x="80" y="34" width="1" height="1"/><rect x="96" y="34" width="1" height="1"/><rect x="102" y="34" width="1" height="1"/><rect x="112" y="34" width="1" height="1"/><rect x="125" y="34" width="1" height="1"/><rect x="0" y="35" width="1" height="1"/><rect x="2" y="35" width="1" height="1"/><rect x="16" y="35" width="1" height="1"/><rect x="24" y="35" width="1" height="1"/><rect x="32" y="35" width="1" height="1"/><rect x="48" y="35" width="1" height="1"/><rect x="52" y="35" width="1" height="1"/><rect x="64" y="35" width="1" height="1"/><rect x="74" y="35" width="1" height="1"/><rect x="80" y="35" width="1" height="1"/><rect x="96" y="35" width="1" height="1"/><rect x="102" y="35" width="1" height="1"/><rect x="112" y="35" width="1" height="1"/><rect x="124" y="35" width="1" height="1"/><rect x="0" y="36" width="1" height="1"/><rect x="2" y="36" width="1" height="1"/><rect x="16" y="36" width="1" height="1"/><rect x="23" y="36" width="1" height="1"/><rect x="32" y="36" width="1" height="1"/><rect x="48" y="36" width="1" height="1"/><rect x="53" y="36" width="1" height="1"/><rect x="64" y="36" width="1" height="1"/><rect x="74" y="36" width="1" height="1"/><rect x="80" y="36" width="1" height="1"/><rect x="96" y="36" width="1" height="1"/><rect x="103" y="36" width="1" height="1"/><rect x="112" y="36" width="1" height="1"/><rect x="124" y="36" width="1" height="1"/><rect x="0" y="37" width="1" height="1"/><rect x="3" y="37" width="1" height="1"/><rect x="16" y="37" width="1" height="1"/><rect x="23" y="37" width="1" height="1"/><rect x="32" y="37" width="1" height="1"/><rect x="48" y="37" width="1" height="1"/><rect x="53" y="37" width="1" height="1"/><rect x="64" y="37" width="1" height="1"/><rect x="73" y="37" width="1" height="1"/><rect x="80" y="37" width="1" height="1"/><rect x="96" y="37" width="1" height="1"/><rect x="103" y="37" width="1" height="1"/><rect x="112" y="37" width="1" height="1"/><rect x="123" y="37" width="1" height="1"/><rect x="0" y="38" width="1" height="1"/><rect x="3" y="38" width="1" height="1"/><rect x="16" y="38" width="1" height="1"/><rect x="22" y="38" width="1" height="1"/><rect x="32" y="38" width="1" height="1"/><rect x="48" y="38" width="1" height="1"/><rect x="54" y="38" width="1" height="1"/><rect x="64" y="38" width="1" height="1"/><rect x="73" y="38" width="1" height="1"/><rect x="80" y="38" width="1" height="1"/><rect x="96" y="38" width="1" height="1"/><rect x="104" y="38" width="1" height="1"/><rect x="112" y="38" width="1" height="1"/><rect x="123" y="38" width="1" height="1"/><rect x="0" y="39" width="1" height="1"/><rect x="4" y="39" width="1" height="1"/><rect x="16" y="39" width="1" height="1"/><rect x="22" y="39" width="1" height="1"/><rect x="32" y="39" width="1" height="1"/><rect x="48" y="39" width="1" height="1"/><rect x="54" y="39" width="1" height="1"/><rect x="64" y="39" width="1" height="1"/><rect x="72" y="39" width="1" height="1"/><rect x="80" y="39" width="1" height="1"/><rect x="96" y="39" width="1" height="1"/><rect x="104" y="39" width="1" height="1"/><rect x="112" y="39" width="1" height="1"/><rect x="122" y="39" width="1" height="1"/><rect x="0" y="40" width="128" height="1"/><rect x="0" y="41" width="1" height="1"/><rect x="5" y="41" width="1" height="1"/><rect x="16" y="41" width="1" height="1"/><rect x="21" y="41" width="1" height="1"/><rect x="32" y="41" width="1" height="1"/><rect x="48" y="41" width="1" height="1"/><rect x="55" y="41" width="1" height="1"/><rect x="64" y="41" width="1" height="1"/><rect x="71" y="41" width="1" height="1"/><rect x="80" y="41" width="1" height="1"/><rect x="96" y="41" width="1" height="1"/><rect x="106" y="41" width="1" height="1"/><rect x="112" y="41" width="1" height="1"/><rect x="121" y="41" width="1" height="1"/><rect x="0" y="42" width="1" height="1"/><rect x="6" y="42" width="1" height="1"/><rect x="16" y="42" width="1" height="1"/><rect x="20" y="42" width="1" height="1"/><rect x="32" y="42" width="1" height="1"/><rect x="48" y="42" width="1" height="1"/><rect x="56" y="42" width="1" height="1"/><rect x="64" y="42" width="1" height="1"/><rect x="70" y="42" width="1" height="1"/><rect x="80" y="42" width="1" height="1"/><rect x="96" y="42" width="1" height="1"/><rect x="106" y="42" width="1" height="1"/><rect x="112" y="42" width="1" height="1"/><rect x="120" y="42" width="1" height="1"/><rect x="0" y="43" width="1" height="1"/><rect x="6" y="43" width="1" height="1"/><rect x="16" y="43" width="1" height="1"/><rect x="19" y="43" width="1" height="1"/><rect x="32" y="43" width="1" height="1"/><rect x="48" y="43" width="1" height="1"/><rect x="56" y="43" width="1" height="1"/><rect x="64" y="43" width="1" height="1"/><rect x="69" y="43" width="1" height="1"/><rect x="80" y="43" width="1" height="1"/><rect x="96" y="43" width="1" height="1"/><rect x="107" y="43" width="1" height="1"/><rect x="112" y="43" width="1" height="1"/><rect x="120" y="43" width="1" height="1"/><rect x="0" y="44" width="1" height="1"/><rect x="7" y="44" width="1" height="1"/><rect x="16" y="44" width="1" height="1"/><rect x="18" y="44" width="1" height="1"/><rect x="32" y="44" width="1" height="1"/><rect x="48" y="44" width="1" height="1"/><rect x="57" y="44" width="1" height="1"/><rect x="64" y="44" width="1" height="1"/><rect x="69" y="44" width="1" height="1"/><rect x="80" y="44" width="1" height="1"/><rect x="96" y="44" width="1" height="1"/><rect x="107" y="44" width="1" height="1"/><rect x="112" y="44" width="1" height="1"/><rect x="119" y="44" width="1" height="1"/><rect x="0" y="45" width="1" height="1"/><rect x="8" y="45" width="1" height="1"/><rect x="16" y="45" width="1" height="1"/><rect x="18" y="45" width="1" height="1"/><rect x="32" y="45" width="1" height="1"/><rect x="48" y="45" width="1" height="1"/><rect x="58" y="45" width="1" height="1"/><rect x="64" y="45" width="1" height="1"/><rect x="68" y="45" width="1" height="1"/><rect x="80" y="45" width="1" height="1"/><rect x="96" y="45" width="1" height="1"/><rect x="108" y="45" width="1" height="1"/><rect x="112" y="45" width="1" height="1"/><rect x="118" y="45" width="1" height="1"/><rect x="0" y="46" width="1" height="1"/><rect x="9" y="46" width="1" height="1"/><rect x="16" y="46" width="2" height="1"/><rect x="32" y="46" width="1" height="1"/><rect x="48" y="46" width="1" height="1"/><rect x="59" y="46" width="1" height="1"/><rect x="64" y="46" width="1" height="1"/><rect x="67" y="46" width="1" height="1"/><rect x="80" y="46" width="1" height="1"/><rect x="96" y="46" width="1" height="1"/><rect x="109" y="46" width="1" height="1"/><rect x="112" y="46" width="1" height="1"/><rect x="117" y="46" width="1" height="1"/><rect x="0" y="47" width="1" height="1"/><rect x="10" y="47" width="1" height="1"/><rect x="15" y="47" width="2" height="1"/><rect x="32" y="47" width="1" height="1"/><rect x="48" y="47" width="1" height="1"/><rect x="60" y="47" width="1" height="1"/><rect x="64" y="47" width="3" height="1"/><rect x="80" y="47" width="1" height="1"/><rect x="96" y="47" width="1" height="1"/><rect x="110" y="47" width="3" height="1"/><rect x="116" y="47" width="1" height="1"/><rect x="0" y="48" width="128" height="1"/><rect x="0" y="49" width="1" height="1"/><rect x="16" y="49" width="1" height="1"/><rect x="32" y="49" width="1" height="1"/><rect x="48" y="49" width="1" height="1"/><rect x="64" y="49" width="1" height="1"/><rect x="80" y="49" width="1" height="1"/><rect x="96" y="49" width="1" height="1"/><rect x="112" y="49" width="1" height="1"/><rect x="0" y="50" width="1" height="1"/><rect x="16" y="50" width="1" height="1"/><rect x="32" y="50" width="1" height="1"/><rect x="48" y="50" width="1" height="1"/><rect x="64" y="50" width="1" height="1"/><rect x="80" y="50" width="1" height="1"/><rect x="96" y="50" width="1" height="1"/><rect x="112" y="50" width="1" height="1"/><rect x="0" y="51" width="1" height="1"/><rect x="16" y="51" width="1" height="1"/><rect x="32" y="51" width="1" height="1"/><rect x="48" y="51" width="1" height="1"/><rect x="64" y="51" width="1" height="1"/><rect x="80" y="51" width="1" height="1"/><rect x="96" y="51" width="1" height="1"/><rect x="112" y="51" width="1" height="1"/><rect x="0" y="52" width="1" height="1"/><rect x="16" y="52" width="1" height="1"/><rect x="32" y="52" width="1" height="1"/><rect x="48" y="52" width="1" height="1"/><rect x="64" y="52" width="1" height="1"/><rect x="80" y="52" width="1" height="1"/><rect x="96" y="52" width="1" height="1"/><rect x="112" y="52" width="1" height="1"/><rect x="0" y="53" width="1" height="1"/><rect x="16" y="53" width="1" height="1"/><rect x="32" y="53" width="1" height="1"/><rect x="48" y="53" width="1" height="1"/><rect x="64" y="53" width="1" height="1"/><rect x="80" y="53" width="1" height="1"/><rect x="96" y="53" width="1" height="1"/><rect x="112" y="53" width="1" height="1"/><rect x="0" y="54" width="1" height="1"/><rect x="16" y="54" width="1" height="1"/><rect x="32" y="54" width="1" height="1"/><rect x="48" y="54" width="1" height="1"/><rect x="64" y="54" width="1" height="1"/><rect x="80" y="54" width="1" height="1"/><rect x="96" y="54" width="1" height="1"/><rect x="112" y="54" width="1" height="1"/><rect x="0" y="55" width="1" height="1"/><rect x="16" y="55" width="1" height="1"/><rect x="32" y="55" width="1" height="1"/><rect x="48" y="55" width="1" height="1"/><rect x="64" y="55" width="1" height="1"/><rect x="80" y="55" width="1" height="1"/><rect x="96" y="55" width="1" height="1"/><rect x="112" y="55" width="1" height="1"/><rect x="0" y="56" width="128" height="1"/><rect x="0" y="57" width="1" height="1"/><rect x="16" y="57" width="1" height="1"/><rect x="32" y="57" width="1" height="1"/><rect x="48" y="57" width="1" height="1"/><rect x="64" y="57" width="1" height="1"/><rect x="80" y="57" width="1" height="1"/><rect x="96" y="57" width="1" height="1"/><rect x="112" y="57" width="1" height="1"/><rect x="0" y="58" width="1" height="1"/><rect x="16" y="58" width="1" height="1"/><rect x="32" y="58" width="1" height="1"/><rect x="48" y="58" width="1" height="1"/><rect x="64" y="58" width="1" height="1"/><rect x="80" y="58" width="1" height="1"/><rect x="96" y="58" width="1" height="1"/><rect x="112" y="58" width="1" height="1"/><rect x="0" y="59" width="1" height="1"/><rect x="16" y="59" width="1" height="1"/><rect x="32" y="59" width="1" height="1"/><rect x="48" y="59" width="1" height="1"/><rect x="64" y="59" width="1" height="1"/><rect x="80" y="59" width="1" height="1"/><rect x="96" y="59" width="1" height="1"/><rect x="112" y="59" width="1" height="1"/><rect x="0" y="60" width="1" height="1"/><rect x="16" y="60" width="1" height="1"/><rect x="32" y="60" width="1" height="1"/><rect x="48" y="60" width="1" height="1"/><rect x="64" y="60" width="1" height="1"/><rect x="80" y="60" width="1" height="1"/><rect x="96" y="60" width="1" height="1"/><rect x="112" y="60" width="1" height="1"/><rect x="0" y="61" width="1" height="1"/><rect x="16" y="61" width="1" height="1"/><rect x="32" y="61" width="1" height="1"/><rect x="48" y="61" width="1" height="1"/><rect x="64" y="61" width="1" height="1"/><rect x="80" y="61" width="1" height="1"/><rect x="96" y="61" width="1" height="1"/><rect x="112" y="61" width="1" height="1"/><rect x="0" y="62" width="1" height="1"/><rect x="16" y="62" width="1" height="1"/><rect x="32" y="62" width="1" height="1"/><rect x="48" y="62" width="1" height="1"/><rect x="64" y="62" width="1" height="1"/><rect x="80" y="62" width="1" height="1"/><rect x="96" y="62" width="1" height="1"/><rect x="112" y="62" width="1" height="1"/><rect x="0" y="63" width="1" height="1"/><rect x="16" y="63" width="1" height="1"/><rect x="32" y="63" width="1" height="1"/><rect x="48" y="63" width="1" height="1"/><rect x="64" y="63" width="1" height="1"/><rect x="80" y="63" width="1" height="1"/><rect x="96" y="63" width="1" height="1"/><rect x="112" y="63" width="1" height="1"/></g>
</svg>
