<svg xmlns="http://www.w3.org/2000/svg" viewBox="0 0 128 64" width="128" height="64" shape-rendering="crispEdges">
  <rect width="128" height="64" fill="#020406"/>
  <g fill="#fff"><rect x="2" y="5" width="1" height="1"/><rect x="6" y="5" width="1" height="1"/><rect x="44" y="5" width="4" height="1"/><rect x="85" y="5" width="5" height="1"/><rect x="2" y="6" width="1" height="1"/><rect x="6" y="6" width="1" height="1"/><rect x="10" y="6" width="25" height="1"/><rect x="43" y="6" width="1" height="1"/><rect x="51" y="6" width="25" height="1"/><rect x="85" y="6" width="1" height="1"/><rect x="93" y="6" width="25" height="1"/><rect x="2" y="7" width="1" height="1"/><rect x="6" y="7" width="1" height="1"/><rect x="9" y="7" width="25" height="1"/><rect x="35" y="7" width="1" height="1"/><rect x="43" y="7" width="1" height="1"/><rect x="50" y="7" width="23" height="1"/><rect x="76" y="7" width="1" height="1"/><rect x="85" y="7" width="1" height="1"/><rect x="92" y="7" width="27" height="1"/><rect x="2" y="8" width="5" height="1"/><rect x="9" y="8" width="25" height="1"/><rect x="35" y="8" width="1" height="1"/><rect x="44" y="8" width="3" height="1"/><rect x="50" y="8" width="23" height="1"/><rect x="76" y="8" width="1" height="1"/><rect x="85" y="8" width="4" height="1"/><rect x="92" y="8" width="27" height="1"/><rect x="2" y="9" width="1" height="1"/><rect x="6" y="9" width="1" height="1"/><rect x="9" y="9" width="25" height="1"/><rect x="35" y="9" width="1" height="1"/><rect x="47" y="9" width="1" height="1"/><rect x="50" y="9" width="23" height="1"/><rect x="76" y="9" width="1" height="1"/><rect x="85" y="9" width="1" height="1"/><rect x="92" y="9" width="27" height="1"/><rect x="2" y="10" width="1" height="1"/><rect x="6" y="10" width="1" height="1"/><rect x="9" y="10" width="25" height="1"/><rect x="35" y="10" width="1" height="1"/><rect x="47" y="10" width="1" height="1"/><rect x="50" y="10" width="23" height="1"/><rect x="76" y="10" width="1" height="1"/><rect x="85" y="10" width="1" height="1"/><rect x="92" y="10" width="27" height="1"/><rect x="2" y="11" width="1" height="1"/><rect x="6" y="11" width="1" height="1"/><rect x="10" y="11" width="25" height="1"/><rect x="43" y="11" width="4" height="1"/><rect x="51" y="11" width="25" height="1"/><rect x="85" y="11" width="1" height="1"/><rect x="93" y="11" width="25" height="1"/><rect x="1" y="16" width="48" height="1"/><rect x="0" y="17" width="1" height="1"/><rect x="49" y="17" width="1" height="1"/><rect x="0" y="18" width="1" height="1"/><rect x="49" y="18" width="1" height="1"/><rect x="0" y="19" width="1" height="1"/><rect x="49" y="19" width="1" height="1"/><rect x="0" y="20" width="1" height="1"/><rect x="49" y="20" width="1" height="1"/><rect x="0" y="21" width="1" height="1"/><rect x="49" y="21" width="1" height="1"/><rect x="57" y="21" width="4" height="1"/><rect x="76" y="21" width="4" height="1"/><rect x="81" y="21" width="1" height="1"/><rect x="87" y="21" width="5" height="1"/><rect x="93" y="21" width="5" height="1"/><rect x="99" y="21" width="4" height="1"/><rect x="0" y="22" width="1" height="1"/><rect x="34" y="22" width="1" height="1"/><rect x="49" y="22" width="1" height="1"/><rect x="60" y="22" width="1" height="1"/><rect x="75" y="22" width="1" height="1"/><rect x="81" y="22" width="1" height="1"/><rect x="87" y="22" width="1" height="1"/><rect x="93" y="22" width="1" height="1"/><rect x="99" y="22" width="1" height="1"/><rect x="103" y="22" width="1" height="1"/><rect x="0" y="23" width="1" height="1"/><rect x="33" y="23" width="3" height="1"/><rect x="49" y="23" width="1" height="1"/><rect x="59" y="23" width="1" height="1"/><rect x="75" y="23" width="1" height="1"/><rect x="81" y="23" width="1" height="1"/><rect x="87" y="23" width="1" height="1"/><rect x="93" y="23" width="1" height="1"/><rect x="99" y="23" width="1" height="1"/><rect x="103" y="23" width="1" height="1"/><rect x="0" y="24" width="1" height="1"/><rect x="11" y="24" width="3" height="1"/><rect x="32" y="24" width="2" height="1"/><rect x="35" y="24" width="1" height="1"/><rect x="39" y="24" width="2" height="1"/><rect x="49" y="24" width="1" height="1"/><rect x="58" y="24" width="1" height="1"/><rect x="61" y="24" width="4" height="1"/><rect x="76" y="24" width="3" height="1"/><rect x="81" y="24" width="1" height="1"/><rect x="87" y="24" width="4" height="1"/><rect x="93" y="24" width="4" height="1"/><rect x="99" y="24" width="4" height="1"/><rect x="0" y="25" width="1" height="1"/><rect x="10" y="25" width="1" height="1"/><rect x="14" y="25" width="1" height="1"/><rect x="28" y="25" width="5" height="1"/><rect x="35" y="25" width="1" height="1"/><rect x="38" y="25" width="3" height="1"/><rect x="49" y="25" width="1" height="1"/><rect x="57" y="25" width="1" height="1"/><rect x="64" y="25" width="1" height="1"/><rect x="79" y="25" width="1" height="1"/><rect x="81" y="25" width="1" height="1"/><rect x="87" y="25" width="1" height="1"/><rect x="93" y="25" width="1" height="1"/><rect x="99" y="25" width="1" height="1"/><rect x="0" y="26" width="1" height="1"/><rect x="11" y="26" width="1" height="1"/><rect x="15" y="26" width="14" height="1"/><rect x="35" y="26" width="3" height="1"/><rect x="40" y="26" width="1" height="1"/><rect x="49" y="26" width="1" height="1"/><rect x="57" y="26" width="4" height="1"/><rect x="63" y="26" width="1" height="1"/><rect x="79" y="26" width="1" height="1"/><rect x="81" y="26" width="1" height="1"/><rect x="87" y="26" width="1" height="1"/><rect x="93" y="26" width="1" height="1"/><rect x="99" y="26" width="1" height="1"/><rect x="0" y="27" width="1" height="1"/><rect x="12" y="27" width="1" height="1"/><rect x="40" y="27" width="1" height="1"/><rect x="49" y="27" width="1" height="1"/><rect x="62" y="27" width="1" height="1"/><rect x="75" y="27" width="4" height="1"/><rect x="81" y="27" width="5" height="1"/><rect x="87" y="27" width="5" height="1"/><rect x="93" y="27" width="5" height="1"/><rect x="99" y="27" width="1" height="1"/><rect x="0" y="28" width="1" height="1"/><rect x="11" y="28" width="1" height="1"/><rect x="40" y="28" width="1" height="1"/><rect x="49" y="28" width="1" height="1"/><rect x="61" y="28" width="1" height="1"/><rect x="0" y="29" width="1" height="1"/><rect x="10" y="29" width="1" height="1"/><rect x="39" y="29" width="1" height="1"/><rect x="49" y="29" width="1" height="1"/><rect x="61" y="29" width="4" height="1"/><rect x="0" y="30" width="1" height="1"/><rect x="11" y="30" width="3" height="1"/><rect x="24" y="30" width="2" height="1"/><rect x="38" y="30" width="2" height="1"/><rect x="41" y="30" width="1" height="1"/><rect x="49" y="30" width="1" height="1"/><rect x="0" y="31" width="1" height="1"/><rect x="13" y="31" width="1" height="1"/><rect x="24" y="31" width="2" height="1"/><rect x="40" y="31" width="2" height="1"/><rect x="49" y="31" width="1" height="1"/><rect x="0" y="32" width="1" height="1"/><rect x="13" y="32" width="1" height="1"/><rect x="23" y="32" width="3" height="1"/><rect x="40" y="32" width="1" height="1"/><rect x="49" y="32" width="1" height="1"/><rect x="0" y="33" width="1" height="1"/><rect x="13" y="33" width="1" height="1"/><rect x="21" y="33" width="7" height="1"/><rect x="39" y="33" width="1" height="1"/><rect x="49" y="33" width="1" height="1"/><rect x="57" y="33" width="68" height="1"/><rect x="0" y="34" width="1" height="1"/><rect x="13" y="34" width="1" height="1"/><rect x="21" y="34" width="8" height="1"/><rect x="39" y="34" width="1" height="1"/><rect x="49" y="34" width="1" height="1"/><rect x="56" y="34" width="1" height="1"/><rect x="125" y="34" width="1" height="1"/><rect x="0" y="35" width="1" height="1"/><rect x="13" y="35" width="1" height="1"/><rect x="17" y="35" width="16" height="1"/><rect x="38" y="35" width="1" height="1"/><rect x="49" y="35" width="1" height="1"/><rect x="56" y="35" width="1" height="1"/><rect x="125" y="35" width="1" height="1"/><rect x="0" y="36" width="1" height="1"/><rect x="13" y="36" width="1" height="1"/><rect x="17" y="36" width="17" height="1"/><rect x="36" y="36" width="2" height="1"/><rect x="49" y="36" width="1" height="1"/><rect x="56" y="36" width="1" height="1"/><rect x="125" y="36" width="1" height="1"/><rect x="0" y="37" width="1" height="1"/><rect x="10" y="37" width="4" height="1"/><rect x="17" y="37" width="7" height="1"/><rect x="26" y="37" width="3" height="1"/><rect x="31" y="37" width="4" height="1"/><rect x="49" y="37" width="1" height="1"/><rect x="56" y="37" width="3" height="1"/><rect x="63" y="37" width="3" height="1"/><rect x="75" y="37" width="4" height="1"/><rect x="81" y="37" width="4" height="1"/><rect x="87" y="37" width="5" height="1"/><rect x="94" y="37" width="4" height="1"/><rect x="100" y="37" width="4" height="1"/><rect x="125" y="37" width="1" height="1"/><rect x="0" y="38" width="1" height="1"/><rect x="10" y="38" width="1" height="1"/><rect x="13" y="38" width="1" height="1"/><rect x="17" y="38" width="6" height="1"/><rect x="24" y="38" width="2" height="1"/><rect x="27" y="38" width="1" height="1"/><rect x="29" y="38" width="2" height="1"/><rect x="32" y="38" width="3" height="1"/><rect x="49" y="38" width="1" height="1"/><rect x="56" y="38" width="1" height="1"/><rect x="59" y="38" width="4" height="1"/><rect x="65" y="38" width="1" height="1"/><rect x="75" y="38" width="1" height="1"/><rect x="79" y="38" width="1" height="1"/><rect x="81" y="38" width="1" height="1"/><rect x="85" y="38" width="1" height="1"/><rect x="87" y="38" width="1" height="1"/><rect x="93" y="38" width="1" height="1"/><rect x="99" y="38" width="1" height="1"/><rect x="125" y="38" width="1" height="1"/><rect x="0" y="39" width="1" height="1"/><rect x="10" y="39" width="2" height="1"/><rect x="13" y="39" width="1" height="1"/><rect x="17" y="39" width="18" height="1"/><rect x="49" y="39" width="1" height="1"/><rect x="56" y="39" width="1" height="1"/><rect x="65" y="39" width="1" height="1"/><rect x="75" y="39" width="1" height="1"/><rect x="79" y="39" width="1" height="1"/><rect x="81" y="39" width="1" height="1"/><rect x="85" y="39" width="1" height="1"/><rect x="87" y="39" width="1" height="1"/><rect x="93" y="39" width="1" height="1"/><rect x="99" y="39" width="1" height="1"/><rect x="125" y="39" width="1" height="1"/><rect x="0" y="40" width="1" height="1"/><rect x="10" y="40" width="4" height="1"/><rect x="17" y="40" width="18" height="1"/><rect x="49" y="40" width="1" height="1"/><rect x="56" y="40" width="2" height="1"/><rect x="64" y="40" width="2" height="1"/><rect x="75" y="40" width="1" height="1"/><rect x="79" y="40" width="1" height="1"/><rect x="81" y="40" width="4" height="1"/><rect x="87" y="40" width="4" height="1"/><rect x="94" y="40" width="3" height="1"/><rect x="100" y="40" width="3" height="1"/><rect x="125" y="40" width="1" height="1"/><rect x="0" y="41" width="1" height="1"/><rect x="13" y="41" width="22" height="1"/><rect x="49" y="41" width="1" height="1"/><rect x="56" y="41" width="1" height="1"/><rect x="58" y="41" width="1" height="1"/><rect x="63" y="41" width="1" height="1"/><rect x="75" y="41" width="1" height="1"/><rect x="79" y="41" width="1" height="1"/><rect x="81" y="41" width="1" height="1"/><rect x="83" y="41" width="1" height="1"/><rect x="87" y="41" width="1" height="1"/><rect x="97" y="41" width="1" height="1"/><rect x="103" y="41" width="1" height="1"/><rect x="125" y="41" width="1" height="1"/><rect x="0" y="42" width="1" height="1"/><rect x="13" y="42" width="12" height="1"/><rect x="26" y="42" width="3" height="1"/><rect x="30" y="42" width="5" height="1"/><rect x="49" y="42" width="1" height="1"/><rect x="56" y="42" width="1" height="1"/><rect x="58" y="42" width="1" height="1"/><rect x="63" y="42" width="1" height="1"/><rect x="75" y="42" width="1" height="1"/><rect x="79" y="42" width="1" height="1"/><rect x="81" y="42" width="1" height="1"/><rect x="84" y="42" width="1" height="1"/><rect x="87" y="42" width="1" height="1"/><rect x="97" y="42" width="1" height="1"/><rect x="103" y="42" width="1" height="1"/><rect x="125" y="42" width="1" height="1"/><rect x="0" y="43" width="1" height="1"/><rect x="14" y="43" width="12" height="1"/><rect x="29" y="43" width="5" height="1"/><rect x="49" y="43" width="1" height="1"/><rect x="56" y="43" width="1" height="1"/><rect x="58" y="43" width="1" height="1"/><rect x="63" y="43" width="1" height="1"/><rect x="75" y="43" width="4" height="1"/><rect x="81" y="43" width="1" height="1"/><rect x="85" y="43" width="1" height="1"/><rect x="87" y="43" width="5" height="1"/><rect x="93" y="43" width="4" height="1"/><rect x="99" y="43" width="4" height="1"/><rect x="125" y="43" width="1" height="1"/><rect x="0" y="44" width="1" height="1"/><rect x="14" y="44" width="20" height="1"/><rect x="49" y="44" width="1" height="1"/><rect x="56" y="44" width="1" height="1"/><rect x="58" y="44" width="6" height="1"/><rect x="125" y="44" width="1" height="1"/><rect x="0" y="45" width="1" height="1"/><rect x="14" y="45" width="20" height="1"/><rect x="49" y="45" width="1" height="1"/><rect x="56" y="45" width="1" height="1"/><rect x="125" y="45" width="1" height="1"/><rect x="0" y="46" width="1" height="1"/><rect x="16" y="46" width="17" height="1"/><rect x="49" y="46" width="1" height="1"/><rect x="56" y="46" width="1" height="1"/><rect x="125" y="46" width="1" height="1"/><rect x="0" y="47" width="1" height="1"/><rect x="18" y="47" width="12" height="1"/><rect x="49" y="47" width="1" height="1"/><rect x="56" y="47" width="1" height="1"/><rect x="125" y="47" width="1" height="1"/><rect x="0" y="48" width="1" height="1"/><rect x="49" y="48" width="1" height="1"/><rect x="57" y="48" width="68" height="1"/><rect x="0" y="49" width="1" height="1"/><rect x="14" y="49" width="3" height="1"/><rect x="18" y="49" width="14" height="1"/><rect x="33" y="49" width="2" height="1"/><rect x="49" y="49" width="1" height="1"/><rect x="0" y="50" width="1" height="1"/><rect x="13" y="50" width="4" height="1"/><rect x="18" y="50" width="15" height="1"/><rect x="34" y="50" width="2" height="1"/><rect x="49" y="50" width="1" height="1"/><rect x="0" y="51" width="1" height="1"/><rect x="12" y="51" width="4" height="1"/><rect x="17" y="51" width="16" height="1"/><rect x="34" y="51" width="3" height="1"/><rect x="49" y="51" width="1" height="1"/><rect x="0" y="52" width="1" height="1"/><rect x="11" y="52" width="4" height="1"/><rect x="16" y="52" width="18" height="1"/><rect x="35" y="52" width="3" height="1"/><rect x="49" y="52" width="1" height="1"/><rect x="63" y="52" width="2" height="1"/><rect x="0" y="53" width="1" height="1"/><rect x="11" y="53" width="3" height="1"/><rect x="15" y="53" width="20" height="1"/><rect x="36" y="53" width="3" height="1"/><rect x="49" y="53" width="1" height="1"/><rect x="60" y="53" width="2" height="1"/><rect x="63" y="53" width="3" height="1"/><rect x="75" y="53" width="5" height="1"/><rect x="82" y="53" width="3" height="1"/><rect x="87" y="53" width="5" height="1"/><rect x="0" y="54" width="1" height="1"/><rect x="11" y="54" width="3" height="1"/><rect x="15" y="54" width="20" height="1"/><rect x="36" y="54" width="3" height="1"/><rect x="49" y="54" width="1" height="1"/><rect x="59" y="54" width="1" height="1"/><rect x="62" y="54" width="4" height="1"/><rect x="75" y="54" width="1" height="1"/><rect x="81" y="54" width="1" height="1"/><rect x="85" y="54" width="1" height="1"/><rect x="89" y="54" width="1" height="1"/><rect x="0" y="55" width="1" height="1"/><rect x="15" y="55" width="20" height="1"/><rect x="49" y="55" width="1" height="1"/><rect x="58" y="55" width="1" height="1"/><rect x="63" y="55" width="1" height="1"/><rect x="75" y="55" width="1" height="1"/><rect x="81" y="55" width="1" height="1"/><rect x="85" y="55" width="1" height="1"/><rect x="89" y="55" width="1" height="1"/><rect x="0" y="56" width="1" height="1"/><rect x="11" y="56" width="3" height="1"/><rect x="36" y="56" width="3" height="1"/><rect x="49" y="56" width="1" height="1"/><rect x="57" y="56" width="1" height="1"/><rect x="64" y="56" width="1" height="1"/><rect x="75" y="56" width="4" height="1"/><rect x="81" y="56" width="5" height="1"/><rect x="89" y="56" width="1" height="1"/><rect x="0" y="57" width="1" height="1"/><rect x="11" y="57" width="3" height="1"/><rect x="16" y="57" width="18" height="1"/><rect x="36" y="57" width="3" height="1"/><rect x="49" y="57" width="1" height="1"/><rect x="57" y="57" width="1" height="1"/><rect x="64" y="57" width="1" height="1"/><rect x="75" y="57" width="1" height="1"/><rect x="81" y="57" width="1" height="1"/><rect x="85" y="57" width="1" height="1"/><rect x="89" y="57" width="1" height="1"/><rect x="0" y="58" width="1" height="1"/><rect x="11" y="58" width="2" height="1"/><rect x="17" y="58" width="15" height="1"/><rect x="37" y="58" width="2" height="1"/><rect x="49" y="58" width="1" height="1"/><rect x="58" y="58" width="1" height="1"/><rect x="63" y="58" width="1" height="1"/><rect x="75" y="58" width="1" height="1"/><rect x="81" y="58" width="1" height="1"/><rect x="85" y="58" width="1" height="1"/><rect x="89" y="58" width="1" height="1"/><rect x="0" y="59" width="1" height="1"/><rect x="18" y="59" width="3" height="1"/><rect x="28" y="59" width="3" height="1"/><rect x="49" y="59" width="1" height="1"/><rect x="56" y="59" width="4" height="1"/><rect x="62" y="59" width="1" height="1"/><rect x="75" y="59" width="5" height="1"/><rect x="81" y="59" width="1" height="1"/><rect x="85" y="59" width="1" height="1"/><rect x="89" y="59" width="1" height="1"/><rect x="0" y="60" width="1" height="1"/><rect x="49" y="60" width="1" height="1"/><rect x="56" y="60" width="3" height="1"/><rect x="60" y="60" width="2" height="1"/><rect x="0" y="61" width="1" height="1"/><rect x="19" y="61" width="2" height="1"/><rect x="28" y="61" width="2" height="1"/><rect x="49" y="61" width="1" height="1"/><rect x="57" y="61" width="2" height="1"/><rect x="0" y="62" width="1" height="1"/><rect x="18" y="62" width="3" height="1"/><rect x="28" y="62" width="3" height="1"/><rect x="49" y="62" width="1" height="1"/><rect x="1" y="63" width="48" height="1"/></g>
</svg>
