<svg xmlns="http://www.w3.org/2000/svg" viewBox="0 0 128 64" width="128" height="64" shape-rendering="crispEdges">
  <rect width="128" height="64" fill="#020406"/>
  <g fill="#fff"><rect x="1" y="0" width="3" height="1"/><rect x="6" y="0" width="1" height="1"/><rect x="12" y="0" width="5" height="1"/><rect x="19" y="0" width="3" height="1"/><rect x="25" y="0" width="3" height="1"/><rect x="30" y="0" width="5" height="1"/><rect x="37" y="0" width="3" height="1"/><rect x="42" y="0" width="1" height="1"/><rect x="46" y="0" width="1" height="1"/><rect x="48" y="0" width="5" height="1"/><rect x="0" y="1" width="1" height="1"/><rect x="4" y="1" width="1" height="1"/><rect x="6" y="1" width="1" height="1"/><rect x="12" y="1" width="1" height="1"/><rect x="18" y="1" width="1" height="1"/><rect x="22" y="1" width="1" height="1"/><rect x="24" y="1" width="1" height="1"/><rect x="28" y="1" width="1" height="1"/><rect x="32" y="1" width="1" height="1"/><rect x="36" y="1" width="1" height="1"/><rect x="40" y="1" width="1" height="1"/><rect x="42" y="1" width="1" height="1"/><rect x="46" y="1" width="1" height="1"/><rect x="50" y="1" width="1" height="1"/><rect x="0" y="2" width="1" height="1"/><rect x="4" y="2" width="1" height="1"/><rect x="6" y="2" width="1" height="1"/><rect x="12" y="2" width="1" height="1"/><rect x="18" y="2" width="1" height="1"/><rect x="24" y="2" width="1" height="1"/><rect x="28" y="2" width="1" height="1"/><rect x="32" y="2" width="1" height="1"/><rect x="36" y="2" width="1" height="1"/><rect x="42" y="2" width="1" height="1"/><rect x="46" y="2" width="1" height="1"/><rect x="50" y="2" width="1" height="1"/><rect x="0" y="3" width="5" height="1"/><rect x="6" y="3" width="1" height="1"/><rect x="12" y="3" width="4" height="1"/><rect x="18" y="3" width="1" height="1"/><rect x="20" y="3" width="3" height="1"/><rect x="24" y="3" width="1" height="1"/><rect x="28" y="3" width="1" height="1"/><rect x="32" y="3" width="1" height="1"/><rect x="36" y="3" width="1" height="1"/><rect x="42" y="3" width="5" height="1"/><rect x="50" y="3" width="1" height="1"/><rect x="0" y="4" width="1" height="1"/><rect x="4" y="4" width="1" height="1"/><rect x="6" y="4" width="1" height="1"/><rect x="12" y="4" width="1" height="1"/><rect x="18" y="4" width="1" height="1"/><rect x="22" y="4" width="1" height="1"/><rect x="24" y="4" width="1" height="1"/><rect x="28" y="4" width="1" height="1"/><rect x="32" y="4" width="1" height="1"/><rect x="36" y="4" width="1" height="1"/><rect x="42" y="4" width="1" height="1"/><rect x="46" y="4" width="1" height="1"/><rect x="50" y="4" width="1" height="1"/><rect x="0" y="5" width="1" height="1"/><rect x="4" y="5" width="1" height="1"/><rect x="6" y="5" width="1" height="1"/><rect x="12" y="5" width="1" height="1"/><rect x="18" y="5" width="1" height="1"/><rect x="22" y="5" width="1" height="1"/><rect x="24" y="5" width="1" height="1"/><rect x="28" y="5" width="1" height="1"/><rect x="32" y="5" width="1" height="1"/><rect x="36" y="5" width="1" height="1"/><rect x="40" y="5" width="1" height="1"/><rect x="42" y="5" width="1" height="1"/><rect x="46" y="5" width="1" height="1"/><rect x="50" y="5" width="1" height="1"/><rect x="0" y="6" width="1" height="1"/><rect x="4" y="6" width="1" height="1"/><rect x="6" y="6" width="5" height="1"/><rect x="12" y="6" width="5" height="1"/><rect x="19" y="6" width="3" height="1"/><rect x="25" y="6" width="3" height="1"/><rect x="32" y="6" width="1" height="1"/><rect x="37" y="6" width="3" height="1"/><rect x="42" y="6" width="1" height="1"/><rect x="46" y="6" width="1" height="1"/><rect x="48" y="6" width="5" height="1"/><rect x="5" y="13" width="118" height="1"/><rect x="4" y="14" width="1" height="1"/><rect x="123" y="14" width="1" height="1"/><rect x="4" y="15" width="1" height="1"/><rect x="123" y="15" width="1" height="1"/><rect x="4" y="16" width="1" height="1"/><rect x="123" y="16" width="1" height="1"/><rect x="4" y="17" width="1" height="1"/><rect x="9" y="17" width="1" height="1"/><rect x="13" y="17" width="1" height="1"/><rect x="15" y="17" width="5" height="1"/><rect x="22" y="17" width="3" height="1"/><rect x="27" y="17" width="1" height="1"/><rect x="33" y="17" width="5" height="1"/><rect x="39" y="17" width="1" height="1"/><rect x="43" y="17" width="1" height="1"/><rect x="58" y="17" width="54" height="1"/><rect x="123" y="17" width="1" height="1"/><rect x="4" y="18" width="1" height="1"/><rect x="9" y="18" width="1" height="1"/><rect x="13" y="18" width="1" height="1"/><rect x="15" y="18" width="1" height="1"/><rect x="21" y="18" width="1" height="1"/><rect x="25" y="18" width="1" height="1"/><rect x="27" y="18" width="1" height="1"/><rect x="35" y="18" width="1" height="1"/><rect x="39" y="18" width="1" height="1"/><rect x="43" y="18" width="1" height="1"/><rect x="58" y="18" width="54" height="1"/><rect x="123" y="18" width="1" height="1"/><rect x="4" y="19" width="1" height="1"/><rect x="9" y="19" width="1" height="1"/><rect x="13" y="19" width="1" height="1"/><rect x="15" y="19" width="1" height="1"/><rect x="21" y="19" width="1" height="1"/><rect x="25" y="19" width="1" height="1"/><rect x="27" y="19" width="1" height="1"/><rect x="35" y="19" width="1" height="1"/><rect x="39" y="19" width="1" height="1"/><rect x="43" y="19" width="1" height="1"/><rect x="58" y="19" width="54" height="1"/><rect x="123" y="19" width="1" height="1"/><rect x="4" y="20" width="1" height="1"/><rect x="9" y="20" width="5" height="1"/><rect x="15" y="20" width="4" height="1"/><rect x="21" y="20" width="5" height="1"/><rect x="27" y="20" width="1" height="1"/><rect x="35" y="20" width="1" height="1"/><rect x="39" y="20" width="5" height="1"/><rect x="58" y="20" width="54" height="1"/><rect x="123" y="20" width="1" height="1"/><rect x="4" y="21" width="1" height="1"/><rect x="9" y="21" width="1" height="1"/><rect x="13" y="21" width="1" height="1"/><rect x="15" y="21" width="1" height="1"/><rect x="21" y="21" width="1" height="1"/><rect x="25" y="21" width="1" height="1"/><rect x="27" y="21" width="1" height="1"/><rect x="35" y="21" width="1" height="1"/><rect x="39" y="21" width="1" height="1"/><rect x="43" y="21" width="1" height="1"/><rect x="58" y="21" width="54" height="1"/><rect x="123" y="21" width="1" height="1"/><rect x="4" y="22" width="1" height="1"/><rect x="9" y="22" width="1" height="1"/><rect x="13" y="22" width="1" height="1"/><rect x="15" y="22" width="1" height="1"/><rect x="21" y="22" width="1" height="1"/><rect x="25" y="22" width="1" height="1"/><rect x="27" y="22" width="1" height="1"/><rect x="35" y="22" width="1" height="1"/><rect x="39" y="22" width="1" height="1"/><rect x="43" y="22" width="1" height="1"/><rect x="123" y="22" width="1" height="1"/><rect x="4" y="23" width="1" height="1"/><rect x="9" y="23" width="1" height="1"/><rect x="13" y="23" width="1" height="1"/><rect x="15" y="23" width="5" height="1"/><rect x="21" y="23" width="1" height="1"/><rect x="25" y="23" width="1" height="1"/><rect x="27" y="23" width="5" height="1"/><rect x="35" y="23" width="1" height="1"/><rect x="39" y="23" width="1" height="1"/><rect x="43" y="23" width="1" height="1"/><rect x="123" y="23" width="1" height="1"/><rect x="4" y="24" width="1" height="1"/><rect x="123" y="24" width="1" height="1"/><rect x="5" y="25" width="118" height="1"/><rect x="5" y="29" width="118" height="1"/><rect x="4" y="30" width="1" height="1"/><rect x="123" y="30" width="1" height="1"/><rect x="4" y="31" width="1" height="1"/><rect x="123" y="31" width="1" height="1"/><rect x="4" y="32" width="1" height="1"/><rect x="123" y="32" width="1" height="1"/><rect x="4" y="33" width="1" height="1"/><rect x="10" y="33" width="4" height="1"/><rect x="15" y="33" width="1" height="1"/><rect x="21" y="33" width="5" height="1"/><rect x="27" y="33" width="5" height="1"/><rect x="33" y="33" width="4" height="1"/><rect x="58" y="33" width="45" height="1"/><rect x="123" y="33" width="1" height="1"/><rect x="4" y="34" width="1" height="1"/><rect x="9" y="34" width="1" height="1"/><rect x="15" y="34" width="1" height="1"/><rect x="21" y="34" width="1" height="1"/><rect x="27" y="34" width="1" height="1"/><rect x="33" y="34" width="1" height="1"/><rect x="37" y="34" width="1" height="1"/><rect x="58" y="34" width="45" height="1"/><rect x="123" y="34" width="1" height="1"/><rect x="4" y="35" width="1" height="1"/><rect x="9" y="35" width="1" height="1"/><rect x="15" y="35" width="1" height="1"/><rect x="21" y="35" width="1" height="1"/><rect x="27" y="35" width="1" height="1"/><rect x="33" y="35" width="1" height="1"/><rect x="37" y="35" width="1" height="1"/><rect x="58" y="35" width="45" height="1"/><rect x="123" y="35" width="1" height="1"/><rect x="4" y="36" width="1" height="1"/><rect x="10" y="36" width="3" height="1"/><rect x="15" y="36" width="1" height="1"/><rect x="21" y="36" width="4" height="1"/><rect x="27" y="36" width="4" height="1"/><rect x="33" y="36" width="4" height="1"/><rect x="58" y="36" width="45" height="1"/><rect x="123" y="36" width="1" height="1"/><rect x="4" y="37" width="1" height="1"/><rect x="13" y="37" width="1" height="1"/><rect x="15" y="37" width="1" height="1"/><rect x="21" y="37" width="1" height="1"/><rect x="27" y="37" width="1" height="1"/><rect x="33" y="37" width="1" height="1"/><rect x="58" y="37" width="45" height="1"/><rect x="123" y="37" width="1" height="1"/><rect x="4" y="38" width="1" height="1"/><rect x="13" y="38" width="1" height="1"/><rect x="15" y="38" width="1" height="1"/><rect x="21" y="38" width="1" height="1"/><rect x="27" y="38" width="1" height="1"/><rect x="33" y="38" width="1" height="1"/><rect x="123" y="38" width="1" height="1"/><rect x="4" y="39" width="1" height="1"/><rect x="9" y="39" width="4" height="1"/><rect x="15" y="39" width="5" height="1"/><rect x="21" y="39" width="5" height="1"/><rect x="27" y="39" width="5" height="1"/><rect x="33" y="39" width="1" height="1"/><rect x="123" y="39" width="1" height="1"/><rect x="4" y="40" width="1" height="1"/><rect x="123" y="40" width="1" height="1"/><rect x="5" y="41" width="118" height="1"/><rect x="5" y="45" width="118" height="1"/><rect x="4" y="46" width="1" height="1"/><rect x="123" y="46" width="1" height="1"/><rect x="4" y="47" width="1" height="1"/><rect x="123" y="47" width="1" height="1"/><rect x="4" y="48" width="1" height="1"/><rect x="123" y="48" width="1" height="1"/><rect x="4" y="49" width="1" height="1"/><rect x="9" y="49" width="5" height="1"/><rect x="16" y="49" width="3" height="1"/><rect x="22" y="49" width="3" height="1"/><rect x="27" y="49" width="4" height="1"/><rect x="58" y="49" width="60" height="1"/><rect x="123" y="49" width="1" height="1"/><rect x="4" y="50" width="1" height="1"/><rect x="9" y="50" width="1" height="1"/><rect x="15" y="50" width="1" height="1"/><rect x="19" y="50" width="1" height="1"/><rect x="21" y="50" width="1" height="1"/><rect x="25" y="50" width="1" height="1"/><rect x="27" y="50" width="1" height="1"/><rect x="31" y="50" width="1" height="1"/><rect x="58" y="50" width="60" height="1"/><rect x="123" y="50" width="1" height="1"/><rect x="4" y="51" width="1" height="1"/><rect x="9" y="51" width="1" height="1"/><rect x="15" y="51" width="1" height="1"/><rect x="19" y="51" width="1" height="1"/><rect x="21" y="51" width="1" height="1"/><rect x="25" y="51" width="1" height="1"/><rect x="27" y="51" width="1" height="1"/><rect x="31" y="51" width="1" height="1"/><rect x="58" y="51" width="60" height="1"/><rect x="123" y="51" width="1" height="1"/><rect x="4" y="52" width="1" height="1"/><rect x="9" y="52" width="4" height="1"/><rect x="15" y="52" width="1" height="1"/><rect x="19" y="52" width="1" height="1"/><rect x="21" y="52" width="1" height="1"/><rect x="25" y="52" width="1" height="1"/><rect x="27" y="52" width="1" height="1"/><rect x="31" y="52" width="1" height="1"/><rect x="58" y="52" width="60" height="1"/><rect x="123" y="52" width="1" height="1"/><rect x="4" y="53" width="1" height="1"/><rect x="9" y="53" width="1" height="1"/><rect x="15" y="53" width="1" height="1"/><rect x="19" y="53" width="1" height="1"/><rect x="21" y="53" width="1" height="1"/><rect x="25" y="53" width="1" height="1"/><rect x="27" y="53" width="1" height="1"/><rect x="31" y="53" width="1" height="1"/><rect x="58" y="53" width="60" height="1"/><rect x="123" y="53" width="1" height="1"/><rect x="4" y="54" width="1" height="1"/><rect x="9" y="54" width="1" height="1"/><rect x="15" y="54" width="1" height="1"/><rect x="19" y="54" width="1" height="1"/><rect x="21" y="54" width="1" height="1"/><rect x="25" y="54" width="1" height="1"/><rect x="27" y="54" width="1" height="1"/><rect x="31" y="54" width="1" height="1"/><rect x="123" y="54" width="1" height="1"/><rect x="4" y="55" width="1" height="1"/><rect x="9" y="55" width="1" height="1"/><rect x="16" y="55" width="3" height="1"/><rect x="22" y="55" width="3" height="1"/><rect x="27" y="55" width="4" height="1"/><rect x="123" y="55" width="1" height="1"/><rect x="4" y="56" width="1" height="1"/><rect x="123" y="56" width="1" height="1"/><rect x="5" y="57" width="118" height="1"/></g>
</svg>
