<svg xmlns="http://www.w3.org/2000/svg" viewBox="0 0 128 64" width="128" height="64" shape-rendering="crispEdges">
  <rect width="128" height="64" fill="#020406"/>
  <g fill="#fff"><rect x="57" y="15" width="4" height="1"/><rect x="62" y="15" width="1" height="1"/><rect x="68" y="15" width="5" height="1"/><rect x="74" y="15" width="5" height="1"/><rect x="80" y="15" width="4" height="1"/><rect x="86" y="15" width="5" height="1"/><rect x="92" y="15" width="6" height="1"/><rect x="99" y="15" width="3" height="1"/><rect x="56" y="16" width="1" height="1"/><rect x="62" y="16" width="1" height="1"/><rect x="68" y="16" width="1" height="1"/><rect x="74" y="16" width="1" height="1"/><rect x="80" y="16" width="1" height="1"/><rect x="84" y="16" width="1" height="1"/><rect x="88" y="16" width="1" height="1"/><rect x="92" y="16" width="2" height="1"/><rect x="96" y="16" width="3" height="1"/><rect x="102" y="16" width="1" height="1"/><rect x="56" y="17" width="1" height="1"/><rect x="62" y="17" width="1" height="1"/><rect x="68" y="17" width="1" height="1"/><rect x="74" y="17" width="1" height="1"/><rect x="80" y="17" width="1" height="1"/><rect x="84" y="17" width="1" height="1"/><rect x="88" y="17" width="1" height="1"/><rect x="92" y="17" width="1" height="1"/><rect x="94" y="17" width="1" height="1"/><rect x="96" y="17" width="1" height="1"/><rect x="98" y="17" width="1" height="1"/><rect x="57" y="18" width="3" height="1"/><rect x="62" y="18" width="1" height="1"/><rect x="68" y="18" width="4" height="1"/><rect x="74" y="18" width="4" height="1"/><rect x="80" y="18" width="4" height="1"/><rect x="88" y="18" width="1" height="1"/><rect x="92" y="18" width="1" height="1"/><rect x="95" y="18" width="2" height="1"/><rect x="98" y="18" width="1" height="1"/><rect x="100" y="18" width="3" height="1"/><rect x="60" y="19" width="1" height="1"/><rect x="62" y="19" width="1" height="1"/><rect x="68" y="19" width="1" height="1"/><rect x="74" y="19" width="1" height="1"/><rect x="80" y="19" width="1" height="1"/><rect x="88" y="19" width="1" height="1"/><rect x="92" y="19" width="1" height="1"/><rect x="94" y="19" width="1" height="1"/><rect x="96" y="19" width="1" height="1"/><rect x="98" y="19" width="1" height="1"/><rect x="102" y="19" width="1" height="1"/><rect x="60" y="20" width="1" height="1"/><rect x="62" y="20" width="1" height="1"/><rect x="68" y="20" width="1" height="1"/><rect x="74" y="20" width="1" height="1"/><rect x="80" y="20" width="1" height="1"/><rect x="88" y="20" width="1" height="1"/><rect x="92" y="20" width="2" height="1"/><rect x="96" y="20" width="1" height="1"/><rect x="98" y="20" width="1" height="1"/><rect x="102" y="20" width="1" height="1"/><rect x="56" y="21" width="4" height="1"/><rect x="62" y="21" width="5" height="1"/><rect x="68" y="21" width="5" height="1"/><rect x="74" y="21" width="5" height="1"/><rect x="80" y="21" width="1" height="1"/><rect x="86" y="21" width="5" height="1"/><rect x="92" y="21" width="6" height="1"/><rect x="99" y="21" width="3" height="1"/><rect x="31" y="22" width="1" height="1"/><rect x="30" y="23" width="3" height="1"/><rect x="78" y="23" width="5" height="1"/><rect x="8" y="24" width="3" height="1"/><rect x="29" y="24" width="2" height="1"/><rect x="32" y="24" width="1" height="1"/><rect x="36" y="24" width="2" height="1"/><rect x="82" y="24" width="1" height="1"/><rect x="7" y="25" width="1" height="1"/><rect x="11" y="25" width="1" height="1"/><rect x="25" y="25" width="5" height="1"/><rect x="32" y="25" width="1" height="1"/><rect x="35" y="25" width="3" height="1"/><rect x="81" y="25" width="1" height="1"/><rect x="8" y="26" width="1" height="1"/><rect x="12" y="26" width="14" height="1"/><rect x="32" y="26" width="3" height="1"/><rect x="37" y="26" width="1" height="1"/><rect x="80" y="26" width="1" height="1"/><rect x="9" y="27" width="1" height="1"/><rect x="37" y="27" width="1" height="1"/><rect x="79" y="27" width="1" height="1"/><rect x="8" y="28" width="1" height="1"/><rect x="37" y="28" width="1" height="1"/><rect x="78" y="28" width="1" height="1"/><rect x="7" y="29" width="1" height="1"/><rect x="36" y="29" width="1" height="1"/><rect x="78" y="29" width="5" height="1"/><rect x="8" y="30" width="3" height="1"/><rect x="21" y="30" width="2" height="1"/><rect x="35" y="30" width="2" height="1"/><rect x="38" y="30" width="1" height="1"/><rect x="10" y="31" width="1" height="1"/><rect x="21" y="31" width="2" height="1"/><rect x="37" y="31" width="2" height="1"/><rect x="63" y="31" width="5" height="1"/><rect x="10" y="32" width="1" height="1"/><rect x="20" y="32" width="3" height="1"/><rect x="37" y="32" width="1" height="1"/><rect x="67" y="32" width="1" height="1"/><rect x="10" y="33" width="1" height="1"/><rect x="18" y="33" width="7" height="1"/><rect x="36" y="33" width="1" height="1"/><rect x="66" y="33" width="1" height="1"/><rect x="10" y="34" width="1" height="1"/><rect x="18" y="34" width="8" height="1"/><rect x="36" y="34" width="1" height="1"/><rect x="65" y="34" width="1" height="1"/><rect x="10" y="35" width="1" height="1"/><rect x="14" y="35" width="16" height="1"/><rect x="35" y="35" width="1" height="1"/><rect x="64" y="35" width="1" height="1"/><rect x="10" y="36" width="1" height="1"/><rect x="14" y="36" width="17" height="1"/><rect x="33" y="36" width="2" height="1"/><rect x="63" y="36" width="1" height="1"/><rect x="7" y="37" width="4" height="1"/><rect x="14" y="37" width="7" height="1"/><rect x="23" y="37" width="3" height="1"/><rect x="28" y="37" width="4" height="1"/><rect x="63" y="37" width="5" height="1"/><rect x="7" y="38" width="1" height="1"/><rect x="10" y="38" width="1" height="1"/><rect x="14" y="38" width="6" height="1"/><rect x="21" y="38" width="2" height="1"/><rect x="24" y="38" width="1" height="1"/><rect x="26" y="38" width="2" height="1"/><rect x="29" y="38" width="3" height="1"/><rect x="7" y="39" width="2" height="1"/><rect x="10" y="39" width="1" height="1"/><rect x="14" y="39" width="18" height="1"/><rect x="7" y="40" width="4" height="1"/><rect x="14" y="40" width="18" height="1"/><rect x="10" y="41" width="22" height="1"/><rect x="10" y="42" width="12" height="1"/><rect x="23" y="42" width="3" height="1"/><rect x="27" y="42" width="5" height="1"/><rect x="11" y="43" width="12" height="1"/><rect x="26" y="43" width="5" height="1"/><rect x="11" y="44" width="20" height="1"/><rect x="11" y="45" width="20" height="1"/><rect x="56" y="45" width="63" height="1"/><rect x="13" y="46" width="17" height="1"/><rect x="55" y="46" width="1" height="1"/><rect x="119" y="46" width="1" height="1"/><rect x="15" y="47" width="12" height="1"/><rect x="55" y="47" width="1" height="1"/><rect x="119" y="47" width="1" height="1"/><rect x="55" y="48" width="1" height="1"/><rect x="119" y="48" width="1" height="1"/><rect x="11" y="49" width="3" height="1"/><rect x="15" y="49" width="14" height="1"/><rect x="30" y="49" width="2" height="1"/><rect x="55" y="49" width="1" height="1"/><rect x="61" y="49" width="1" height="1"/><rect x="65" y="49" width="1" height="1"/><rect x="68" y="49" width="3" height="1"/><rect x="73" y="49" width="1" height="1"/><rect x="77" y="49" width="1" height="1"/><rect x="79" y="49" width="5" height="1"/><rect x="119" y="49" width="1" height="1"/><rect x="10" y="50" width="4" height="1"/><rect x="15" y="50" width="15" height="1"/><rect x="31" y="50" width="2" height="1"/><rect x="55" y="50" width="1" height="1"/><rect x="61" y="50" width="1" height="1"/><rect x="65" y="50" width="1" height="1"/><rect x="67" y="50" width="1" height="1"/><rect x="71" y="50" width="1" height="1"/><rect x="73" y="50" width="1" height="1"/><rect x="76" y="50" width="1" height="1"/><rect x="79" y="50" width="1" height="1"/><rect x="119" y="50" width="1" height="1"/><rect x="9" y="51" width="4" height="1"/><rect x="14" y="51" width="16" height="1"/><rect x="31" y="51" width="3" height="1"/><rect x="55" y="51" width="1" height="1"/><rect x="61" y="51" width="1" height="1"/><rect x="65" y="51" width="1" height="1"/><rect x="67" y="51" width="1" height="1"/><rect x="71" y="51" width="1" height="1"/><rect x="73" y="51" width="1" height="1"/><rect x="75" y="51" width="1" height="1"/><rect x="79" y="51" width="1" height="1"/><rect x="119" y="51" width="1" height="1"/><rect x="8" y="52" width="4" height="1"/><rect x="13" y="52" width="18" height="1"/><rect x="32" y="52" width="3" height="1"/><rect x="55" y="52" width="1" height="1"/><rect x="61" y="52" width="1" height="1"/><rect x="63" y="52" width="1" height="1"/><rect x="65" y="52" width="1" height="1"/><rect x="67" y="52" width="5" height="1"/><rect x="73" y="52" width="2" height="1"/><rect x="79" y="52" width="4" height="1"/><rect x="119" y="52" width="1" height="1"/><rect x="8" y="53" width="3" height="1"/><rect x="12" y="53" width="20" height="1"/><rect x="33" y="53" width="3" height="1"/><rect x="55" y="53" width="1" height="1"/><rect x="61" y="53" width="1" height="1"/><rect x="63" y="53" width="1" height="1"/><rect x="65" y="53" width="1" height="1"/><rect x="67" y="53" width="1" height="1"/><rect x="71" y="53" width="1" height="1"/><rect x="73" y="53" width="1" height="1"/><rect x="75" y="53" width="1" height="1"/><rect x="79" y="53" width="1" height="1"/><rect x="119" y="53" width="1" height="1"/><rect x="8" y="54" width="3" height="1"/><rect x="12" y="54" width="20" height="1"/><rect x="33" y="54" width="3" height="1"/><rect x="55" y="54" width="1" height="1"/><rect x="61" y="54" width="1" height="1"/><rect x="63" y="54" width="1" height="1"/><rect x="65" y="54" width="1" height="1"/><rect x="67" y="54" width="1" height="1"/><rect x="71" y="54" width="1" height="1"/><rect x="73" y="54" width="1" height="1"/><rect x="76" y="54" width="1" height="1"/><rect x="79" y="54" width="1" height="1"/><rect x="119" y="54" width="1" height="1"/><rect x="12" y="55" width="20" height="1"/><rect x="55" y="55" width="1" height="1"/><rect x="62" y="55" width="1" height="1"/><rect x="64" y="55" width="1" height="1"/><rect x="67" y="55" width="1" height="1"/><rect x="71" y="55" width="1" height="1"/><rect x="73" y="55" width="1" height="1"/><rect x="77" y="55" width="1" height="1"/><rect x="79" y="55" width="5" height="1"/><rect x="119" y="55" width="1" height="1"/><rect x="8" y="56" width="3" height="1"/><rect x="33" y="56" width="3" height="1"/><rect x="55" y="56" width="1" height="1"/><rect x="119" y="56" width="1" height="1"/><rect x="8" y="57" width="3" height="1"/><rect x="13" y="57" width="18" height="1"/><rect x="33" y="57" width="3" height="1"/><rect x="56" y="57" width="63" height="1"/><rect x="8" y="58" width="2" height="1"/><rect x="14" y="58" width="15" height="1"/><rect x="34" y="58" width="2" height="1"/><rect x="15" y="59" width="3" height="1"/><rect x="25" y="59" width="3" height="1"/><rect x="16" y="61" width="2" height="1"/><rect x="25" y="61" width="2" height="1"/><rect x="15" y="62" width="3" height="1"/><rect x="25" y="62" width="3" height="1"/><rect x="14" y="63" width="4" height="1"/><rect x="25" y="63" width="4" height="1"/></g>
</svg>
