<svg xmlns="http://www.w3.org/2000/svg" viewBox="0 0 128 64" width="128" height="64" shape-rendering="crispEdges">
  <rect width="128" height="64" fill="#020406"/>
  <g fill="#fff"><rect x="44" y="5" width="18" height="1"/><rect x="65" y="5" width="16" height="1"/><rect x="33" y="6" width="3" height="1"/><rect x="42" y="6" width="2" height="1"/><rect x="62" y="6" width="1" height="1"/><rect x="64" y="6" width="1" height="1"/><rect x="81" y="6" width="2" height="1"/><rect x="94" y="6" width="4" height="1"/><rect x="27" y="7" width="6" height="1"/><rect x="36" y="7" width="1" height="1"/><rect x="39" y="7" width="3" height="1"/><rect x="45" y="7" width="16" height="1"/><rect x="63" y="7" width="1" height="1"/><rect x="66" y="7" width="14" height="1"/><rect x="83" y="7" width="2" height="1"/><rect x="92" y="7" width="2" height="1"/><rect x="98" y="7" width="6" height="1"/><rect x="21" y="8" width="6" height="1"/><rect x="34" y="8" width="1" height="1"/><rect x="37" y="8" width="2" height="1"/><rect x="43" y="8" width="1" height="1"/><rect x="45" y="8" width="17" height="1"/><rect x="65" y="8" width="1" height="1"/><rect x="67" y="8" width="15" height="1"/><rect x="85" y="8" width="1" height="1"/><rect x="91" y="8" width="1" height="1"/><rect x="95" y="8" width="2" height="1"/><rect x="104" y="8" width="3" height="1"/><rect x="17" y="9" width="3" height="1"/><rect x="21" y="9" width="1" height="1"/><rect x="28" y="9" width="8" height="1"/><rect x="40" y="9" width="1" height="1"/><rect x="42" y="9" width="1" height="1"/><rect x="44" y="9" width="1" height="1"/><rect x="46" y="9" width="15" height="1"/><rect x="66" y="9" width="1" height="1"/><rect x="68" y="9" width="5" height="1"/><rect x="78" y="9" width="1" height="1"/><rect x="80" y="9" width="4" height="1"/><rect x="86" y="9" width="1" height="1"/><rect x="91" y="9" width="1" height="1"/><rect x="93" y="9" width="10" height="1"/><rect x="107" y="9" width="1" height="1"/><rect x="9" y="10" width="8" height="1"/><rect x="20" y="10" width="1" height="1"/><rect x="23" y="10" width="13" height="1"/><rect x="41" y="10" width="1" height="1"/><rect x="43" y="10" width="1" height="1"/><rect x="45" y="10" width="10" height="1"/><rect x="65" y="10" width="1" height="1"/><rect x="67" y="10" width="1" height="1"/><rect x="69" y="10" width="3" height="1"/><rect x="79" y="10" width="1" height="1"/><rect x="81" y="10" width="4" height="1"/><rect x="87" y="10" width="1" height="1"/><rect x="91" y="10" width="1" height="1"/><rect x="93" y="10" width="13" height="1"/><rect x="107" y="10" width="1" height="1"/><rect x="110" y="10" width="12" height="1"/><rect x="3" y="11" width="6" height="1"/><rect x="18" y="11" width="1" height="1"/><rect x="22" y="11" width="1" height="1"/><rect x="24" y="11" width="5" height="1"/><rect x="47" y="11" width="7" height="1"/><rect x="56" y="11" width="8" height="1"/><rect x="66" y="11" width="1" height="1"/><rect x="68" y="11" width="3" height="1"/><rect x="80" y="11" width="1" height="1"/><rect x="82" y="11" width="4" height="1"/><rect x="87" y="11" width="1" height="1"/><rect x="91" y="11" width="1" height="1"/><rect x="98" y="11" width="1" height="1"/><rect x="100" y="11" width="3" height="1"/><rect x="107" y="11" width="1" height="1"/><rect x="109" y="11" width="1" height="1"/><rect x="122" y="11" width="1" height="1"/><rect x="2" y="12" width="1" height="1"/><rect x="10" y="12" width="9" height="1"/><rect x="21" y="12" width="1" height="1"/><rect x="23" y="12" width="1" height="1"/><rect x="27" y="12" width="1" height="1"/><rect x="29" y="12" width="6" height="1"/><rect x="38" y="12" width="7" height="1"/><rect x="48" y="12" width="1" height="1"/><rect x="50" y="12" width="4" height="1"/><rect x="55" y="12" width="1" height="1"/><rect x="63" y="12" width="1" height="1"/><rect x="65" y="12" width="1" height="1"/><rect x="67" y="12" width="4" height="1"/><rect x="78" y="12" width="2" height="1"/><rect x="81" y="12" width="4" height="1"/><rect x="87" y="12" width="1" height="1"/><rect x="92" y="12" width="5" height="1"/><rect x="99" y="12" width="1" height="1"/><rect x="101" y="12" width="2" height="1"/><rect x="106" y="12" width="1" height="1"/><rect x="108" y="12" width="1" height="1"/><rect x="111" y="12" width="1" height="1"/><rect x="113" y="12" width="8" height="1"/><rect x="123" y="12" width="1" height="1"/><rect x="1" y="13" width="1" height="1"/><rect x="4" y="13" width="1" height="1"/><rect x="6" y="13" width="1" height="1"/><rect x="8" y="13" width="10" height="1"/><rect x="20" y="13" width="1" height="1"/><rect x="22" y="13" width="1" height="1"/><rect x="24" y="13" width="1" height="1"/><rect x="26" y="13" width="1" height="1"/><rect x="28" y="13" width="8" height="1"/><rect x="37" y="13" width="1" height="1"/><rect x="45" y="13" width="1" height="1"/><rect x="47" y="13" width="1" height="1"/><rect x="49" y="13" width="5" height="1"/><rect x="55" y="13" width="1" height="1"/><rect x="63" y="13" width="1" height="1"/><rect x="66" y="13" width="1" height="1"/><rect x="68" y="13" width="4" height="1"/><rect x="73" y="13" width="11" height="1"/><rect x="86" y="13" width="1" height="1"/><rect x="97" y="13" width="1" height="1"/><rect x="99" y="13" width="1" height="1"/><rect x="101" y="13" width="2" height="1"/><rect x="105" y="13" width="1" height="1"/><rect x="108" y="13" width="1" height="1"/><rect x="110" y="13" width="1" height="1"/><rect x="112" y="13" width="1" height="1"/><rect x="114" y="13" width="8" height="1"/><rect x="123" y="13" width="1" height="1"/><rect x="1" y="14" width="1" height="1"/><rect x="3" y="14" width="1" height="1"/><rect x="5" y="14" width="1" height="1"/><rect x="7" y="14" width="8" height="1"/><rect x="19" y="14" width="1" height="1"/><rect x="21" y="14" width="1" height="1"/><rect x="23" y="14" width="3" height="1"/><rect x="27" y="14" width="7" height="1"/><rect x="37" y="14" width="1" height="1"/><rect x="45" y="14" width="1" height="1"/><rect x="48" y="14" width="5" height="1"/><rect x="55" y="14" width="1" height="1"/><rect x="63" y="14" width="1" height="1"/><rect x="65" y="14" width="1" height="1"/><rect x="67" y="14" width="1" height="1"/><rect x="69" y="14" width="14" height="1"/><rect x="85" y="14" width="1" height="1"/><rect x="97" y="14" width="1" height="1"/><rect x="100" y="14" width="4" height="1"/><rect x="105" y="14" width="1" height="1"/><rect x="108" y="14" width="1" height="1"/><rect x="110" y="14" width="2" height="1"/><rect x="113" y="14" width="2" height="1"/><rect x="117" y="14" width="5" height="1"/><rect x="123" y="14" width="1" height="1"/><rect x="1" y="15" width="1" height="1"/><rect x="6" y="15" width="8" height="1"/><rect x="18" y="15" width="1" height="1"/><rect x="20" y="15" width="1" height="1"/><rect x="22" y="15" width="9" height="1"/><rect x="36" y="15" width="1" height="1"/><rect x="44" y="15" width="1" height="1"/><rect x="47" y="15" width="1" height="1"/><rect x="49" y="15" width="3" height="1"/><rect x="54" y="15" width="1" height="1"/><rect x="63" y="15" width="1" height="1"/><rect x="66" y="15" width="1" height="1"/><rect x="68" y="15" width="10" height="1"/><rect x="84" y="15" width="1" height="1"/><rect x="97" y="15" width="1" height="1"/><rect x="99" y="15" width="1" height="1"/><rect x="102" y="15" width="2" height="1"/><rect x="105" y="15" width="1" height="1"/><rect x="108" y="15" width="1" height="1"/><rect x="111" y="15" width="5" height="1"/><rect x="123" y="15" width="1" height="1"/><rect x="2" y="16" width="3" height="1"/><rect x="10" y="16" width="1" height="1"/><rect x="12" y="16" width="1" height="1"/><rect x="17" y="16" width="1" height="1"/><rect x="19" y="16" width="4" height="1"/><rect x="36" y="16" width="1" height="1"/><rect x="44" y="16" width="1" height="1"/><rect x="46" y="16" width="1" height="1"/><rect x="48" y="16" width="4" height="1"/><rect x="53" y="16" width="1" height="1"/><rect x="63" y="16" width="1" height="1"/><rect x="65" y="16" width="1" height="1"/><rect x="67" y="16" width="13" height="1"/><rect x="83" y="16" width="1" height="1"/><rect x="97" y="16" width="1" height="1"/><rect x="100" y="16" width="2" height="1"/><rect x="103" y="16" width="1" height="1"/><rect x="106" y="16" width="1" height="1"/><rect x="109" y="16" width="1" height="1"/><rect x="113" y="16" width="4" height="1"/><rect x="123" y="16" width="1" height="1"/><rect x="5" y="17" width="3" height="1"/><rect x="9" y="17" width="1" height="1"/><rect x="11" y="17" width="2" height="1"/><rect x="17" y="17" width="4" height="1"/><rect x="37" y="17" width="1" height="1"/><rect x="44" y="17" width="1" height="1"/><rect x="47" y="17" width="1" height="1"/><rect x="49" y="17" width="3" height="1"/><rect x="53" y="17" width="1" height="1"/><rect x="63" y="17" width="1" height="1"/><rect x="66" y="17" width="1" height="1"/><rect x="68" y="17" width="13" height="1"/><rect x="84" y="17" width="3" height="1"/><rect x="97" y="17" width="1" height="1"/><rect x="99" y="17" width="1" height="1"/><rect x="101" y="17" width="4" height="1"/><rect x="106" y="17" width="1" height="1"/><rect x="110" y="17" width="2" height="1"/><rect x="115" y="17" width="5" height="1"/><rect x="124" y="17" width="1" height="1"/><rect x="7" y="18" width="1" height="1"/><rect x="10" y="18" width="2" height="1"/><rect x="16" y="18" width="1" height="1"/><rect x="18" y="18" width="2" height="1"/><rect x="30" y="18" width="1" height="1"/><rect x="32" y="18" width="4" height="1"/><rect x="37" y="18" width="1" height="1"/><rect x="44" y="18" width="1" height="1"/><rect x="46" y="18" width="1" height="1"/><rect x="48" y="18" width="1" height="1"/><rect x="50" y="18" width="2" height="1"/><rect x="53" y="18" width="1" height="1"/><rect x="62" y="18" width="1" height="1"/><rect x="65" y="18" width="1" height="1"/><rect x="67" y="18" width="3" height="1"/><rect x="74" y="18" width="1" height="1"/><rect x="76" y="18" width="1" height="1"/><rect x="78" y="18" width="1" height="1"/><rect x="80" y="18" width="1" height="1"/><rect x="82" y="18" width="1" height="1"/><rect x="87" y="18" width="2" height="1"/><rect x="97" y="18" width="1" height="1"/><rect x="100" y="18" width="1" height="1"/><rect x="102" y="18" width="3" height="1"/><rect x="106" y="18" width="1" height="1"/><rect x="112" y="18" width="2" height="1"/><rect x="118" y="18" width="5" height="1"/><rect x="124" y="18" width="1" height="1"/><rect x="6" y="19" width="1" height="1"/><rect x="9" y="19" width="1" height="1"/><rect x="11" y="19" width="1" height="1"/><rect x="17" y="19" width="1" height="1"/><rect x="19" y="19" width="1" height="1"/><rect x="25" y="19" width="1" height="1"/><rect x="27" y="19" width="1" height="1"/><rect x="29" y="19" width="1" height="1"/><rect x="31" y="19" width="5" height="1"/><rect x="37" y="19" width="1" height="1"/><rect x="44" y="19" width="1" height="1"/><rect x="47" y="19" width="1" height="1"/><rect x="49" y="19" width="3" height="1"/><rect x="53" y="19" width="1" height="1"/><rect x="62" y="19" width="1" height="1"/><rect x="64" y="19" width="1" height="1"/><rect x="66" y="19" width="1" height="1"/><rect x="68" y="19" width="2" height="1"/><rect x="71" y="19" width="2" height="1"/><rect x="77" y="19" width="1" height="1"/><rect x="79" y="19" width="1" height="1"/><rect x="81" y="19" width="1" height="1"/><rect x="83" y="19" width="3" height="1"/><rect x="89" y="19" width="1" height="1"/><rect x="94" y="19" width="3" height="1"/><rect x="99" y="19" width="1" height="1"/><rect x="101" y="19" width="4" height="1"/><rect x="106" y="19" width="1" height="1"/><rect x="113" y="19" width="1" height="1"/><rect x="120" y="19" width="3" height="1"/><rect x="125" y="19" width="1" height="1"/><rect x="5" y="20" width="1" height="1"/><rect x="8" y="20" width="1" height="1"/><rect x="10" y="20" width="1" height="1"/><rect x="16" y="20" width="1" height="1"/><rect x="18" y="20" width="9" height="1"/><rect x="28" y="20" width="1" height="1"/><rect x="30" y="20" width="5" height="1"/><rect x="37" y="20" width="1" height="1"/><rect x="43" y="20" width="1" height="1"/><rect x="46" y="20" width="1" height="1"/><rect x="48" y="20" width="4" height="1"/><rect x="53" y="20" width="1" height="1"/><rect x="62" y="20" width="1" height="1"/><rect x="65" y="20" width="1" height="1"/><rect x="67" y="20" width="3" height="1"/><rect x="71" y="20" width="1" height="1"/><rect x="73" y="20" width="3" height="1"/><rect x="80" y="20" width="1" height="1"/><rect x="82" y="20" width="1" height="1"/><rect x="84" y="20" width="4" height="1"/><rect x="90" y="20" width="1" height="1"/><rect x="93" y="20" width="1" height="1"/><rect x="99" y="20" width="6" height="1"/><rect x="107" y="20" width="6" height="1"/><rect x="115" y="20" width="1" height="1"/><rect x="121" y="20" width="3" height="1"/><rect x="125" y="20" width="1" height="1"/><rect x="5" y="21" width="1" height="1"/><rect x="7" y="21" width="1" height="1"/><rect x="9" y="21" width="2" height="1"/><rect x="12" y="21" width="3" height="1"/><rect x="17" y="21" width="15" height="1"/><rect x="36" y="21" width="1" height="1"/><rect x="43" y="21" width="1" height="1"/><rect x="45" y="21" width="1" height="1"/><rect x="47" y="21" width="1" height="1"/><rect x="49" y="21" width="2" height="1"/><rect x="53" y="21" width="1" height="1"/><rect x="62" y="21" width="1" height="1"/><rect x="64" y="21" width="1" height="1"/><rect x="66" y="21" width="4" height="1"/><rect x="71" y="21" width="1" height="1"/><rect x="76" y="21" width="3" height="1"/><rect x="81" y="21" width="1" height="1"/><rect x="83" y="21" width="5" height="1"/><rect x="91" y="21" width="2" height="1"/><rect x="95" y="21" width="4" height="1"/><rect x="101" y="21" width="5" height="1"/><rect x="114" y="21" width="1" height="1"/><rect x="116" y="21" width="1" height="1"/><rect x="121" y="21" width="3" height="1"/><rect x="125" y="21" width="1" height="1"/><rect x="4" y="22" width="1" height="1"/><rect x="8" y="22" width="2" height="1"/><rect x="12" y="22" width="1" height="1"/><rect x="14" y="22" width="1" height="1"/><rect x="16" y="22" width="1" height="1"/><rect x="18" y="22" width="12" height="1"/><rect x="33" y="22" width="3" height="1"/><rect x="43" y="22" width="1" height="1"/><rect x="46" y="22" width="1" height="1"/><rect x="48" y="22" width="3" height="1"/><rect x="52" y="22" width="1" height="1"/><rect x="62" y="22" width="1" height="1"/><rect x="65" y="22" width="1" height="1"/><rect x="67" y="22" width="3" height="1"/><rect x="71" y="22" width="1" height="1"/><rect x="79" y="22" width="1" height="1"/><rect x="82" y="22" width="1" height="1"/><rect x="84" y="22" width="4" height="1"/><rect x="94" y="22" width="18" height="1"/><rect x="115" y="22" width="1" height="1"/><rect x="117" y="22" width="7" height="1"/><rect x="125" y="22" width="1" height="1"/><rect x="4" y="23" width="1" height="1"/><rect x="6" y="23" width="3" height="1"/><rect x="11" y="23" width="1" height="1"/><rect x="14" y="23" width="1" height="1"/><rect x="17" y="23" width="6" height="1"/><rect x="31" y="23" width="2" height="1"/><rect x="44" y="23" width="1" height="1"/><rect x="47" y="23" width="3" height="1"/><rect x="52" y="23" width="1" height="1"/><rect x="63" y="23" width="1" height="1"/><rect x="66" y="23" width="3" height="1"/><rect x="71" y="23" width="1" height="1"/><rect x="80" y="23" width="1" height="1"/><rect x="84" y="23" width="1" height="1"/><rect x="86" y="23" width="2" height="1"/><rect x="89" y="23" width="4" height="1"/><rect x="95" y="23" width="17" height="1"/><rect x="117" y="23" width="7" height="1"/><rect x="125" y="23" width="1" height="1"/><rect x="4" y="24" width="1" height="1"/><rect x="6" y="24" width="1" height="1"/><rect x="10" y="24" width="1" height="1"/><rect x="15" y="24" width="1" height="1"/><rect x="24" y="24" width="7" height="1"/><rect x="45" y="24" width="1" height="1"/><rect x="51" y="24" width="1" height="1"/><rect x="64" y="24" width="1" height="1"/><rect x="70" y="24" width="1" height="1"/><rect x="81" y="24" width="2" height="1"/><rect x="89" y="24" width="1" height="1"/><rect x="93" y="24" width="1" height="1"/><rect x="113" y="24" width="3" height="1"/><rect x="119" y="24" width="4" height="1"/><rect x="125" y="24" width="1" height="1"/><rect x="4" y="25" width="1" height="1"/><rect x="8" y="25" width="2" height="1"/><rect x="16" y="25" width="8" height="1"/><rect x="46" y="25" width="5" height="1"/><rect x="65" y="25" width="5" height="1"/><rect x="82" y="25" width="7" height="1"/><rect x="94" y="25" width="19" height="1"/><rect x="116" y="25" width="2" height="1"/><rect x="124" y="25" width="1" height="1"/><rect x="5" y="26" width="3" height="1"/><rect x="118" y="26" width="6" height="1"/><rect x="13" y="33" width="13" height="1"/><rect x="29" y="33" width="5" height="1"/><rect x="35" y="33" width="6" height="1"/><rect x="43" y="33" width="6" height="1"/><rect x="56" y="33" width="13" height="1"/><rect x="75" y="33" width="6" height="1"/><rect x="83" y="33" width="7" height="1"/><rect x="93" y="33" width="3" height="1"/><rect x="98" y="33" width="7" height="1"/><rect x="107" y="33" width="7" height="1"/><rect x="13" y="34" width="2" height="1"/><rect x="17" y="34" width="4" height="1"/><rect x="23" y="34" width="2" height="1"/><rect x="28" y="34" width="6" height="1"/><rect x="35" y="34" width="2" height="1"/><rect x="39" y="34" width="1" height="1"/><rect x="43" y="34" width="2" height="1"/><rect x="47" y="34" width="1" height="1"/><rect x="59" y="34" width="2" height="1"/><rect x="62" y="34" width="2" height="1"/><rect x="67" y="34" width="2" height="1"/><rect x="75" y="34" width="2" height="1"/><rect x="79" y="34" width="1" height="1"/><rect x="86" y="34" width="2" height="1"/><rect x="92" y="34" width="2" height="1"/><rect x="95" y="34" width="2" height="1"/><rect x="98" y="34" width="2" height="1"/><rect x="102" y="34" width="2" height="1"/><rect x="110" y="34" width="2" height="1"/><rect x="13" y="35" width="5" height="1"/><rect x="19" y="35" width="5" height="1"/><rect x="28" y="35" width="3" height="1"/><rect x="36" y="35" width="6" height="1"/><rect x="44" y="35" width="6" height="1"/><rect x="59" y="35" width="1" height="1"/><rect x="62" y="35" width="2" height="1"/><rect x="67" y="35" width="2" height="1"/><rect x="76" y="35" width="6" height="1"/><rect x="86" y="35" width="1" height="1"/><rect x="91" y="35" width="3" height="1"/><rect x="95" y="35" width="2" height="1"/><rect x="98" y="35" width="5" height="1"/><rect x="110" y="35" width="1" height="1"/><rect x="13" y="36" width="2" height="1"/><rect x="19" y="36" width="2" height="1"/><rect x="22" y="36" width="3" height="1"/><rect x="28" y="36" width="2" height="1"/><rect x="32" y="36" width="3" height="1"/><rect x="40" y="36" width="2" height="1"/><rect x="48" y="36" width="2" height="1"/><rect x="58" y="36" width="2" height="1"/><rect x="62" y="36" width="2" height="1"/><rect x="67" y="36" width="2" height="1"/><rect x="80" y="36" width="2" height="1"/><rect x="85" y="36" width="2" height="1"/><rect x="91" y="36" width="9" height="1"/><rect x="101" y="36" width="3" height="1"/><rect x="109" y="36" width="2" height="1"/><rect x="13" y="37" width="2" height="1"/><rect x="19" y="37" width="2" height="1"/><rect x="24" y="37" width="2" height="1"/><rect x="28" y="37" width="5" height="1"/><rect x="36" y="37" width="5" height="1"/><rect x="44" y="37" width="5" height="1"/><rect x="58" y="37" width="2" height="1"/><rect x="63" y="37" width="5" height="1"/><rect x="76" y="37" width="5" height="1"/><rect x="85" y="37" width="2" height="1"/><rect x="91" y="37" width="2" height="1"/><rect x="96" y="37" width="4" height="1"/><rect x="103" y="37" width="2" height="1"/><rect x="109" y="37" width="2" height="1"/><rect x="53" y="42" width="26" height="1"/><rect x="52" y="43" width="1" height="1"/><rect x="79" y="43" width="1" height="1"/><rect x="52" y="44" width="1" height="1"/><rect x="54" y="44" width="24" height="1"/><rect x="79" y="44" width="1" height="1"/><rect x="52" y="45" width="1" height="1"/><rect x="55" y="45" width="7" height="1"/><rect x="63" y="45" width="7" height="1"/><rect x="71" y="45" width="7" height="1"/><rect x="79" y="45" width="1" height="1"/><rect x="52" y="46" width="1" height="1"/><rect x="56" y="46" width="6" height="1"/><rect x="64" y="46" width="6" height="1"/><rect x="72" y="46" width="6" height="1"/><rect x="79" y="46" width="1" height="1"/><rect x="52" y="47" width="1" height="1"/><rect x="56" y="47" width="6" height="1"/><rect x="64" y="47" width="6" height="1"/><rect x="72" y="47" width="6" height="1"/><rect x="79" y="47" width="1" height="1"/><rect x="52" y="48" width="1" height="1"/><rect x="56" y="48" width="6" height="1"/><rect x="64" y="48" width="6" height="1"/><rect x="72" y="48" width="6" height="1"/><rect x="79" y="48" width="1" height="1"/><rect x="52" y="49" width="1" height="1"/><rect x="56" y="49" width="6" height="1"/><rect x="64" y="49" width="6" height="1"/><rect x="72" y="49" width="6" height="1"/><rect x="79" y="49" width="1" height="1"/><rect x="52" y="50" width="1" height="1"/><rect x="60" y="50" width="2" height="1"/><rect x="68" y="50" width="2" height="1"/><rect x="76" y="50" width="2" height="1"/><rect x="79" y="50" width="1" height="1"/><rect x="52" y="51" width="1" height="1"/><rect x="61" y="51" width="1" height="1"/><rect x="69" y="51" width="1" height="1"/><rect x="77" y="51" width="1" height="1"/><rect x="79" y="51" width="1" height="1"/><rect x="52" y="52" width="1" height="1"/><rect x="70" y="52" width="8" height="1"/><rect x="79" y="52" width="1" height="1"/><rect x="53" y="53" width="15" height="1"/><rect x="71" y="53" width="7" height="1"/><rect x="79" y="53" width="1" height="1"/><rect x="68" y="54" width="1" height="1"/><rect x="72" y="54" width="6" height="1"/><rect x="79" y="54" width="1" height="1"/><rect x="68" y="55" width="1" height="1"/><rect x="72" y="55" width="6" height="1"/><rect x="79" y="55" width="1" height="1"/><rect x="68" y="56" width="1" height="1"/><rect x="72" y="56" width="6" height="1"/><rect x="79" y="56" width="1" height="1"/><rect x="68" y="57" width="1" height="1"/><rect x="72" y="57" width="6" height="1"/><rect x="79" y="57" width="1" height="1"/><rect x="68" y="58" width="1" height="1"/><rect x="76" y="58" width="2" height="1"/><rect x="79" y="58" width="1" height="1"/><rect x="68" y="59" width="1" height="1"/><rect x="77" y="59" width="1" height="1"/><rect x="79" y="59" width="1" height="1"/><rect x="68" y="60" width="1" height="1"/><rect x="79" y="60" width="1" height="1"/><rect x="69" y="61" width="10" height="1"/></g>
</svg>
