<svg xmlns="http://www.w3.org/2000/svg" viewBox="0 0 128 64" width="128" height="64" shape-rendering="crispEdges">
  <rect width="128" height="64" fill="#020406"/>
  <g fill="#fff"><rect x="70" y="5" width="55" height="1"/><rect x="69" y="6" width="1" height="1"/><rect x="125" y="6" width="1" height="1"/><rect x="68" y="7" width="1" height="1"/><rect x="126" y="7" width="1" height="1"/><rect x="68" y="8" width="1" height="1"/><rect x="126" y="8" width="1" height="1"/><rect x="0" y="9" width="4" height="1"/><rect x="5" y="9" width="4" height="1"/><rect x="10" y="9" width="1" height="1"/><rect x="54" y="9" width="5" height="1"/><rect x="60" y="9" width="4" height="1"/><rect x="68" y="9" width="1" height="1"/><rect x="126" y="9" width="1" height="1"/><rect x="3" y="10" width="1" height="1"/><rect x="8" y="10" width="1" height="1"/><rect x="10" y="10" width="1" height="1"/><rect x="54" y="10" width="1" height="1"/><rect x="58" y="10" width="1" height="1"/><rect x="63" y="10" width="1" height="1"/><rect x="68" y="10" width="1" height="1"/><rect x="126" y="10" width="1" height="1"/><rect x="3" y="11" width="1" height="1"/><rect x="8" y="11" width="1" height="1"/><rect x="10" y="11" width="1" height="1"/><rect x="54" y="11" width="1" height="1"/><rect x="58" y="11" width="1" height="1"/><rect x="63" y="11" width="1" height="1"/><rect x="68" y="11" width="1" height="1"/><rect x="73" y="11" width="1" height="1"/><rect x="126" y="11" width="1" height="1"/><rect x="10" y="12" width="1" height="1"/><rect x="54" y="12" width="1" height="1"/><rect x="68" y="12" width="1" height="1"/><rect x="72" y="12" width="3" height="1"/><rect x="126" y="12" width="1" height="1"/><rect x="0" y="13" width="2" height="1"/><rect x="3" y="13" width="4" height="1"/><rect x="8" y="13" width="3" height="1"/><rect x="54" y="13" width="3" height="1"/><rect x="58" y="13" width="4" height="1"/><rect x="63" y="13" width="2" height="1"/><rect x="68" y="13" width="1" height="1"/><rect x="71" y="13" width="5" height="1"/><rect x="85" y="13" width="2" height="1"/><rect x="92" y="13" width="5" height="1"/><rect x="99" y="13" width="13" height="1"/><rect x="126" y="13" width="1" height="1"/><rect x="1" y="14" width="1" height="1"/><rect x="6" y="14" width="1" height="1"/><rect x="10" y="14" width="1" height="1"/><rect x="54" y="14" width="1" height="1"/><rect x="56" y="14" width="1" height="1"/><rect x="61" y="14" width="1" height="1"/><rect x="68" y="14" width="1" height="1"/><rect x="70" y="14" width="7" height="1"/><rect x="85" y="14" width="2" height="1"/><rect x="91" y="14" width="6" height="1"/><rect x="99" y="14" width="3" height="1"/><rect x="108" y="14" width="2" height="1"/><rect x="126" y="14" width="1" height="1"/><rect x="1" y="15" width="1" height="1"/><rect x="6" y="15" width="1" height="1"/><rect x="10" y="15" width="1" height="1"/><rect x="54" y="15" width="1" height="1"/><rect x="56" y="15" width="1" height="1"/><rect x="61" y="15" width="1" height="1"/><rect x="68" y="15" width="1" height="1"/><rect x="72" y="15" width="3" height="1"/><rect x="85" y="15" width="2" height="1"/><rect x="91" y="15" width="3" height="1"/><rect x="99" y="15" width="5" height="1"/><rect x="108" y="15" width="1" height="1"/><rect x="126" y="15" width="1" height="1"/><rect x="10" y="16" width="1" height="1"/><rect x="54" y="16" width="1" height="1"/><rect x="68" y="16" width="1" height="1"/><rect x="72" y="16" width="3" height="1"/><rect x="85" y="16" width="2" height="1"/><rect x="89" y="16" width="4" height="1"/><rect x="95" y="16" width="3" height="1"/><rect x="99" y="16" width="2" height="1"/><rect x="107" y="16" width="2" height="1"/><rect x="126" y="16" width="1" height="1"/><rect x="0" y="17" width="4" height="1"/><rect x="5" y="17" width="4" height="1"/><rect x="10" y="17" width="1" height="1"/><rect x="54" y="17" width="5" height="1"/><rect x="60" y="17" width="4" height="1"/><rect x="68" y="17" width="1" height="1"/><rect x="72" y="17" width="3" height="1"/><rect x="85" y="17" width="5" height="1"/><rect x="91" y="17" width="5" height="1"/><rect x="99" y="17" width="2" height="1"/><rect x="107" y="17" width="2" height="1"/><rect x="126" y="17" width="1" height="1"/><rect x="3" y="18" width="1" height="1"/><rect x="8" y="18" width="1" height="1"/><rect x="10" y="18" width="1" height="1"/><rect x="54" y="18" width="1" height="1"/><rect x="58" y="18" width="1" height="1"/><rect x="63" y="18" width="1" height="1"/><rect x="68" y="18" width="1" height="1"/><rect x="73" y="18" width="1" height="1"/><rect x="126" y="18" width="1" height="1"/><rect x="3" y="19" width="1" height="1"/><rect x="8" y="19" width="1" height="1"/><rect x="10" y="19" width="1" height="1"/><rect x="54" y="19" width="1" height="1"/><rect x="58" y="19" width="1" height="1"/><rect x="63" y="19" width="1" height="1"/><rect x="68" y="19" width="1" height="1"/><rect x="126" y="19" width="1" height="1"/><rect x="10" y="20" width="1" height="1"/><rect x="54" y="20" width="1" height="1"/><rect x="68" y="20" width="1" height="1"/><rect x="126" y="20" width="1" height="1"/><rect x="0" y="21" width="2" height="1"/><rect x="3" y="21" width="4" height="1"/><rect x="8" y="21" width="3" height="1"/><rect x="54" y="21" width="3" height="1"/><rect x="58" y="21" width="4" height="1"/><rect x="63" y="21" width="2" height="1"/><rect x="68" y="21" width="1" height="1"/><rect x="126" y="21" width="1" height="1"/><rect x="1" y="22" width="1" height="1"/><rect x="6" y="22" width="1" height="1"/><rect x="10" y="22" width="1" height="1"/><rect x="54" y="22" width="1" height="1"/><rect x="56" y="22" width="1" height="1"/><rect x="61" y="22" width="1" height="1"/><rect x="68" y="22" width="1" height="1"/><rect x="73" y="22" width="1" height="1"/><rect x="126" y="22" width="1" height="1"/><rect x="1" y="23" width="1" height="1"/><rect x="6" y="23" width="1" height="1"/><rect x="10" y="23" width="1" height="1"/><rect x="54" y="23" width="1" height="1"/><rect x="56" y="23" width="1" height="1"/><rect x="61" y="23" width="1" height="1"/><rect x="68" y="23" width="1" height="1"/><rect x="72" y="23" width="3" height="1"/><rect x="126" y="23" width="1" height="1"/><rect x="10" y="24" width="1" height="1"/><rect x="54" y="24" width="1" height="1"/><rect x="68" y="24" width="1" height="1"/><rect x="72" y="24" width="3" height="1"/><rect x="81" y="24" width="7" height="1"/><rect x="90" y="24" width="5" height="1"/><rect x="98" y="24" width="6" height="1"/><rect x="105" y="24" width="3" height="1"/><rect x="110" y="24" width="2" height="1"/><rect x="113" y="24" width="7" height="1"/><rect x="126" y="24" width="1" height="1"/><rect x="0" y="25" width="4" height="1"/><rect x="5" y="25" width="4" height="1"/><rect x="10" y="25" width="1" height="1"/><rect x="54" y="25" width="5" height="1"/><rect x="60" y="25" width="4" height="1"/><rect x="68" y="25" width="1" height="1"/><rect x="72" y="25" width="3" height="1"/><rect x="81" y="25" width="3" height="1"/><rect x="85" y="25" width="3" height="1"/><rect x="92" y="25" width="2" height="1"/><rect x="97" y="25" width="2" height="1"/><rect x="102" y="25" width="2" height="1"/><rect x="105" y="25" width="2" height="1"/><rect x="110" y="25" width="2" height="1"/><rect x="116" y="25" width="2" height="1"/><rect x="126" y="25" width="1" height="1"/><rect x="3" y="26" width="1" height="1"/><rect x="8" y="26" width="1" height="1"/><rect x="10" y="26" width="1" height="1"/><rect x="54" y="26" width="1" height="1"/><rect x="58" y="26" width="1" height="1"/><rect x="63" y="26" width="1" height="1"/><rect x="68" y="26" width="1" height="1"/><rect x="70" y="26" width="7" height="1"/><rect x="81" y="26" width="5" height="1"/><rect x="92" y="26" width="2" height="1"/><rect x="97" y="26" width="2" height="1"/><rect x="100" y="26" width="12" height="1"/><rect x="116" y="26" width="2" height="1"/><rect x="126" y="26" width="1" height="1"/><rect x="3" y="27" width="1" height="1"/><rect x="8" y="27" width="1" height="1"/><rect x="10" y="27" width="1" height="1"/><rect x="54" y="27" width="1" height="1"/><rect x="58" y="27" width="1" height="1"/><rect x="63" y="27" width="1" height="1"/><rect x="68" y="27" width="1" height="1"/><rect x="71" y="27" width="5" height="1"/><rect x="81" y="27" width="2" height="1"/><rect x="85" y="27" width="3" height="1"/><rect x="92" y="27" width="2" height="1"/><rect x="97" y="27" width="2" height="1"/><rect x="102" y="27" width="2" height="1"/><rect x="105" y="27" width="2" height="1"/><rect x="110" y="27" width="2" height="1"/><rect x="115" y="27" width="2" height="1"/><rect x="126" y="27" width="1" height="1"/><rect x="10" y="28" width="1" height="1"/><rect x="54" y="28" width="1" height="1"/><rect x="68" y="28" width="1" height="1"/><rect x="72" y="28" width="3" height="1"/><rect x="81" y="28" width="2" height="1"/><rect x="87" y="28" width="2" height="1"/><rect x="91" y="28" width="5" height="1"/><rect x="98" y="28" width="5" height="1"/><rect x="105" y="28" width="2" height="1"/><rect x="110" y="28" width="2" height="1"/><rect x="115" y="28" width="2" height="1"/><rect x="126" y="28" width="1" height="1"/><rect x="0" y="29" width="2" height="1"/><rect x="3" y="29" width="4" height="1"/><rect x="8" y="29" width="3" height="1"/><rect x="54" y="29" width="3" height="1"/><rect x="58" y="29" width="4" height="1"/><rect x="63" y="29" width="2" height="1"/><rect x="68" y="29" width="1" height="1"/><rect x="73" y="29" width="1" height="1"/><rect x="126" y="29" width="1" height="1"/><rect x="1" y="30" width="1" height="1"/><rect x="6" y="30" width="1" height="1"/><rect x="10" y="30" width="1" height="1"/><rect x="54" y="30" width="1" height="1"/><rect x="56" y="30" width="1" height="1"/><rect x="61" y="30" width="1" height="1"/><rect x="68" y="30" width="1" height="1"/><rect x="126" y="30" width="1" height="1"/><rect x="1" y="31" width="1" height="1"/><rect x="6" y="31" width="1" height="1"/><rect x="10" y="31" width="1" height="1"/><rect x="54" y="31" width="1" height="1"/><rect x="56" y="31" width="1" height="1"/><rect x="61" y="31" width="1" height="1"/><rect x="68" y="31" width="1" height="1"/><rect x="126" y="31" width="1" height="1"/><rect x="10" y="32" width="1" height="1"/><rect x="54" y="32" width="1" height="1"/><rect x="68" y="32" width="1" height="1"/><rect x="126" y="32" width="1" height="1"/><rect x="0" y="33" width="4" height="1"/><rect x="5" y="33" width="4" height="1"/><rect x="10" y="33" width="1" height="1"/><rect x="54" y="33" width="5" height="1"/><rect x="60" y="33" width="4" height="1"/><rect x="68" y="33" width="1" height="1"/><rect x="72" y="33" width="3" height="1"/><rect x="126" y="33" width="1" height="1"/><rect x="3" y="34" width="1" height="1"/><rect x="8" y="34" width="1" height="1"/><rect x="10" y="34" width="1" height="1"/><rect x="54" y="34" width="1" height="1"/><rect x="58" y="34" width="1" height="1"/><rect x="63" y="34" width="1" height="1"/><rect x="68" y="34" width="1" height="1"/><rect x="71" y="34" width="1" height="1"/><rect x="75" y="34" width="1" height="1"/><rect x="126" y="34" width="1" height="1"/><rect x="3" y="35" width="1" height="1"/><rect x="8" y="35" width="1" height="1"/><rect x="10" y="35" width="1" height="1"/><rect x="54" y="35" width="1" height="1"/><rect x="58" y="35" width="1" height="1"/><rect x="63" y="35" width="1" height="1"/><rect x="68" y="35" width="1" height="1"/><rect x="70" y="35" width="1" height="1"/><rect x="76" y="35" width="1" height="1"/><rect x="126" y="35" width="1" height="1"/><rect x="10" y="36" width="1" height="1"/><rect x="54" y="36" width="1" height="1"/><rect x="68" y="36" width="1" height="1"/><rect x="70" y="36" width="1" height="1"/><rect x="76" y="36" width="1" height="1"/><rect x="80" y="36" width="7" height="1"/><rect x="90" y="36" width="6" height="1"/><rect x="97" y="36" width="7" height="1"/><rect x="106" y="36" width="3" height="1"/><rect x="110" y="36" width="7" height="1"/><rect x="119" y="36" width="5" height="1"/><rect x="126" y="36" width="1" height="1"/><rect x="0" y="37" width="2" height="1"/><rect x="3" y="37" width="4" height="1"/><rect x="8" y="37" width="3" height="1"/><rect x="54" y="37" width="3" height="1"/><rect x="58" y="37" width="4" height="1"/><rect x="63" y="37" width="2" height="1"/><rect x="68" y="37" width="1" height="1"/><rect x="70" y="37" width="1" height="1"/><rect x="76" y="37" width="1" height="1"/><rect x="80" y="37" width="2" height="1"/><rect x="84" y="37" width="2" height="1"/><rect x="89" y="37" width="2" height="1"/><rect x="94" y="37" width="2" height="1"/><rect x="100" y="37" width="2" height="1"/><rect x="105" y="37" width="2" height="1"/><rect x="108" y="37" width="2" height="1"/><rect x="113" y="37" width="2" height="1"/><rect x="118" y="37" width="6" height="1"/><rect x="126" y="37" width="1" height="1"/><rect x="1" y="38" width="1" height="1"/><rect x="6" y="38" width="1" height="1"/><rect x="10" y="38" width="1" height="1"/><rect x="54" y="38" width="1" height="1"/><rect x="56" y="38" width="1" height="1"/><rect x="61" y="38" width="1" height="1"/><rect x="68" y="38" width="1" height="1"/><rect x="70" y="38" width="2" height="1"/><rect x="75" y="38" width="2" height="1"/><rect x="80" y="38" width="5" height="1"/><rect x="89" y="38" width="2" height="1"/><rect x="94" y="38" width="2" height="1"/><rect x="100" y="38" width="1" height="1"/><rect x="104" y="38" width="3" height="1"/><rect x="108" y="38" width="2" height="1"/><rect x="113" y="38" width="1" height="1"/><rect x="118" y="38" width="3" height="1"/><rect x="126" y="38" width="1" height="1"/><rect x="1" y="39" width="1" height="1"/><rect x="6" y="39" width="1" height="1"/><rect x="10" y="39" width="1" height="1"/><rect x="54" y="39" width="1" height="1"/><rect x="56" y="39" width="1" height="1"/><rect x="61" y="39" width="1" height="1"/><rect x="68" y="39" width="1" height="1"/><rect x="70" y="39" width="1" height="1"/><rect x="72" y="39" width="3" height="1"/><rect x="76" y="39" width="1" height="1"/><rect x="80" y="39" width="2" height="1"/><rect x="83" y="39" width="3" height="1"/><rect x="89" y="39" width="2" height="1"/><rect x="94" y="39" width="2" height="1"/><rect x="99" y="39" width="2" height="1"/><rect x="104" y="39" width="7" height="1"/><rect x="112" y="39" width="2" height="1"/><rect x="118" y="39" width="2" height="1"/><rect x="122" y="39" width="3" height="1"/><rect x="126" y="39" width="1" height="1"/><rect x="10" y="40" width="1" height="1"/><rect x="54" y="40" width="1" height="1"/><rect x="68" y="40" width="1" height="1"/><rect x="70" y="40" width="1" height="1"/><rect x="76" y="40" width="1" height="1"/><rect x="80" y="40" width="2" height="1"/><rect x="85" y="40" width="2" height="1"/><rect x="90" y="40" width="5" height="1"/><rect x="99" y="40" width="2" height="1"/><rect x="104" y="40" width="2" height="1"/><rect x="109" y="40" width="2" height="1"/><rect x="112" y="40" width="2" height="1"/><rect x="118" y="40" width="5" height="1"/><rect x="126" y="40" width="1" height="1"/><rect x="0" y="41" width="4" height="1"/><rect x="5" y="41" width="4" height="1"/><rect x="10" y="41" width="1" height="1"/><rect x="54" y="41" width="5" height="1"/><rect x="60" y="41" width="4" height="1"/><rect x="68" y="41" width="1" height="1"/><rect x="71" y="41" width="1" height="1"/><rect x="75" y="41" width="1" height="1"/><rect x="126" y="41" width="1" height="1"/><rect x="3" y="42" width="1" height="1"/><rect x="8" y="42" width="1" height="1"/><rect x="10" y="42" width="1" height="1"/><rect x="54" y="42" width="1" height="1"/><rect x="58" y="42" width="1" height="1"/><rect x="63" y="42" width="1" height="1"/><rect x="68" y="42" width="1" height="1"/><rect x="72" y="42" width="3" height="1"/><rect x="126" y="42" width="1" height="1"/><rect x="3" y="43" width="1" height="1"/><rect x="8" y="43" width="1" height="1"/><rect x="10" y="43" width="1" height="1"/><rect x="54" y="43" width="1" height="1"/><rect x="58" y="43" width="1" height="1"/><rect x="63" y="43" width="1" height="1"/><rect x="68" y="43" width="1" height="1"/><rect x="126" y="43" width="1" height="1"/><rect x="10" y="44" width="1" height="1"/><rect x="54" y="44" width="1" height="1"/><rect x="68" y="44" width="1" height="1"/><rect x="126" y="44" width="1" height="1"/><rect x="0" y="45" width="2" height="1"/><rect x="3" y="45" width="4" height="1"/><rect x="8" y="45" width="3" height="1"/><rect x="54" y="45" width="3" height="1"/><rect x="58" y="45" width="4" height="1"/><rect x="63" y="45" width="2" height="1"/><rect x="68" y="45" width="1" height="1"/><rect x="126" y="45" width="1" height="1"/><rect x="1" y="46" width="1" height="1"/><rect x="6" y="46" width="1" height="1"/><rect x="10" y="46" width="1" height="1"/><rect x="54" y="46" width="1" height="1"/><rect x="56" y="46" width="1" height="1"/><rect x="61" y="46" width="1" height="1"/><rect x="68" y="46" width="1" height="1"/><rect x="126" y="46" width="1" height="1"/><rect x="1" y="47" width="1" height="1"/><rect x="6" y="47" width="1" height="1"/><rect x="10" y="47" width="1" height="1"/><rect x="54" y="47" width="1" height="1"/><rect x="56" y="47" width="1" height="1"/><rect x="61" y="47" width="1" height="1"/><rect x="68" y="47" width="1" height="1"/><rect x="126" y="47" width="1" height="1"/><rect x="10" y="48" width="1" height="1"/><rect x="54" y="48" width="1" height="1"/><rect x="68" y="48" width="1" height="1"/><rect x="73" y="48" width="1" height="1"/><rect x="87" y="48" width="1" height="1"/><rect x="126" y="48" width="1" height="1"/><rect x="0" y="49" width="4" height="1"/><rect x="5" y="49" width="4" height="1"/><rect x="10" y="49" width="1" height="1"/><rect x="54" y="49" width="5" height="1"/><rect x="60" y="49" width="4" height="1"/><rect x="68" y="49" width="1" height="1"/><rect x="72" y="49" width="3" height="1"/><rect x="86" y="49" width="3" height="1"/><rect x="96" y="49" width="5" height="1"/><rect x="104" y="49" width="2" height="1"/><rect x="107" y="49" width="2" height="1"/><rect x="111" y="49" width="9" height="1"/><rect x="126" y="49" width="1" height="1"/><rect x="3" y="50" width="1" height="1"/><rect x="8" y="50" width="1" height="1"/><rect x="10" y="50" width="1" height="1"/><rect x="54" y="50" width="1" height="1"/><rect x="58" y="50" width="1" height="1"/><rect x="63" y="50" width="1" height="1"/><rect x="68" y="50" width="1" height="1"/><rect x="71" y="50" width="5" height="1"/><rect x="86" y="50" width="3" height="1"/><rect x="95" y="50" width="6" height="1"/><rect x="105" y="50" width="3" height="1"/><rect x="111" y="50" width="2" height="1"/><rect x="116" y="50" width="2" height="1"/><rect x="126" y="50" width="1" height="1"/><rect x="3" y="51" width="1" height="1"/><rect x="8" y="51" width="1" height="1"/><rect x="10" y="51" width="1" height="1"/><rect x="54" y="51" width="1" height="1"/><rect x="58" y="51" width="1" height="1"/><rect x="63" y="51" width="1" height="1"/><rect x="68" y="51" width="1" height="1"/><rect x="70" y="51" width="7" height="1"/><rect x="80" y="51" width="1" height="1"/><rect x="86" y="51" width="3" height="1"/><rect x="95" y="51" width="3" height="1"/><rect x="105" y="51" width="3" height="1"/><rect x="111" y="51" width="2" height="1"/><rect x="116" y="51" width="1" height="1"/><rect x="126" y="51" width="1" height="1"/><rect x="10" y="52" width="1" height="1"/><rect x="54" y="52" width="1" height="1"/><rect x="68" y="52" width="1" height="1"/><rect x="72" y="52" width="3" height="1"/><rect x="79" y="52" width="3" height="1"/><rect x="84" y="52" width="7" height="1"/><rect x="95" y="52" width="2" height="1"/><rect x="99" y="52" width="3" height="1"/><rect x="104" y="52" width="2" height="1"/><rect x="107" y="52" width="2" height="1"/><rect x="111" y="52" width="2" height="1"/><rect x="115" y="52" width="2" height="1"/><rect x="126" y="52" width="1" height="1"/><rect x="0" y="53" width="2" height="1"/><rect x="3" y="53" width="4" height="1"/><rect x="8" y="53" width="3" height="1"/><rect x="54" y="53" width="3" height="1"/><rect x="58" y="53" width="4" height="1"/><rect x="63" y="53" width="2" height="1"/><rect x="68" y="53" width="1" height="1"/><rect x="72" y="53" width="3" height="1"/><rect x="80" y="53" width="1" height="1"/><rect x="85" y="53" width="5" height="1"/><rect x="95" y="53" width="5" height="1"/><rect x="103" y="53" width="2" height="1"/><rect x="108" y="53" width="2" height="1"/><rect x="111" y="53" width="2" height="1"/><rect x="115" y="53" width="2" height="1"/><rect x="126" y="53" width="1" height="1"/><rect x="1" y="54" width="1" height="1"/><rect x="6" y="54" width="1" height="1"/><rect x="10" y="54" width="1" height="1"/><rect x="54" y="54" width="1" height="1"/><rect x="56" y="54" width="1" height="1"/><rect x="61" y="54" width="1" height="1"/><rect x="68" y="54" width="1" height="1"/><rect x="72" y="54" width="3" height="1"/><rect x="86" y="54" width="3" height="1"/><rect x="126" y="54" width="1" height="1"/><rect x="1" y="55" width="1" height="1"/><rect x="6" y="55" width="1" height="1"/><rect x="10" y="55" width="1" height="1"/><rect x="54" y="55" width="1" height="1"/><rect x="56" y="55" width="1" height="1"/><rect x="61" y="55" width="1" height="1"/><rect x="68" y="55" width="1" height="1"/><rect x="73" y="55" width="1" height="1"/><rect x="87" y="55" width="1" height="1"/><rect x="126" y="55" width="1" height="1"/><rect x="10" y="56" width="1" height="1"/><rect x="54" y="56" width="1" height="1"/><rect x="68" y="56" width="1" height="1"/><rect x="126" y="56" width="1" height="1"/><rect x="0" y="57" width="4" height="1"/><rect x="5" y="57" width="4" height="1"/><rect x="10" y="57" width="1" height="1"/><rect x="54" y="57" width="5" height="1"/><rect x="60" y="57" width="4" height="1"/><rect x="68" y="57" width="1" height="1"/><rect x="126" y="57" width="1" height="1"/><rect x="3" y="58" width="1" height="1"/><rect x="8" y="58" width="1" height="1"/><rect x="10" y="58" width="1" height="1"/><rect x="54" y="58" width="1" height="1"/><rect x="58" y="58" width="1" height="1"/><rect x="63" y="58" width="1" height="1"/><rect x="68" y="58" width="1" height="1"/><rect x="126" y="58" width="1" height="1"/><rect x="3" y="59" width="1" height="1"/><rect x="8" y="59" width="1" height="1"/><rect x="10" y="59" width="1" height="1"/><rect x="54" y="59" width="1" height="1"/><rect x="58" y="59" width="1" height="1"/><rect x="63" y="59" width="1" height="1"/><rect x="68" y="59" width="1" height="1"/><rect x="126" y="59" width="1" height="1"/><rect x="10" y="60" width="1" height="1"/><rect x="54" y="60" width="1" height="1"/><rect x="69" y="60" width="1" height="1"/><rect x="125" y="60" width="1" height="1"/><rect x="0" y="61" width="2" height="1"/><rect x="3" y="61" width="4" height="1"/><rect x="8" y="61" width="3" height="1"/><rect x="54" y="61" width="3" height="1"/><rect x="58" y="61" width="4" height="1"/><rect x="63" y="61" width="2" height="1"/><rect x="70" y="61" width="55" height="1"/><rect x="1" y="62" width="1" height="1"/><rect x="6" y="62" width="1" height="1"/><rect x="10" y="62" width="1" height="1"/><rect x="54" y="62" width="1" height="1"/><rect x="56" y="62" width="1" height="1"/><rect x="61" y="62" width="1" height="1"/><rect x="1" y="63" width="1" height="1"/><rect x="6" y="63" width="1" height="1"/><rect x="56" y="63" width="1" height="1"/><rect x="61" y="63" width="1" height="1"/></g>
</svg>
