<svg xmlns="http://www.w3.org/2000/svg" viewBox="0 0 64 128" width="64" height="128" shape-rendering="crispEdges">
  <rect width="64" height="128" fill="#020406"/>
  <g fill="#fff"><rect x="8" y="66" width="2" height="1"/><rect x="11" y="66" width="3" height="1"/><rect x="15" y="66" width="1" height="1"/><rect x="19" y="66" width="1" height="1"/><rect x="21" y="66" width="1" height="1"/><rect x="25" y="66" width="1" height="1"/><rect x="23" y="67" width="1" height="1"/><rect x="28" y="67" width="1" height="1"/><rect x="31" y="67" width="2" height="1"/><rect x="35" y="67" width="1" height="1"/><rect x="37" y="67" width="1" height="1"/><rect x="41" y="67" width="1" height="1"/><rect x="61" y="67" width="3" height="1"/><rect x="9" y="68" width="1" height="1"/><rect x="11" y="68" width="1" height="1"/><rect x="14" y="68" width="1" height="1"/><rect x="16" y="68" width="1" height="1"/><rect x="39" y="68" width="1" height="1"/><rect x="44" y="68" width="1" height="1"/><rect x="47" y="68" width="2" height="1"/><rect x="51" y="68" width="1" height="1"/><rect x="53" y="68" width="1" height="1"/><rect x="57" y="68" width="1" height="1"/><rect x="15" y="69" width="1" height="1"/><rect x="20" y="69" width="1" height="1"/><rect x="23" y="69" width="1" height="1"/><rect x="26" y="69" width="2" height="1"/><rect x="31" y="69" width="1" height="1"/><rect x="55" y="69" width="1" height="1"/><rect x="60" y="69" width="1" height="1"/><rect x="63" y="69" width="1" height="1"/><rect x="31" y="70" width="1" height="1"/><rect x="36" y="70" width="1" height="1"/><rect x="39" y="70" width="1" height="1"/><rect x="42" y="70" width="2" height="1"/><rect x="47" y="70" width="1" height="1"/><rect x="47" y="71" width="1" height="1"/><rect x="51" y="71" width="3" height="1"/><rect x="55" y="71" width="1" height="1"/><rect x="59" y="71" width="1" height="1"/><rect x="63" y="71" width="1" height="1"/><rect x="9" y="73" width="1" height="1"/><rect x="13" y="73" width="1" height="1"/><rect x="16" y="73" width="1" height="1"/><rect x="19" y="73" width="1" height="1"/><rect x="23" y="73" width="1" height="1"/><rect x="31" y="73" width="5" height="1"/><rect x="37" y="73" width="5" height="1"/><rect x="43" y="73" width="5" height="1"/><rect x="49" y="73" width="4" height="1"/><rect x="55" y="73" width="3" height="1"/><rect x="60" y="73" width="3" height="1"/><rect x="9" y="74" width="1" height="1"/><rect x="13" y="74" width="1" height="1"/><rect x="21" y="74" width="1" height="1"/><rect x="25" y="74" width="1" height="1"/><rect x="29" y="74" width="1" height="1"/><rect x="32" y="74" width="1" height="1"/><rect x="35" y="74" width="1" height="1"/><rect x="49" y="74" width="1" height="1"/><rect x="53" y="74" width="1" height="1"/><rect x="61" y="74" width="1" height="1"/><rect x="8" y="75" width="1" height="1"/><rect x="15" y="75" width="1" height="1"/><rect x="25" y="75" width="1" height="1"/><rect x="29" y="75" width="4" height="1"/><rect x="37" y="75" width="1" height="1"/><rect x="41" y="75" width="4" height="1"/><rect x="48" y="75" width="1" height="1"/><rect x="52" y="75" width="3" height="1"/><rect x="13" y="76" width="1" height="1"/><rect x="17" y="76" width="1" height="1"/><rect x="21" y="76" width="1" height="1"/><rect x="24" y="76" width="1" height="1"/><rect x="27" y="76" width="1" height="1"/><rect x="31" y="76" width="1" height="1"/><rect x="41" y="76" width="1" height="1"/><rect x="45" y="76" width="1" height="1"/><rect x="53" y="76" width="1" height="1"/><rect x="57" y="76" width="1" height="1"/><rect x="61" y="76" width="1" height="1"/><rect x="17" y="77" width="1" height="1"/><rect x="21" y="77" width="5" height="1"/><rect x="29" y="77" width="1" height="1"/><rect x="33" y="77" width="1" height="1"/><rect x="37" y="77" width="1" height="1"/><rect x="39" y="77" width="3" height="1"/><rect x="44" y="77" width="3" height="1"/><rect x="57" y="77" width="1" height="1"/><rect x="61" y="77" width="1" height="1"/><rect x="0" y="87" width="1" height="1"/><rect x="27" y="87" width="1" height="1"/><rect x="36" y="87" width="4" height="1"/><rect x="63" y="87" width="1" height="1"/><rect x="0" y="88" width="1" height="1"/><rect x="36" y="88" width="1" height="1"/><rect x="39" y="88" width="1" height="1"/><rect x="63" y="88" width="1" height="1"/><rect x="0" y="89" width="1" height="1"/><rect x="35" y="89" width="1" height="1"/><rect x="39" y="89" width="2" height="1"/><rect x="63" y="89" width="1" height="1"/><rect x="0" y="90" width="1" height="1"/><rect x="35" y="90" width="1" height="1"/><rect x="39" y="90" width="2" height="1"/><rect x="63" y="90" width="1" height="1"/><rect x="0" y="91" width="1" height="1"/><rect x="35" y="91" width="1" height="1"/><rect x="38" y="91" width="2" height="1"/><rect x="63" y="91" width="1" height="1"/><rect x="0" y="92" width="1" height="1"/><rect x="4" y="92" width="1" height="1"/><rect x="36" y="92" width="4" height="1"/><rect x="63" y="92" width="1" height="1"/><rect x="0" y="93" width="1" height="1"/><rect x="37" y="93" width="2" height="1"/><rect x="63" y="93" width="1" height="1"/><rect x="0" y="94" width="1" height="1"/><rect x="37" y="94" width="2" height="1"/><rect x="63" y="94" width="1" height="1"/><rect x="0" y="95" width="1" height="1"/><rect x="37" y="95" width="2" height="1"/><rect x="56" y="95" width="2" height="1"/><rect x="63" y="95" width="1" height="1"/><rect x="0" y="96" width="1" height="1"/><rect x="37" y="96" width="2" height="1"/><rect x="56" y="96" width="2" height="1"/><rect x="63" y="96" width="1" height="1"/><rect x="0" y="97" width="1" height="1"/><rect x="37" y="97" width="2" height="1"/><rect x="47" y="97" width="1" height="1"/><rect x="63" y="97" width="1" height="1"/><rect x="0" y="98" width="1" height="1"/><rect x="36" y="98" width="3" height="1"/><rect x="63" y="98" width="1" height="1"/><rect x="0" y="99" width="1" height="1"/><rect x="36" y="99" width="1" height="1"/><rect x="38" y="99" width="2" height="1"/><rect x="63" y="99" width="1" height="1"/><rect x="0" y="100" width="1" height="1"/><rect x="12" y="100" width="2" height="1"/><rect x="36" y="100" width="4" height="1"/><rect x="63" y="100" width="1" height="1"/><rect x="0" y="101" width="1" height="1"/><rect x="12" y="101" width="2" height="1"/><rect x="35" y="101" width="6" height="1"/><rect x="63" y="101" width="1" height="1"/><rect x="0" y="102" width="1" height="1"/><rect x="34" y="102" width="1" height="1"/><rect x="37" y="102" width="1" height="1"/><rect x="39" y="102" width="3" height="1"/><rect x="63" y="102" width="1" height="1"/><rect x="0" y="103" width="1" height="1"/><rect x="33" y="103" width="1" height="1"/><rect x="36" y="103" width="1" height="1"/><rect x="38" y="103" width="5" height="1"/><rect x="63" y="103" width="1" height="1"/><rect x="0" y="104" width="1" height="1"/><rect x="32" y="104" width="2" height="1"/><rect x="35" y="104" width="2" height="1"/><rect x="38" y="104" width="2" height="1"/><rect x="41" y="104" width="2" height="1"/><rect x="63" y="104" width="1" height="1"/><rect x="0" y="105" width="1" height="1"/><rect x="31" y="105" width="1" height="1"/><rect x="34" y="105" width="2" height="1"/><rect x="38" y="105" width="2" height="1"/><rect x="41" y="105" width="3" height="1"/><rect x="63" y="105" width="1" height="1"/><rect x="0" y="106" width="1" height="1"/><rect x="30" y="106" width="1" height="1"/><rect x="33" y="106" width="2" height="1"/><rect x="37" y="106" width="3" height="1"/><rect x="41" y="106" width="4" height="1"/><rect x="63" y="106" width="1" height="1"/><rect x="0" y="107" width="1" height="1"/><rect x="29" y="107" width="2" height="1"/><rect x="32" y="107" width="3" height="1"/><rect x="37" y="107" width="3" height="1"/><rect x="42" y="107" width="1" height="1"/><rect x="44" y="107" width="2" height="1"/><rect x="57" y="107" width="2" height="1"/><rect x="63" y="107" width="1" height="1"/><rect x="0" y="108" width="1" height="1"/><rect x="28" y="108" width="2" height="1"/><rect x="31" y="108" width="3" height="1"/><rect x="37" y="108" width="2" height="1"/><rect x="42" y="108" width="5" height="1"/><rect x="56" y="108" width="2" height="1"/><rect x="59" y="108" width="1" height="1"/><rect x="63" y="108" width="1" height="1"/><rect x="0" y="109" width="1" height="1"/><rect x="27" y="109" width="2" height="1"/><rect x="30" y="109" width="3" height="1"/><rect x="36" y="109" width="3" height="1"/><rect x="42" y="109" width="6" height="1"/><rect x="56" y="109" width="1" height="1"/><rect x="59" y="109" width="1" height="1"/><rect x="63" y="109" width="1" height="1"/><rect x="0" y="110" width="1" height="1"/><rect x="26" y="110" width="2" height="1"/><rect x="29" y="110" width="4" height="1"/><rect x="36" y="110" width="3" height="1"/><rect x="42" y="110" width="3" height="1"/><rect x="47" y="110" width="2" height="1"/><rect x="55" y="110" width="2" height="1"/><rect x="59" y="110" width="2" height="1"/><rect x="63" y="110" width="1" height="1"/><rect x="0" y="111" width="1" height="1"/><rect x="26" y="111" width="1" height="1"/><rect x="28" y="111" width="4" height="1"/><rect x="35" y="111" width="4" height="1"/><rect x="43" y="111" width="3" height="1"/><rect x="47" y="111" width="3" height="1"/><rect x="55" y="111" width="2" height="1"/><rect x="59" y="111" width="2" height="1"/><rect x="63" y="111" width="1" height="1"/><rect x="0" y="112" width="1" height="1"/><rect x="25" y="112" width="1" height="1"/><rect x="28" y="112" width="3" height="1"/><rect x="35" y="112" width="4" height="1"/><rect x="43" y="112" width="3" height="1"/><rect x="48" y="112" width="2" height="1"/><rect x="56" y="112" width="1" height="1"/><rect x="58" y="112" width="2" height="1"/><rect x="63" y="112" width="1" height="1"/><rect x="0" y="113" width="1" height="1"/><rect x="15" y="113" width="1" height="1"/><rect x="25" y="113" width="1" height="1"/><rect x="28" y="113" width="3" height="1"/><rect x="35" y="113" width="4" height="1"/><rect x="43" y="113" width="4" height="1"/><rect x="48" y="113" width="3" height="1"/><rect x="57" y="113" width="2" height="1"/><rect x="63" y="113" width="1" height="1"/><rect x="0" y="114" width="1" height="1"/><rect x="15" y="114" width="1" height="1"/><rect x="24" y="114" width="1" height="1"/><rect x="27" y="114" width="4" height="1"/><rect x="34" y="114" width="5" height="1"/><rect x="44" y="114" width="4" height="1"/><rect x="49" y="114" width="2" height="1"/><rect x="57" y="114" width="2" height="1"/><rect x="63" y="114" width="1" height="1"/><rect x="0" y="115" width="1" height="1"/><rect x="15" y="115" width="1" height="1"/><rect x="24" y="115" width="1" height="1"/><rect x="27" y="115" width="4" height="1"/><rect x="34" y="115" width="5" height="1"/><rect x="44" y="115" width="4" height="1"/><rect x="50" y="115" width="2" height="1"/><rect x="57" y="115" width="2" height="1"/><rect x="63" y="115" width="1" height="1"/><rect x="0" y="116" width="1" height="1"/><rect x="15" y="116" width="1" height="1"/><rect x="24" y="116" width="1" height="1"/><rect x="27" y="116" width="4" height="1"/><rect x="34" y="116" width="6" height="1"/><rect x="44" y="116" width="4" height="1"/><rect x="50" y="116" width="2" height="1"/><rect x="57" y="116" width="2" height="1"/><rect x="63" y="116" width="1" height="1"/><rect x="0" y="117" width="1" height="1"/><rect x="14" y="117" width="3" height="1"/><rect x="24" y="117" width="1" height="1"/><rect x="27" y="117" width="4" height="1"/><rect x="34" y="117" width="6" height="1"/><rect x="45" y="117" width="3" height="1"/><rect x="50" y="117" width="2" height="1"/><rect x="57" y="117" width="2" height="1"/><rect x="63" y="117" width="1" height="1"/><rect x="0" y="118" width="1" height="1"/><rect x="6" y="118" width="2" height="1"/><rect x="14" y="118" width="3" height="1"/><rect x="24" y="118" width="1" height="1"/><rect x="27" y="118" width="4" height="1"/><rect x="35" y="118" width="5" height="1"/><rect x="45" y="118" width="3" height="1"/><rect x="49" y="118" width="3" height="1"/><rect x="57" y="118" width="2" height="1"/><rect x="63" y="118" width="1" height="1"/><rect x="0" y="119" width="1" height="1"/><rect x="5" y="119" width="4" height="1"/><rect x="14" y="119" width="3" height="1"/><rect x="25" y="119" width="1" height="1"/><rect x="27" y="119" width="5" height="1"/><rect x="35" y="119" width="6" height="1"/><rect x="45" y="119" width="2" height="1"/><rect x="49" y="119" width="2" height="1"/><rect x="56" y="119" width="4" height="1"/><rect x="63" y="119" width="1" height="1"/><rect x="0" y="120" width="1" height="1"/><rect x="4" y="120" width="6" height="1"/><rect x="13" y="120" width="5" height="1"/><rect x="20" y="120" width="2" height="1"/><rect x="25" y="120" width="1" height="1"/><rect x="28" y="120" width="4" height="1"/><rect x="36" y="120" width="5" height="1"/><rect x="44" y="120" width="3" height="1"/><rect x="48" y="120" width="3" height="1"/><rect x="56" y="120" width="4" height="1"/><rect x="63" y="120" width="1" height="1"/><rect x="0" y="121" width="2" height="1"/><rect x="4" y="121" width="6" height="1"/><rect x="13" y="121" width="5" height="1"/><rect x="21" y="121" width="1" height="1"/><rect x="26" y="121" width="1" height="1"/><rect x="28" y="121" width="5" height="1"/><rect x="36" y="121" width="5" height="1"/><rect x="44" y="121" width="2" height="1"/><rect x="48" y="121" width="2" height="1"/><rect x="52" y="121" width="1" height="1"/><rect x="56" y="121" width="4" height="1"/><rect x="63" y="121" width="1" height="1"/><rect x="0" y="122" width="2" height="1"/><rect x="4" y="122" width="6" height="1"/><rect x="13" y="122" width="5" height="1"/><rect x="21" y="122" width="1" height="1"/><rect x="26" y="122" width="1" height="1"/><rect x="29" y="122" width="5" height="1"/><rect x="37" y="122" width="5" height="1"/><rect x="44" y="122" width="2" height="1"/><rect x="47" y="122" width="3" height="1"/><rect x="52" y="122" width="2" height="1"/><rect x="55" y="122" width="1" height="1"/><rect x="57" y="122" width="4" height="1"/><rect x="63" y="122" width="1" height="1"/><rect x="0" y="123" width="3" height="1"/><rect x="5" y="123" width="4" height="1"/><rect x="13" y="123" width="5" height="1"/><rect x="20" y="123" width="3" height="1"/><rect x="27" y="123" width="22" height="1"/><rect x="50" y="123" width="1" height="1"/><rect x="52" y="123" width="1" height="1"/><rect x="54" y="123" width="1" height="1"/><rect x="59" y="123" width="3" height="1"/><rect x="63" y="123" width="1" height="1"/><rect x="0" y="124" width="3" height="1"/><rect x="5" y="124" width="4" height="1"/><rect x="12" y="124" width="6" height="1"/><rect x="20" y="124" width="3" height="1"/><rect x="25" y="124" width="23" height="1"/><rect x="50" y="124" width="1" height="1"/><rect x="52" y="124" width="2" height="1"/><rect x="56" y="124" width="1" height="1"/><rect x="58" y="124" width="2" height="1"/><rect x="61" y="124" width="3" height="1"/><rect x="0" y="125" width="3" height="1"/><rect x="5" y="125" width="4" height="1"/><rect x="11" y="125" width="12" height="1"/><rect x="24" y="125" width="30" height="1"/><rect x="55" y="125" width="2" height="1"/><rect x="58" y="125" width="2" height="1"/><rect x="61" y="125" width="3" height="1"/><rect x="0" y="126" width="64" height="1"/></g>
</svg>
