<svg xmlns="http://www.w3.org/2000/svg" viewBox="0 0 128 64" width="128" height="64" shape-rendering="crispEdges">
  <rect width="128" height="64" fill="#020406"/>
  <g fill="#fff"><rect x="1" y="0" width="40" height="1"/><rect x="1" y="1" width="6" height="1"/><rect x="1" y="2" width="4" height="1"/><rect x="1" y="3" width="1" height="1"/><rect x="1" y="4" width="1" height="1"/><rect x="5" y="4" width="3" height="1"/><rect x="35" y="4" width="1" height="1"/><rect x="1" y="5" width="8" height="1"/><rect x="1" y="6" width="9" height="1"/><rect x="1" y="7" width="9" height="1"/><rect x="1" y="8" width="8" height="1"/><rect x="52" y="8" width="1" height="1"/><rect x="61" y="8" width="1" height="1"/><rect x="1" y="9" width="1" height="1"/><rect x="5" y="9" width="3" height="1"/><rect x="53" y="9" width="2" height="1"/><rect x="59" y="9" width="1" height="1"/><rect x="61" y="9" width="1" height="1"/><rect x="1" y="10" width="1" height="1"/><rect x="1" y="11" width="2" height="1"/><rect x="59" y="11" width="1" height="1"/><rect x="61" y="11" width="1" height="1"/><rect x="1" y="12" width="3" height="1"/><rect x="26" y="12" width="2" height="1"/><rect x="61" y="12" width="1" height="1"/><rect x="1" y="13" width="7" height="1"/><rect x="26" y="13" width="2" height="1"/><rect x="51" y="13" width="1" height="1"/><rect x="53" y="13" width="2" height="1"/><rect x="61" y="13" width="1" height="1"/><rect x="1" y="14" width="10" height="1"/><rect x="59" y="14" width="1" height="1"/><rect x="1" y="15" width="14" height="1"/><rect x="52" y="15" width="1" height="1"/><rect x="58" y="15" width="1" height="1"/><rect x="61" y="15" width="1" height="1"/><rect x="1" y="16" width="10" height="1"/><rect x="54" y="16" width="1" height="1"/><rect x="59" y="16" width="1" height="1"/><rect x="1" y="17" width="7" height="1"/><rect x="50" y="17" width="2" height="1"/><rect x="1" y="18" width="2" height="1"/><rect x="1" y="19" width="2" height="1"/><rect x="54" y="19" width="1" height="1"/><rect x="61" y="19" width="1" height="1"/><rect x="1" y="20" width="4" height="1"/><rect x="7" y="20" width="1" height="1"/><rect x="58" y="20" width="1" height="1"/><rect x="1" y="21" width="7" height="1"/><rect x="50" y="21" width="2" height="1"/><rect x="53" y="21" width="1" height="1"/><rect x="61" y="21" width="1" height="1"/><rect x="1" y="22" width="4" height="1"/><rect x="50" y="22" width="1" height="1"/><rect x="1" y="23" width="1" height="1"/><rect x="50" y="23" width="1" height="1"/><rect x="54" y="23" width="1" height="1"/><rect x="58" y="23" width="1" height="1"/><rect x="60" y="23" width="1" height="1"/><rect x="1" y="24" width="2" height="1"/><rect x="9" y="24" width="5" height="1"/><rect x="50" y="24" width="2" height="1"/><rect x="1" y="25" width="3" height="1"/><rect x="7" y="25" width="2" height="1"/><rect x="14" y="25" width="2" height="1"/><rect x="50" y="25" width="1" height="1"/><rect x="52" y="25" width="2" height="1"/><rect x="61" y="25" width="1" height="1"/><rect x="1" y="26" width="3" height="1"/><rect x="5" y="26" width="2" height="1"/><rect x="16" y="26" width="2" height="1"/><rect x="58" y="26" width="1" height="1"/><rect x="1" y="27" width="4" height="1"/><rect x="8" y="27" width="6" height="1"/><rect x="17" y="27" width="2" height="1"/><rect x="40" y="27" width="1" height="1"/><rect x="51" y="27" width="1" height="1"/><rect x="58" y="27" width="1" height="1"/><rect x="1" y="28" width="4" height="1"/><rect x="6" y="28" width="11" height="1"/><rect x="18" y="28" width="2" height="1"/><rect x="60" y="28" width="1" height="1"/><rect x="1" y="29" width="17" height="1"/><rect x="19" y="29" width="2" height="1"/><rect x="50" y="29" width="1" height="1"/><rect x="52" y="29" width="2" height="1"/><rect x="1" y="30" width="18" height="1"/><rect x="20" y="30" width="2" height="1"/><rect x="52" y="30" width="1" height="1"/><rect x="1" y="31" width="8" height="1"/><rect x="16" y="31" width="4" height="1"/><rect x="22" y="31" width="1" height="1"/><rect x="51" y="31" width="2" height="1"/><rect x="54" y="31" width="1" height="1"/><rect x="57" y="31" width="2" height="1"/><rect x="60" y="31" width="1" height="1"/><rect x="1" y="32" width="6" height="1"/><rect x="17" y="32" width="4" height="1"/><rect x="23" y="32" width="1" height="1"/><rect x="52" y="32" width="3" height="1"/><rect x="60" y="32" width="1" height="1"/><rect x="1" y="33" width="5" height="1"/><rect x="19" y="33" width="3" height="1"/><rect x="23" y="33" width="2" height="1"/><rect x="50" y="33" width="1" height="1"/><rect x="54" y="33" width="1" height="1"/><rect x="1" y="34" width="4" height="1"/><rect x="10" y="34" width="4" height="1"/><rect x="20" y="34" width="3" height="1"/><rect x="25" y="34" width="1" height="1"/><rect x="54" y="34" width="1" height="1"/><rect x="1" y="35" width="4" height="1"/><rect x="8" y="35" width="9" height="1"/><rect x="22" y="35" width="2" height="1"/><rect x="26" y="35" width="1" height="1"/><rect x="36" y="35" width="3" height="1"/><rect x="53" y="35" width="2" height="1"/><rect x="60" y="35" width="1" height="1"/><rect x="1" y="36" width="4" height="1"/><rect x="6" y="36" width="13" height="1"/><rect x="23" y="36" width="2" height="1"/><rect x="26" y="36" width="4" height="1"/><rect x="35" y="36" width="1" height="1"/><rect x="39" y="36" width="2" height="1"/><rect x="57" y="36" width="1" height="1"/><rect x="1" y="37" width="21" height="1"/><rect x="25" y="37" width="3" height="1"/><rect x="29" y="37" width="7" height="1"/><rect x="40" y="37" width="1" height="1"/><rect x="50" y="37" width="1" height="1"/><rect x="52" y="37" width="1" height="1"/><rect x="54" y="37" width="1" height="1"/><rect x="60" y="37" width="1" height="1"/><rect x="1" y="38" width="24" height="1"/><rect x="26" y="38" width="11" height="1"/><rect x="40" y="38" width="1" height="1"/><rect x="54" y="38" width="1" height="1"/><rect x="1" y="39" width="11" height="1"/><rect x="20" y="39" width="9" height="1"/><rect x="35" y="39" width="6" height="1"/><rect x="50" y="39" width="1" height="1"/><rect x="54" y="39" width="1" height="1"/><rect x="57" y="39" width="1" height="1"/><rect x="59" y="39" width="1" height="1"/><rect x="1" y="40" width="8" height="1"/><rect x="24" y="40" width="3" height="1"/><rect x="37" y="40" width="2" height="1"/><rect x="50" y="40" width="1" height="1"/><rect x="54" y="40" width="1" height="1"/><rect x="1" y="41" width="5" height="1"/><rect x="21" y="41" width="5" height="1"/><rect x="50" y="41" width="3" height="1"/><rect x="54" y="41" width="1" height="1"/><rect x="60" y="41" width="1" height="1"/><rect x="1" y="42" width="4" height="1"/><rect x="17" y="42" width="8" height="1"/><rect x="52" y="42" width="1" height="1"/><rect x="57" y="42" width="1" height="1"/><rect x="1" y="43" width="4" height="1"/><rect x="14" y="43" width="6" height="1"/><rect x="21" y="43" width="2" height="1"/><rect x="52" y="43" width="1" height="1"/><rect x="54" y="43" width="1" height="1"/><rect x="57" y="43" width="1" height="1"/><rect x="1" y="44" width="7" height="1"/><rect x="11" y="44" width="11" height="1"/><rect x="50" y="44" width="1" height="1"/><rect x="52" y="44" width="1" height="1"/><rect x="54" y="44" width="1" height="1"/><rect x="59" y="44" width="1" height="1"/><rect x="1" y="45" width="16" height="1"/><rect x="18" y="45" width="3" height="1"/><rect x="50" y="45" width="2" height="1"/><rect x="54" y="45" width="1" height="1"/><rect x="1" y="46" width="4" height="1"/><rect x="7" y="46" width="8" height="1"/><rect x="18" y="46" width="2" height="1"/><rect x="50" y="46" width="1" height="1"/><rect x="54" y="46" width="1" height="1"/><rect x="1" y="47" width="5" height="1"/><rect x="9" y="47" width="5" height="1"/><rect x="16" y="47" width="3" height="1"/><rect x="30" y="47" width="1" height="1"/><rect x="54" y="47" width="1" height="1"/><rect x="56" y="47" width="2" height="1"/><rect x="59" y="47" width="1" height="1"/><rect x="1" y="48" width="2" height="1"/><rect x="4" y="48" width="4" height="1"/><rect x="14" y="48" width="4" height="1"/><rect x="52" y="48" width="1" height="1"/><rect x="59" y="48" width="1" height="1"/><rect x="1" y="49" width="2" height="1"/><rect x="5" y="49" width="5" height="1"/><rect x="13" y="49" width="4" height="1"/><rect x="53" y="49" width="2" height="1"/><rect x="1" y="50" width="4" height="1"/><rect x="7" y="50" width="8" height="1"/><rect x="54" y="50" width="1" height="1"/><rect x="1" y="51" width="2" height="1"/><rect x="9" y="51" width="4" height="1"/><rect x="54" y="51" width="1" height="1"/><rect x="56" y="51" width="1" height="1"/><rect x="59" y="51" width="1" height="1"/><rect x="1" y="52" width="6" height="1"/><rect x="52" y="52" width="1" height="1"/><rect x="54" y="52" width="1" height="1"/><rect x="56" y="52" width="1" height="1"/><rect x="1" y="53" width="3" height="1"/><rect x="5" y="53" width="1" height="1"/><rect x="51" y="53" width="3" height="1"/><rect x="56" y="53" width="1" height="1"/><rect x="59" y="53" width="1" height="1"/><rect x="1" y="54" width="1" height="1"/><rect x="4" y="54" width="1" height="1"/><rect x="52" y="54" width="1" height="1"/><rect x="1" y="55" width="2" height="1"/><rect x="5" y="55" width="1" height="1"/><rect x="16" y="55" width="2" height="1"/><rect x="54" y="55" width="1" height="1"/><rect x="56" y="55" width="1" height="1"/><rect x="58" y="55" width="1" height="1"/><rect x="1" y="56" width="3" height="1"/><rect x="6" y="56" width="3" height="1"/><rect x="15" y="56" width="5" height="1"/><rect x="31" y="56" width="2" height="1"/><rect x="54" y="56" width="1" height="1"/><rect x="1" y="57" width="1" height="1"/><rect x="5" y="57" width="10" height="1"/><rect x="19" y="57" width="2" height="1"/><rect x="31" y="57" width="2" height="1"/><rect x="50" y="57" width="2" height="1"/><rect x="54" y="57" width="1" height="1"/><rect x="59" y="57" width="1" height="1"/><rect x="1" y="58" width="3" height="1"/><rect x="5" y="58" width="11" height="1"/><rect x="20" y="58" width="1" height="1"/><rect x="1" y="59" width="8" height="1"/><rect x="15" y="59" width="5" height="1"/><rect x="56" y="59" width="1" height="1"/><rect x="1" y="60" width="1" height="1"/><rect x="4" y="60" width="2" height="1"/><rect x="16" y="60" width="2" height="1"/><rect x="54" y="60" width="1" height="1"/><rect x="58" y="60" width="1" height="1"/><rect x="1" y="61" width="4" height="1"/><rect x="50" y="61" width="2" height="1"/><rect x="53" y="61" width="2" height="1"/><rect x="60" y="61" width="1" height="1"/><rect x="1" y="62" width="3" height="1"/><rect x="54" y="62" width="1" height="1"/><rect x="60" y="62" width="1" height="1"/><rect x="1" y="63" width="40" height="1"/><rect x="56" y="63" width="1" height="1"/><rect x="58" y="63" width="1" height="1"/><rect x="60" y="63" width="1" height="1"/></g>
</svg>
