<svg xmlns="http://www.w3.org/2000/svg" viewBox="0 0 64 128" width="64" height="128" shape-rendering="crispEdges">
  <rect width="64" height="128" fill="#020406"/>
  <g fill="#fff"><rect x="7" y="0" width="3" height="1"/><rect x="13" y="0" width="3" height="1"/><rect x="19" y="0" width="3" height="1"/><rect x="25" y="0" width="3" height="1"/><rect x="31" y="0" width="3" height="1"/><rect x="37" y="0" width="3" height="1"/><rect x="6" y="1" width="1" height="1"/><rect x="10" y="1" width="1" height="1"/><rect x="12" y="1" width="1" height="1"/><rect x="16" y="1" width="1" height="1"/><rect x="18" y="1" width="1" height="1"/><rect x="22" y="1" width="1" height="1"/><rect x="24" y="1" width="1" height="1"/><rect x="28" y="1" width="1" height="1"/><rect x="30" y="1" width="1" height="1"/><rect x="34" y="1" width="1" height="1"/><rect x="36" y="1" width="1" height="1"/><rect x="40" y="1" width="1" height="1"/><rect x="6" y="2" width="1" height="1"/><rect x="9" y="2" width="2" height="1"/><rect x="12" y="2" width="1" height="1"/><rect x="15" y="2" width="2" height="1"/><rect x="18" y="2" width="1" height="1"/><rect x="21" y="2" width="2" height="1"/><rect x="24" y="2" width="1" height="1"/><rect x="27" y="2" width="2" height="1"/><rect x="30" y="2" width="1" height="1"/><rect x="33" y="2" width="2" height="1"/><rect x="36" y="2" width="1" height="1"/><rect x="39" y="2" width="2" height="1"/><rect x="6" y="3" width="1" height="1"/><rect x="8" y="3" width="1" height="1"/><rect x="10" y="3" width="1" height="1"/><rect x="12" y="3" width="1" height="1"/><rect x="14" y="3" width="1" height="1"/><rect x="16" y="3" width="1" height="1"/><rect x="18" y="3" width="1" height="1"/><rect x="20" y="3" width="1" height="1"/><rect x="22" y="3" width="1" height="1"/><rect x="24" y="3" width="1" height="1"/><rect x="26" y="3" width="1" height="1"/><rect x="28" y="3" width="1" height="1"/><rect x="30" y="3" width="1" height="1"/><rect x="32" y="3" width="1" height="1"/><rect x="34" y="3" width="1" height="1"/><rect x="36" y="3" width="1" height="1"/><rect x="38" y="3" width="1" height="1"/><rect x="40" y="3" width="1" height="1"/><rect x="6" y="4" width="2" height="1"/><rect x="10" y="4" width="1" height="1"/><rect x="12" y="4" width="2" height="1"/><rect x="16" y="4" width="1" height="1"/><rect x="18" y="4" width="2" height="1"/><rect x="22" y="4" width="1" height="1"/><rect x="24" y="4" width="2" height="1"/><rect x="28" y="4" width="1" height="1"/><rect x="30" y="4" width="2" height="1"/><rect x="34" y="4" width="1" height="1"/><rect x="36" y="4" width="2" height="1"/><rect x="40" y="4" width="1" height="1"/><rect x="6" y="5" width="1" height="1"/><rect x="10" y="5" width="1" height="1"/><rect x="12" y="5" width="1" height="1"/><rect x="16" y="5" width="1" height="1"/><rect x="18" y="5" width="1" height="1"/><rect x="22" y="5" width="1" height="1"/><rect x="24" y="5" width="1" height="1"/><rect x="28" y="5" width="1" height="1"/><rect x="30" y="5" width="1" height="1"/><rect x="34" y="5" width="1" height="1"/><rect x="36" y="5" width="1" height="1"/><rect x="40" y="5" width="1" height="1"/><rect x="0" y="6" width="53" height="1"/><rect x="0" y="7" width="1" height="1"/><rect x="52" y="7" width="1" height="1"/><rect x="0" y="8" width="1" height="1"/><rect x="52" y="8" width="1" height="1"/><rect x="0" y="9" width="1" height="1"/><rect x="52" y="9" width="1" height="1"/><rect x="0" y="10" width="1" height="1"/><rect x="52" y="10" width="1" height="1"/><rect x="55" y="10" width="1" height="1"/><rect x="59" y="10" width="1" height="1"/><rect x="0" y="11" width="1" height="1"/><rect x="52" y="11" width="1" height="1"/><rect x="55" y="11" width="2" height="1"/><rect x="59" y="11" width="1" height="1"/><rect x="0" y="12" width="1" height="1"/><rect x="52" y="12" width="1" height="1"/><rect x="55" y="12" width="1" height="1"/><rect x="57" y="12" width="1" height="1"/><rect x="59" y="12" width="1" height="1"/><rect x="0" y="13" width="1" height="1"/><rect x="52" y="13" width="1" height="1"/><rect x="55" y="13" width="1" height="1"/><rect x="58" y="13" width="2" height="1"/><rect x="0" y="14" width="1" height="1"/><rect x="52" y="14" width="1" height="1"/><rect x="55" y="14" width="1" height="1"/><rect x="59" y="14" width="1" height="1"/><rect x="0" y="15" width="1" height="1"/><rect x="52" y="15" width="1" height="1"/><rect x="55" y="15" width="1" height="1"/><rect x="59" y="15" width="1" height="1"/><rect x="0" y="16" width="1" height="1"/><rect x="52" y="16" width="1" height="1"/><rect x="55" y="16" width="1" height="1"/><rect x="59" y="16" width="1" height="1"/><rect x="0" y="17" width="1" height="1"/><rect x="52" y="17" width="1" height="1"/><rect x="0" y="18" width="1" height="1"/><rect x="52" y="18" width="1" height="1"/><rect x="0" y="19" width="1" height="1"/><rect x="52" y="19" width="1" height="1"/><rect x="0" y="20" width="1" height="1"/><rect x="52" y="20" width="1" height="1"/><rect x="0" y="21" width="1" height="1"/><rect x="52" y="21" width="1" height="1"/><rect x="0" y="22" width="1" height="1"/><rect x="52" y="22" width="1" height="1"/><rect x="56" y="22" width="4" height="1"/><rect x="0" y="23" width="1" height="1"/><rect x="52" y="23" width="1" height="1"/><rect x="56" y="23" width="4" height="1"/><rect x="0" y="24" width="1" height="1"/><rect x="52" y="24" width="1" height="1"/><rect x="56" y="24" width="4" height="1"/><rect x="0" y="25" width="1" height="1"/><rect x="52" y="25" width="1" height="1"/><rect x="56" y="25" width="4" height="1"/><rect x="0" y="26" width="1" height="1"/><rect x="52" y="26" width="1" height="1"/><rect x="0" y="27" width="1" height="1"/><rect x="52" y="27" width="1" height="1"/><rect x="56" y="27" width="4" height="1"/><rect x="0" y="28" width="1" height="1"/><rect x="52" y="28" width="1" height="1"/><rect x="56" y="28" width="4" height="1"/><rect x="0" y="29" width="1" height="1"/><rect x="52" y="29" width="1" height="1"/><rect x="56" y="29" width="4" height="1"/><rect x="0" y="30" width="1" height="1"/><rect x="52" y="30" width="1" height="1"/><rect x="56" y="30" width="4" height="1"/><rect x="0" y="31" width="1" height="1"/><rect x="52" y="31" width="1" height="1"/><rect x="0" y="32" width="1" height="1"/><rect x="52" y="32" width="1" height="1"/><rect x="56" y="32" width="4" height="1"/><rect x="0" y="33" width="1" height="1"/><rect x="52" y="33" width="1" height="1"/><rect x="56" y="33" width="4" height="1"/><rect x="0" y="34" width="1" height="1"/><rect x="52" y="34" width="1" height="1"/><rect x="56" y="34" width="4" height="1"/><rect x="0" y="35" width="1" height="1"/><rect x="52" y="35" width="1" height="1"/><rect x="56" y="35" width="4" height="1"/><rect x="0" y="36" width="1" height="1"/><rect x="52" y="36" width="1" height="1"/><rect x="0" y="37" width="1" height="1"/><rect x="52" y="37" width="1" height="1"/><rect x="56" y="37" width="4" height="1"/><rect x="0" y="38" width="1" height="1"/><rect x="52" y="38" width="1" height="1"/><rect x="56" y="38" width="4" height="1"/><rect x="0" y="39" width="1" height="1"/><rect x="52" y="39" width="1" height="1"/><rect x="56" y="39" width="4" height="1"/><rect x="0" y="40" width="1" height="1"/><rect x="52" y="40" width="1" height="1"/><rect x="56" y="40" width="4" height="1"/><rect x="0" y="41" width="1" height="1"/><rect x="52" y="41" width="1" height="1"/><rect x="0" y="42" width="1" height="1"/><rect x="52" y="42" width="1" height="1"/><rect x="0" y="43" width="1" height="1"/><rect x="52" y="43" width="1" height="1"/><rect x="0" y="44" width="1" height="1"/><rect x="52" y="44" width="1" height="1"/><rect x="0" y="45" width="1" height="1"/><rect x="52" y="45" width="1" height="1"/><rect x="0" y="46" width="1" height="1"/><rect x="52" y="46" width="1" height="1"/><rect x="0" y="47" width="1" height="1"/><rect x="52" y="47" width="1" height="1"/><rect x="0" y="48" width="1" height="1"/><rect x="52" y="48" width="1" height="1"/><rect x="0" y="49" width="1" height="1"/><rect x="52" y="49" width="1" height="1"/><rect x="0" y="50" width="1" height="1"/><rect x="52" y="50" width="1" height="1"/><rect x="0" y="51" width="1" height="1"/><rect x="52" y="51" width="1" height="1"/><rect x="0" y="52" width="1" height="1"/><rect x="52" y="52" width="1" height="1"/><rect x="0" y="53" width="1" height="1"/><rect x="52" y="53" width="1" height="1"/><rect x="0" y="54" width="1" height="1"/><rect x="52" y="54" width="1" height="1"/><rect x="55" y="54" width="1" height="1"/><rect x="0" y="55" width="1" height="1"/><rect x="52" y="55" width="1" height="1"/><rect x="55" y="55" width="1" height="1"/><rect x="0" y="56" width="1" height="1"/><rect x="17" y="56" width="4" height="1"/><rect x="22" y="56" width="4" height="1"/><rect x="27" y="56" width="4" height="1"/><rect x="52" y="56" width="1" height="1"/><rect x="55" y="56" width="1" height="1"/><rect x="0" y="57" width="1" height="1"/><rect x="17" y="57" width="4" height="1"/><rect x="22" y="57" width="4" height="1"/><rect x="27" y="57" width="4" height="1"/><rect x="52" y="57" width="1" height="1"/><rect x="55" y="57" width="1" height="1"/><rect x="0" y="58" width="1" height="1"/><rect x="17" y="58" width="4" height="1"/><rect x="22" y="58" width="4" height="1"/><rect x="27" y="58" width="4" height="1"/><rect x="52" y="58" width="1" height="1"/><rect x="55" y="58" width="1" height="1"/><rect x="0" y="59" width="1" height="1"/><rect x="17" y="59" width="4" height="1"/><rect x="22" y="59" width="4" height="1"/><rect x="27" y="59" width="4" height="1"/><rect x="52" y="59" width="1" height="1"/><rect x="55" y="59" width="1" height="1"/><rect x="0" y="60" width="1" height="1"/><rect x="17" y="60" width="4" height="1"/><rect x="22" y="60" width="4" height="1"/><rect x="27" y="60" width="4" height="1"/><rect x="52" y="60" width="1" height="1"/><rect x="55" y="60" width="5" height="1"/><rect x="0" y="61" width="1" height="1"/><rect x="52" y="61" width="1" height="1"/><rect x="0" y="62" width="1" height="1"/><rect x="22" y="62" width="4" height="1"/><rect x="52" y="62" width="1" height="1"/><rect x="0" y="63" width="1" height="1"/><rect x="22" y="63" width="4" height="1"/><rect x="52" y="63" width="1" height="1"/><rect x="0" y="64" width="1" height="1"/><rect x="22" y="64" width="4" height="1"/><rect x="52" y="64" width="1" height="1"/><rect x="55" y="64" width="1" height="1"/><rect x="59" y="64" width="1" height="1"/><rect x="0" y="65" width="1" height="1"/><rect x="22" y="65" width="4" height="1"/><rect x="52" y="65" width="1" height="1"/><rect x="55" y="65" width="1" height="1"/><rect x="59" y="65" width="1" height="1"/><rect x="0" y="66" width="1" height="1"/><rect x="22" y="66" width="4" height="1"/><rect x="52" y="66" width="1" height="1"/><rect x="55" y="66" width="1" height="1"/><rect x="59" y="66" width="1" height="1"/><rect x="0" y="67" width="1" height="1"/><rect x="52" y="67" width="1" height="1"/><rect x="55" y="67" width="1" height="1"/><rect x="59" y="67" width="1" height="1"/><rect x="0" y="68" width="1" height="1"/><rect x="52" y="68" width="1" height="1"/><rect x="55" y="68" width="1" height="1"/><rect x="59" y="68" width="1" height="1"/><rect x="0" y="69" width="1" height="1"/><rect x="52" y="69" width="1" height="1"/><rect x="56" y="69" width="1" height="1"/><rect x="58" y="69" width="1" height="1"/><rect x="0" y="70" width="1" height="1"/><rect x="52" y="70" width="1" height="1"/><rect x="57" y="70" width="1" height="1"/><rect x="0" y="71" width="1" height="1"/><rect x="52" y="71" width="1" height="1"/><rect x="0" y="72" width="1" height="1"/><rect x="52" y="72" width="1" height="1"/><rect x="0" y="73" width="1" height="1"/><rect x="52" y="73" width="1" height="1"/><rect x="0" y="74" width="1" height="1"/><rect x="52" y="74" width="1" height="1"/><rect x="59" y="74" width="1" height="1"/><rect x="0" y="75" width="1" height="1"/><rect x="52" y="75" width="1" height="1"/><rect x="58" y="75" width="2" height="1"/><rect x="0" y="76" width="1" height="1"/><rect x="52" y="76" width="1" height="1"/><rect x="59" y="76" width="1" height="1"/><rect x="0" y="77" width="1" height="1"/><rect x="52" y="77" width="1" height="1"/><rect x="59" y="77" width="1" height="1"/><rect x="0" y="78" width="1" height="1"/><rect x="52" y="78" width="1" height="1"/><rect x="59" y="78" width="1" height="1"/><rect x="0" y="79" width="1" height="1"/><rect x="52" y="79" width="1" height="1"/><rect x="59" y="79" width="1" height="1"/><rect x="0" y="80" width="1" height="1"/><rect x="52" y="80" width="1" height="1"/><rect x="58" y="80" width="3" height="1"/><rect x="0" y="81" width="1" height="1"/><rect x="52" y="81" width="1" height="1"/><rect x="0" y="82" width="1" height="1"/><rect x="52" y="82" width="1" height="1"/><rect x="0" y="83" width="1" height="1"/><rect x="52" y="83" width="1" height="1"/><rect x="0" y="84" width="1" height="1"/><rect x="52" y="84" width="1" height="1"/><rect x="0" y="85" width="1" height="1"/><rect x="52" y="85" width="1" height="1"/><rect x="0" y="86" width="1" height="1"/><rect x="52" y="86" width="1" height="1"/><rect x="0" y="87" width="1" height="1"/><rect x="52" y="87" width="1" height="1"/><rect x="0" y="88" width="1" height="1"/><rect x="52" y="88" width="1" height="1"/><rect x="0" y="89" width="1" height="1"/><rect x="52" y="89" width="1" height="1"/><rect x="0" y="90" width="1" height="1"/><rect x="52" y="90" width="1" height="1"/><rect x="0" y="91" width="1" height="1"/><rect x="52" y="91" width="1" height="1"/><rect x="0" y="92" width="1" height="1"/><rect x="52" y="92" width="1" height="1"/><rect x="0" y="93" width="1" height="1"/><rect x="52" y="93" width="1" height="1"/><rect x="0" y="94" width="1" height="1"/><rect x="52" y="94" width="1" height="1"/><rect x="0" y="95" width="1" height="1"/><rect x="52" y="95" width="1" height="1"/><rect x="0" y="96" width="1" height="1"/><rect x="52" y="96" width="1" height="1"/><rect x="0" y="97" width="1" height="1"/><rect x="52" y="97" width="1" height="1"/><rect x="0" y="98" width="1" height="1"/><rect x="52" y="98" width="1" height="1"/><rect x="0" y="99" width="1" height="1"/><rect x="52" y="99" width="1" height="1"/><rect x="0" y="100" width="1" height="1"/><rect x="52" y="100" width="1" height="1"/><rect x="0" y="101" width="1" height="1"/><rect x="52" y="101" width="1" height="1"/><rect x="0" y="102" width="1" height="1"/><rect x="52" y="102" width="1" height="1"/><rect x="0" y="103" width="1" height="1"/><rect x="52" y="103" width="1" height="1"/><rect x="0" y="104" width="1" height="1"/><rect x="52" y="104" width="1" height="1"/><rect x="0" y="105" width="1" height="1"/><rect x="52" y="105" width="1" height="1"/><rect x="0" y="106" width="1" height="1"/><rect x="52" y="106" width="1" height="1"/><rect x="0" y="107" width="1" height="1"/><rect x="52" y="107" width="1" height="1"/><rect x="0" y="108" width="1" height="1"/><rect x="52" y="108" width="1" height="1"/><rect x="0" y="109" width="1" height="1"/><rect x="52" y="109" width="1" height="1"/><rect x="0" y="110" width="1" height="1"/><rect x="12" y="110" width="4" height="1"/><rect x="17" y="110" width="4" height="1"/><rect x="22" y="110" width="4" height="1"/><rect x="47" y="110" width="4" height="1"/><rect x="52" y="110" width="1" height="1"/><rect x="0" y="111" width="1" height="1"/><rect x="12" y="111" width="4" height="1"/><rect x="17" y="111" width="4" height="1"/><rect x="22" y="111" width="4" height="1"/><rect x="47" y="111" width="4" height="1"/><rect x="52" y="111" width="1" height="1"/><rect x="0" y="112" width="1" height="1"/><rect x="12" y="112" width="4" height="1"/><rect x="17" y="112" width="4" height="1"/><rect x="22" y="112" width="4" height="1"/><rect x="47" y="112" width="4" height="1"/><rect x="52" y="112" width="1" height="1"/><rect x="0" y="113" width="1" height="1"/><rect x="12" y="113" width="4" height="1"/><rect x="17" y="113" width="4" height="1"/><rect x="22" y="113" width="4" height="1"/><rect x="47" y="113" width="4" height="1"/><rect x="52" y="113" width="1" height="1"/><rect x="0" y="114" width="1" height="1"/><rect x="12" y="114" width="4" height="1"/><rect x="17" y="114" width="4" height="1"/><rect x="22" y="114" width="4" height="1"/><rect x="47" y="114" width="4" height="1"/><rect x="52" y="114" width="1" height="1"/><rect x="0" y="115" width="1" height="1"/><rect x="52" y="115" width="1" height="1"/><rect x="0" y="116" width="1" height="1"/><rect x="2" y="116" width="4" height="1"/><rect x="22" y="116" width="4" height="1"/><rect x="27" y="116" width="4" height="1"/><rect x="42" y="116" width="4" height="1"/><rect x="47" y="116" width="4" height="1"/><rect x="52" y="116" width="1" height="1"/><rect x="0" y="117" width="1" height="1"/><rect x="2" y="117" width="4" height="1"/><rect x="22" y="117" width="4" height="1"/><rect x="27" y="117" width="4" height="1"/><rect x="42" y="117" width="4" height="1"/><rect x="47" y="117" width="4" height="1"/><rect x="52" y="117" width="1" height="1"/><rect x="0" y="118" width="1" height="1"/><rect x="2" y="118" width="4" height="1"/><rect x="22" y="118" width="4" height="1"/><rect x="27" y="118" width="4" height="1"/><rect x="42" y="118" width="4" height="1"/><rect x="47" y="118" width="4" height="1"/><rect x="52" y="118" width="1" height="1"/><rect x="0" y="119" width="1" height="1"/><rect x="2" y="119" width="4" height="1"/><rect x="22" y="119" width="4" height="1"/><rect x="27" y="119" width="4" height="1"/><rect x="42" y="119" width="4" height="1"/><rect x="47" y="119" width="4" height="1"/><rect x="52" y="119" width="1" height="1"/><rect x="0" y="120" width="1" height="1"/><rect x="2" y="120" width="4" height="1"/><rect x="22" y="120" width="4" height="1"/><rect x="27" y="120" width="4" height="1"/><rect x="42" y="120" width="4" height="1"/><rect x="47" y="120" width="4" height="1"/><rect x="52" y="120" width="1" height="1"/><rect x="0" y="121" width="1" height="1"/><rect x="52" y="121" width="1" height="1"/><rect x="0" y="122" width="1" height="1"/><rect x="2" y="122" width="4" height="1"/><rect x="7" y="122" width="4" height="1"/><rect x="12" y="122" width="4" height="1"/><rect x="37" y="122" width="4" height="1"/><rect x="42" y="122" width="4" height="1"/><rect x="47" y="122" width="4" height="1"/><rect x="52" y="122" width="1" height="1"/><rect x="0" y="123" width="1" height="1"/><rect x="2" y="123" width="4" height="1"/><rect x="7" y="123" width="4" height="1"/><rect x="12" y="123" width="4" height="1"/><rect x="37" y="123" width="4" height="1"/><rect x="42" y="123" width="4" height="1"/><rect x="47" y="123" width="4" height="1"/><rect x="52" y="123" width="1" height="1"/><rect x="0" y="124" width="1" height="1"/><rect x="2" y="124" width="4" height="1"/><rect x="7" y="124" width="4" height="1"/><rect x="12" y="124" width="4" height="1"/><rect x="37" y="124" width="4" height="1"/><rect x="42" y="124" width="4" height="1"/><rect x="47" y="124" width="4" height="1"/><rect x="52" y="124" width="1" height="1"/><rect x="0" y="125" width="1" height="1"/><rect x="2" y="125" width="4" height="1"/><rect x="7" y="125" width="4" height="1"/><rect x="12" y="125" width="4" height="1"/><rect x="37" y="125" width="4" height="1"/><rect x="42" y="125" width="4" height="1"/><rect x="47" y="125" width="4" height="1"/><rect x="52" y="125" width="1" height="1"/><rect x="0" y="126" width="53" height="1"/><rect x="0" y="127" width="53" height="1"/></g>
</svg>
